<?xml version="1.0" encoding="UTF-8"?>
<svg id="_Слой_1" xmlns="http://www.w3.org/2000/svg" version="1.1" viewBox="0 0 283.46 155.91">
  <defs>
    <linearGradient id="gradient" x1="0%" y1="0%" x2="100%" y2="100%">
      <stop offset="0%" style="stop-color:#00FFA9;stop-opacity:1" />
      <stop offset="100%" style="stop-color:#00D4FF;stop-opacity:1" />
    </linearGradient>
  </defs>
  <path fill="url(#gradient)" d="M211.07,22.38v21.09h-28.52c-15.22,0-29.31,8.04-37.05,21.15l-3.8,6.43-3.8-6.43c-7.74-13.11-21.83-21.15-37.05-21.15h-28.51v-21.09s-28.23-3.98-28.23-3.98v25.08h-16.49v22.35h16.49v41.81c0,4.07.24,7.04.72,10.04,1.87,11.55,11.6,19.83,23.03,19.83h32.51c16.13,0,31-8.7,38.9-22.76l2.45-4.37,2.45,4.37c7.9,14.06,22.77,22.76,38.9,22.76h32.51c11.43,0,21.16-8.28,23.03-19.83.48-3,.72-5.97.72-10.04V18.39l-28.22,3.98h-.04ZM101.94,122.49l-2.88-7.88h0c-12.99,0-26.78-.03-26.78-.03l.04-48.76h29.13l2.88-8.22h0l20.43,30.8s-22.82,34.09-22.82,34.09ZM184.32,114.61h0l-2.88,7.88-22.82-34.09,20.43-30.8h0l2.88,8.22h29.13l.04,48.76s-13.79.02-26.78.03h0Z"/>
  <polygon fill="url(#gradient)" points="244.82 56.43 246.88 56.43 246.88 59.94 255.87 59.94 255.87 62.29 246.88 62.29 246.88 65.82 244.82 65.82 244.82 56.43"/>
  <path fill="url(#gradient)" d="M244.82,43.47h11.05v2.35h-6.87c.42.15.97.4,1.65.75l3.86,1.92v1.87l-3.86,1.95c-.69.35-1.24.6-1.65.75h6.87v2.36h-11.05v-2.49l4.84-2.52c.38-.19.76-.38,1.15-.55s.74-.31,1.03-.41c-.52-.16-1.25-.48-2.18-.97l-4.84-2.57v-2.45h0Z"/>
</svg>
