<?xml version="1.0" encoding="UTF-8"?>
<svg id="_Слой_1" data-name="Слой_1" xmlns="http://www.w3.org/2000/svg" version="1.1" viewBox="0 0 2816 1536">
  <!-- Generator: Adobe Illustrator 30.0.0, SVG Export Plug-In . SVG Version: 2.1.1 Build 123)  -->
  <defs>
    <style>
      .st0 {
        fill: #fff;
      }
    </style>
  </defs>
  <g>
    <path class="st0" d="M824,654c176.87,76.09,263.83,130.22,473.99,79.98-10.04,29.08-149.66,62.31-158.25,52.86,46.32-12.68,121.28-19.59,142.25-46.82-161.8,46.94-316.01-3.42-457.99-86.02Z"/>
    <path class="st0" d="M2032,666c90.31,18.01,219.36,51.06,270,118-69.21-71.26-185.59-88.2-270-118Z"/>
    <path class="st0" d="M852,1030c1.82,7.22,9.9,13.65,7.98,20-7.37-7.23-5.87-.2-11.43,1.61-26.79,6.1-15.73-33.89,3.45-21.61Z"/>
    <path class="st0" d="M626,498c-12.71-23.93-49.64-25.23-71.67-29.73-4.36,14.64-8.45-1.29-21.34-4.29-5.82-.88-.93,8.23-4.81,13.2-12.95,12.58-12.9-11.89-12.28-17.09-1.87-1.93-39.54-2.65-33.7-20.76,58.96-24.94,158.78,3.72,220.89,16.54,29.12-43.59,105.81-12.09,152.16-8.12,168.5-2.17,313.63,90.91,483.83,74.32,46.08.06,83.07-7.96,116.96,30.88,20.44,25.16,75.57,108.07,33.01,131.1-11.17,26.96.04,20.13,2.96,42.9-29.36,87.34,1.17,184.86,7.87,275.73,231.9,83.48,180.38-120.97,237.7-280.27,2.26-6.99-3.87-11.3-5.12-17.86.59-8.2-.81-56.71,15.34-46.35,5.31,19.75,10.04-40.15,12.17-51.22-1.42-163.2-234.01-318.59-5.02-429.02,13.33-16.19,26-30.65,47.01-16.92,70.98,17.83,150.26,95.74,132.76,162.53-2.58,9.85-10.3,17.44-20.1,20.23-6.88,1.96-11.03,7.13-21.4,4.44-11.82,4.59-52.35,1.51-47.22,17.76,52.93-27.95,97.67,33.11,127.72,58.25,54.7,45.77,176.11,185.33,52.27,221.74,9.92-1.19,19.29-6.72,29.21-7.76,43.31-19.94,361.94,141.77,259.81,155.77-61.05,3.46-257.38-57.85-274.1,3.53,363.51-131.79,538.91,424.22,169.07,532.47-14.16-.77,245.98-5.39,175.09,8.09,9.95-16.82-2545.42,28.95-1711.61-18.57-248.65-90.51-219.62-478.83,44.55-523.53,1.81-1.47-20.12-19.81-4.11-25.08,28.77-6.34,92.29,2.02,119.76,6.84,1.4-.87,1.93-8.47,10.33-5.76-5.96-5.96-13.36-9.84-.14-14.25-4.34-6.54,3.84-20.6,5.26-25.75-13.88-8.3-50.92-27.13-68.06-32.02-31.72.44-95.59.68-119.84,26.02,1.99,6.84-1.8,2.65-7.13,5.07-58.84,50.05-118.69,159.56-151.07,202.95-17.54,13.91-109.31,139.07-97.47,80.56,13.47-28.63,45.82-62.76,54.33-95.7-8.93-10.71-28.23,33.69-21.86-26.85,11.5,33.76,56.66-151.45,91.96-124.01-28.17-66.11,56.93-36.38-56.8-61.78-12.24-47.06,100.51-42.11,128.72-61.31,43.55-16.14,12.6-20.97-2.91-34.91-18.35-22.52-55.39-65.72-58.03-95.93,4.28-9.45,18.95-6.17,25.59-8.05,2.3-13.61,50.91-6.32,59.43-8.02ZM1805.99,170.03c-35.61-16.84-26.52,5.72-43.99,29.96,28,8.05,72.72,12.44,77.98,48.02-8.9-20.48-50.33-35.14-30-2.98-8.01,5.84-9.78-13.81-14.44-16.55-3.65-2.14-33.5-5.06-33.51-13.47,15.74-16,30.17,15.91,47.95,8.98-6.69-10.76-39.18-17.72-49.1-20.09-43.34,12.37,61.68,41.23,69.06,67.16,5.6,6.41,54.94,20.91,60.07,35.93-60.75-22.52-36.29-22.86-82,13.05,3.27,6.87,26.04-4.83,25.97,7.94,0,0-31.98,14.01-31.98,14.01,18.19-1.02,55.83,1.75,55.83,1.75,0,0,21.89.3,19.32.35-2.71.05,10.3-3.98,14.82-2.09,0,0,9.51,3.71-1.82-23.12,19.81-33.98-50.08-74.64-61.27-100.75-4.33-10.11-1.51-38.79,9.1-34.09-6.49-2.88-23.99-9.43-32.01-14ZM1859.98,196.03c-14.82-6.95-18.06-13.37-25.56,5.39-5.39,22.86,20.26,32.37,32.87,45.3s33.09,46.94,32.87,64.29c-.06,4.85-6.33,18.47,1.84,16.98-5.67-9.29,5.39-5.53,5.91-9.05,3.43-49.93-86.04-99.81-47.93-122.91ZM1746,196.02c-13.04,3.56-26.37,14.39-36,23.96,12.19-6.5,27.98-12.39,36-23.96ZM1930,327c5.11-45.73-17.44-91.35-50.02-115.98-14.91,2.15-13.95-15.86-23.98-1.04,34.18,3.68,29.66,32.18,39,58.03,15.38,15.08,9.86,61.66,35,59ZM1858.01,216.01c-2.18,2.11,4.88,12.17,6.99,13.95,16.35-8.88-3.55-17.27-6.99-13.95ZM1737.99,224.01c-2.91-2.99-24.58,11.45-19.98,15.98,6.74.21,13.75-1.25,19.97,2.01v-17.99ZM1780.01,311.98c25.13,14.15,38.42-.23,51.65-23.49-9.64-34.39-54.93-56.3-87.65-64.48,0,0,.08,21.91.08,21.91,24.91,1.55,46.52,19.31,69.82,24.22,11.06,24.95-7.73,41.93-33.9,41.84ZM1680,261.98c9.15-.03,16.67-3.83,15.98-13.98l-15.98,13.98ZM1726,287.98c29.93-8.41-13.33-47.47-4.01-20-6.29,1.99-11.22-6.01-15.98-2.99,13.44,11.5-13.65-.55-16,1.03,1.88,3.68,4.46,2.76,7.04,7.93,4.98,37.79,8.7,3.98,26.71,2.42.58,8.22,10.07-4.98,2.24,11.61ZM1671.42,276.27c-10.92,3.12-5.74,23.24,7.18,19.37,10.19-3.05,6.45-23.26-7.18-19.37ZM1789.99,280.02c-6.58-1.44-11.47-2.74-17.98,0,2.66,6.28-2.18,28.42-1.98,41.98,8.48-2.83,1.13-14.82,2.33-17.59,6.91-12.5,22.02.16,28.19-13,6.02-15.46-23.17-2.52-10.56-11.39ZM1714.34,317.66c.94,1.09,11.04,1.85,13.64,4.34,1.23-11.18-25.75-30.53-13.64-4.34ZM1729.95,329.06c-10.41-8.63-37.38-2.06-31.97-29.06-19.49,21.16-40.42-10.9-39.55,14.53,3.53,5.87,43.77,120.93,53.27,106.88-8.58-28.89-28.68-62.29-35.2-90.9-5.2-48.99,27.89,70.79,39.53,91.48,0,0,55.98-26.02,55.98-26.02-2.93-6.27-3.4-6.55,4-5.96,4.79,12.45-.72-9.43-.04-10-11.12,19.83-14.24.51-21.96,4-3.79-5.58,12.66-15.07,17.96-10.01-1.81-3.51-39.05-23.41-42.04-44.94ZM1764.01,309.99l-10,.02,2.01,11.98s6.81-6.44,7.99-12ZM1819.99,328.02c-13.84-.99-26.72.14-35.98,11.96,9.18-.19,27.79-7.92,35.98-11.96ZM1786.37,386.68c136.22-35.95-30.29-51.09-.88-40.2,5.69,5.88.66,25.65-9.49,21.53,1.12.14,8.89,32.27,10.37,18.66ZM1868,373.98c-5.36-15.19-37.79,7.77-45.99,10,18.56,3.97,29.46-3.57,45.99-10ZM1907.77,382.22c-23.46-15.66-42.78-2.38-61.75,5.76,72.5,16.85,113.16,84.9,185.99,112-31.04-30.64-52.45-56.36-88.31-88.58-8.39-7.54-18.98-17.86-35.93-29.18ZM1801.58,398.32c-21.04-13.63-2.82,28.74,18.42,17.66-.88-5.76-7.42-1.32-7.99-1.99-.3-.34,3.85-6.19-1.02-7.98-5.96,12.59-11.63-5.42-9.41-7.69ZM1841.25,410.77c-3.98-3.52-23.18-20.26-27.24-16.76,1.83,14.67,54.36,40.69,27.24,16.76ZM1788,790c-4.9-53.72,25.37-107.67,43.89-157.1-12.47-4.05-11.28-25.3,9.96-19.07,36.02-56.56,11.26-121.09-34.76-163.93-6.03-5.84-20.21-17.58-18.64-1.5,1.09,21.13,42.35,234.07,14.06,130.09-.05-71.61-58.97-227.32,41.14-89.14,70.1,125.5-112.87,225.91-35.6,448.64-.03,0,3.93-15.98,3.93-15.98-4.32,29.56,4.8,57.64,6.1,86.91,5.06,141.7-216.92,37.53-302.82,46.85-68.97-11.77-179.09-10.16-223.25-67.76,19.9,13.4,64.55,49.23,82,34.05-.32-3.59-28.5,1.53-20-6.04-9.88-3.09-50.2-16.2-43.03-27.98,38.46,34.32,94.73,36.59,143.98,41.99-17.69-34.42,1.21-34.84-30.96-38.02-2.11,2.19,12.7,28.31,9,33.98-9.86-33.82-31.32-45.41-67.01-40.01,12.49-4.32,9.64-3.99-.81-6.16-2.26.31.18,5.07-3.18,4.16l-1.3-6.12c-23.31-4.16-49.3-19.13-69.76-27.89-.45-.08-2.57,7.44-6.95,4-.39-.31,3.87-10.4-1.01-9.95-17.05,14.84-5.42,18.35-33.32,26.64-25.54,103.23,439.5,97.99,528.79,122.82,26.59-4.42,48.85-26.03,53.05-52.98-120.42-507.38,181.7-386.75-46.5-638.51-24.01,78.95,31.34,130.65,4.04,220.06-22.52,54.06-10.97,113.27-1.06,167.93ZM1771.52,417.53c12.52-20.73-48.22,17.51-56.28,20.7-11.15.1,29.72,71.51,28.69,74.45,0,0,8.06,1.31,8.06,1.31.87-3.41-3.4-.93-3.64-2.9,5.03-9.29-36.44-79.91-23.38-73.06,28.25,44.67,28.45,99.88,42.99,151,1.55,25.17-11.47,49.32,5.04,73,15.79-51.31,26.14-103.06,12.98-158.01-21.51,40.11-45.69-40.21-48.14-57,.02-26.51,25.2-21.09,33.68-29.48ZM1956.67,469.34c-16.31-10.82-45.56-52.29-57.87-45.34-9.11,8.89-5.07,8.74-4.79,11.98,8.96-1.56,13.32,13.8,16.45,15.55,20.49,2.18,36.28,21.13,53.52,31.38,16.74-2.22-4.79-11.19-7.31-13.56ZM1778,491.98c-19.16-19.82,2.2-46.4-6.98-69.96-49.59,8.75-19.97,51.91-8.99,81.96,5.07-5.76,2.98-13.84,15.97-12.01ZM1832.61,431.41c-64.89-46.95,67.67,88.44,51.45,117.49-62.93,156.31-109.16,230.6-55.03,407.13-87.62-315.12,196.96-349.63,3.58-524.61ZM1904,455.98c2.07-3.29-62.16-34.19-70-31.96,25.82,31.14,78.16,82.04,78.15,124.98-103.53,217.9-116.16,255.09-60.11,505-9.03-414.42,348.78-441.29,51.96-598.01ZM910,545.98c-117.53-86.43-277.21-97.78-417.99-105.97,106.62,31.9,233.34,22.41,332.91,88.08,25.21,9.46,58.34,17.91,85.09,17.89ZM1005.99,468.02s-271.99-28-271.99-28c77.15,57.28,193.81,29.26,253.46,121.52,48.17,10,95.92,23.82,142.45,39.55,49.35,1.15-134.41-77.25-121.91-129.09-11.01,2.18-11.46,3-2.01-3.98ZM763.99,468.03c-10.17,2.91-35-21.49-37.26-21.88-3.57-.62-11.42,10.61-14.72,12.87,15.86,1.1,38.92,14.62,51.98,9.02ZM905.99,550.02c-75.24.17-132.97-52.98-205.58-67.44,0,0-194.41-32.56-194.41-32.56,14.61,8.1,17.96-2.89,16.01,19.97,4.6-.8.63-12.69,1.99-14,6.47,2.34,124.02,8.1,116.02,33.99.81-26.31,33.45-5.5,50.41-3.41,26.44,7.8,62.5,19.24,78.14,42.84,20.84,6.71,113.46,29.45,137.42,20.61ZM1313.99,530.02c-102.18.48-202.73-15.34-295.98-58.02,0,0,3,15.99,3,15.99,6.27,6.58-2.54-13.48,4.97-5.99,46.19,75.69,211.37,52.82,288.02,48.02ZM677.99,490.02c-54.63-12.99-12.78.55-41.98,8.97,9.43,5.52,22.79,1.8,33.99,2.99-5.92-8.76,4.78-5.57,7.99-11.96ZM948.7,537.3c-33.55-32.64-83.63-43.62-128.69-51.28,33.31,13.55,74.39,41.2,103.64,59.33,22.42,5.76,62.65,19.21,25.05-8.05ZM1777.99,508.01c.5-.49.52-12.1-.98-13.99-16.58,5.33-4.69,19.59.98,13.99ZM1141.9,582.04c6.84,23.53,27.72,38.17,50.82,44.24,49.76,20.35,93.65,59.94,134.69,91.3,47.97-2.12,99.81-23.63,147.2-33.96,15.83-44.69-31.41-87.88-43.5-128.61-1.53-37.17-53.41-22.26-78.13-21.02-107.16,5.51-227.68,27.13-322.97-33.97,22.35,33.87,78.02,64.51,111.89,82.03ZM2010.2,502.78c-3.24-1.91-2.61-4.38-6.16.22,33.76,24.94,55.55,68.37,53.97,109,27.17-6.38,8.71-69.88-12.99-85.85-5.01-3.68-29.25-18.69-34.82-23.37ZM759.99,528.03c-19.07-4.9-39.45-8.03-55.91-19.1-36.55-2.38-73.27-.47-110.06-2.91,0,0,27.16,11.82,27.16,11.82,45.62-2.86,96.65,14.76,138.81,10.2ZM605.99,526.02c-18.32-8.21-31.31-13.09-51.98-10,8.17,4.01,25.42,14.96,34.9,9.89,4.32.24,14.54,5.26,17.08.11ZM578.01,532.06c-1.21-1.67-25.94-9.39-29.02-14.05-1,6.07,4.85,20.71,13.01,16-11.72,7.09,29.27,52.8,35.98,61.99-2.45-6.14,4.88-14.28,3.77-18.58-2.67-6.16-33.26-33.43-23.74-45.36ZM766.01,546c.06-4.99,1.46-11.38-5-12.01,3.81,4.01-169.33-21.55-139.24-6.79,1.7,2.52,3.84,10.75,5.47,10.96,12.8-2.72,78.32,6.44,38.78-.17,7.06-13.38,93.54,14.81,100,8.02ZM634,555.98c-4.74-18.99-58.87-30.41-25.45-13.53,3.65,2,9.53.58,12.48,3.52,5.41,5.38-7.57,4.08-7.03,8.02l19.99,2ZM609.94,553.93c3.11-4.35-23.71-20.41-29.93-17.92-3.58,3.6,17.09,29.88,21,33.98,8.93-4.72-.21-15.99,8.93-16.07ZM817.99,548.02c-1.97,2.86-62.87-21.34-40.69-2.33,12.7-3.06,31.29,9.43,40.69,2.33ZM824,654c5.54,14.25,22.66,21.36,35.37,25.6,2.48.18,6.93-4.81,12.63-1.6-26.35,8.39,154.71,71.2,154.03,76.98,13.53,9.62,71.86,8.87,65.98,14.99,24.37-4.3,38.33,39.77,55.97,32.01,59.25,81.14,163.06,163.04,266,176.01-2.54.4-11.63-82.23-15.58-49.48,21.89,70.52-3.62,13.33-10.42-24.49-3.9-.94.08,4.41-3.96,3.97-46.22-245.55-261.93-310.37-497-348.01-25.06-3.67-53.14-14.77-76-3.8-32.97.99-69.84-13.81-103.01-8.2,173.36,30.69,390.31,62.4,514.97,182.05-163.99-130.6-389.54-156.18-589.95-190.06,45.85,52.54,137.14,65.03,190.97,114.03ZM2049.98,577.99c-.86-12.32-7.83-24.84-15.96-33.99l15.96,33.99ZM1488.02,676c29.16-38.31-21.27-99.06-47.99-128,13.03,44.11,47.77,79.51,47.99,128ZM1286.76,695.22c-106.8-84.65-233.56-113.99-364.04-143.13,182.67,40.6,475.04,137.6,493.89,402.31,3.11,17.8,2.66,40,25.4,33.58-15.24-89.34-51.97-171.53-86-251.97,45.16,73.22,76.57,179.22,90,253.98,1.58,1.36,34.03-.79,38.66-2.32,15.31-64.69-21.84-144.22-13.69-209.69,27.06-76.64,2.8-33.41,3-77.97-6.36,20.74-30.43,71.75-34.15,92.99,10.18,43.65,30.79,103.69,37.87,150.29,1.87,7.17,8.03,13.71,5.31,20.7-19.82-52.36-31.33-118.44-48.39-171.26,5.12-31.87,29.29-60.11,33.36-92.73-11.24,6.44-176.49,49.23-135.62,31.6,32.1-6.06,110.39-20.06,135.63-39.59-60.34,10.11-133.6,63.25-181.23,3.21ZM663.98,594c-6.69-7.66-22.47-36.41-35.97-31.98,6.42,6.11,28.31,28.24,35.97,31.98ZM636.3,583.64c.58-6.78-16.84-20.62-22.29-19.63,2.38,10.2-4.62,26.23.38,34.62,2.07,3.47,37.99,22.95,39.6,21.37-20.82-25.91-.47-35.93-17.69-36.35ZM809.99,650.02c-50.24-31.15-111.86-39.19-155.96-80.02,16.69,37.37,70.43,66.09,109.98,62.02-10.88,4.94,46.52,24.66,45.99,18.01ZM2038.9,626.88c15.44-13.1-.16-41.87-6.88-56.87-2.2,80.09-104.04,131.04-121.99,209.98,29.13-59.32,71.99-119.04,128.87-153.12ZM2046,627.98c16.67-6.48,4.06-37.39-1-50,1.59,16.57,10.96,34.05,1,50ZM730,607.98c-14.37-11.03-33.21-18.72-50-25.96,11.57,14.67,33.27,19.32,50,25.96ZM677.9,625.86c3.03-4.13-8.58-17.18-9.88-15.86-3.12,8.12-2.25,22.3,9.88,15.86ZM723.27,628.85c-12.14-4-24.49-7.84-36.29-12.84,18.89,18.2,56.85,21.07,83,29.97-5.05-3.46-44.49-14.43-46.72-17.13ZM789.99,658.02c-6.55.43-107.58-40.39-109.97-29,30.39,10.75,75.21,25.54,109.97,29ZM678,645.98c-4.87-6.44-26-11.82-32.51-14.71-5.99,1.16-9.71,2.33-15.35.8-.7.5-3.67,11.98-10.12,12.94,7.48,5.36,10.96-10.31,14.96-8.99,6.97,2.3-2.72,10.71-5.56,12.39-30.65,18.06-79.84,16.07-113.37,26.63,31.04,13.13,118.95-7.1,161.96-29.06ZM821.99,690.03c-35.93-21.68-94.34-40.67-135.28-43.94-22.66,13.68-61.79,25.04-87.19,30.42-25.04,6.78-51.03,107.93-81.5,105.52,1.81,4.1,9.73,6.08,13.92,7.08,1.63.39,16.55-1.61,7.57,6.44-9.82,8.79-30.31-20.46-31.21,11.01l15.73,18.47c-1.6.31,54.01-86.44,38.33-71.68-7.81,9.27-13.52,21.56-20.33,31.68-8.31-5.33,17.92-34.73,21.96-42.05,12.61-14.34,46.63-9.26,62.49-15.51,53.93-41.41,134.31-28.89,195.53-37.43ZM811.99,658.02c.32.47-58.66-19.2-33.54-7.47,8.73,1.81,26.9,13.72,33.54,7.47ZM2032,666c-95.95,10.81-17.47,62.17.03,114.02,86.94-34.13,185.54-4.96,274.8,6.07,70.65-17.83-228.03-189.03-274.83-120.08ZM2050,648.02c-18.19,5.77-43.12,3.97-54,21.96,6.29-1.41,20.89-.88,18.01-9.98,10.79,4.2,27.65-3.44,35.99-11.98ZM1687.98,1006c2.91-25.89,92.72-323.73,76.01-342-25.94,87.62-56.33,190.34-67.96,280-2.29-31.89-4.55,3.63-9.1,16-5.73,15.23-2.39,27.3-6.94,43.98.31.27,6.06.21,8,2.02ZM1023.99,760.02c-76.85-24.4-145.56-79.35-225.98-90.01,0,0,185.99,95.13,185.99,95.13,9.96-.19,30.5-2.13,39.99-5.13ZM589.99,678.01c-20.54,7-89.68-10.14-75.78,29.79,2.24,2.64,30.74,2.31,32.95,12.08,2.33,10.27-8.45,8.48-9.22,11.5-1.99,7.84-1.62,20.32-1.92,28.62l53.97-81.99ZM507.98,706s0-22,0-22c-11.52,6.75-32.13.04-25.99,18,.94.91,22.16.56,25.99,3.99ZM1979.98,690c-10.3.21-40.39,49.95-43.65,57.48-2.21,4.29,26.99,56.6,27.7,60.53,107.97-36.2,38.75-40.04,15.95-118.01ZM999.19,780.86c-61.03-26.58-135.05-89.9-201.18-82.85,35.66,14.37,189.12,107.22,227.98,99.97-8.11-4.98-17.07-11.3-26.8-17.12ZM1773.98,739.99c4.57-133.72-65.38,232.91-81.81,264.86,36.33,14.16,82.87,6.63,119.81,23.15-2.6-94.92-29.53-187.4-36-281.99-11.2,86.22,42.53,192.2,28.04,269.98-6.69-96.99-37.99-191.97-34-289.98,0,0,3.96,13.98,3.96,13.98ZM658,718.02c-103.47,57.21-145.33,195.09-222.01,281.95,85.08-79.21,129.31-209.05,222.01-281.95ZM1397.97,921.99c-8.2-67.97-44.9-141.46-91.95-191.99,45.68,55.85,67.82,127.63,91.95,191.99ZM620,732.02c-17.66,4.8-39.66,2.3-53.99,14.99,11.13.73,1.1,9.66,0,14.97,24.24-.76,38.61-13.15,54-29.96ZM995.81,802.18c-29.87-6.95-60.34-29.23-88.82-42.17.55,5.96-4.83,9.33-5.81,11.93,1.64,5.69-2.17,13.03-7.2,15.48-3.13,26.47,33.9,8.87,48.53,15.06,17.72-.76,63.32,36.69,53.29-.3ZM1928.02,760c-5.32,10.52,14.45,38.56,19.04,49.93,22.68,27.19-16.57-53.18-19.04-49.93ZM587.99,764.01c-36.48-10.91-105.62,150.73-133.61,185.37-2.64,5.26-12.5,20.83-.4,10.62.74.63-1.63,4.78,1.99,3.99,2.36-5.26,3.99-8.03,2.04-13.97,6.35,9.32,8.52-7.64,11.91-12.58.98,3.46,107.22-157.07,118.06-173.42ZM1155.98,840c-25.55-62.32-101.58-79.42-163.98-71.97,27.86,18.85,78.94,46.43,97.39,74.08,11.28,6.91,45.05,11.51,60.6,18.89,33.04,30.02,95.36,67.59,84.03,116.99,6.75-2.2,4.24-8.73,6-13.98,9.36,12.41,29.88-12.96,37.94-23.02-2.2,1.58-121.96-112.88-121.99-101ZM1940.56,815.61c-13.86-40-15.65-58.66-34.08-6.14-1.89,9.02-41.43,113.56-20.41,97.05,5.33-8.37,25.9-33.45,24.89-44.6,15.1-4.13,22.21-28.33,36.17-37.9,1.39-4-6.36-7.89-6.57-8.4ZM998,872c-20.96.61-30.1-17.57-43.98-29.02-34.12-47.08-279.96-107.72-209.86-34.16,15.07,9.62,32.23,13.98,49.83,13.2,0,0-9.98,3.96-9.98,3.96,52.83,16.26,103.79,54.14,143.11,91.98,4.75,4.98,1.06,9.81,10.86,2.05-.07,6.28-3.38,9.99,3.03,13.99,1.34-14.81,15.84-9.97,5.01-15.96,12.01-4.53,2.42-1.06,15.63,9.34,7.21,21.49-21.07,5.32-13.59,20.64,0,0,49.94-14.02,49.94-14.02.83-.65-11.94-12.9-9.94-15.89.62-.93,7.67-.85,5.93-6.08-46.09-15.31-146.01-55.55-162.04-75.99,8.12,10.35,31.17,12.54,43.4,19.63,28.8,10.74,54.73,34.91,84.64,37.36-53.16-60.4-134.38-86.29-213.03-85.01,51.13-18.82,166.48,22.85,211.97,78.1,6.39,3.36,7.62,5.9,7.29,11.63,1.03,1.32,27.78,6.93,31.78,10.27,0,0,0-36,0-36ZM2028.02,798c-1.29-1.83,7.82-12.74-7.98-7.94.85,4.78,14.37,36.7,16.04,37.92,13.2.3,5.71-11.78.32-14.47.51-4.65-2.91-20.48-8.38-15.51ZM2173.99,807.99c-6.7,6.44-18.59-18.33-27.03-19.95-6.2-1.18-14.42.7-20.95-.02,4.28,5.27,14.48,8.7,11.99,17.97-13.67,3.55-26.61-30.22-51.99-12.02,4.26-.3,20.26,11.9,15.98,16.01-16.91-3.74-38.73-22.67-55.99-4.01,13.66,2.6,25.86,6.24,10,18,126.12-46.08,268.75,20.53,317.97,144.01-1.43-14.36,1.47-21.27,4.02-36.81-3.95-7.92-4.85-21.26-11-7.19-7.52-9,4.73,8.03-6.96,8.02,2.21-5.74-5.97-8.05-6.09-9.19,4.04-14.3,1.97-41.45-15.94-46.8,4.3,5.04,2.27,20.95-6.08,15.06-2.07-4.08-4.86-56.19-15.9-21.08-.02-11.59,3.96-16.7-7.03-23.99-1.03,5.24,8.84,23.84-1.98,24.03-9.49-19.83-5.9-38.51-32.99-48.04-1.03,1.25,14.71,26.97-.03,23.98,4.24-5.41-1.92-3.32-3.62-7.31-4.19-9.83-3.69-33.09-22.35-20.68,4.48-9.69-1.25-9.35-10.02-11.98,3.8,4.87,7.66,9.42,8.04,15.99,9.25-5.12,1.84,6.53-6.09,5.16-9.91-14.4-14.38-33.15-37.95-33.15,5.41,4.82,17.62,24.71,3.38,20.01-2.42-.8-9.68-18.19-16.61-21.79-31.59-7.86-21.15-5.51-14.77,15.75ZM2017.99,794c-.79-.73-8.85,1.08-9.97,2.98,9.84,11.41,12.46,33.25,22.95,41.01,9.67-10.8-13.79-30.96-12.98-43.99ZM2005.97,798l-26.1,11.12c-.46,4.14,17.06,42.66,19.4,43.04,43.97-15.2,18.13-19.66,6.7-54.17ZM1074.64,845.56c-11.45-25.74-35.69-45.6-66.65-41.56,4.88,43.8-2.22,55.39,48.99,50.01,10.7,4.17,40.3,5.23,17.66-8.45ZM712,806.02c-38.97-5.48-36.53,53.67-56,32.02,19.36-17.74,12.91-21.65-7.99-9.96,2.75,6.34,3.7,11.22-3,1.93-7.53,4.67-10.99,32.26-16.21,33.81-12.52,3.71-1.38-20.02-2.82-21.81-23.43,6.2-20.34,36.07-29,50-8.68,2.01-3.55-21.44-3.97-25.99-4.7,5.59-18.73,16.97-20.58,23.42,2.35,22.07-7.36,58.25-11.42,12.58-16.3,13.87-20.96,37.79-5.06,52.99,0,.45-5.13,5.59-5.92,4.98-.93-10.32-14.03,4.49-20.01-9.97-3.39,11.57-6.1,25.51.33,36.72,2.74,4.77,7.9.93,4.12,8.73-8.95,18.46-12.08-8.69-15.47-15.47,0,0,.98,20.01.98,20.01-2.45,1.22-2.4-8.59-5.97-3.98-8.94,11.91,34.16,54.81,0,39.94-.45-31.63-9.98,2.4-5.92,12.95,2.01,11.29,26.94,24.07,12.9,31.06-2.12.02-12.14-14.05-14.98-15.95.42,14.47-1.87,30.89,17.98,30.01,0,0-9.99,2.97-9.99,2.97,13.99,8.47,31.44,31.68,2.01,15.02l-2.01,6c0-4.32,1.1-10.51-3.99-12.01-3.59,22.46,20.84,34.97,32.1,45.02.98,9.19-8.87,7.62-13.97,3.82-16.67-20.49-2.94,10.52.76,15.25,21.32,7.57,48.45,28.73,7.09,15.93,1.27-1.35,12.18,26.68,10.03,12.94,0,0,3.96-.98,3.96-.98-2.73,20.78,30.54,8.37,30,26-1.83,1.76-14.87-4.73-13.04,7.03,3.08,19.72,42.98,3.93,43.07,22.97,8.77-8.2-9.51-23.02-14.97-28.13-134.01-131.65-40.07-402.54,172.95-397.87,0,0-25.39-11.59-25.39-11.59-21.37-24.21-22.82,5.14-34.68,10.7-18.36,2.98.72-15.07,4.07-21.07ZM978,822.03c-2.74-2.74-44.89-14.65-51.99-14.02-4.48,5.59,58.98,24.76,51.99,14.02ZM503.99,810.01c1.94-2.93-67.42,123.5-43,86,3.96,25.31,24.49-28.77,24.48-41.37,11.22-13.93,21.21-25.67,18.52-44.63ZM1970.01,822c3.66-5.06-2.58-12.03-3.73-3.34.83,7.91,17.23,28.51,17.89,39.22l9.83-1.89c-.59-3.74-10.5-27.49-18.02-23.99,1.71-.48,1.54-14.6-5.97-9.99ZM2296,875.99c-43.78-61.11-187.28-85.85-249.96-36.86,371.89-93.2,444.55,501.3,30.41,433.43-170.83-47.6-212.68-287.27-72.39-387.62-.19-3.24-4.79-11.27-8.05-6.93,2.95-28.66-28.72,10.56-36.09,18.93-11.22,13.08-33.37,32.09-29.94,51.05-10.86-9.75-16.57,30.69-21.41,37.59-73.57,234.68,203.16,394.39,355.43,285.05,93.46-47.23,157.38-193.54,102.34-297.06-1.82-29.17-41.47-91.43-70.34-97.58ZM477.97,903.98c2.48-12.04,58.91-77.12,33.02-85.97-2.92,28.82-34.49,60.58-33.02,85.97ZM1961.9,824.08c-14.37-.41-22.35,22.35-10.89,31.91,10.59-14.94,23.87-10.91,10.89-31.91ZM1005.98,858c-6.67-17.74-2.06-29.26-25.96-30-1.6,2.36,3.16,10.75-2.95,9.97-8.18-1.05-18.21-7.53-27.07-7.95,3.58,4.57,57.01,54.02,50.06,28.95,0,0,5.92-.97,5.92-.97ZM918.01,925.99c-254.54-295.22-564,191.9-243.93,352.94,87.16,38.69,195.6,17.22,255.93-50.91-17.11,6.59-19.69-10.66-20.02-24.02-199.11,194.37-456.5-115.29-283.27-281.31,90.24-87.12,235.87-77.02,303.44,31.22,18.95-.81,7.51-18.61-4.17-17.91.4-3.83,2.15-14.8-7.98-10.01ZM2308.01,928c-25.34-70.19-194.57-115.22-232.03-68.02-12.34-5.61-24.16-3.85-17.96,12.02,65.11-32.61,142.98-20.14,201.34,19.61,3.31.56,8.14-5.02,12.63-3.59-12.73,7.97-3.74,10.02,5.14,15.85,5.94,5.25,26.38,37.92,34.66,31.93,2.79-4.71,2.81-11.07-3.78-7.8ZM2043.98,846c-1.83-1.63-37.46,17.07-43.04,19.98,2.22,27.41,41.14,6.57,41.08-9.98,0,0,5.96,4,5.96,4l-4-14ZM1164.88,879.09c-14.99-16.39-51.26-26.5-71.97-31.04-9.9-1.2,5.98,11.83,6.45,12.57,2.87,12.52,7.73,19.11,8.73,1.48,52.67-.95,88.03,54.48,116.98,91.83,1.64,6.27-1.97,19.3,4.92,18.06,8.97-30.82-44.26-72.29-65.1-92.9ZM1937.97,869.99c7.98-17.17-15.08-26.33-4.87-3.98,1.4,2.92-.37,4.96,4.87,3.98ZM1986,864.02c-17.73-11.53-28.25-11.45-42,7.96,5.24,2.51,6.42-3.82,6.85-3.8,3.45.14,18.3,3.83,17.15,8.8-.6,2.59-9.25,1.99-5.01,7.01l23.01-19.97ZM2251.98,896c-39.97-40.79-121.21-44.73-173.98-27.98,50.26-6.81,123.61-11.23,173.98,27.98ZM1039.45,866.55c-5.25-4.33-16.91-4.11-19.45,3.43,4.31,1.51,9.76-2.09,12.85-2.02-.53,2.81,14.1,10.07,6.6-1.41ZM1925.97,864c-9.29-.35,5.35,3.94-10.06,8.9-12.69,13.37-26.74,46.68-41.39,60.62-4.12,10.18-4.75,30.2-.54,40.48-12.49-19.38-6.65,51.71-9.97,51.99,4.49-35.38,20.29-76.5,36.49-106.6,2-5.85-4.68-6.43,6.47-9.36,5.03-15.34,30.95-30.12,18.99-46.03ZM2187.99,872.02c-.83.88-52.11-8.7-27.01,0,13.4,2.52,17.58,102.41,22.55,65.48-1.14-21.32-27.41-59.24,4.47-65.47ZM1106,887.98c-.04-16.44-57.06-19.41-39.44-15.93,2.65,6.17,7.54,3.2,13.53,4.87,8.65,3.03,15.5,12.57,25.91,11.07ZM2111.99,870.02c-76.27,19.93-3.4-15.13-24.1,58.92,9.22,57.14-7.64-58.02,24.1-58.92ZM1219.65,971.67c-4.64-44.88-62.11-93.26-107.64-99.65,10.02,3.18,63.96,144.07,83.83,108.79.71-3.12-10.67-19.99-9.84-20.78,18.46,5.27.29,25.38,33.65,11.65ZM2051.77,872.25c-6.79-5.9-31.66,11.16-39.76,12.74,5.12,4.65,9.23,9.22,12.77,15.23,24.2,18.47,115.9,321.16,133.2,195.79-6.47,6.83-9.05,6.12-11.55-3.39-36.17-78.05-60.02-141.34-94.66-220.38ZM1055.99,880.02c-25.92-.4-64.64-16.61-39.98,23.01,2.3,4.53-6.01.67-5.97,3.97,15.82,8.2,13.46-5.34,18.82-15.14,0,0,27.13-11.84,27.13-11.84ZM2169.98,944c-5.32-49.97-5.03-87.95-65.51-63.53-5.6,5.61-.38,53.92-4.46,65.52,22.19-7.07,47.63-9.41,69.97-1.99ZM920,957.98c-53.65-128.74-282.65-68.63-284.05-23.93,85.85-66.97,191.45-63.56,271.59,12.48,2.11,5.77-5.04,17.64,12.46,11.46ZM1958.01,879.99c-16.02-.75-26.97,3.09-34.01,17.99,18.07-5.99,29.63,8.06,1.93,8.95-16.96,5.59-34,31.88-7.2,22.74,3.46-1.17,2.78-5.18,3.3-5.66,5.09-4.72,2.74,10.43,7.93,5.97,4.62-16,30.04-31.43,28.04-49.99ZM2283.98,952.01c-10.81-33.54-69.62-74.02-105.12-68.03,8.84,82.53,26.94,94.74,105.12,68.03ZM2081.98,923.99c1.64-6.58,4.39-34,.13-37.14-7.77-.43-20.41,1.14-14.08,11.14l3.96-3.97c-3.78,6.48,7.47,24.38,10,29.98ZM1090,897.98c-7.38-20.34-38.84-.39-50.11,3.02-13.56,27.55,43.29-4.38,50.11-3.02ZM2002.02,908c18.95-11.98,7.84-25.18-8.01-6.98,6.96.14,11.41-2.85,8.01,6.98ZM854.01,921.99c6.19-12.51-28.04-18.39-35.98-23.01-64.84-39.27-222.77,63.36-104.84,9.01,11.28-.71,8.1,13.51,14.8,18.01-6.41-41.41,48.08-22,64-27.99,3.18,7.99,1.25,56.91,13.96,53.07-50.84-109.07,110.96,4.96,78.83,9.56-18.27,12.18,18.3,5.61,19.22-1.6-10.85-12.14-31.15-39.92-49.98-37.04ZM1129.51,926.5c-16.31-3.79-25.73-15.04-38.42-24.41-50.38,17.05-50.28,4.67-43.06,59.92,5.2-4.42,3.46,2.46,4.96,1.98,4.15-2.88,11.06-13.68,15.61-13.61-2.94-2.04,112.6,44.11,87.02,29.08-10.88-7.27-117.76-42.28-74.11-33.99,45.98,7.46,105.28,69.96,47.99-18.98ZM734.28,927.73c30.03,11.67,80.05,39.69,46.33-21.35-15.74-4.29-55.13-4.71-46.33,21.35ZM1041.98,945.99c-3.61-12.93-1.35-32.01-9.96-41.98.7,10.85,6.03,31.82,9.96,41.98ZM1963.98,948.03c11.97-.61,25.03-27.27,29.98-37.03-182.52,141.62,26.04,460.29,243.38,343.33,100.91-55.8,142.18-161.43,107.58-266.25-1.73-9.95-29.08-72.79-32.1-40.1,43.86,68.73,42.35,158.93-2.78,227.03,10.67,3.72,5.74,2.13,1.99,6.45-6.5,10.27-10.08,10.12-2.05-.49-1.4-9.46-20.81,21.42-25.7,24.31-4.61,12.64-4.86,19.86-18.28,22.7,0,0-.98-5.97-.98-5.97-185.47,135.62-404.12-73.27-301.06-274ZM1020.02,910.77c-9,7.63-8.99,8.8-.04,16.46,9-7.63,8.99-8.8.04-16.46ZM2034,937.98c-3.3-5.12-8.9-31.87-15.42-17.01-.02,1.2,3.32,3.14,3.1,5.69-8.17,11.96.61,15.68,12.32,11.32ZM2266.01,1211.99c97.9-55.73,90.3-244.23,16.99-288,80.59,79.96,63.4,217.4-16.99,288ZM1998,922.02c-6.19,2.61-21.4,21.07-21.99,25.97,3.38,3.31,19.98-22.79,21.99-25.97ZM819.7,947.67c11.96-15.41-2.35-16.51-13.69-23.66,0,0,2.01,13.98,2.01,13.98l5.97-7.98c-1.13,2.81,3.12,14.48-3.97,9.97-.76,5.57,4.26,11.11,9.68,7.68ZM784,954c-57.89-41.21-231.52-25.96-156.46,71.46,3.16,48.94,359.33,114.58,350.49,57.97-24.54-56.95-133.95-123.53-196.05-123.45,44.28,18.5,105.76,39.76,135.9,65.14,16.15,18.11,61.12,39.87,47.06,68.82-85.16,10.75-188.61-16.42-273.34-32.52-19.86-8.03-24.16-29.42-32.55-47.36-22.25-39.11-7.26-56.57,31.58-70.43,35.37-17.44,65.21,15.56,93.37,10.38ZM844.42,935.55c-1.01-.87.34-4.17-1.41-3.55-4.63,10.46-13.13,4.11-15.01,13.97,16.69-4.1,21.28-6.49,29.3,8.17,38.02-5.87,8.98-8.23-2.33-22.15.61,4.05-9.16,4.75-10.56,3.55ZM1897.2,1009.39c4.25-29.69,26.18-51.7,25.81-77.35,0,0-10.02,13.95-10.02,13.95-.33-17.51-26.81,7.11-24.97,20.01,36.25-16.73,11.09,7.24-4.99,16.03-1.9,2.69-8.79,24.85-6.04,23.96,3.48-4.3,17.11-10.28,17.04-1.01-6.64,3.52-10.12,11.01-18.13,13.87-5.41,5.93-1.75,11.36-2.48,15.87-10.86,19.97,10.75-6.58,8.6-8.72,13.74,2.15,2.65,17.92-4.91,22.11-8.6,7.73-10.35,46.35,1.75,25.75,19.67-12.84-1.58,16.12,1.12,22.13-6.97-13.9-6.45,15.4-3.9,15.94,3.66,3.1,15.84-9.54,21.9.06-6.12-31.88-8.77-71.99-.78-102.61ZM1015.99,936.02c-9.98-.06-53.93,16.58-63.98,19.96,14.93-2.11,49.62-14.49,63.98-19.96ZM852,1030c-39.36-13.77-93.03-45.3-129.99-40.02,1.96-13.3-42.66-16.02-56.61-17.93-2.31-.53-4.38-12.88-11.13-.79-4.08,25.73,15.66,67.13,35.2,84.28,64.53,18.91,140.59,24.68,207.56,34.45,165.73,26.1-37.9-107.33-93.08-116.9-22.61-6.04-57.34-27.4-86.94-31.08-16.48,1.93-52.51,13.35-51.01,25.98,64.85,8.31,129.01,32.61,189.36,57.67,105.35,64.57-147.64,20.14-165.34-1.63,26.6,12.38,266.3,56.82,161.99,5.98ZM2042,953.98c-7.18-28.86-31.43,6.39-6.02-7.98,0,3.75.71,8.75,6.02,7.98ZM2293.96,942.02c-9.06-7.73,1.49,27.5-3.99,14.04-31.35,6.55-91.82,40.99-104.94-4.03-8.77,5.54,1.51,17.14.92,17.91-13.32,11.19-3.96,34.92-30.99,40.05-11.55,1.69,24.03,13.55,27.01,22.02-5.7-15.21,14.25-26.87,8.03-37.99,8.21,4.9,17.69-11.25,25.98-14.73,18.33-4.94,76.87-25.51,91.99-11.28,1.49-9.19-8.47-8.83-9.95-10.1,3.18-2.97-1.81-12.92-4.07-15.88ZM1010,944.02c.55,5.74-166.46,39.2-86,39.99,1.18-1.3-3.39-7.28,5.02-10,3.32-1.07-4.35,6.97,1.97,5.99,46.74-22,83.12-11.52,25.28,27.26,7.08,10.13,14.3,57.43,21.8,61.71,12.48.63,9.45,24.62,1.26,34.34-7,6.96-16.11,2.61-1.42,17.78,11.41,7.16,52.32,41.33,42.62,5.33-11.68-11.41-18.82-26.09-32.53-35.43,46.64,23.84-19.29-40.31-7.02-71.02,5.34-14.34,23.45-49.64,38.99-56-12.76-5.17-19.18-7.96-9.98-19.95ZM1984.01,969.98c22.7,14.97,27.56-51.21,3.97-10.94,13.37,4.51-8,5.5-3.97,10.94ZM2390.02,1006c-13.15-24.91,18.18-33.86-6-62,.2,8.68-2.32,22.44-9.92,26.92,19.01,50.41,22.17,108.95,5.9,161.06,10.01,2.34.98-17.36,11.99-11.97-5.12,19.12,20.01-5.5,13.99-18-2.3-2.67-17.34,14.45-16.02,4.98,1.56-11.19,18.33-14.09,20.03-27.95,1.97-19.78-2.76-12.38-13.02-3.09-9.54-9.73,10.87-20.02,12.92-31.04.97-13.24,1.29-37.81-9.26-12.77-23.13,13,18.09-40.56-2.63-50.13-.88,12.38,6.35,18.25-7.99,23.99ZM2160,974c20.31,18,9.19-16.62,12-24-6.37-2.04-38.99-8.52-27.9-.84,1.93,18.05-20.4,3.66-6.11-3.14-10.99,1.17-30.19-2.2-33,9.97,0,0-4.98-3.98-4.98-3.98-4.08,45.35,32.64,10.68,59.99,21.99-1.88-.86-7.22-10.18,1.08-12.01,14.1-3.11,7.81,16.06-1.08,12.01ZM2002,973.98c5.73,5.36,16.65-16.74,8.99-19.97-1.01-.43-9.79,19.22-8.99,19.97ZM1167.99,999.99c7.68-9.87-103.95-47.74-104.15-41.14-66.66,55.88-24.38,110.71,12.19,170.24,3.77-.59,20.84-1.44,9.98,4.9,20.78.88,114.51,18.84,99.99-1.96,9.71-.05,15.83-10.6,22.74-2.18,4.35-3.02,27.57-16.28,14.27-21.53-2.02-.09-26.52,15-36.52,17.18-42.15,6.47-116.07,7.12-124.37-42.58-1.79-1.02-5.73,1.52-8.11,1.08-2.75-6.09,6.66-2.98,5.98-4.98-2.18-6.46-2.36-4.63-7.98-3.02,4.51-10.3-2.87-12.47-3.97-15.46,3.34-15.94-10.77,6.2-10.04-14.53,17.54,7.85-12.39-21.43-1.57-34.59,23.55-69.71,97.97-16.2,131.55-11.43ZM2041.99,960.01c-5.38,3.3-17.99-3.87-19.02-3.81-21.79,20.45,16.88,32.42,19.02,3.81ZM2010,983.98c-15.89-10.8-31.72,3.75-33.97-23.97-1.35,5.25,4.08,15.59-6.01,9.97-12.54,44.97-12.18,1.39,39.98,14ZM933.99,962.02c-6.46-.78-43.34,13.75-49.98,15.96,6.94,1.51,43.07-13.62,49.98-15.96ZM1970,962.02c-10.85,1.41-10.03,19.9-15.99,27.97,9.05-2.32,10.11-19.87,15.99-27.97ZM954.01,996.01c8.39,7.38,33.18-19.35,24-25.1-19.38,2.64-28.98,9.68-52.01,13.12,18,3.53,28.23,25.98,28,11.98ZM2258.01,1042.01c10.25,9.84,49.59-19.03,57.01-24,3.41-6.93-8.82-44.04-15.01-47.02-14.8-7.14-49.95,11-66.01,13.03,15.79,10.32,26.57,84.11,24,57.99ZM447.99,972.01c-11.85-4.22-18.71,21.77-23.97,29.99,2.53-3.11,27.16-27.26,23.97-29.99ZM2152,987.98c-6.42-8.77-17.83-10.96-27.99-9.96l27.99,9.96ZM2167.98,984.09c-.56-.76-15.18-5.72-17.97-6.07,4.79,1.89,18.22,24.22,17.97,6.07ZM961.98,1046c-3.61-54.38-50.48-59.36-93.98-65.97,31.82,14.31,73.72,36.39,93.98,65.97ZM1222,982.02l-31.99,15.96c8.24,2.85,34.18-5.37,31.99-15.96ZM2057.98,983.98c-9.98,8.19-43.56-11.1-45.97,2.01,12.53-4.52,50.07,15.77,45.97-2.01ZM1091.99,986.01c-6.86-4.15-16.8,8.88-16.62,15.55-3.76,3.6-22.98,15.03-5.61,16.23,0,0,22.24-31.78,22.24-31.78ZM1017.74,1037.73c-1.4-12.21-2.84-38.06-2.72-51.72-.87,5.49,1.06,11.83-7.05,10,3.94,4.99-1.71,3.71-4.44,8.5-7.86,15.48-17.98,36.11,8.49,29.49-3.88,8.1.22,6.44,5.72,3.72ZM2249.66,1055.67c5.85-17-8.47-55.9-21.64-69.65,3.16,10.5.4,11.57-5.01,2-4.5,1.68,1.36,10.31-4.03,11.97-4.46,1.38-6.7-2.07-7.02-5.98-9.4,4.34-5.03,10.53,1.05,15.99-.16-14.95,12.28-7.49,9.01,2.02-.87.86-7.07-1.46-8,.97l8.99,19.01,3.01-10c11.9,1.33,10.28,10.53,5.87,17.94-5.42,3.53-6.49-5.02-9.87-5.92,3.38,8.52-4.26,28.18,7.97,25.97l-3.98-3.96c8.99,2.07,6.99-11.01,13.03-15.99,8.12-1.52,14.46,17.24.97,9.98,4.74,7.61-2.91,7.48-8,9.97,3.31,1.14,16.41-2.3,17.65-4.31ZM1099,988.04c-28.47,26.75-30.99,48.24.21,6.16,1.88-3.22,4.41-2.59-.21-6.16ZM1985.99,988.01c-6.06.26-9.69-1.89-6,5.98,0,0-6.94-4.01-6.94-4.01-11.38,15.53-23.78,62.47,11.74,61.76,13.1-13.03-20.6-37.16,1.2-63.73ZM1550,1149.98c-37.89-9.11-71.03-40.15-110.06-54.91-73.46-26.51-156.06-38.2-204.94-105.06-5.16,13.36-23.26,13.29-34.82,21.26,48.72,209.04,413.13,127.19,586.89,150.68,29.27,8.13,55.31-10.08,14.93-23.93,0,0,9.01,15.98,9.01,15.98-5.97-7.48-15.3-11.69-19.86-20.15-81.23-56.45-208.39-36.39-307.15-63.87,17.23-12.65-197.26-31.97-196-35.96,85.2,41.29,185.98,52.93,262,115.97ZM602,992c-1.9,20.43.88,47.82,12.03,65.98,3.21.55,1.21-7.77,4.96-1.97,3.43,5.32,2.2,12.16,8.02,15.98,11.76-34.04-13.08-50.09-25.01-79.99ZM1111.99,992.01c-.42-.41-4.38.21-6,0,4.92,10.27-13.58,13.4-15.99,23.97,5.03,3.91,24.7-21.35,21.99-23.97ZM1489.99,991.99c-34.36,5.38-55.92-2.41-29.12,36.15,66.12,1.33,33.58.98,29.12-36.15ZM2005.29,1005.26c1.29-8.75,16.43-2.38,18.67-8.26-.02-2.26-19.68-7.21-23.73-1.77-8.79,11.83-9.21,27.05,2.78,36.76,3.52-10.38-15.43-17.3,2.28-26.73ZM1987.98,1023.99c-1.58-10.46,1.73-18.27,4-27.99-7.74,4.84-11.48,21.91-4,27.99ZM2124,1000c3.28-1.35,36.79,3.62,36-3.98-8.87-1.16-27.33,1.79-36,3.98ZM985.98,1033.99c.13-12.98,8.67-23.84,12-35.99-6.52,7.22-19.53,28.19-12,35.99ZM1953.99,998.01c-39.94,81.14,17.78,221.87,111.99,241.97-93.19-37.93-141.07-146-111.99-241.97ZM2035.68,998.37c-3.85-1.82-6.65,5.93-11.66,5.66-.66,5.41,12.08,16.87,10.09,4.14,19.74-1.04,3.3-4.12,1.58-9.81ZM684,1223.98c-86.93-48.97-96.29-128.98-89.99-217-34.05,39.55,1.23,207.27,89.99,217ZM1131.99,1000.01c-5.2-4.61-24,16.65-17.97,21.99,1.33,1.18,19.84-20.33,17.97-21.99ZM1094,1025.98c4.64,3.64,21.25-18.39,19.98-23.98-8.6,5.99-13.24,16.17-19.98,23.98ZM1141.99,1002.01c-2.72-2.47-4.97.99-6.58,2.48-39.32,44.83-3,22.63,6.58-2.48ZM2046,1008.02c5.59,8.93,14.55.07,18.99,11.95,10.72-4.32-1.39-20.19-8.99-16.98,0,0,3.98,7,3.98,7l-13.99-1.97ZM2310.02,1144c26.13-40.8,25.89-94.23,13.96-139.99-1.46,6.88-1.98,20.02-8.95,24.01-123.38,95.5-122.73-12.92-130.52,53.47,15.45,5.91,39.75,2.89,52.54,20.47,11.37,16.01,53.07,70.06,41.95,88.02,9.57-11.62,22.1-23.49,26.99-37.99-23.5,40.57-42.02-19.04-55.03-37.96-37.78-38.57,44.26-67.19,64.38-81.61,33.77,10.84,2.64,87.7-5.31,111.56ZM1676.01,1039.99c-.65-7.39,20.43-32.38-.82-32.07-5.12,8.03-11.67,30.09-25.17,34.06,37.76,13.44,86.99,7.92,124.43,18.59,18.6,6.16,7.85,9.32-5.69,3.68-59.23-10-88.37-5.42-7.91,3.77-44.87,6.25-123.19-16.95-178.83-10.03,67.25.88,143.79,22,209.35,12.39,13.23-5.87,22.31-24.05,20.63-38.36-7.98,1.73-3.12,29.09-19.01,33.97,3.89-7.79,13.88-26.76,12.85-35.83,0,0-110.85-16.35-110.85-16.35-12.37-1.02-8.73,27.16-18.97,26.18ZM2152,1045.98l-29.98-31.98c6.14,13.48,12.02,40.26,29.98,31.98ZM2209.97,1051.99c5.25-12.31,4.52-23.12,2-35.97-1.34,7.72-5.43,28.57-2,35.97ZM1138.3,1021.6c1.48-10.74-17.68,12.79-9.27,14.38,5.17,2.09,1.67-5.94,3.25-7.71,3.77,1.08,16.82-10.26,6.01-6.67ZM2053.99,1025.99c-.9-9.57-13.2-8.11-19.98-7.98-1.6,11.83,11.82,7.3,19.98,7.98ZM1160.01,1045.99c3.11,2.49,27.42-23.03,18.99-25.95-1.63.09-21.62,23.03-18.99,25.95ZM1543.23,1024.83c-29.38-14.6-27.81,7.44-53.22,7.19,0,0,21.51,7.46,21.51,7.46,17.59,2,123.36.75,52.49,10.5,0,0,137.99,9.99,137.99,9.99-14.03-13.05-57.89,1.57-57.98-27.97,3.71-.67,0,5.2,4.83,3.9,17.32-10.43-75.94-12.6-92.84-15.9,0,0,38.79,11.84,38.79,11.84-.99,7.62-44.9-1.11-51.58-7.02ZM1850.54,1075.42c-.14-14.62-8.39-41.01-12.52-55.41,2.45,49.66-28.25,75.13-72.01,79.96,23.33,8.34,48.75,33.91,63.94,53.2,24.19,14.81,29.03-71.21,20.59-77.75ZM2172.76,1035.26c-7.75-14.03-47.45-24.1-25.47-3.56,33.2,8.08,18.98,33.7,16.73,58.3,8.53-1.92,5.92-6.57,6.01-14,16.32,10.08,15.3-35.86,2.74-40.74ZM1127.99,1040.02l-61.98-18.01c-1.83,4.76,58.99,23.66,61.98,18.01ZM1431.99,1032.02l-55.98-8c6.84,3.11,6.6,2.9,0,5.96,17.85.97,35.51,6.26,53.26,7.77,2.25.19,7.17,1.87,6.73-1.73-3.74-1.09-11.39.29-4-4ZM2189.98,1024c-11.44.32,2.77,30.34,10,34-2.43-4.59-8.79-32.7-10-34ZM2090.02,1058.01c-4.76,20.85-35.96,27.38-54.58,23.54-26.43-17.93-83.3-14.93-83.43-55.54-5.57,42.81.04,88.92,22.99,125.98-27.24-72.09-46.89-127.21,51.03-69.03,48.12,18.94-1.56,69.86-11.01,101.05-12.78,12.87-37.12-30.57-23.84-6.21,24.18,31.43,61.47,56.54,100.8,64.17-24.03-15.98,34.03-60.52,44.99-74,27.36-20.92,64.52,36.09,81.98,48.05,8.22,12.9-13.61,19.35-20.95,23.95,17.86-2.06,33.84-13.26,49.01-21.97-25.45,11.56-98.47-63.98-91.04-92-3.92-.65-1.07,5.02-1.98,6-12.15-2.84-17.61-2.64-16.54,12.43-6.53,32.77-40.05,62.35-61.49,84.5-82.28-5-56.33-60.03-24.36-110.35,15.94-12.52-11.35-10.36,8.39-18.59-5.11,16.09,27.44-21.11,46-8.03,0,0-15.98-33.98-15.98-33.98ZM1063.61,1028.45c-16.16-2.22,11.29,31.07,14.36,37.54,3.37-4.85-12.63-36.44-14.36-37.54ZM1185,1028.04c-1.64,1.89-20.96,19.35-12,21.92,2.85-5.69,19.8-17.12,12-21.92ZM1089.98,1106l-37.96-75.99c7.54,24.39,21.71,55.88,37.96,75.99ZM2064.02,1052c3.82-1.14,20.48-22.19,10.98-21.96-3.77.09-12.38,17.07-10.98,21.96ZM2055.72,1036.3c-4.34-6.88-32.53.52-24.7,17.65,13.45,20.56,31.32-.79,24.7-17.65ZM1123.99,1113.99c-3.71-5.86-33.59-78.87-41.98-77.98,1.22,7.13,29.32,75.63,41.98,77.98ZM1180.01,1051.99c9.04.98,12.63-8.52,11.97-15.99-3.54.88-14.35,13.68-11.97,15.99ZM2026,1040.02c-3.7.21-17.02-1.61-17.99,3.01-1.34,6.43,26.87,10.81,10.57,16.56-19.81.78,5.52,7.52,13.42,6.39-7.14-5.37-10.19-17.14-6-25.96ZM2319.75,1040.26c-51.76,14.89-95.7,49.67-43,99.7,22.4,65.54,56.5-78.63,43-99.7ZM830,1330c-32.88-11.45,1392.49,22.39,1208.67-13.62-63.24-27.2-113.82-72.35-145.39-134.66-35.63-47.96-28.97-204.83-33.3-74.75,17,132.39-315.9,15.63-415.76,64.65-5.3,2.6-11.1,4.01-16.99,4.43-20.4,1.43-51.62,7.08-58.41-12.15-44.09,18.79-83.12,30.01-128.13,12.15-.99-6.86-67.2,15.07-87.91,21.74-23.08,2.69-51.5-5.58-71.84-2.87-13.07,11.85-31,6.82-48.02,7-67.15,4.38-76.38,98.46-202.92,128.08ZM604.01,1067.99c5.54-14.7-6.02-31.36-6.09-7.07-13.71,195.08,282.12,219.55,303.06,95.1-23.87-10.77,7.43,27.84-52.03,47.76-14.57-5.16-68.21-38.87-66.14-57.7,0,0-18.81,1.93-18.81,1.93,7.97,19.26-16.1,28.15-21.99,43.99,31.25-42.93,57.51-18.95,89.94,7.04,10.58,33.25-74.17,31.05-94.84,24.85-19.47-3.91-3.43-18.77.86-27.89-9.44,5.17-15.55,20.45-26.88,20.12-13.9-3.79-56.15-20.52-46.18-40.23,4.6-15.8,15.47-58.58,31.18-65.07,1.18-13.7-20.57-14.19-30.09-16.8,6.41,4.16,15.47,12.46,13.97,22.81-11.2,23.09-8.78,82.45-45.11,47.17-2.1-20.57-36.39-64.34-24.93-85.07,2.98-2.95,9.46-1.05,10.04-4.91-7.37-1.07-8.05-10.02-15.97-6.03ZM899.99,1108.01c-84.97-16.77-190.39-9.06-261.98-57.99-34.92,49.18,235.2,78.73,247.46,93.61,10.35-4.12,8.95-25.96,14.52-35.63ZM1129.96,1050.02c-10.95-3.06,25.05,64.24,32.03,65.97,0,0-32.03-65.97-32.03-65.97ZM1143.99,1115.99c-.93,2.8-38.77-89.08-32.53-54.65,7.69,13.25,17.58,48.95,32.53,54.65ZM1147.98,1108l-27.96-55.99c6.19,18.98,16.5,39.7,27.96,55.99ZM1166.02,1116c6.9-2.3,1.6-10.37-.27-14.75-7.73-12.93-15.43-44.62-29.74-49.24,0,0,30.01,63.99,30.01,63.99ZM1173.98,1105.99c-5.56-17.56-13.34-38.57-25.96-51.99l25.96,51.99ZM1131.98,1114l-27.96-55.99c6.19,18.98,16.5,39.7,27.96,55.99ZM1165.74,1060.28c-14.18-6.6,5.86,36.9,14.25,29.71-1.77-4.12-12.91-28.76-14.25-29.71ZM1995.43,1076.69c-76.98-61.25-10.18,112.84,16.32,100.06,49.86-102.88,12.39-34.15-1.98-82.52-10.28,2.33-9.89-9.64-14.34-17.54ZM2055.72,1071.71c5.49-13.92-14.13-5.8-21.71-.7,3.66,3.16,19.6,4.12,21.71.7ZM1083.74,1068.27c-16.21-7.7,15.47,51.48,22.26,45.71-6.25-5.75-18.69-43.17-22.26-45.71ZM1043.98,1086c-7.03-33.66-31.4,9.9-11.77,24.79,30.49,36.17,84.58,54.63,129.78,37.18-38.39-4.78-101.18.5-110.01-49.96-15.71,29.9-41.68-19.61-8-12.01ZM1797.99,1129.99c-21.47-47.08-240.08-47.8-281.98-59.98,72.48,18.84,220.06,14.57,281.98,59.98ZM2157.99,1093.99l1.99-23.98c-6.95,10.59-21.69-1.06-10.96,15.97,0,0,6.97-7.97,6.97-7.97-.32,4.14-6.35,17.35,2,15.98ZM1013.98,1093.99c.96-10.87,1.12-20.46-11.97-21.98l11.97,21.98ZM1218.04,1080.02c-4.15,15.27-20.81,5.21-24.02-4.01,8.52,23.14-14.63,29.9-26.01,45.97,20.01,5.19,89.43-25.28,50.03-41.96ZM663.98,1149.99c20.64-43.06-12.98-56.42-47.05-67.71-15.6,17.65,48.23,129.47,43.09,61.74,0,0,3.96,5.98,3.96,5.98ZM2032,1099.98c-4.39-12.65-20.87-24.49-10-1.99-.65.78-9.19-2.24-5.03,4.03,6.02,9.07,4.97-5.6,15.02-2.04ZM2188,1092.02c-9.57,3.66-25.08,9.88-21.98,21.98l21.98-21.98ZM2113.98,1112c-1.19-11.75-10.81-17.79-21.97-17.98l21.97,17.98ZM2219.98,1104c-4.9-24.32-24.6,26.37-53.79,32.2-3.46,5.29,3.89,6.36,4.72,7.79,2.96,5.14-.33,16.74,9.57,15.7,6.48-.68,26.14-13.84,31.55-18.66,10.89-9.73,2.45-5.97.43-9.41-2.94-5,1.53-10.53,6.38-9.53,7.91,17.16,11.71-3.43,7.15-14.08-20.65,15.47-18.56-10.53-6-4.01ZM2199.99,1102.01l-21.99,13.97c8.98-.34,20.02-3.78,21.99-13.97ZM781.99,1129.98c-32.1,4-50.44-22.75-79.98-25.98-2.58,2.29,18.24,26.94,23,27.99,1.21-7.58,10.31.98,16.98.03-24.74,12.6,53.55,13.03,65.99-.05-4.35-8.65-51.02-9.87-25.99-1.99ZM958,1112.02c-7.61,4.8-46.52-4.6-49.77-1.77l-10.21,31.75c19.81,4.8,49.95-8.22,59.98-29.98ZM771.99,1120.02l-35.98-8c7.93,2.66,28.8,16.16,35.98,8ZM1039.98,1132c.73-6.53-17.13-18.63-21.97-19.99,9.52,24.78,6.07,12.64,21.97,19.99ZM2127.91,1140.09c-14.9-1.24-40.78-12.9-50.91-28.08-3.13,4.89,6.29,8.08,1.04,13s-7.28-1.12-12.48-.71c-31.47,11.12,40.87,42.1,53.56,41.04,6.68-1.14,1.96-15.26,2.91-19.33,7.14,10.39,6.41,1.74,5.88-5.92ZM1899.96,1113.98c-17.73,4.16-20.43,25.76-10.97,40.01,4.1-3.59,4.62-24.68,12.07-14.04,3.57,5.1-4.16,20.54-4.63,27.68,3.45,15.78,14.44,42.05,15.8,10.62,17.61-.01-5.31,36.27,17.76,45.75-.33-14.06-2.21-12.29,9.97-16.98-4.69-10.06-8.67-14.17-17.94-20.04,9.18-14.58-25.13-46.97-22.05-72.99ZM709.75,1172.28c-31.16.47-17.06-12.85.02-17.43-10.84-76.41-35.18,5.11-37.35,31.73,36.71,37.79,49.96,22.18,73.58-16.58-9.92-1.48-9.43,6.87-11.18,8.17-6.26,2.46-26.71,5.74-25.06-5.89ZM1256,1131.98c-7.59-29.11-40.32,3.13-20,4.01-8.4-17.56,17.97-15.6,6,0l13.99-4ZM2239.96,1120.01c-15.34,13.58-33.24,39.78-57.96,44.01,18.62,13.11,51.82,72.13,76.95,33.93,36.74-15.85-11.37-59.3-18.99-77.94ZM952,1141.98c13.44,9.81,18.64-17.93,11-17.94-1.95,0-8.15,15.45-11,17.94ZM1306.01,1132.01c-.88-.72-19.74-4.09-22.49-3.62-108.74,49.01-202.42,72.67-310.54,1.62-17.76,24.91,85.54,51.47,108.05,57.97,59.35,16.51,176.69-25.28,224.98-55.97ZM728,1149.98c-9.89-16.02-19.58-21.54-13.98,2.01,0,0,13.98-2.01,13.98-2.01ZM1056,1149.96l-11.96-13.97c-10.94,14.4-4.59,23.16,11.96,13.97ZM2116,1170.02c-24.21-3.66-46.87-15.59-63-33.98-26.59,41.98-45.11,76.25,17.56,87.62,7.51-2.18,36.47-46.29,45.44-53.64ZM2378.02,1149.99l-2-7.98c.54,10.14-10.51,17-10.01,27.98,1.94,2.06,40.18-14.07,24.01-24l-4.01,5.99c-.21-2.8,3.35-8.34-1.04-9.97-5.1-1.89-2.69,8.34-6.95,7.97ZM936,1144.02c-23.86,5.76-35.27,52-64.24,64.89-2.08,2.8,2.54,7.55-6.78,11.1-1.72,0-.63-2.95-1.33-3.52-41.71,22.46-90.65,35.42-138.5,21.36-132.15-35.77,130.61,95.97,210.85-93.83ZM978,1156.03l-30.05-9.18-29.95,49.14c27.78-.34,54.66-8.9,60-39.95ZM1362,1158c-2.49-2.71-60.2,6.6-52-6,0,0,46,0,46,0-12.51-12.05-36.84,5.48-49.98-6,4.35,13.6,2.22,24.14-8.02,33.98,11.86-1,52.38-17.58,64-21.98ZM736.04,1147.99c-9.31,12.81,17.87,12.22,19.92,7.01,0-2.33-19.08-7.65-19.92-7.01ZM1195.99,1152.02c-17.07-8.13-21.01,9.82-35.98,13.95,9.54-1.55,27.54-9.22,35.98-13.95ZM1473.99,1156.02l-97.99-4.01c-.04,37.56,76.38,12.09,97.99,4.01ZM727.99,1156.02c-12.55-2.51-22.63,9.06-5.99,7.99.94,8.02-8.58-.37-5.99,9.98,15.9,3.25,1.87-13.42,11.98-17.97ZM866.01,1179.97c27.33,2.67,24.68-36.5-7.79-18.87-50.05,24.89-23.75.9-52.21,2.9.28,7.19,37.83,30.55,41.31,33.49,7.69.11,21.55-9.63,18.68-17.53ZM1105.99,1160.02c-18.01,2.18-34.55-2.96-51.98-4.01,4.84,12.73,43.65,17.43,51.98,4.01ZM993.99,1162.02l-11.96-4.02-14.01,30c6.91-2.96,14.41-4.52,21.97-4.01l-5-11.98c2.85,18.02-9.45,1.27-1.09-7.02,1.26-1.24,10.06,1.37,10.09-2.97ZM827.98,1209.96c-6.14-14.91-41.93-44.59-60.06-33.04-79.04,61.66,19.22,46.65,60.06,33.04ZM2213.74,1225.77c-46.76-62.28-64.35-73.37-115.67-6.7-24.77,39.73,99,19.72,115.67,6.7ZM2386,1172.02c-8.49,1.15-11.62,9.07-19.98,1.98-12.27,32.87,11.32,20.73,19.98-1.98ZM1013.99,1186.02c-4.28,6.12-111.98,5.8-91.97,27.98,0,0,82.64-14.33,82.64-14.33,5.44-.96,2.2-10.25,3.49-11.55,1.19-1.21,6.52,1.8,5.84-2.09ZM2350.82,1201.06c-7.57-6.64-18.63,25.16-28.81,29.94-.91,1.9,9.15-1.35,5.97,5.97-17.2,6.51-21.48,17.35,2.13,12.13,12.17-6.49,20.87-23.35,4.89-9.15-16.89-19.02,25.48-9.27,32.98-34.98-12.24-4.38-3.36,14.33-17.17-3.92ZM971.99,1212.01c-42.33,3.52-63.19,60.89-108.01,68.01.2,6.76-40.54,15.04-53.97,18.01,1.22,10.34,9.59,2.53,11.99,7.95-28.52-2.38-14.37,3.86-31.99,22,46.07,1.15,26.73-26.17,57.05-35.94,8.47,1.11-4.53,4.02-4.72,4.28-1.4,1.83.59,11.85-4.31,14.7l5.96-3.01c-6.04,10.31-1.61,14.32,4.42,4.56,1.14-.51,5.68,1.61,10.17-.93,7.76-4.39,15.99-30.55,17.54-31.55,18-7.75-3.87,27.59,2.86,23.9,3.21-1.36,21.26-12.5,23.08-14.93,4.94-6.62,8.94-32.1,12.98-33.04,11.67,4.22.16,18.08,1.96,25.98,3.5-5.23,18.7-13.27,21.13-17.37,1.25-23.83,18.82-65.21,11.9-12.62,13.35-11.19,25.96-20.37,21.96-39.99ZM1944.03,1225.98l-4-11.98c.26,6.93.28,18.17,2.45,24.52,1.89,5.52,10.96,8.47,11.55,15.46,5.38-2.51-4.73-16.98,4.94-17.96,7.8,3.06,4.33,22.67,9.62,29.42.73.94,14.82,11.29,15.4,10.56-7.62-16.57,8.05-25.27,8.03-5.98,1.01,1.1,7.83-3.76,9.98.99-20.05.65,3.65,23.91,14.01,24.97-.71-7.06-5.86-4.25-7.98-7.95,8.53,1.2-.72-13.19,8.99-10.07,1.9.61,8.98,22.69,15.11,26.92,4.86,3.36,24.65,12.51,15.58.42-.57-.75-14.89-13.16-4.94-11.09,10.87-.14,35.3,40.8,30.24,19.8,8.29,3.6,2.78,8.96,12.99,9.99,3.24-3.82-21.59-23.46-12.97-22.02,14.8-.84,17.91,18.5,25.55,23.46,2.85,1.85,23.68,3.81,25.44,2.54-5.88-6.26-16.62-23.24-.89-14.09,8.02,4.67,17.52,26.39,21.89,4.09-.51,11.5,3.26,10.41,13,10-.97-3.33-13.72-12-9.99-15.97,13.49,3.46,28.96,21.7,47.98,11.96,0,0-13.82-9.14-13.82-9.14-9.62-20.61,34.26,18.25,49.85-1.83-6.97-2.7-13.82-2.24-16.02-10.98,11.71-4.21,20.45,8.25,32.01,5.12,4.89-1.32,10.19-6.88,15.97-7.17-14.94.25-20.39-16.95-1.99-15.96-4.13,6.98.98,6.43,6.71,6.02,2.4-.55-.02-4.87,3.26-4.03.89,11.09,12.56,1.19,18.02-3.02-4.6-2.8-31.85,4.94-16.98-6.98,0,0,4.98,3.98,4.98,3.98,0,0-1.99-9.97-1.99-9.97,13.64,7.31,59.11-4.82,30.01-12.05-1.74-2.47,8.27-15.13,1.02-11.95-106.79,97.54-261.58,73.39-349.04-17.01,0,0-13-15-13-15,0,0-.96,11.98-.96,11.98ZM2262,1218.02c-13.02,4.58-40.82,13.23-45.99,25.97,3.05,2.76,42.39-19.68,45.99-25.97ZM2204,1249.98c-36.58-1.43-87.27,12.42-125.98-5.98,25.99,26.33,89.5,14.78,125.98,5.98ZM2181.99,1244.02c-28.23,5.92-56.03,2.67-84.01.98,25.89,5.31,60.79,10.15,84.01-.98ZM677.26,1284.82c-26.47-13.53-55.6-32.16-81.26-22.79,8.33,17.66,34.36,5.62,41.92,8.9,13.89,6.03-9.73,13.1-15.92,12.07,20.89,29.31,58.28-9.61,55.91,14.91-54.27,6.62,33.47,29.1,28.06.11,0,0,8.01-1.99,8.01-1.99-2.33-1.34-37.96-6.71-36.73-11.2ZM808,1300.02c-31.67,7.71-69.6-5.19-97.99,1.95,18.33,6.48-6.01,11.89-9.99,18.01,23.46,10.99,34.88,1.31,50.89-11.87,17.66-1.26-4.68,16.07-8.91,19.87,41.68,5.11,35.71-11.55,66-27.96Z"/>
    <path class="st0" d="M2014,599.98l-96-45.96c32.97,10.32,69.1,24.32,96,45.96Z"/>
    <path class="st0" d="M2041.99,771.99c-18.15-7.47-30.99-57.35-39.97-77.99,15.96,21.8,30.63,51.88,39.97,77.99Z"/>
    <path class="st0" d="M2187.3,1148.11c.11,7.68-11.95,7.68-11.83,0-.11-7.68,11.95-7.68,11.83,0Z"/>
    <path class="st0" d="M2115.53,956.62c2.84,9.43,17.57-3.37,14.42,13.34-4.94-1.57-18.24,4.63-11.96-5.95-15.28,6.89-13.95-13.82-2.46-7.39Z"/>
    <path class="st0" d="M2107.78,1143.02c.11,7.49-11.66,7.49-11.55,0-.11-7.49,11.66-7.49,11.55,0Z"/>
    <path class="st0" d="M2085.34,1134.45c.11,7.35-11.44,7.35-11.33,0-.11-7.35,11.44-7.35,11.33,0Z"/>
    <path class="st0" d="M2091.46,1146.14c.1,7.05-10.97,7.05-10.87,0-.1-7.05,10.97-7.05,10.87,0Z"/>
    <path class="st0" d="M2239.44,1014.94c.11,7.35-11.45,7.35-11.34,0-.11-7.35,11.45-7.35,11.34,0Z"/>
  </g>
  <g>
    <path class="st0" d="M1328,687.98c-38.46-27.8-119.39-77.38-161.99-97.96,58.1,20.12,117.08,56.28,161.99,97.96Z"/>
    <path class="st0" d="M798.01,1012.02c-5.6,10.37,36.12,7.8,15.85,22.84-19.88,13.12-66.07-3.64-88.78-12.88-9.49-48.51,51.68-5.1,72.93-9.96Z"/>
    <path class="st0" d="M716.62,1004.26c.23,15.84-24.65,15.84-24.42,0-.23-15.84,24.65-15.84,24.42,0Z"/>
  </g>
</svg>