<?xml version="1.0" encoding="UTF-8"?>
<svg id="_Слой_1" data-name="Слой_1" xmlns="http://www.w3.org/2000/svg" version="1.1" viewBox="0 0 2816 1536">
  <!-- Generator: Adobe Illustrator 30.0.0, SVG Export Plug-In . SVG Version: 2.1.1 Build 123)  -->
  <defs>
    <style>
      .st0 {
        fill: #fff;
      }
    </style>
  </defs>
  <path class="st0" d="M1293.62,628.54c26.02,21,240.02,75.09,103.95,42.9-86.42-25.4-184.82-63.2-259.57-113.42,33.47,15.81,121.29,62.65,155.62,70.52Z"/>
  <path class="st0" d="M1727.99,1136.03c-136.08-32.09-374.61-85.46-453.94-171.06,129.22,99.87,302.59,117.44,453.94,171.06Z"/>
  <path class="st0" d="M987.48,807.19c.13,8.65-13.47,8.65-13.34,0-.13-8.65,13.47-8.65,13.34,0Z"/>
  <path class="st0" d="M1109.33,834.28c8.82-2.29,8.41,12.29,3.6,13.7-7.81,2.29-13.01-11.26-3.6-13.7Z"/>
  <path class="st0" d="M1318.27,1131.59c6.48-17.13-96.13-96.47-42.75-88.1,34.26,12.39,58.16,74.9,88.47,95.55-5.61,11.98-37.95-1.44-45.72-7.44ZM1320,1099.98c-23.25-40.2-69.37-73.91-16.16-2.82,4.26,4.42,10.69,2.67,16.16,2.82ZM1335.99,1123.99c-1.11-14.51-9.01-17.06-21.99-13.97,4.69,7.4,12.82,13.75,21.99,13.97ZM1355.98,1136.03c-10.4-2.62-8.82-13.77-19.99-5.99,1.89,5.66,17.5,11.35,19.99,5.99Z"/>
  <path class="st0" d="M609.03,999.55l185.9,56.41c7.06,11.57-198.16-50.7-185.9-56.41Z"/>
  <path class="st0" d="M842.31,1034.3c.26,17.46-27.17,17.46-26.91,0-.26-17.46,27.17-17.46,26.91,0Z"/>
  <path class="st0" d="M688.18,998.33c.25,17.4-27.08,17.4-26.82,0-.25-17.4,27.08-17.4,26.82,0Z"/>
  <path class="st0" d="M1409.98,820l-77.97-87.99c29.45,20.86,61.05,54.95,77.97,87.99Z"/>
  <path class="st0" d="M1204,1126.02c-4.12,6.17-17.99,11.42-23.99,4.97l23.99-4.97Z"/>
  <g>
    <path class="st0" d="M1882.02,330c5.86,17.92-23.35-.74-31.83,8.18-5.46,18.04,21.39,3.92,30.84,3.85,73.25-3.26,148.29,109.13,200.92,159.01,34.04,44.89,122.56,197.52,10.07,182.92,98.51,36.79,212.37,87.98,265.41,183.65,2.44,31.55-73.39-16.57-87.41-7.64,183.95,93.3,167.82,380.38-22.67,456.37,0,0-29.33,11.63-29.33,11.63,5.85-1.28,11.73,1.44,16.99,1.62,789.97,10.33-2530.03,11.74-1564.1-1.69,10.77-.15,20.51,1.52,31.09,2.07-15.65-7.23-52.79-18.37-66.58-29.55-199-124.93-127.46-391.58,45.44-462.24-8.06-10.75,8.77-14.64,17.15-12.19,5.31-12.07-22.23-9.15-12.2-22.81,15.82-1.18,31.15-6.4,4.63-11.64-8.31-20.88,17.23-7.09,17.55-14.51-9.05-4.98-25.29-15.99-5.99-19.06.4-3.59-3.73-.03-4.2-4.86,7.74-32.67-35.46-7.59-45.73,7.95-68.77,79.15-112.35,188.03-208.23,239.77-22.36,18.02-39.21,16.72-17.17-14.17,54.81-53.39,84.43-121.47,97-197.99,4.87-20.62,35.87-4.37,24.22-27.55-.5-4.9,1.52-30.44,4.01-32.25,1.24-.9,12.63-.27,8.1-4.84-116.42-19.3-38.64-47.08,28.01-54.05-24.4-43.98-74.07-71.84-99.61-117.37-42.55-61.59,20.47-35,19.63-62.59,45.75-1.34,97-6.48,37.12-48.15-4.99-2.18-53.08-16.24-55.98-15.97-2.74.26-3.08,13.21-1.15,16.08-20.25,2.68-13.16-16.69-16.26-21.72-134.12-53.35,147.53-24.23,174.12-11.12,16.36,14.56,27.4,30.74,38.01,1.74,137.69,10.2,285.38,12.27,417.71,62.53,106.13,48.75,265.96-19.78,350.02,63.92,40.51,51.8,103.65,158.74,28.68,206.93-2.77,54.27-38.79,71.62-4.84,133.31,7.68,25.67,15.12,51.45,22.32,77.26,13.03-9.23,214.95,65.51,199.26,9.2,18.9-113.85,45.33-228.84,70.99-339.04,1.53-18.11-38.8-14.27-36.15-66.1,8.81-11.76,15.95,18.68,19.22,23.01,18.16,11.61-7.12-27.65-8.61-35.38-14.19-37.38-26.67-75.45-41.69-112.53-1.95-11.21,9.67-5.83-5.68-14.11-12.89-45.18-61.09-120.04-48.51-166.32,21.25-57.35,100.05-102.8,145.94-133.16,30.34,17.13,64.29,33.92,87.53,60.53,32.89,30.78,95.36,171.37,1.97,149.05ZM1803.13,134.91c-13.8-15.41-24.87,5.82-33.13,18.13,1.7,11.6,47.75,9.37,62.87,17.09,75.27,31.71,1.97-21.29-29.75-35.22ZM1752,160.02c-5.44-.87-46,28.17-44,29.96,11.3-6.47,34.45-21.31,44-29.96ZM1893.99,287.99c-12.44-54.49-80.09-110.93-127.99-125.97,9.11,12.35-1.93,2.32-3,2.34-2.08.05-18.22,23.75-21,27.62,24.33,2.43,90.96,39.17,97.07,61.97,3.41,17.8-12.96,37.3-27.06,44.03,28.94-3.84,35.2-5.87,61.33,7.97,55.33-7.02-18.94-32.37-29.33-49.94,8.07.94,42.91,27.31,49.98,31.98ZM1734,189.98c6.26.22,16.73-17.89,17.98-21.98-10.06,5.19-13.16,12.41-17.98,21.98ZM1845.99,180.02c-15.78-3.85-31.59-9.84-47.98-10,14.17,8.23,40.83,27.07,53,37.97,0,0-10.94-21.08-10.94-21.08-2.37-8.24,4.67-2.19,5.92-6.89ZM1712,196.02c-20.62,4.44-79.02,67.49-40.51,45.47,6.08-19.27,29.32-29.09,40.51-45.47ZM1735.99,196.01c-37.57,9.56-45.56,58.99-29.79,29.21,23.42-17.67,33.79,7.54,29.79-29.21ZM1786.02,291.97c17.86,18.92,52.17-17.92,49.64-36.51-9.91-19.65-110.74-92.05-91.71-36.41,14.65,11.96,88.99,14.48,72.69,50.22,6.28,14.2-21.18,17.97-30.62,22.7ZM1877.71,210.28c-9.72-2.1-34.69-15.8-9.59,7.14-4.21,9.73,5.14,13.9,7.91,22.57,4.84-.8.3-9.74.37-12.98.09-4.25,3.58-13.19,1.31-16.72ZM1882.02,212c-9.14,33.64,27.54,61.9,14.29,92.7,61.68,67.49,4.54-127.34-14.29-92.7ZM1693.99,222.01c-2.89-3.05-17.21,15.05-17.99,17.97,14.84-.12,15.82-4.33,17.99-17.97ZM1734,269.98c21.29-6.82,11.4-46.43-11.99-41.96,20.05,5.59,26.67,26.47,11.99,41.96ZM1761.97,232.04c-6.28-5.9-3.43,11.9,1.01,11.88.81,0,9.31-7.25,15-3.93-2-6.03-17.55-1.45-16.02-7.94ZM1737.98,256c3.15-17.24-28.97-35.13-17.99-8.01-1.16-.97-4.06-4.95-5.97-3.98.92,9.02-7.64-.93-13.56-1.67-19.4-1.95,3.5,16.42-2.45,29.66,0,0,18.98-17.96,18.98-17.96,8.82,6.63-6.78,8.11-9,15.94,14.02,1.58,14.41-21.52,29.98-13.98ZM1764,279.98l-5.98-29.97c1.83,5.91-8.85,35.97,5.98,29.97ZM1681.52,273.5c9.31-9.47-4.19-29.03-14.62-17.6-10.76,11.8,6.66,25.7,14.62,17.6ZM1803.9,262.1c-1.01-1.15-30.43-11.9-23.91-.11.42.43,15.78-1.34,10.01,3.99-17.33-1.22-19.69,18.03-17.99,32.01,5.13.86,3.62-.74,4.57-4.31-3.05-34.01,29.75-6.21,27.31-31.57ZM1656.03,280c-1.21-2.16-1.59-18.07-2.05-22-9.73,13.08.32,45.18,10,55.99-.9-9.53,9.13-37.01-7.94-34ZM1716,276.02c-13.23-2.73.13,13.91-4.02,19.97.62.52,13.45,1.63,16.03,1.99-3.41-6.32-7.19-12.38-6.01-19.97-4.48,5.16-8.78,3.87-5.99-1.99ZM1729.56,306.44c-14.32-5.33-30.21-4.49-34.54-26.4-33.66,15.07-22.05-2.72-28.59,48.43,14.85,46.61,7.12,14.65,23.2,22.89,4.47,7.89,7.92,30.77,10.36,40.63-5.89-3.67-1.74-11.84-11.96-7.02l12.01,31.01c3.61-6.61,95.04-32.23,77.96-47.99-24.39,18.75-28.68-21.36-4-6.01-1.18-4.06-7.25-26.4-8.41-27.57-14.27-6.44-33.31-10.56-36.01-27.99ZM1737.99,284.01c-11,.67-2.44,39.1,12.01,37.97-13.03-11.38-13.19-21.26-12.01-37.97ZM1766.01,285.99c-13.88-4.94-13.74,17.46-.02,14.02,0,0,.02-14.02.02-14.02ZM1847,330c8.73,1.16,44.98.98,19.17-7.17-1.95-1.23-5.35-4.04-5.9-6.16-1.96-7.53,8-5.38,4.76-8.68-5.41-3.1-12.92-8.01-18.94-9.15-25.51-.09-45.3,6.64-64.06,21.2,16.41,5.17,11.72,33.36-8,23.97,21.58,56.89,7.47,24.64,31.02.79,5.68,5.07,12.88-1.23,19.98-.96,13.78.04,13.68,7.97,20.97-10.86l-51.97-18.96c17.38-2.58,39.21,11.22,52.99,15.98ZM1767.99,308.01c-22.21-5.99-33.44,5.61-3.97,5.98-3.78-4.6.31-4.63,3.97-5.98ZM1898.66,315.35c-6.65-5.08-1.97-10.52-16.65-3.32.55,5.63,9.1,4.13,9.61,4.52,5.01,13.65,30.49,8.43,7.05-1.19ZM1924,367.98c1.48-25.62-46.42-22.86-59.99-14.01,123.05,60.32,180.65,145.25,259.96,234.03-40.16-108.34-140.9-171.41-229.97-235.01,3.22-5.31,27.07,17.64,29.99,14.99ZM1865.69,364.32c-1.08-1.72-32.81-11.53-37.31-11.88-3.66-.29-5.86-1.01-8.37,2.58l13.98,1.01c-28.61,7.04,23.31,19.8,31.43,26.59,10.6,14.73-.03-13.93.28-18.3ZM1814,366.01c-46.19,22.83,151.54,139.94,123.99,201.97.01,0,25.7-12.27,25.7-12.27-11.08-66.94-121-123.46-146.72-179.74-2.54-2.37-10.28-1.38-6.95-5.95.42-.58,5.96,1.59,3.97-4.01ZM1875.98,398.03c-153.85-93.01,76.24,96.75,89.76,141.22,8.79,20.3,4.02,26.77-4.03,45.47-120.57,215.35-138.51,312.87-105.66,553.29-10.77-73.55-20.93-157.23-24.14-230.92-28.25-74.98,241.41-482.01,61.13-291.05-27.03,80.79-59.77,181.54-73.13,264.89.09,55.83,9.43,148.47-53.81,164.32-.66,2.25.21,4.26,1.8,5.86,41.86,55.85,118.86,63.33,30.12,119.92-1.75,4.13,2.85,2.78,4.97,2.96,86.79,23.72,65.27-117.47,82.4-171.95,28.08-120.22,111.12-302.44,228.57-347.03,0,0-27.96-18.12-27.96-18.12l-68.01,78.12c3.98-6.62-172.51,182.01-125.94,124.07,59.54-68.53,131.39-130.69,187.96-202.13,19.66-24.66-16.13-61.35-30.06-81.87-46.6-57.97-104.42-106.94-167.35-150.85-1.75-.87-13.08-1.2-10.6-4.19.61-.73,4.79,1.63,3.99-1.99ZM1941.29,372.74c-35.07-10.2,34.78,29.99,34.71,31.24-7.37-10.53-24.45-23.52-34.71-31.24ZM1881.99,375.01c-4.59,44.35,61.7,60.02,96.01,68.97-30.04-23.34-61.03-57.5-96.01-68.97ZM1889.59,597.57c5.63-12.75,40.75-28.64,41.82-42.16-14-75.62-104.44-113.76-133.39-179.41-19.05,38.93,48.53,152.42-20.99,143.98-34.03-3.71-34.65-54.13-44.93-79.14.32-25.48,38.82-35.71,57.8-38.92,14.5-32.02-64.7,25.24-69.05,22,15.43,45.14,31.07,90.41,49.98,134.24,17.88,7.51,40.43,12.73,58.7,19.3,75.44,16.36-29.84-143.95-27.51-165.46,14.87,18.02,86.01,163.23,47.21,170.4-36.77-3.35,27.51,22.61,40.35,15.17ZM495.99,396.02c-12.97,1.95-26.49-3.55-39.07-2.08-31.81,4.43,81.98,23.67,78.58,25.57,80.24,2.92,259.43,125.56,396.49,130.49-96.15-64.91-222.85-64.72-312.05-132.95-23.02-12.73-126.1-4.81-123.96-21.03ZM1791.68,429.69c1.37-2.14,1.48-22.45-2.84-23.49-4.16,1.54-35.24,6.22-30.85,15.81-41.91-6.53-3.07,65.39.03,83.99,24.78-19.26,8.32-66.03,33.66-76.3ZM891.99,552.02c-146.3-35.43-277.28-123.97-429.98-143.99,0-.02,18,8.61,18,8.61,84.79,23.39,184.75,49.19,266.63,99.72,29.5,28.46,106.32,35.66,145.36,35.66ZM662,433.98c-7.44-10.11-18.13-18.15-29.98-21.98,5.94,8.19,19.95,19.63,29.98,21.98ZM987.92,444.09c-32.79,10.75-329.08-49.33-282.04-16.98,58.2,30.53,154.74,24.05,213.52,65.51,48.84,73.39,147.14,71.08,221.62,109.37-28.3-71.2-134.9-80.45-153.1-157.9ZM690.68,429.3c-5.62-9.75-2.21-1.97-12.96,1.56-2.45,2.72,3.21,6.81-3.71,8.13,90.04,30.87,179.56,69.71,269.99,97.01-49.4-81.65-183.52-62.06-253.32-106.7ZM1750.02,536c3.42-17.61-29.54-101.98-35-109.95-26.62,19.77,80.95,168.56,56.87,187.08,8.71,17.02.77,37.03-1.88,54.87,12.61-6.32,70.13-45.94,68.64-57.61,16.48-15.67-51.48-29.23-59.62-34.39-3.38-8.32,23.67,3.46,28.05,3.93,77.19,21.81,15.28,58.17-21.25,84.9-11.33,8.45-21.38,7.87-21.81,25.16,50.31,5.64-16.02,140.99-37.48,163.52-5.83,82.96-73.3,154.06,65.27,122.28,1.82-62.99,5.16-127.31,24.78-188.22,13.37-46.33,61.18-182.19-9.41-85.41-48.82,81.82-52.38,194.21-87.17,274.85,30.51-97.66,37.64-245.37,118.08-315.92,49.55-21.49-43.37,162.35-28.09,186.89,26.76-206.68,154.24-234.6-37.44-281.52-10.05-2.12-9.24-27.48-16.53-22.46-.84-4.61,3.17-13.3-6-8.01ZM1793.99,435.99c-18.14.25-19.05,65.73,6.01,56.02,2.15-2.14-6.54-48.63-6.01-56.02ZM2024.7,485.3c-19.72-32.98-120.14-68.68-54.56-18.44,19.61,4.56,106.9,63.05,54.56,18.44ZM1363.49,507.37c-110.66,8.02-289.12,45.67-367.47-61.35,11.69,52.89,94.27,74.92,130.04,112.93,12.08,13.03,23.37,41.34,30.49,48.51,37.78,15.98,82.33,38.16,111.6,69.4,0,0,195.13,53.08,195.13,53.08,11.76.11,21.69-36.54,22.71-46.96,5.27-53.84-43.46-96.13-59.72-140.24,1.72-34.01-38.7-41.86-62.77-35.37ZM602.57,470.51c-11.42,17.18-14.35-7.1-16.5-15.57-46.94-19.97.02,9.14.24,28.89,0,0,35.69-1.83,35.69-1.83-.56-14.97-3.67-18.88-17.99-19.98,1.78,5,6.9,8.47-1.44,8.5ZM1339.99,504.02c-114.45,5.72-227.21-13.37-333.99-54.01,79.69,95.8,225.04,59.57,333.99,54.01ZM1802.01,497.99c-1.48-1.41-27.57,1.81-25-17.98l-12.83,27.06c9.96,9.95,45.66,13.34,37.83-9.08ZM653.98,492c-4.43-15.11-27.67-7.19-37.07-2.09-26.32,1.83-64.79-1.71-90.9,8.08,53.07,7.24,180.69,23.09,199.26,15.77-34.81-3.89-65.54-19.76-99.26-23.79,7.31-1.58,21.44-2.51,27.97,2.03ZM703.99,500.03c-14.36-3.97-27.16-14.13-41.98-16.01,8.65,10.78,31.29,20.02,41.98,16.01ZM2052.7,531.3c-12.17-13.49-28.25-28.44-46.69-34.31,43.69,45.43,100.8,92.64,114.46,156.55,34.66,31.28,14.51-31.26,7.25-50.25-21.48-22.98-50.47-52.85-75.02-71.99ZM708,531.98c-50.31-33.48-124.18-9.16-181.99-27.97,58.21,18.96,122.1,15.84,181.99,27.97ZM516,508.02c-10.62-2.62-36.31,3.86-33.98,17.98,7.66-12.58,23.8-10.95,33.98-17.98ZM525.99,514.01c-6.17,1.5-38.43,4.83-37.22,12.11,10.84,27.86,37.89,52.69,63.23,67.86-15.19-24.47-64.19-58.86-26.01-79.97ZM713.99,535.99c-56.6,5.86-119.26-26.17-175.98-11.97,2.09-4.65,191.18,33.09,175.98,11.97ZM724.01,536.01c11.04-1.23,58.54,12.99,16.76-15.54-12.36,3.83-25.5-2.58-38.76-.46,5.86,2.93,14.9,12.41,20.02,20.52,13.57,6.71-6.88,5.08-8.02,9.44,63.22.97,127.63,30.02,189.98,14-39.33-4.27-130.97-27.24-169.06-21.99-4.62-.04-9.63,3.45-10.92-5.98ZM601.99,534.02c-19.75,2.55-56.06-8.5-73.46-4.51-14.54,6.14,4.9,16.67,5.49,26.49,3.54-3.99,25.61-4.15,19.96,1.99,14.06-2.18,27.23-5.72,42-4-28.54-13.6-22.25-19.34,6-19.96ZM1435.96,528.02c7.1,57.1,96.97,132.04,43.99,202.98,69.79-34.76-6.47-156.85-43.99-202.98ZM689.99,550.02c-34.56-2.26-73.5-11.59-105.95-7.03,8.9,10.89,90.2,18.73,105.95,7.03ZM1017.72,564.26c-17.42-.66-95.8-39.32-77.62-12.35,91.74,12.15,221.42,67.32,299.94,121.04,33.4-16.08-143.05-82.39-165.01-88.99-11.02-3.85-35.19-13.83-45.02-15.18-6.43-.88-14.86,4.62-12.3-4.53ZM883.62,574.33c-56.24,6.26-119.51-18.93-176.72-22.06-42.06,22.91-95.18,3.64-138.96,10.67,41.45,125.5,189.73,166.55,295.49,228.66,67.4,2.61-251.51-132.11-258.46-171.59,396.54,276.99,245.83,100.94,589.02,148.96,54.23,15.39,106.86,35.6,158,59.01-135.16-118.98-302.22-191.98-468.38-253.65ZM1361.98,830c-82.01-159.31-297.51-285.19-473.98-258.01,165.48,53.14,339.42,140.32,473.98,258.01ZM559.91,562.1c-39.61-13.14,6.44,36.92,22.08,43.89-.09-6.64-24.21-34.17-22.08-43.89ZM2113.98,650c5.53-7.45-33.71-69-43.96-76,4.25,12.21,15.49,23.75,18.61,36.37-1.58,22,6.68,30.41,25.35,39.63ZM648,679.98c-33.18-44.21-81-67.88-125.99-97.97,30.92,44.58,73.24,81.44,125.99,97.97ZM1767.99,588.01c-4.62,2.43-24.07,3.53-6.96,7.97,4.04,4.87-7.99,1.65-9.02,3.01,14.8,14.72,20.61,5.57,15.98-10.98ZM1809.99,967.99c-4.67-110.29,34.22-213.25,64-317.98-36.5,79.88-83.52,236.34-64,317.98ZM2084.01,673.98c16.57.51,78.33,5.5,34.96-15.4-6.58,6.79-23.45,16.37-34.96,15.4ZM643.99,686.03l-43.98-20.01c2.15,8.02,3.18,15.79,1.05,24.05-4.56,10.49-23.8,38.02-36.83,38.15-.93,1.04-.12,23.18-2.2,27.78l24.02-40.95c11.6-11.69,29.38-16.84,4.24.24-13.05,14.09-20.05,47.74-36.24,61.72,1.25,3.41,9.78,4.15,10.11,6.19-3.84,10.29-28.08,67.41-39.14,48.82-14.72,22.21-24.07,67.78-39.92,92.09-6.84,13.85-27.46,41.63-37.07,53.91,7.47-3.93,41.46-41.32,37.94-45.98,35.01-60.53,89.49-157.38,127.97-225.1,6.93-12.44,88.61,13.24,44.05-7.89-14.72-9.22-47.46-9.39-53.97-25.02,3.64-2.24,36.47,18.96,39.98,12.01ZM597.99,679.99c.51-11.58-25.57,2.56-29.98,1.99,0,0,29.98-1.99,29.98-1.99ZM595.99,684.01c-20.43,4.27-62.88-2.64-55.85,26.75,4.61,4.71,22.76,4.72,28.59,11.12,3.57-.62,18.57-17.73,15.29-23.87,4.73,9.68,12.25-8.19,11.97-14ZM1268.98,683.45c-11.24,5.43,198.98,64.57,192.25,54.1,0-.01-192.25-54.1-192.25-54.1ZM536,709.98c-3.97-7.36-1.7-14.44-.02-21.98-24.85,9.99-34.9,18.83.02,21.98ZM2083.99,688.02c-12.44-.06-23.42-3.04-29.99,9.96,9.36-2.1,22.8-3.77,29.99-9.96ZM1447.99,742.02c-233.16-49.97-198.39-105.19-78.45,89.46-3.08,10.72-.23,11.32,9.43,14.54,6.75,5.69,31.72,62.27,37.37,74.62,9.31,42.64,38.33,60.1,81.66,51.32-19.37-69.41-68.61-143.31-24.01-211.95-16.42,5.94-8.83-18.95-20.64-15.83-9.9,10.42-34.41,49.68-36.78,66.49,12.29,19.63,36.47,123.97,67.41,125.34-45.21,2.28-48.31-89.45-71.61-121.55-2.7-19.81,26.53-54.67,35.61-72.45ZM2349.99,869.99c-48.63-81.33-179.3-172.57-273.17-172.2-7.88,8.48,41.83,15,51.11,23.28,56.58,25.33-64.65-19.38-64.54-18.51-78.09,11.18,13.48,89.31,26.61,117.44-4.8,6.6-64.52-81.84-66.99-83.96-83.27,89.54,41.69,96.98,103.74,82.21,64.09,6.87,128.22,30.44,191.26,43.73-61.27-76.27-186.87-104.15-257.43-137.59,90.32,25.09,201.91,63.65,262.01,139.02,2.36,1.76,26.11,7.74,27.41,6.58ZM1728.02,836c25.41-25.7,37.36-95.45,43.88-131.2-26.87-22.28-35.9,110.57-43.88,131.2ZM727.99,728.03c-20.67-7.93-35.63-21.9-59.07-15.94-27.9-4.68-70.37-10.82-60.88,29.89,34.2,1.73,84.84-14.37,119.95-13.95ZM660,742.02c-67.57,31.17-111.75,147.25-160.01,205.95,0,0,160.01-205.95,160.01-205.95ZM632,746.02c-85.26,5.36-99.8,170.22-168.01,223.94,69.23-61.41,106.03-154.49,168.01-223.94ZM781,816c37.58-2.99,61.61,9.63,8.97-18.97-11.68-25.44,9.58-41.46-28.95-51.04,3.2,7.16-1.27,10.62-1.93,15.11-1.43,9.73,3.92,16.06-13.08,14.93,13.66,5.74,14.67,21.99-4.01,20,18.54,13.6,12.26,15.6-3.98,23.95,19.21,10.5,27.13,14.58,42.99-3.97ZM1335.99,824.03c-155.87-74.04-296.92-78.05-424.41-28.58,64.56-16.07,130.87,11.9,193.9,26.08,8.07,1.78,33.52-1.45,12.53,2.49,18.73,10.68,47.15-10.31,68.42-14.58,49.66-19.13,103.97,14.82,149.55,14.59ZM891.99,814.03l-99.97-52.02c-10.18,50.88,68.07,55.65,99.97,52.02ZM749.99,788.02c-10.56,1.58-63.82-6.87-49.04-.01,15.09-.62,36.96,6.29,49.04.01ZM557.99,788.01c-7.37,1.67-21.7-3.49-25.98,1.96,7.36.92,24.29,10.23,25.98-1.96ZM905.99,796.03c-12.43-6.98-22.9-2.36-35.98-2.01,16.19,10.58,18.87,14.08,35.98,2.01ZM551.99,798.01c-30.95-10.94-31.34,8.09-18.99,31.95,3.29-2.95,21.09-30.14,18.99-31.95ZM1983.97,794.01c-6.58,9.31,15.05,47.76,20,63.98,12.42-21.21-16-42.53-20-63.98ZM1131.52,836.49c-287.8-75.91-211.15-18.2,13.84,43.14,6.61,3,47.49,32.83,32.68,36.35-7.42-14.69-22.37-26.48-37.52-33.51-40.18-16.23-87.79-23.59-127.63-38.37-36.06-11.11-73.92-44.08-112.87-32.14,0,0,103,56.01,103,56.01,1.28.4,3.04-23.98,12.98-21.97,0,0-3.98,7.98-3.98,7.98,9.16-4.62,20.08.83,29.51,3.47,23.92,9.12,102.55,26.44,107.91,50.62,35.59,19.35,40.59,19.66,16.56,53.88,7.12-.27,17.32,12.85,21.58,4.6,2.15-4.06,13.89-40.04,9.94-16.06-26.75,39.55,123.95,65.36,154.5,88.47,145.57,49.37,279.25,129.51,434.95,133.02,137.68-76.19-130.6-113.87-195.04-124.94-136.09-18.66-275.18-84.53-407.93-113.1-1.51-8.83,61.78,14.02,63.98,13.04-44.6-31.28-90.9-60.89-116.47-110.51ZM1908.02,946c36.51-14.67,54.4-61.22,87.69-83.4-19.44-127.72-69.32,33.79-87.69,83.4ZM745.99,808.02c-5.84,2.3-56.01-2.16-56.01.98,17.65.74,39.95,8.27,56.01-.98ZM1207.99,810.02c-22.61,3.93-49.45,9.45-67.98,21.95,5.6,4.7,61.77-20.1,67.98-21.95ZM1409.99,935.99c-6.14-19.52-27.72-80.1-49.98-93-61.57-23.19-147-42.56-206-4.95,59.12,55.03,177.84,85.53,255.97,97.96ZM730.01,817.99l-26.02-2c-4.77,16.17,17.35,9.47,26,12.02,0,0,.01-10.02.01-10.02ZM871.67,824.33c-4.4.61-41.02-8.8-39.66,3.66,1.56-2.53,52.68,8.73,39.66-3.66ZM2020.08,843.95c30.66-3.75,8-20.44-8.08-19.92,0,0,8.08,19.92,8.08,19.92ZM848.01,831.99c-25.53.19-44.54-11.43-70-3.96,0,0,32.09,4.87,32.09,4.87,13.32-1.39,42.39,24.46,37.91-.91ZM886,832h36c-6.4-7.23-33.07-11.49-36,0ZM2134,826c-15.95-2.14-44.74,2.41-58.98,10.03,0,0,58.98-10.03,58.98-10.03ZM787.99,838.02c-28.33-12.86-34.9,17.39-56.95,21.99-4.63-7.99,12.41-14.26,14.96-21.99-19.27-6.73-39.21,18.14-45.24,27.71-14.67,3.27,1.25-18.71,5.25-21.71-25.36-1.47-38.86,25.66-45,39.98-14.52,4.02,4.85-22.99-3.96-21.97-21.1,4.37-25.01,28.24-26.98,41.1-15.82,3.35-2.22-13.38-7.05-21.12-35.19,19.16-14.12,46.78-29.05,49.04-6.25-3.26-2.58-11.89-4.96-17.04-5.14,9.2-18.35,13.88-17,25.98,1.35,1.44,34.86-9.38,37.84-11.14,68.19-70.36,180.51-86.29,263.99-31.67,6.81,2.31,41.1,38.49,36.18,21.83-9.97-18.1-40.2-15.44-14.02-21.99-4.45-3.12-16.48-16.58-20.04-18.08-3.89-1.63-44.31,6.69-9.96-9.93-3.94-5.06-9.29-7.74-14.5-11.07-3.97-13.16-31.77,13.99-37.48,8.05-1.05-10.06,9.32-11.6,15.42-15.5,13.57-5.66-16.54-8.06-20.44-8.66-21.39,6.65-60.59,29.78-21-3.8ZM971.67,858.32c-19.38-16.22-48.94-22.05-72.66-16.14-99.76-25.09-6.9,39.27,18.03,63.78,19.81-1.36,63.13,12.79,51.98-22-1.67-2.77-51.88-25.17-58.5-27.48-12.49-6.97-37.43-2.5-42.52-14.46,30.72-9.75,115.91,65.82,103.66,16.3ZM2145.43,836.64c-6.72-2.41-17.99.38-25.42-.62,8.58,3.27,24.46,27.27,5.9,17.07-15.44-11.19-22.4-20.28-43.9-8.08,6.26-1.01,20.5,16.75,11,16.94-17.71-9.47-32.13-24.4-19,10.05,69.52-22.98,147.85-12.28,205.81,33.17,13.6,10.31,25.08,22.87,37.17,34.79,17.32-6.92,6.89-39.63-8.99-43.95,1.11,11.8,3.22,22.61-12.05,19.02-5-2.31,3.93-3.41,4.23-9.99.86-18.89-10.71-26.63-25.21-35.03,8.29,30.61-7.31,28.12-10.48.46-4.46-5.26-5.68-3.16-6.39-9.41-1.73-1.55-21.09-11.16-20.1-8.08,15.1,21.08-1.89,29.81-7.09,3.09-6.77-11.03-21.27-13.3-32.92-16.05,16.36,10.91,8.62,37.9-1.95,10.92-8.6-13.73-18.05-16.45-34.05-14.92,3.31,5.12,8.14,8.09,8.13,15-.57,17.5-16.88-13.46-24.69-14.38ZM1152.01,840.02s-14,.96-14,.96l29.96,37.03c-2.16-12.87-18.12-25.03-15.97-37.98ZM2065.86,869.84c-6.77-42.58-25.39-17.55-52-8.71,5.56,41.39,27.48,17.23,52,8.71ZM1413.62,940.38c-92.6-15.71-179.56-34.25-255.6-92.38,51.35,146.71,408,160.09,555,192.01,45.78,10.17,104.29-15.66,96.97-70-11.66,55.32-54.75,69.91-108.98,61.98-121.29-20.93-285.41-31.13-385.04-85.93-37.96-6.15-103.62-27.13-120.98-54,29.36,19.21,90.45,47.22,127.04,51.95,1.06,1.23-7.47,11.52,11.23,12,1.48-12.39,83.62,8.49,90.74,7.99,0,0-10.37-23.61-10.37-23.61ZM2298.7,929.3c-21.4-51.19-249.25-105.43-211.75-27.54,239.33-85.02,355.45,303.37,106.6,364.81-206.11,52.18-327.56-222.09-153.69-343.81-7.9-23.39-16.75-20.73-33.89-5.77-10.49,11.81-47.09,40.41-39.99,57.02-130.44,167.39,100.71,416.08,289.36,296.33,119.48-66.25,145.24-248.43,43.36-341.03ZM1013.99,882.02l-31.97-16.01c.58,3.11-.94,14.82.1,15.89,5.29.68,27.99,7.89,31.88.12ZM1121.99,907.99l-105.97-41.99c-5.94,10.54,51.34,58.18,35.98,36.02,17,6.6,52.42,18.52,70.02,24.95,7.76,12.37-47.26-13.77-54.01-12.95,0,0,45.93,23.07,45.93,23.07,10.83,3.07,7.84-2.54,13.12-9.09,6.72,1.83,46.53,29.64,37.5,2.42-5.15-3.07-31.49-11.1-32.47-12.54-5.13-7.58,16.87-9.51,2.9-17.9-34.39-12.62-69.61-25.13-105-33.97,2.87,3.76,97.61,33.98,91.98,41.97ZM920,943.98c-124.48-178.77-438.63,35.03-218.72-21.68,137.88-49.17,145.93,65.25,218.72,21.68ZM2153.73,1057.7c-21.88-63.02-68.53-120.19-85.75-185.7-4.85,8.17-59.46,21.34-29.99,22.02,15.21,56.83,67.05,131.4,82.02,177.97,3.77-6.84,28.36-7.53,33.71-14.29ZM2003.99,905.99c39.57,4.66,3.3-51.18-19.98-12.98,7.35,1.82,28.61.44,19.98,12.98ZM1802,951c2-22.7-1.48-48.02,0-71-4.15,15.56-8.88,125.04,0,71ZM997.99,890.02c-20.82-7.4-15.69-.94-17.99,15.96,21.08-1.84,11.03-3.06,17.99-15.96ZM1017.99,890.02c-25.14,2.78-12.73,15.54-9.97,31.98,8.37-3.31-4.48-23.04-1.93-25.89.47-.53,11.87-1.85,11.9-6.09ZM1021.97,939.98c4.17-11.16,13.21-19.69,22.02-27.01-36.25-42.84-33.37-1.57-22.02,27.01ZM2090,906.01c.07,19.64,16.52,7.94,29.25,6.23,78.3-10.49,152.18,29.51,183.1,102.41,108.23,399.1-554.91,206.68-255.22-72.7,1.54-2.43-2.14-11.76-4.11-11.91-110.81,74.97-106.64,242.21,9.64,310.3,317.06,161.61,377.23-419.84,37.34-334.33ZM1964,1221c1.14,15.62-3.77,35.79,15.98,45-.26-2.44-.99-24.91,4.99-21.98,6.86,3.36,2.34,22.63,5.04,30l3.95-2.04c-.19,9.56,10.41,15.68,9.03,2.03l6.99,13.98-1.97-19.99c13.68-1.73,8.34,6.49,10.47,14.52,6.4,21.96,30.26,36.43,21.52,5.47,11-2.73,8.24,6.89,11.96,15.05,4.86,10.68,13.42,15.42,25.07,16.95,7.91-.25-7.21-13.7-3.02-20,11.33-3.03,11.15,12.5,17.07,19.92,5.87,7.36,18.18,7.44,26.92,8.06-17.77-23.76-1.83-25.01,9.87-2.84,55.4,10.97,5.8-7.35,21.16-15.13,6.41-1.72,15.43,17.39,25.86,17.73,32.81-2.12,14.7-6.9,1.12-17.72,15.92-7.65,22.62,8.7,35.18,9.96,8.08.81,16.55-6.08,24.8-6-2.67-3.4-26.1-10.16-14.89-15.96,5.06-1.3,26.98,14.31,36.9,5.96-10.31-11.25,5.15-4.9,9.99-7.96-47.97-17.89,23.77-1.82,31.97-21.02.09-3.36-27.8-3.72-17.02-11.12,13.37-1.41,36.75,4.4,45.06-15.87-3.65-1.89-9.21,4.48-9.95,3.96-20.97-19.6,3.54-10.5,20.5-16.43,6.23-3.08,11.86-13.72,15.45-19.52-9.44-1.02-23.04,10.52-19.92-5.93,13.16.02,36.24-11.04,39.9-29.11-4.94-2.56-23.96,14.69-23.7,2.34,8.26-10.8,37.9-14.35,33.7-37.31-19.78,13.37-30.09-.59-4.97-7.99,10.12-6.79,14.64-17.84,12.97-30-1.94-2.22-12.44,10.22-17.01,9.93-7.78-5.43-1.34-11.03,6.1-13.87,14.19-9.87,13.89-24.8,12.9-40.07-5.96,4.68-8.86,13.86-17.97,13.99-3.34-13.66,15.4-18.25,16.15-30.97-3.36-17.45-3.03-25.77-15.04-6.89-14.51,7.04-5.52-9.79,1.23-16.77,7.16-17.14.6-21.26-2.37-37.35-9.12,29.17-22.37,28.45-8.49-3.54,1.49-12.43-3.66-21.15-11.47-30.47.27,8.06,1.21,21.16-10.01,19.99,1.31-19.91,7.17-36.45-11.99-49.99,1.02,8-4.02,17.22,7.97,12-.25,6.55,2.23,9.7-5.97,5.97,0,0-1.01,6.02-1.01,6.02-11.46-10.42-19.85-3-8,8,117.17,135.24-38.99,430.18-262.38,334.36-119.26-43.98-179-198.35-110.92-313.71.33-2.69-5.55-5.93.31-12.63,4.14,12.6,37.05-44.1,51.97-51.02-3.74-1.77-8.22,3.56-9.99-2.98,14.7-7.36-33-10.5-40,11.96,4.22-1.36,31.67,0,24.01,8.01-13.69-.36-38.67-1.21-44.01,21.99,10.24-2.72,19.6,6.28,23.97-1.98-5.24,20.58-36.06,2.32-43.96,35.01,3.42,2.3,6.9-2.31,11.08-2.92,48.73-1.03-29.88,8.45-23.07,43.9,19.59-10.95,3.62-6.47,8-19.99,3.67-.31,1.13,4.52,3.94,7.02,26.7,6.53-4.54,16.69-14,25.92-10.15,27.27-2.34,15.26,16.04,11.98,12.87,2.02-13.41,14.18-17.09,18.96-7.33,9.49-4.44,21.05-4.88,32.1,6.5-5.32,10.12-15.45,19.98-15.98-5.89,21.57-26.09,26.43-13.97,51.97,15.24-27.75,24.78-8.94,27.8,13.22-3.99,3.86-8.4-22.55-9.81-23.19-3.54,23.02-20.21,11.14-8,47.99,6.26,6.14,7.71-30.62,19.95-14.01,3.2-13.18,1.63.9,2,4.02-4.22-5.6-12.51,13.73-13.19,17.95,3.39,24.23,12.24,36.35,17.24,4.05,17.7,7.38-11.31,33.74,14.99,51.98.98-5.05,2.35-27.66,10.98-16.99ZM980.01,910c-9.51-1.59-11.61,1.41-11.11,10.03,4.41,7.38,14.88-1.8,11.11-10.03ZM962,912h-42c2.49,11.82,44.71,9.45,42,0ZM797.99,920.02c-24.65-4.48-49.65-6.27-74.01.98,0,3,31.05-3.07,34.95-3.12,12-2.08,30.32,8.48,39.06,2.14ZM1110,951.98c-16.01-18.48-60.36-51.56-77.98-20.95,0,0,77.98,20.95,77.98,20.95ZM2217.51,940.38c89.11,75.76-13.31-52.26-116.26-14.34-4.51,4.56,3.54,12.28,4.72,3.97,0,0,5.02,22.01,5.02,22.01-1.77-29.67,22.97-27.23,39.63-29.98,4.44,8.68,15.49,1.77,22.9,10.43,3.4,25.22,10.44,53.02,8.45,78.5-1.63,7.35.56,19.39-9.06,18.91-2.29,7.25-9.7,6.22-12.91,12.1,31.78,24.85,17.75-4.19,43.98-19,9.14-4.53,55.8-15.76,65.76-15.9,23.03,5.13,37.94,57.81,12.27,64.9,25.86-3.35,14.7,36.47,10.51,51.55-4.64,12.68-24.1,74.63-40.91,43.86-24.37-39.08-34.48-62.37,12.39-85.36-60.64,37.19-75.65-20.67-82.01,23.95,26.82,1.15,39.38,12.9,52.34,34.68,4.13,6.95,17.02,30.77,18.75,37.3-4.47,32.76-43.57,55.12-67.07,20.04,39.83,40.18-40.09,39.24-64.4,35.37-60.44-2.84-4.63-46.24,15.91-60.83,13.21-7.83,21.79,6.5,31.5,9.37,33.6,34.48-35.63-30.97-11.04-57.89,0,0-24-.01-24-.01,14.85,39.69-28.45,77.63-56.97,94.14-31.97-11.36-54.45-31.75-27.11-63.6,14.49-26.71,25.48-52.09,62.07-46.57-6.36-6.19-5.54-37.36-13.22-22.24-29.98,23.54-51.19,6.21-80.77-5.73,11.75,11.73,46.98,18.84,43.17,40.02-6.46,11.01-23.17,75.26-43.1,48.91-14.72-21.65-47.39-80.49-16.11-97.95-21.14-17.36-2.84-59.71,20-68,0,0-7.96-10.98-7.96-10.98,7.41,2.23,12.03-10.98,18.07-17.04,5.07-7.12,16.48-14.45,21.46-19.38-75.94,26.86-94.74,181.82-17.32,243.18,149.02,141.68,364.24-85.23,222.79-228.75-7.71,6.36,22.46,24.76,6.89,32.87-7.15,4.07-54.31,10.52-62.47,8.66-14.08-3.2-22.02-47.57-23.18-60.81-2.8-33.56,21.17-7.68,37.27-10.38ZM924,924.02c11.13,19.06,26.36,8.18,41.96.98-11.78-7.1-28.14,2.08-41.96-.98ZM863.99,965.99c-36.92-46.3-120.98-52.38-171.98-25.96,2.05,12.78,26.2-.76,35.92-3.1,51.5-17.92,93.18,17.62,136.06,29.06ZM854,947.98c-7.47-8.31-20.71-16.05-31.99-17.96l31.99,17.96ZM996,937.98c-24.61-16.72-121.22,39.72-157.99,45.98,24.15,7.49,51.63,13.25,70.99,26,10.03-15.18-42.93-14.25-40.99-23.92,1.94-2.22,27.04-12.93,32.02-15.01,17.28-2.92,54.64-33.01,61.61-5.51-1.55,21-29.27,23.96-41.6,39.49,1.83,2.8,16.51,14.1,13.94,16.99-30.01-23.21-19.59-9-.98,7.96,13.64-8.58-6.54-25.66,9.93-28.06,4.31,17.91,20.98-17.02,28.31-21.67,2.59-2.82,16.24-14.24,16.75-15.26-18.7-9.55-20.85-28.91,8.01-27ZM2165.54,934.46c-30.71-8.42-53.7-4.45-47.37,33.37,34.43-6.42,67.06,16.06,47.37-33.37ZM625.99,936.01c-17.55-8.29-21.91,79.37-29.97,91.9,0,0,318.35,90.73,318.35,90.73,154.8,35.45-34.78-147.18-105.49-136.5-47-13.6-105.32-35.98-152.87-36.16,0,0,7.98-3.96,7.98-3.96-11.44.49-35.52-15.72-33.97,3.97,9.07-5.42,9.15,11.92,15.32.02,89.76,39.3,249.39,38.36,317.49,144.16,11.91,23.26-61.97-70.88-93.77-72.22-58.05-20.2-142.86-51.77-203.04-55.99,62.12,16.44,119.17,49.23,160.62,96.4,47.59,8.72,206.13,93.14,86.71,35.3-27.22-12.23-78.42-21.48-98.39-37.62-35.13-43.83-88.17-74.43-142.94-84.07,129.63,38.85,100.07,96.64,237.95,125.06,59.4,26.43,51.15,36.99-5.47,3.47-70.93-14.77-104.68-39.28-155.88-90.13-31.65-23.58-125.3-30.38-122.63-74.36ZM1157.54,972.47c-44.88-2.05-129.68-73.53-143.48-3.96-4.94,6.41-13.48,7.98-12.08,21.47.24-28.32-9.04,5.45-5.95,16,37.88-83.2,63.83-60.61,136.46-35.38,10.97,2.69,40.73,21.87,25.06,1.87ZM614,938.02c-3.5-2.56-51.56,11.11-53.68,17.3-3.88,31.5-3.09,59.98,32.7,70.66,0,0,20.98-87.96,20.98-87.96ZM846,970.04c-15.43-29.39-155.84-35.27-117.1-17.95,17.02-.47,82.56-19.23,67.1,19.9,15.38,4.69,7.06-.87,13.06-7.92,11.12-15.43,29.2,15.52,36.94,5.98ZM2255.31,982.68c-7.42-9.57-22.25-21.93-32.7-28.29-4.84-2.94-33.24-17.71-36.59-14.38,2.38,22.03,3.17,43.15,26.95,52.03,10.38,20.11,32.79,5.08,51.04,5.94-2.63-5.17-5.12-10.68-8.69-15.3ZM1171.38,990.63c-38.99-18.82-83.92-27.49-124.62-42.63-6.99-2.15-20.11,21.13-25.56,26.2-29.13,39.45-21.92,49.98-1.56,91.15,18.47,42.17,43.92,85.86,95.34,74.65,44.86,8.31,112.85,2.81,119-54-18.88,46.6-100.46,45.84-143.06,42.07-36.22-3.57-63.18-75.34-77.99-100.01-5.74-26.71,18.25-58.41,44.01-63.73,33.72,6.42,89.25,21.45,120.09,39.64,8.02,3.21-4.58-12.46-5.65-13.34ZM1925.99,948.01c-49.91,14.76-40.91,165.51-57.35,215.49-131.21,63.43-311.86-17.91-451.85,28.3-20.16,3.74-62.09,1.76-68.2-17.84-62.54,20.32-63.94,10.34-125.37,2.15-55.92,22.24-100.58,26.94-159.85,26.32-8.08,13.19-25.53,5.52-38.29,5.54-7.91.1-42.22,4.58-48.58,7.39-14.54,23.15-46.97,57.85-65.15,74-390.31,97.11,1213.56,12.92,1160.64,38.67-157.35-47.75-234.37-239.96-145.99-380.01ZM778,954.02c-8.99,1.71-23.88-5.1-26,5.96,14.2.61,18.13,10.37,26-5.96ZM1151.98,968c3.54-3.53-23.01-21.01-27.97-10.99l27.97,10.99ZM1548.01,975.98c126.21,49.24-200.17-24.58-208-18.01,138.15,26.12,280.76,75.45,421.97,66.02-16.77-3.52-124.92-5.77-78-29.97-44.7,2.3-94.86-22.66-135.98-18.04ZM921.99,990.02c8.09,1.49,24.69-9.22,30.15-14.87,13.04-41.16-57.52,10.29-74.14,8.87-.8,5.52.64,3.06,2.97,3.99,11.54,1.3,45.41,25.3,41.02,2.01ZM2049.49,999.5c6.5-10.41,19.28-29.82,7.51-39.46-13.6,8.21-54.5,48.71-7.51,39.46ZM552,999c-.43-8.76.35-50.39-1.98-24.42-.47,1.85-4.29,2.34-5.72,4.63-12.92,20.66,5.41,36.66,1.42,49.47s-13.73-13.79-12.7-16.67c-2.88,5.49-6.54,17.43-6.9,23.26-1.01,16.32,17.36,23.49,15.88,38.72-10.57.91-12.29-13.51-19.99-17.99,0,0,0,29,0,29,10.81,11.52,34.58,43.47.02,15,.51,14.29-.28,26.05,11.03,35.95,24.44,10.1,17.24,24.93-3.03,10.05-.88,1.15,5.04,20.09,6.42,22.56,4.1,9.33,54.1,22.05,18.99,23.01-20.11-12.29-1.41,14.38,2.74,19.26,24.31,7.03,47.84,17.95,7.84,13.19,4.78,15.81,26.99,20.27,22.01,25.96,20.8-3.54,47.28,7.16,10,11.01,5.23,4.43,14.13,15.55,20.07,17.93,10.16,4.08,26.83-3.53,31.97.04,9.35,6.48-7.76,11-14.04,9.05,1.49,7.62,15.83,14.19,22.87,14.06,21.37-9.35,47.08-2.69,11.12,5.95-2.55,1.9,23.21,11.29,27.04,11.07,21.33-11.7,48.56-21.12,14.97,4.89,7.86-.45,19.81,4.42,26.9,3.95,10.27-.68,21.78-19.56,28.05-17.93,8.26,6.33-7.01,11.85-8.97,18,21.91.37,35.94,4.42,42.5-21.48,1.64-1.94,9.54-5.24,9.58.52-8.84,20.08-.96,19.69,16.69,12.73,7.94-4.79,13.34-26.71,18.26-27.75,11.29-2.4-2.57,20.5-1.02,21.98,37.67-4.01,24.67-27.13,41.03-43.96,5.87-1.56,1.8,13.97,2.98,15.96,0,0,2-13.99,2-13.99,5.94,2.58-.99,9.91,7.98,10.04-1.19,6.92-9.9,5.71-11.07,6.31-5.85,17.85,34.63-15.47,27.07-40.36,13.41-3.24,6.46,10.28,8.02,20.01,33.91-17.18,25.06-73.85-7.03-28.01-114.86,111.73-281.15,66.94-350.51-58.34-8.67-43.03-24.77-76.04-16.19-122.36,3.45-20.85,14.99-42.86,3.71-60.28ZM833.99,974.02c-5.93-3.06-26.9-12.04-20.7,1.99,5.3,2.92,17.55,5.53,20.7-1.99ZM1225.99,994.03s-63.98-25.03-63.98-25.03c50.57,59.36,100.5,130.97,160.94,183.06,137.36,38.08,313.68,10.43,461.04,25.95-196.15-11.35-370.15-114.97-553.03-181.96,43.54,51.09,143.56,83.5,213.06,102.94-68.27-2.59-156.05-50.12-214.16-95.87-9.66-4.39-11.34-3.18-3.88-9.08ZM1572.02,984.01c-7.07,1.94-74.01-24.91-72-5,10.21-1.77,78.95,22.04,72,5ZM2141.99,973.99c-19.38-2.33,8.6,13.02-13.97,10.01,3.06,18.65,11.48,12.21,24.47,14.51,27.56,10.73,19.14,1.93,21.53-20.5-13.17-5.03-42.39-7.64-18.02,7.02.79,10.35-18.91,1.41-4.01-1-13.86.37-8.67-8.63-10-10.04ZM989.99,976.01c-8.13-.48-4.24,11.14-6.01,15.98-3.57.56-1.74-7.97-4.98-7.95-1.97.01-24.61,24.49-26.5,28.98.32,4.25,29.54,20.16,34.6,20.89,1.6-1.61,3.01-7.34,6.89-3.92,1.55-2.27-12.83-44.93-3.99-53.99ZM1030.01,1007.99c1.53,1.48,7.84-1.35,9.06-3.92l18.91-28.07c-7.75-1.11-30.43,29.61-27.97,31.99ZM1072,980.02c-.42-.47-8.13-2.74-9.06-.23-42.95,51.45-8.5,33.3,9.06.23ZM1795.99,980.01c-30.1,5.34-67.63,14.1-96.82,3.88-1.93,6.48-15.89,18.92-23.16,22.08,37.56,8.68,113.65,30.5,119.98-25.96ZM1082,982.02c-6.35-5.14-29.61,32.28-27.99,33.97,12.19-3.43,19.29-24.19,27.99-33.97ZM1759.59,1048.44c-59.03,13.81-454.42-86.58-366.02-53.03,136.64,47.92,309.38,37.42,429.46,118.55-5.88-17.21-49.27-42.33-63.45-65.52ZM2069.97,982.01c-.34,3.17-21.22,19.44-5.96,16,4.66,3.48-5.24,3.57-4,5.97,9.88,2.47,3.44-10.35,13.98-7.97-1.42,7.52-4.34,11.4,6,9.98,0,0-10.02-23.98-10.02-23.98ZM1064.01,1017.99c7.35,4.82,34.52-30.32,26.96-33.98-6.58-1.28-13.11,15.87-15.64,19.33-.76,1.04-14.81,11.58-11.33,14.65ZM1103.99,988.01c-11.49.33-17.55,20.03-24.98,28.01-9.02,21.25,24.73-28.14,24.98-28.01ZM2214,1003.98c-.62-3.41-17.18-16.89-17.98-15.98.42,9.68,8.1,17.37,17.98,15.98ZM1086.01,1023.99c6.42,5.67,25.68-22.16,28.08-26.94.51-19.88-28.83,25.3-28.08,26.94ZM1128,996.02c-10.78-3.62-21.56,19.93-27.99,26.99-1.88,20.07,28.64-26.07,27.99-26.99ZM1140,1000.02c-9.64-8.91-27.61,25.89-30,29.96,13.63,7.71,19.65-22.45,30-29.96ZM1151.99,1004.02c-11-7.94-25.29,24.92-27.98,29.97,8.11,1.16,23.75-25.14,27.98-29.97ZM1161.99,1008.01c-6.17-5.39-22.99,19.39-25.03,23.98-2.02,21.26,26.86-23.42,25.03-23.98ZM1104,1035.98c-21.8-14.45-54.99-13.27-79.99-23.97,18.53,15.53,55.24,15.99,79.99,23.97ZM1148.01,1039.99c4.93,4.7,19.88-18.04,21.57-21.43,7.38-21.63-24.87,18.95-21.57,21.43ZM2089.99,1025.99c-4.24-22.57-14.7-10.91-31.98-11.96,0,0,31.98,11.96,31.98,11.96ZM2252.17,1071.83c42.94.79,44.49-28.47,22.44-57.45-58.35-.73-21.03,22.06-22.44,57.45ZM576,1067.98c-19.47-14.86-5.81-34.34-13.01-51.97-87.7,263.76,274.44,350.51,338.07,224.17-20.41,7.71-18.99-21.83-20.06-34.17-102.82,112.17-290.53,26.62-289.1-120.54-.37-1.28-15.64-18.06-19.89-15.49l3.99-2ZM1160.01,1121.98c36.87,3.25,93.49-31.97,54.37-67.37-6.55-8.05-17.99-47.35-30.37-35.63,13.07,11.18,11,27.4,8,43.01,11.91-10.32,26.23-.4,21.59,14.62-11.78,16.77-22.88,1.72-25.58-10.61-2.48,12.75-9.11,14.58,5.93,20.98-1.95,8.13-10.65,9.05-14.03,12.47-5.3,8.43-12.35,18.37-19.91,22.52ZM1177.98,1018c-4.56,6.25-22.85,18.81-14.98,25.96,5.8-7.71,15.66-15.59,14.98-25.96ZM2064,1033.98c-1.58-12.34-26.43-20.52-18.52-4.49,4.2,8.51,11.12,5.09,18.52,4.49ZM2245.65,1079.67c6.12-10.57-18.89-89.63-25.76-41.78-19.74,3.77,1.7-15.05-15.88-7.87,9.68,15.91,20.25,37.2,14,55.96,15.62,3.88,8.57-19.34,22.01-14.97,3.02,17.64-7.92,2.09-8,12.98,2.54.6,12.98-3.25,13.64-4.32ZM595.85,1034.2c-33.83-24.24-28.93,21.46-6.84,37.79-.13-5.01,7.97-36.24,6.84-37.79ZM995.99,1109.99c-1.7-34.69-43.95-49.7-52.98-83.98-3.85,27.3,32.45,51.1,36.77,80.76,0,0,16.21,3.22,16.21,3.22ZM1094,1115.98l-51.98-89.98c-3.21,9.47,39,91.98,51.98,89.98ZM1170.01,1045.99c4.47,3.99,17.74-15.13,13.97-19.99-2.62,1.34-15.25,18.84-13.97,19.99ZM2166,1028.02l-18-2c2.69,10.26,13.21,11.29,18,2ZM964.39,1033.6c-.92-.8.43-3.85-1.37-3.6-2.5,7.44-11.02-.83-11,4.97,1.95,3.82,5.71.81,7.91,2.01,5.03,2.72,5.56,15.28,12.71,4.96-.97-5,2-2.61,3.36-4.93-2.55-6.88-10.1-2.1-11.61-3.41ZM1074.38,1049.7c-.43-.68,2.02-8.45-4.31-14.77-21.98-14.44,29.95,66.99,34.24,75.76,28.17,28.91-24.57-61.9-29.93-60.98ZM1188.02,1054.01l-82-20.01c17.44,16.22,57.8,11.75,80.99,25.99,0,0,1-5.98,1-5.98ZM604,1038.02c-5.49-5.9-7.89,18.91-8.09,20.89-1.14,41.55,2.62-4.16,8.09-20.89ZM1064,1085.98c-11.52-13.16-15.02-41.35-29.99-47.97,2.54,6.6,19.72,45.79,29.99,47.97ZM946.01,1132.01s-340-92.01-340-92.01c0,0-3.91,41.91-3.91,41.91,67.36,15.75,133.52,36.75,200.32,54.85l15.57-.74c-26.81,4.57,55.71,17.91,54,19.99.74-11.63,13.1-53.28,10.03-22.02,4.35-1.7,1.92-10.93,7.96-11.99,0,0-7.98,35.99-7.98,35.99-.02-2.77,79.88-.9,56.01-12.98,1.29-3.4,5.38-.95,5.7-1.34.73-.89,2.73-11.18,2.3-11.67ZM1143.98,1102c-4.7-15.88-19.16-50.56-33.97-57.98,0,0,33.97,57.98,33.97,57.98ZM2202.02,1078c10.98-11.81,12.3-20.15,5.95-33.98-.64,7.87-2.61,26.89-5.95,33.98ZM1123.97,1103.99c4.98-14.15-16.81-38.32-22.93-52.03-4.53-10.54-5.72-3.14-5.53,3.44,0,0,28.46,48.59,28.46,48.59ZM2038,1048.02l-15.99-2c-.86,3.36,2.87,1.19,3.71,2.24-.44,6.26-2.09,8.22,5.21,11.91,5.73,15.84,2-6.58,7.07-12.16ZM2066.48,1058.94c.25-17.16-26.7-17.16-26.45,0-.25,17.16,26.7,17.16,26.45,0ZM1132.59,1061.43c-21.05-40.36,10.39,33.01,21.39,43.59,27.82,27.71-15.68-36.93-21.39-43.59ZM2089.99,1048.01c-3.39-3.64-19.92,9.2-13.97,17.99,3.34-1.83,17.41-14.3,13.97-17.99ZM1233.98,1081.99c3.01-25.4-29.6-43.32-3.08-9.89,1.62,3.72-.48,9.66,3.08,9.89ZM2092,1081.98c11.75-3.31,11.37-22.61,7.97-31.97l-7.97,31.97ZM2189.97,1052.01c-9.09-3.54-2.94,31.4,6.02,27.98-1.25-4.4-4.51-26.47-6.02-27.98ZM1155.44,1056.57c-20.68-16.68,15.28,46.53,20.54,43.42,4.18-7.75-17.95-37.75-20.54-43.42ZM2175.98,1081.99c-.18-10.36-4.8-22.48-13.96-27.99l13.96,27.99ZM2136,1117.98c-18.36-9.67-25.91-29.78-25.97-49.97-2.61,23.23,1.22,42.74,25.97,49.97ZM1024,1085.98c-1.01-1.92-8.07-17.89-9.98-15.98-46.32,64.22,95.67,105.1,141.96,79.97-45.69-6.7-104.37,6.88-122.99-47.97-10.66,20.15-29.62,3.67-26.98-13.99,5.36,15.51,5.03-4.48,17.98-2.03ZM1119.98,1112c-5.2-14.81-14.13-29.77-23.96-42,6.05,14.39,14.04,29.98,23.96,42ZM2305.98,1125.99c2.39-17.91,6.93-35.78,6-53.98-.46,4.84-9.82,50.64-6,53.98ZM1262,1099.98l-19.98-21.98c1.3,26.01-12.51,31.85,19.98,21.98ZM2063.98,1088c3.37-15.67-9.07-7.64-17.97-7.98,0,0,17.97,7.98,17.97,7.98ZM2248.51,1100.51c-14.3,21.73-.68,53.02,12.5,69.46,16.51-19.97,42.79-70.53,24.92-91.13-9.35,1.51-27.02,18.59-37.41,21.67ZM2019.3,1102.66c-42.79-69.88-16.54,50.57,5.6,63.44,9.3,11.34,18.97-28.17,21.1-32.9-.66-6.59-9.04-15.05-8.01-23.2-16.24,4.43-11.75,1.45-18.69-7.34ZM2154.01,1089.99c1.77-13.62-11.7-13.87-10.01,0h10.01ZM2171.76,1097.76c1.19-13.46-4.98-14.25-7.7-.69,0,0-16.05,10.93-16.05,10.93,3.45-1.17,23.06-9.14,23.75-10.23ZM605.98,1133.99l-7.96-45.98c.5,11.35,3.2,35.67,7.96,45.98ZM615.71,1092.3c-52.45,147.56,256.96,207.39,270.28,74.75-74.94,120.02-265.83,65.68-270.28-74.75ZM679.99,1123.99c-.14-19.99-51.5,2.39-46.96-26.01-1.54-2.3-6.26-2.74-7.01-1.97-2.24,4.05,11.3,67.87,23.97,58-2.55,8.1.53,11.57,5.2,17.82,41.36,76.55,210.76,59.86,210.84-5.81,4.54,8.82,0,4.26-5.06,7.9-20.83,20.41-58.64,58.45-55.07.97.23-8.24,7-14.07-5.84-8.75,16.75,70.14-54.45,53.47-95.5,36.31-12.77-7.63-1.89-41.7,5.47-45.54,4.09-2.13,24,8.87,31.53,10.55,24.23,10.61,113.73-15.56,51.57-25.4-56.78,30.38-67.5-24.18-113.12-32.03-3.01,2.39,21.14,34.61,21.6,37.34.79,4.68-11.01,20.21-1.64,25.65-12.41,2.85-3.64,11.52-16.82,13.05-26.88-13.12-73.11-87.16-3.16-62.07ZM1274,1113.98c-4.79-14.04-12.06-9.36-21.99-2.97l21.99,2.97ZM2051.97,1125.98c8.31-13.61-12.79-28.5-5.69-9.27.83,2.25,3.14,8.88,5.69,9.27ZM2170,1110.02l-29.99,9.96c10,.16,23.47-1.48,29.99-9.96ZM2125.98,1122.03l-23.98-10.01c3.95,7.28,32.08,27.8,20,12,.64-.7,4.84,1.55,3.99-1.99ZM2187.99,1112.02c-6.25-1.9-32.39,17-27.97,21.98l27.97-21.98ZM999.98,1144c8.2-16.71-22.16-37.55-27.97-13.03,0,0,27.97,13.03,27.97,13.03ZM1255.99,1131.98c-6.4-33.17-43.5,7.16-17.99,6-10.08-9.06,3.55-20.35,5.91-10.74,1.41,5.72-8.39,10,12.08,4.73ZM2110,1141.98l-15.98-23.98c1.92,9,4.61,23.54,15.98,23.98ZM784,1138.01c-22.29,1.09-48.87-11.55-70-18,12.08,20.98,56.39,36.28,70,18ZM2212,1150c18.27-7.4,3.83-25.05-7.03-29.9-5.97,7.26-13.46,17.4-21.09,22.77-5.16,3.63-21.17,8.21-21.89,9.15-.25.33,2.97,5.63,2.03,8,6.36-4.21,9.9.5,1.99,2.97,4.26,2.54,6.25,10.9,10.9,11.03,5.36-1.17,34.68-16.13,35.1-24.02-1.04,2.07-16.7,4.32-20,1.98-2.16-12.24,25.52-12.97,20-1.98ZM2112,1164c9.25.7,4.4,2.13,6.03,3.98,19.62-16.41-7.12-15.62-18.71-24.3-20.92-12.19-18.57-30.4-35.04-.18-1.3,5.25,14.81,17.3,15.69,16.51,4.9-7.83-8.1-15.8,5-17.99,6.13,1.32.46,13.49,1.01,13.98,11.31-.52,13.67,4.94,4.03,11.99,15.63,3.81,23.03,17.62,21.98-3.98-5.49-.41-15.71,1.58-9.12-8.12,8.86-5.79,10.36-.3,9.12,8.12ZM2174.01,1133.98c7.26.48,15.21-.9,19.95-6.98-4.5-6.01-16.37,2.93-19.95,6.98ZM651.27,1126.14c-10.92,7.14,21.98,44.5,27.64,49.95,26.15,2.93,7.25-58.31-27.64-49.95ZM1228.02,1141.98l-3.99-13.96c-2.75,2.98.38,9.67-.02,9.95-3.27-1-6.79,1.45-8.11,4.98-24.88,3.17,8.27,3.77,12.12-.97ZM963.99,1155.98c61.58,30.35,129.08,52.73,198.01,33.01,10.56-6.6,179.37-48.69,121.55-60.65-101.89,45.99-209.7,78.98-310.92,11.89-5.6-.53-5.82,11.99-8.63,15.74ZM966.01,1136.02c-10-7.49-15.1,20.15-9.01,19.94,2.46-.08,7.15-17.11,9.01-19.94ZM2286.02,1168c8.05-8.72,14.21-22.37,15.96-33.99l-15.96,33.99ZM1037.8,1151.8c5.63-8.02-12.02-17.02-16.94-9.93-6.69,9.65,13.88,14.29,16.94,9.93ZM2227.97,1146.01c-34.83,36.86-67.47,22.49-16.68,65.69,44.16-22,40.7-24.96,16.68-65.69ZM1329.99,1169.97c-27.57-34.83-14.77-12.81-31.99,10.01,4.45-.23,31-8.65,31.99-10.01ZM1190,1152.02c-8.19-4.39-20.82,1.63-21.99,9.97,2.25-.18,26.17-4.08,21.99-9.97ZM2106,1180.02c-17.43-3.25-32.94-15.64-45-27.98-27.28,30.09-18.97,44.29,15.69,59.56,9.55-4,25.96-22.19,29.31-31.58ZM958.01,1162.02c-46.32-12.33-44.86,3.33-68,35.95,9.14,8.37,43.27-1.75,52.67-3.8,3.34-2.06,12.6-26.91,15.33-32.14ZM1055,1170c8.87-1.31,36.26,5.47,35.01-5.99-17.6.42-77.65-11.59-35.01,5.99ZM973.99,1166.02s-11.96-4.02-11.96-4.02l-12.03,29.98c45.82-2.57,11.12-11.34,23.99-25.96ZM1443.99,1176.02c-28.57-2.73-57.27-2.05-85.99-2,15.37,21.83,63.36,8.15,85.99,2ZM2214,1231.98c25.81-9.72,56.61-32.33,67.98-57.98-20.19,22.56-41.44,43.22-67.98,57.98ZM823.88,1176.09c-23.13,7.26-14.64,41.61,26.1.9-7.98-3.88-24.92,12.99-26.1-.9ZM710.01,1197.97c21.32,8.44,60.29,16.73,81.04,8.07,18.2-34.72-24-19.97-42.25-16.4-18.37,18.08-26.29.39-38.78,8.33ZM2151.64,1186.51c-19.96-2.51-35.36,9.97-47.69,24.44-26.94,23.51,100.26,23.24,84.9,3.21-7.1-6.85-26.08-31.74-37.21-27.65ZM1003.84,1190.17c-3.8,5.92-127.63,10.63-109.62,31.62,4.91-7.05,132.6-5.76,109.62-31.62ZM963.99,1218.01c-13.38-1.36-3.19,1.6-9,7.98l-2.97-5.98c-3.36,28.05,9,4.56,11.97-2Z"/>
    <path class="st0" d="M2080,621.98l-106-61.96c37.08,12.01,74.86,37.96,106,61.96Z"/>
    <path class="st0" d="M1845.98,1110c-13.22-25.68-29.5-69.07-31.96-97.99,0,0,31.96,97.99,31.96,97.99Z"/>
    <path class="st0" d="M1826,876c-1.15.37,2.6,51.6-2,48,1.15-.37-2.6-51.6,2-48Z"/>
    <path class="st0" d="M2053.98,730l44,86c-18.46-14.92-31.4-49.47-43.07-69.92-1.58-3.35-9.44-17.8-.94-16.09Z"/>
    <path class="st0" d="M2293.98,984c-3.3-2.01-16.73-16.98-13.97-19.99,8.62.76,10.83,13.34,13.97,19.99Z"/>
    <path class="st0" d="M1795.99,205.99c-7.66-.33-33.82-7.03-31.99-16.94,1.67-9.07,39.67,1.55,31.99,16.94Z"/>
    <path class="st0" d="M2229.49,1067.63c-14.87,12.07-4.19-19.96-4.59-25.73,4.44-14.17,17.37,2.12,1.14,9.1,6.61,3.74,6.01,10.57,3.46,16.63Z"/>
  </g>
</svg>