<?xml version="1.0" encoding="UTF-8"?>
<svg id="_Слой_1" data-name="Слой_1" xmlns="http://www.w3.org/2000/svg" version="1.1" viewBox="0 0 2816 1536">
  <!-- Generator: Adobe Illustrator 30.0.0, SVG Export Plug-In . SVG Version: 2.1.1 Build 123)  -->
  <defs>
    <style>
      .st0 {
        fill: #fff;
      }
    </style>
  </defs>
  <path class="st0" d="M1079.97,708.01l126.02,149.98c-32.92-34.05-120.49-111.3-126.02-149.98Z"/>
  <path class="st0" d="M1257.99,472.01c-79.67,15.64-205.02,11.36-272.01-5,87.66,10.97,183.57,12.01,272.01,5Z"/>
  <path class="st0" d="M1395.99,594.01c-50.95,8.13-158.53.82-213.99-15.1,39.78,1.67,149.75,16.02,213.99,15.1Z"/>
  <g>
    <path class="st0" d="M437,1330c25.07-24.13,130.68,5.64,157.01-11.97,0,0,28.98-.04,28.98-.04-23.43,3.53-10.99,5.33,5.52,3.5-344.82-107.59-255.83-644.32,139.5-585.49,2.73-9.08,1.12-45.98,11.99-42.03-9.06-9.61.26-10.3,0-10.97-287.88-140.39-252.83,137.56-453.01,264.98-99.21,57,56.17-91.82,69.07-112.93,46.18-59.23,73.03-170.62,103.98-211.04,9.96,9.72,5.1-3.57,13.93-4.05,2.82-4.44-3.8-4.06-4.98-5.86-2.15-3.3-1.83-34.37.96-37.16,2.65-2.65,8.88-1.13,8.04-5.91-4.2-10.83-41.96-19.41-50.03-27.98-90.49-114.63-81.78-118.03,61.47-109.42,15.94-13.51-69.27-40.33-89.09-45.95-10.46-46.52,138.05,2.65,159.65,11.33,90.44-13.72,205.82,3.47,300.47,17.54,149.77,75.71,428.73-10.92,502.02,109.96,44.07,59.69,38.44,94.49,3.52,147.47,20.45,2.86-25.1,68.17-11.81,90.51,63.67,235.29-27.09,225.24,244.6,247.64,36.96-155.7,156.65-366.62,75.58-515.49,14.32-23.8,12.4,15.07,23.63,15.36,6.35-42.94-42.24-87-51.12-127.93-.71-5.06,8.65-4.79-3.07-7.3-192.24-266.15,249.22-418.68,262.3-117.67,1.98,20.17-37.74,21.95-50.01,18.92-7.57,30.23-69.11-19.31-62.06,29.99,20-15.66,56.74-7.49,80.48-3.5,84.53,36.05,377.95,343.71,131.03,311.87-54.86,29.34-8.79,17.03,21.22,15.37,68.45-29.67,302.77,85.68,282.8,147.8-95.6-17.14-278.13-83.49-338.51,6.49,357.14-180.82,591.01,372.33,252.91,521.95-154.72,25.3,97.21,10.14,109.05,14.02,30.26,23.59-1941.16-.2-1936,8ZM1817.31,94.9c-26.55-11.12-40.4-24.64-51.31,13.08,16.8,2.92,34.77,17.84,49.99,21.04-23.17-38.23,68.68,9.25,50.66-8.66-14.6-10.51-34.07-19.06-49.34-25.46ZM1767.99,112.02c-32.35,26.32-55.63,21.31-13.01,35.99-8.54-13.27,6.78-12.84,17.02-14.03-2.06-5.3-2.78-6.71,4.01-5.97-8.41,8.72,33.7,5.69,34.01,8.83,13.41,32.79-2.97,22.58,42.59,45.54,38,22.89,46.35,35.34,1.4,7.62,10.25,6.01,39.22,75.53,47.97,46.01,18.99,43.68-57.38-24.09-63.96-22.01,2.41,11.94-6.33,18.07-12.03,27.03,7.25,2.06,2.54,1.74.02,6.95,1.76,1.67,14.14-11.43,13.96-2.98-11.07,11.54-55.48,22.06-72.57,22.47-5.79,1.72-24.37-12.29-21.37.53,10.65-5.73,7.8,2.43,10.64,5.33,5.33,5.44,25.45,14.26,20.45,24.64-10.42,13.46-21.72-5.29-13.08,20.03,31-12.6,25.57,11.05,32.98-26,0,0,5.25,21.73,5.25,21.73,10.81.28,27.33-.58,25.15-14.45-.57-18.63-37.84-6.78-37.41-17.27,0,0,33.06,2.37,33.06,2.37,1.37,6.44,9.37,3.75,3.99-2.43-33.97-15.15,15.74-11.15,6.94-1.98,0,0,38.98-6.01,38.98-6.01,2.38.24-1,8.08,4,6.02,5.61-2.32.65-4.44-.04-5.9-20.98-25.7,18.03-9.98,28.78-23.43-1.07-68.29-101.87-120.2-137.71-138.63ZM1782.01,251.98c154.21-7.21-90.51-165.15-50.03-80.98,28.33,5.75,75.3,1.94,88.54,35.6,3.81,19.63-15.72,47.86-38.51,45.37ZM1723.98,170l-2.97-25.99c-4.34,5.97-31.95,14.32-21.02,18.98-14.35,18.67,12.81-5.54,23.99,7.01ZM1805.99,147.96c-3.77-12.36-32.64,14.68,2.01,6.01-7.23-1.06-11.52-3.67-2.01-6.01ZM1857.76,150.24c-29.91-9.55,1.22,8.92,8.24,15.74-5.9-2.68-7.6-15.08-8.24-15.74ZM1882.01,149.99c-10.76,2.69,15.64,56.03,22.95,72.05,56.43,133.07,37.33-85.38-22.95-72.05ZM1881.98,184c3.83-35.35-37.85-44.21-8.88-17.92,2.09,4.87-3.35,13.3,8.88,17.92ZM1875.99,229.99c-13.6-30.72-46.68-52.57-77.98-61.98,16.36,19.62,53.73,53.09,77.98,61.98ZM1679.99,174.01c-2.24-2.21-14.95,9.02-18.17,10.84-2.27,1.28-8.52-1.3-9.82,5.13,15.34-3.98,25.55,6.4,27.99-15.97ZM1742,178c-25.05-6.71,14.59,13.9-9.99,43.96.31.47,7.24.98,6.01,8.02,7.73.71,2.53-48.25,3.97-51.99ZM1729.46,211.59c8.35-38.92-37.03-37.44-10.6-25.45,14.43,13.21,5.43,31.88-10.85,37.84,10.67,2.59,16.8-6.23,21.45-12.38ZM1770.01,189.99c.33-18.11-23.51-12.8-17.99,6.01,5.67-4.38,10.43-7.05,17.99-6.01ZM1721.81,207.83c5.14-6.05-8.59-27.67-19.81-21.81,9.96,16.6.57,19.23,18,14-.98,6.44-10.02,5.01-11.63,6.35-5.29,14.5-3.62,11.22,9.61,7.61-11.26-6.1-.21-4.08,3.83-6.15ZM1701.48,215.49c7.71-8.19,1.48-30.23-13.48-25.47,16.57,11.16-7.1,42.22,2.16,14.93.44-11.14-6.67-11.78-16.16-10.93,5.59,8.29,13.68,17.63,8,27.96.93.79,17.67-4.57,19.48-6.49ZM1786.01,243.98c25.73,3.49,36.48-33.91,19.96-49.96-2.61,14.57-5.97,42.53-19.96,49.96ZM1669.99,221.99c5.7-29.35-24.21-28.8-19.07-1.9,18.78,10.56,1.61-4.04,19.07,1.9ZM1796.01,210.01c-10.61,7.15-42.86-22.77-35.76-2.25.54.65,10.82,1.4,11.74,5.27l-5.98,6.95c6.96-.05,12.68-4.86,19.5-5.51s12.04,6.12,10.5-4.46ZM1698,367.98c-26.79-47.74-36.86-106.71-61.97-153.97-13.46,15.04,46.72,165.61,61.97,153.97ZM1794.01,220.01c-24.89.96-41.63,3.1-35.96,32.94,3.41,17.91,31.05,1.95,8.94-8.94-.18,5.41-1.53,6.77-6.98,6-8.2-41.56,35.07-11.02,34-30ZM1697.98,226.04c-6.63-5.13-2.3,9.54-2.19,11.19-5.66,12.19,8.75,15.46,18.21,14.75-6.17-13.53,5.84-26.52-15.07-22.36-1.67-.35-.56-3.27-.95-3.58ZM1680.27,247.74c-2.05-1.19-2.56-12.68-2.29-15.74-55.96,4.31,14.31,92.35,23.97,131.16,11.78-3.16,49.65-16.18,58.11-22.1,10.1-27.71-16.47,8.23-23.56-18.09,4.55-7.27,14.03-9,17.48-12.97,0,0,4.01,7.99,4.01,7.99-.41-25.16-21.83-30.5-38.88-44.09-3.6-16.46-7.52-10.84-22.96-17.04-6.44-7.46-7.4-9.85-15.87-9.13ZM1930,267.98c-9.15-9.72-17.53-14.45-29.98-7.95,7.42,8.39,19.72,12.53,29.98,7.95ZM1907.98,270.03c-10.61-5.42-28.95-17.42-21.96,3.96,4.78-9.65,15.54,2.47,21.96-3.96ZM1765.99,295.99l-6.99-15.95c-12.3,7.24-.82,15.27,6.99,15.95ZM1907.99,310.02c-22.77-4.77-63.09-3.54-83.98,7.97,99.32,2.82,184,74.86,247.97,140.01-26.07-42.87-79.04-85.56-119.22-117.76-6.38-1.36-34.16-9.43-16.78-13.23-6.81-3.84-15.07-14.99-23.06-15.22-21.48,12.35-61.7,4.57-4.94-1.76ZM2085.83,475.82c-89.95-77.25-169.43-162.53-301.83-155.78,0-.01,27.6,7.36,27.6,7.36,133.48,49.63,271.95,131.22,321.39,266.6,2.6-37.81-22.03-105.98-47.17-118.18ZM1784,333.98c-.66-.41,3.02-9.43-9.99-6.99,20.45,21.52,50.43,56.62,79.99,61.03,69.56,59.81,145.83,137.46,212,207.96-26.76-88.34-112.71-139.21-172.05-204.93-26.91-27.53-24.32-31.83-64.05-43.94-5.22-1.59-16.85-4.55-11.89-9.09l-10,1.96c13.56-10.18-24.6-4.74-24.01-6ZM1775.77,336.25c-19.49,5.62,17.17,29.25,24.21,35.75,2.84-18.22-22.92-21.29-24.21-35.75ZM1759.99,390.02c-5.74.7-37.98-2.99-37.95-9.02,6.77-15.09,61.04-11.19,44.66-28.84-13.82,3.18-40.46,14.51-49.71,27.84-.48.21-7.52-11.14-7.06-.97,12.63,25.24,31.5,98.78,60.06,103,.01,0-3.99,5.95-3.99,5.95,15.3-3.58,30.21-6.98,45.99-8,0,0-21.98-7.96-21.98-7.96l59.2,9.77c92.64-.89-108.74-2.95-97.3-42.87-3.16-4.86,25.16-57.35,11.25-43.11-4.61-3.28-13.96.34-3.17-5.79ZM1786,372.03c-15.18-14.18-41.21.11-56,9.95,19.24,3.15,42.92,8.9,56-9.95ZM1943.35,394.43c-6.22-4.29-27.43-18.03-35.47-15.32,1.33-12.68-38.67-19.68-20.55-7.44,7.35,1.99,65.95,44.87,56.02,22.77ZM1838.43,391.36c-3.5-7.07-16.32-16.42-24.42-16.37,117.13,108.23,173.01,127.5-6.64,195.39-99.46,49.15,65.35,462.37-43.35,482.61,176.66,226.53-83.58-485.85,68.07-481.9,21.13-16.46,166.21-24.44,135.96-44.12-7.76-7.19-42.35-10.49-35.06-20.92,134.19,74.48-52.6-99.71-94.55-114.69ZM541.99,388.02c-28.45,2.68-62.73-17.13-87.98-10.04,77.21,20.57,156.4,29.34,229.03,68,6.57,2.11-3.45-8.17,4.95-5.98-6.93,20.47,46.49,7.35,32.02,19.99,12.02,1.86,23.99,11.48,36,8.04-10.64,7.01,35.49,11.58,35.99,13.97-65.79-59.2-184.9-63.3-250-93.97ZM1705.91,380.05c-25.79-7.86,18.94,58.92,16.22,63.86,7.54-5.42,3.4,7.2,5.64,10.7,38.84,34.85-25.92-71.8-21.86-74.57ZM527.99,400.02l-69.98-16c16.89,3.84,54.31,26.88,69.98,16ZM1793.99,388.01c-37.9,4.21-14.92,32.25-27.97,25.98-4.13,19.9-4.02,26.13,17.89,23.9,1.83-1.76,8.94-43.49,10.08-49.89ZM1841.08,418.89c-41.37-46.28-37.09-21.07-46.95,21.84,36.95,11.51,112.32,29.42,46.95-21.84ZM910.02,426.01c-79.19-8.77-200.05-31.9-270.04-25,4.28,1.53,40.78,15.67,40.99,9.01-37.79-8.93,21.74-.64,25.02-2-63.98,13.99,217.56,35.04,249.75,67.24,14.47,6.94,29.31,22.1,44.28,19.54,53.66,11.15,244.91,135.27,103.32,52.87-32.81-16.43-72.76-42.17-107.33-48.67,78.55,73.92,187.39,139.54,301.07,134.93,153.19,30.64,135.64-41.58,61.26-135.28-20.62-50.82-137.75-21.18-185.42-28.57-86.01-.89-176.42-19.39-257.9-42.13-7.95,1.86,15.24,15.24,19.64,18.38,12.99,8.21,44.4,12.1,49.34,21.65-9.87,2.69-83.62-27.65-73.98-41.97ZM2036.3,485.72c6.24-26.94-168.12-123.32-90.19-68.83,6.71,11.73,127.4,151.06,125.79,118.23,2.33-13.51-45.76-47.04-31.91-47.14.86-3.35-2.85-1.2-3.69-2.27ZM715.99,462.03c-61.96-21.07-125.55-58.27-191.97-58.01,77.06,17.99,194.54,85.18,263.99,83.02-18.89-5.95-45.35-20.71-64.55-17.47-13.51-4.51-33.66-5.53-7.47-7.54ZM659.99,412.02c-11.91.83-25.71-15.16-35.98-7.01,10.35,1.42,28.11,13.14,35.98,7.01ZM1989.99,429.99c2.89-2.9-19.04-17.83-21.68-19.3-26.43-10.72,18.92,20.84,21.68,19.3ZM561.99,422.02c-.25.98-43.9-11.3-22.22-1.69-1.9,20.11-1.83,16.42,18.22,19.65-.68-6.85.24-12.26,4.01-17.97ZM977.58,492.57c-473.83-157.29-186.9,4.09,63.47,59.37-.82-10.04-39.97-47.92-55.66-54.45-7.93-.79-6.96,2.86-7.82-4.92ZM602,437.98c-1.79-4.24-28.89-13.17-29.99-11.97-5.97,12.49,21.73,12.18,29.99,11.97ZM2030,457.98c-12.06-8.71-23.25-25.47-38-27.96,10.84,10.36,23.08,24.47,38,27.96ZM511.99,448.02c-24.6,2.87-46.06-11.99-69.98-10,16.61,6.39,52.46,17.33,69.98,10ZM569.99,445.98c-15.93-2.38-103.22-12.75-70.74-2.22,27.83,1.74,65.18,9.01,82.74-1.74-6.37-.13-25.4-3.79-12,3.96ZM639.99,452.03l-29.97-12.02c-2.91,10.4,9.01,5.3,11.6,6.55.03,4.92,16.05,9.64,18.37,5.46ZM1783.99,444.02l-21.97-4.02c-.09,11.08,18.12,9.45,21.97,4.02ZM475.99,454.02l-43.98-10c10.3,7.02,30.98,18.1,43.98,10ZM1782.01,461.98c4.42-5.37,118.32,31.18,96.26.92-33.54-6.91-71.83-18.76-104.27-10.89,2.01,2.89,18.29,6.12,8.01,9.97ZM454.01,460.02l-42-9.03c30.06,22.04,45.26,79.53,89.97,95.01,1.73-1.76-16.79-34.78-14.01-41.98,0,0-3.95,3.98-3.95,3.98.68-8.3-8.18-8.62-10.62-14.58-2.75-6.7,1.75-8.85-7.48-18.33-11.66-11.07-17.55-2.68-11.91-15.05ZM753.99,514.02c5.45,12.36-330.44-99.26-243.08-33.94,27.56,7.31,50.9,24.82,77.09,35.91,0-18.57-39.78-21.4-41-39.98,170.06,155.74,425.2,176.23,551.58,380.42,36.29,8.37,72.52,31.17,107.42,36.59-34.06-42-62.67-81.94-97.24-121.76-61.53-89.72,39.66,41.41,61.16,67.68,10.83-2.47,3.22,1.63,5.88,8.17,8.73,10.41,38.06,59.27,56.21,58.87-50.37-52.08,13.7-100.66,38.45-146.53-81.36-213.98-395.7-242.32-592.44-269.43,143.27,36.88,445.13,98.48,484.92,210.1-98.12-133.08-317.64-154.61-408.95-186.09ZM661.92,476.11c-5.22-7.73-124.9-21.71-141.91-20.09l142.94,32c8.53-6.87-8.06-2.29-1.02-11.91ZM655.99,466.02c-15.86-2.47-29.63-12.01-45.98-8,4.8.73,42.14,11.85,45.98,8ZM1900.73,469.28c-2.29-5.63-8.36-16.77-16.72-11.26,4.75,8.02,12.91,23.93-6,31.95,30.33,7.79,60.95,18.97,22.72-20.69ZM504,487.98c-12.79-32.85-12.7-21.71-42-23.96,18.34,22.87,12.19,25.37,42,23.96ZM687.3,472.75c-14.01-1.32-27.74-14.84-21.27,7.22,8.35-2.21,45.91,11.38,49.96,6.02-.75-10.21-24.77-4.45-28.68-13.24ZM1742.02,506c18.08-11.95,17.28-20.85,2.97-35.99-5.71,14.52,9.15,12.53-2.97,35.99ZM2042.02,470c.61,7.46,23.06,26.19,26.98,29.96,8.97-3.8-25.77-30.46-26.98-29.96ZM1905.64,504.36c-28.72-14.67-149.39-36.38-110.72,25.61,3.86,9.71,9.81,15.8,7.06,28.03l-18.01-43.98c-3.88-.95.08,4.41-3.96,3.97,0,0-.03-12-.03-12-1.49-1.07-30.53,8.76-35.97,4.01,2.64,34.61,12.88,70.66,24.01,101.99-.69-38.52,39.29-39.02,43.99-60,0,0,6.01.03,6.01.03-.56,5.47,8.76,3.36,3.97-2,13.29-2.92,95.6-30.6,83.65-45.65ZM1792,493.97c-4.2-7.81-27.47-1.92-30.5,5.61-26.9,7.02,23.14,6.4,30.5-5.61ZM544,523.98c-5.93-6.26-38.32-36.61-45.99-29.97,5.74,15.2,32.29,21.73,45.99,29.97ZM1099.99,580.03c-96.86-35.27-197.9-70.22-299.97-86.01,98.73,27.14,206.3,57.23,299.97,86.01ZM1416.01,637.99c54.02-24.91-74.04-188.49-37.99-118.01,3.27.52,1.11-7.74,4.97-1.97,19.69,33.99,42.86,76.97,33.02,119.98ZM537.99,526.03c-15.66-2.17-57.72-43.2-41.16-9.85,4.81,6.11,22.32,9.99,26.16,15.92,6.35,18.84-5.78,9.75-16,1.91-2.3,9.15,33.61,22.72,38.01,33.95,8.2.35-2.22-7.87-2.42-8.35,5.33-10.6-19.16-28.89-4.59-33.59ZM592,531.99c7.83-10.69-38.84-25.52-44.55-30.44-27.15-6.38,27.11,35.84,40.54,37.48,4.2,1.26,15.37-2.66,10.02,4.91l69.99,28.03c-13.73-12.74-58.77-44.11-76-39.99ZM2097.26,526.63c-4.71-5.69-17.54-30.64-25.22-23.63,15.69,17.56,47.15,57.13,38.99,83.04-28.59,14.04,33.84,25.89-13.77-59.41ZM2099.99,577.99c-4.65-24.74-15.94-50.16-35.97-65.99,16.71,19.58,4.33,30.86,25.6,39.22,4.36,4.27,5.49,34.05.11,18.14.66-14.56-20.3-29.07-33.75-25.37,6.27-4.2-12.51-11.3-9.96-5.02,15.68,33.49,17.15,31.02,53.96,39.03ZM559.96,586c9.02-18.07,14.89-46.21-3.94-60,21.41,39.52-12.58,55.73,3.94,60ZM2018.66,555.34c-6.12-11.15-19.95-15.18-27.69-25.32-7.71.59,3.57,10.59-12.96,10,12.14,3.27,92.32,53,40.65,15.32ZM557.98,561.99c.52-8.87-.45-34.71-13.97-29.98,6.67,11.57,11.71,59.56,10.01,20,0,0,3.96,9.98,3.96,9.98ZM587.5,544.36c-19.22-12.4-15.43,2.45-15.4,18.72,0,32.16,98.81,45.62,129.89,52.91-8.9-29.89-86.56-70.22-108.95-64.03-8.12-3.09-5.18-7.19-5.54-7.6ZM1975.61,542.35c-5.85-2.67-110.22,25.32-125.49,27.8.85,11.97-2.12,1.55-4.92,1.78-16.79,3.85-47.52,14.09-52.73,33.54-1.58,163.15,16.68,331.66,45.55,492.52,10.15-214.31-8.62-390.83,217.99-495.96-78.18,17.63-173.48,71.05-237.99,124.99,62.27-66.21,154.36-105.48,239.97-131.05,5.95-6.01-11.28-1.59-11.98-1.98,27.76-11.79-64.5-38.2-70.4-51.64ZM2105.7,585.71c3.64-2.3,1.16-13.79.28-17.69l-1.98,14c-55.63-16.21-40.33,4.61,1.7,3.7ZM526,572c-4.74,66.96,6.96,31.08,54,27.98-15.8-6.67-41.39-16.25-54-27.98ZM598,593.98c-6.04-3.91-30.44-21.19-33.96-8.94,4.89,6.61,24.03,6.28,33.96,8.94ZM2101.98,604c-.81-16.07-19.75-15.36-31.97-15.99,2.83,13.32,22.25,9.76,31.97,15.99ZM1061.99,821.99c-10.68-74.85-396.89-270.18-351.99-209.01,102.37,56.16,237.54,86.53,304.59,190.42,7.3,6.64,36.94,12.75,47.4,18.59ZM2129.99,599.96c-4.13-18.43-21.05-2.21-25.99,8.02,3.27,2.44,23.89-5.02,25.99-8.02ZM1771.98,685.99c-4.14-26.94,4.09-69.58-15.96-89.99,8.49,3.47-119.67,404.61-80.09,384.01.02,0,92.05-308,92.05-308l-87.89,306.86,97.92,17.14c12.68-95.4-18.54-231.59-6.03-310.02ZM707.99,624.02c-62.8,2.36-97.16-41.51-157.4-2.43-48.58,31.53,145.26.78,157.4,2.43ZM2096,609.98c-4.71-6.77-21.33-11.22-27.99-4.97l27.99,4.97ZM1186,624.02l-37.99-20c3.36-.18,37.1,33.47,37.99,20ZM567.99,608.02c-27.27-4.09-76.21,43.4-29.38,11.6,0,0,29.38-11.6,29.38-11.6ZM839.99,684.03c-33.92-14.33-125.81-64.03-163.97-50,48.2,28.28,114.21,40.09,163.97,50ZM2295.18,714.84c-67.64-38.8-153.7-107.67-233.16-67.83,43.77,9.67,87.14,22.97,129.02,38.96,35.47,13.54,78.71,31.77,107.92,56.08,19.56,16.29,14.37,23.54,44.24,27.79,16.74-3.61-38.59-48.62-48.02-54.99ZM515.99,636.01c-36.85,3.1-37.2,60.05-51.98,87.97,0,0,51.98-87.97,51.98-87.97ZM569.99,642.02c-44.65-42.42-129.44,177.26-149.96,193.04,3.63-2.19-71.18,73.75-41.99,49.99,81.89-63.13,116.68-177.28,191.94-243.02ZM1401.99,650.01c-67.44,2.23-136.58-.68-203.98-9.01,0,0,35,36.99,35,36.99-38.35-69.79,128.15,96.85,46.5,156.52-72.7,91.07,27.02,90.98,98.5,107.47-86.42-187.38-82.74-201.66,2.43-5.34,104,68.68-37.39-202.82,23.71-255.46-8.72-2.63-5.13-9.96-4.16-17.17-14.29,13.62-27.16,65.69-35.3,78.14-9.71,4.54-19.78-14.09-30.81-13.15-1.09-7.04-17.21-19.17-23.87-18,14.42,17.36,34.83,28.13,49,45,.28-3.85,1.47-9.11,4.72-2.72,18.46,47.79,43.18,114.91,48.25,158.72,0,0-12.01-41.98-12.01-41.98-1.89,19.5-42.05-74.04-26.01-54.02-3.75-17.86.31-12.99,3.7,1.35.33,1.01,3.79,11.33,4.21,3.81-2.7-.29-12.25-53.08-13.9-27.16-7.39-2.51-3.71-9.85-5.97-16.02,12.17-13.94-69.32-68.55-80-88.99,102.66,58.25,63.4,68.46,119.97-38.98ZM523.99,644.01c-69.57,75.61-100.52,191.06-182,260.98,57.74-31.02,143.98-175.65,182-260.98ZM1322,644c-3.89,3.38,51.87,3.39,48,0,0,0-48,0-48,0ZM2037.99,646.02c-11.49.93-22.64-4.52-34.08-1.11-.89,1.39-51.69,30.04-29.78,28.26,14-10.02,46.54-22.13,63.86-27.15ZM2312,761.98c-63.58-68.78-422.27-207.15-283.85-6.11,92.11-45.61,189.36-10.93,283.85,6.11ZM2026,759.98c-20.73-27.73-31.46-124.15-79.13-63.92,0,0,33.16,83.93,33.16,83.93,17.46-5.87,27.24-19.25,45.98-20.01ZM829.99,700.02l-45.99-10c10.27,6.93,34.94,16.41,45.99,10ZM865.25,706.82c-37.24-13.91-14.14-10.65-30.32,9.02-1.39,3.88-9.63,31.34-9.78,33.92-3.73,8.41,24.36,15.08,28.29,17.86,42.14.66,91.23,28.63,129.06,42.97,2.27.97,12.28,4.51,13.5,3.4-6.78-61.45-76.11-96.85-130.74-107.16ZM829.99,708.02c-9.53,2.39-58.91-14.97-41.26-3.75,11.53,2.31,30.96,10.24,41.26,3.75ZM1256,909.98c-34.91-65.14,114.78-121.74.96-201.99,22.87,22.8,29.51,64.88,9.08,75.05-30.91,37.27-76.92,100.09-10.04,126.94ZM1867.98,963.99c36.42-163.11,160.64-94.32,62.04-259.98,31.49,92.44,55.06,101.11-40.46,166.56-74.41-3.79-12.35,219.45-58.06,255.93-97.39,28.69-211.94-7.15-309.91,10.09-110.84,23.75-233.48,27.33-343.57,3.43.3,15.91-9.57,7.56-20.13,10.88-14.93,17.57-42.04,17.33-64.97,15.19-180.02,3-161.21,121.21-316.91,155.9,0,0,36,0,36,0-.65-.48,1252.43.52,1266,0-172.75-33.32-260.31-257.44-210.04-357.99ZM826,716.02c-11.33.12-64-11.87-33.64-1.37,8.43,1.97,28.24,8.44,33.64,1.37ZM1923.98,712c-14.04,3.64.63,27.37,1.61,37.58,1.35,14.03-24.71,23.17-31.76,35.37,0,8.7-2.58,8.03-9.99,11.91-6.15,7.14-6.41,14.68-14.81,19.15-32.55,110.54,56.97,16.08,86.17-19.96-1.12-27.7-26.12-55.84-31.22-84.04ZM818,727.98c-8.93-8.63-27.67-6.56-39.99-9.97,4.62,9.27,28.4,7.26,39.99,9.97ZM1914.01,757.99c12.41-1.81,1.16-30.74-3.99-35.99.02,12.68,8.27,23.37,3.99,35.99ZM824,734.02c-1.21.34-76.65-11.45-35.64-1.38,9.78.57,29.59,11.1,35.64,1.38ZM1905.98,730c-10.5,11.08-30.74,38.12-22.98,51.96,15.82-12.28,34.72-30.16,22.98-51.96ZM819.98,744.03l-45.98-8c12.56,4.36,35.37,12.64,45.98,8ZM718,740.02c-26.03-9.36-37.57,17.07-52.98,30.01-11.29-7.13,11.06-24.04,16.98-30.01-40.97-8.43-47.18,51.41-58.06,36.96-1-16.94,29.49-37.81-4.51-24.57-12.38,9.44-17.53,29.92-26.46,41.57-14.36-2.69,8.53-32.76,7.02-33.97-35.92-3.77-34.52,78.66-45.63,47.06,17.77-48.8-14.51-21.96-19.86,6.43-.71,45.08-18.34,10.16-6.53-11.51-33.44,14.83-13.97,41.51-23,61.99-7.01,1.7-11.27-28.31-7-33.99-19.53,6.81-18.76,52.57-11.96,42,11.17,8.29-2.8,1.32,2,12,0,0,6.99-7.99,6.99-7.99,111.65-144.58,372.51-131.69,451.01,48.02,7.93,8.62-6.52,9.31,21,3.94,14.98-6.26-20.98-7.46-24.87-14.1-2.95-7.44,12.63-6.2,16.41-5.41,38.05,24.05,9.23-20.76-14.45-21.57-6.63-1.88-13.81,1.18-18.1-5.93,3.01-13.8,31.76,3.07,33.98,1.02-5.34-35.56-53.71-14.08-57.99-35.97,59.93,11.27,29.22-18.65-10.99-18.01-3.66.1-13.19,4.79-15-1.03-3.55-11.43,27.74-9.95,33.98-7-19.94-33.93-50.82-4.75-63.97-17.04-1.96-9.09,28.37-10.18,33.97-8.96-30.51-35.98-52.18,3.79-71.96-8.97,8.72-11.42,20.59-10.08,31.95-16.02-18.28-14.56-45.79-3.29-60.07,8.21-18.43-5.93,16.41-23.13,24.07-21.22-32.8-25.15-49.04,15.2-67.98,12.01-4.53-6.29,19.9-22.08,25.99-22.02-29.66-21.34-43.84,18.34-63.98,22.02-1.04-13.6,12.85-19.27,19.98-27.98ZM2156.86,767.12c-8.82-8.44-13.04-4.55-24.85-5.1,6.6,3.99,17.1,13.68,19.97,21-18.16,7.5-27.37-32.02-61.97-15.05,16.8-1.69,45.37,34.26,9.71,11.31-12.48-9.11-28.04-10.53-41.71-3.3,5.29-3.18,32.81,14.92,20.91,18-6.11-1.06-43.26-22-58.91-2,29.36-2.55,54.66,20.76,5.99,8.03,0,0,6.02,15.99,6.02,15.99,72.78-35.54,162.88-31.59,241.96,6-.03-6.95-8.17-9.9-13.97-10.03,1.22-6.31,11.3,3.85,10.01-2.99-2.88-15.29-14.17-29.05-30.01-30.98-1.97,1.91,17.82,24.11,6.99,29.95-4.06-1.47-4.2-8.43-5.53-9.56-8.48-.83-3.78-.21-4.44-8.31-3.87-11.38-20.46-24.03-33.04-22.07-1.12.84,14.6,14.02,13.09,23.96-6.04,14.23-23.34-38.98-51.09-29.95,8.76,3.23,30.1,36.58,8.99,19.98-4.31,10.77-3.36-3.24-4.83-5.12-11-4.73-4.51,3.81-13.29-9.77ZM935.31,920.64c-473.24-556.34-728.24,633.94-53.96,294.67,16.73-15.58-5.3-20.33,2.63-47.31-570.89,402.64-433.16-761.22,27.97-226.85,9.33-4.21,41.92-2.08,23.36-20.51ZM1999.98,778c-25.05,8.4-23.65,5.47-13.95,30,21.27-9.2,21.38-8.75,13.95-30ZM946,807.98c-15.44-11.42-35.87-17.62-54-23.96,13.22,12.22,36.14,21.2,54,23.96ZM1022,825.98l-25.98-33.97c1.07,20.13,4.39,30.52,25.98,33.97ZM2306.02,812c-1.26,1.63,10.07,30.41-.99,27.99-2.6-.57-8.58-30.46-12.13-35.89-1.75-2.67-19.41-13.5-20.9-12.08,6.81,10.97,14.99,26.54,2.01,33.95,151.57,28.1,101.33,399.23,146.99,268.05-19.14,22.44-44.33,15.46-8.2-4.23,6.34-6.57,19.5-23.73,11.23-31.78-2.98,9.25-13.96,17.42-24.03,15.96,12.92-15.14,33.71-29.41,24.03-49.97.72,5.84-17.62,24.65-22.02,19.98-4.67-4.97,10-16.42,12.82-20.16,14.9-18.71,12.13-51.29-6.82-16.81-17.1,2.79,3.53-11.89,4.01-20-7.85,6.1-2.52-14.98-4.04-17.02-35.45,33.14,11.38-30.98-8.01-49.98-1.93,4.72-7.67,34.96-15.98,24.94,6.11-4.72,7.61-63.32,1.99-40.95-3.55,4.66-3.62-5.48-5.97-4.01,3.3,3.51-6.42,25.93-11.05,18.02-.78-17.28,11.7-43.55-8.95-56.03,3.99,28.58-13.35,38.92-8.19,3.16-1.18-10.01-6.34-24.25-15.81-29.16-1.78,7.09,6.45,36.26-7.23,26.09-1.72-17-1.3-42.07-22.77-50.09ZM2359.56,918.6c-55.58-106.09-209.46-157.01-323.51-98.46,0,0,5.97,25.86,5.97,25.86,241.26-124.08,446.75,221.97,236.98,370.01-217.45,175.44-492.8-167.51-275.25-343.28.7-3.7-11.75-22.68-14.74-22.68-408.01,451,597.77,629.02,370.56,68.56ZM925.96,822c13.71-15.85-12.7-16.81-23.96-21.98,1.55,3.99,22.42,23.08,23.96,21.98ZM2021.81,804.19c-4.63-3.27-30.88,12.97-36.97,15.78,1.32,6.62,4.27,22.18,13.24,19.2,17.37-9.26,35.64-11.29,23.73-34.98ZM1107.98,888c-12.62-36.14-47.57-63.92-83.98-73.98,6.89,10.07,13.32,20.48,26.57,18.4,14.18,3.44,41.78,47.17,57.4,55.58ZM956,825.98c13.28-1.92,38.06,20.91,41.7.95-13.86-7.99-30.3-17.98-41.7-.95ZM875.97,914.06c-2.61,6.77,14.46,42.79,24.03,28.89-91.5-212.36-419.44-131.43-399.97,108.03,11.41,196.39,299.2,258.79,389.92,86-12.41-12.45-16.11,8.22-22.64,16.36-31.97,39.88-81.97,67.47-132.59,74.38-435.17-1.93-136.51-625.54,141.26-313.65ZM1977.46,822.51c-5.14-5.06-13.15,2.81-15.46,7.47,4.77-1.51,26.08,4.75,15.46-7.47ZM993.64,840.35s-65.64-16.33-65.64-16.33c15.52,19,33.38,39.2,44.36,62.62,4.93,5.97,1.15,13.71,7.62,5.37-3.14,8.24,2.28,12.42,4.04,19.97,3.59-8.41,8.37-26.66,23.98-21.99,0,0-14.36-49.64-14.36-49.64ZM2107.98,1000.02c-4.76-1.32-72.6-178.33-82.05-171.16-80.86-9.98,96.7,246.62,90.05,265.14,26.76-10.02,28.31-3.63,26-33.99l-5.96,11.98c1.85-24.59-22.83-4.39-14.31-46.52-4.04-4.13-9.31-31.7-17.68-17.47.87-3.13-2.67-11.8,3.96-7.98ZM1988.02,910c12.41,2.5,37.03-22.77,17.11-29.92-235.97,211.14,137.06,548.27,320.5,276.53,135.81-176.91-137.13-435.99-272.55-290.56,253.19-132.46,418.47,288.35,146.44,366.48-195.76,52.24-317.98-169.18-211.49-322.54ZM1033.41,836.61c-3.56-2.5-23.79-8.47-25.4-1.58-1.8,5.51,42.57,16.94,25.4,1.58ZM878.03,949.99c-.85-104.03-227.54-145.67-262.41-83.37,92.1-53.18,225.98-11.48,262.41,83.37ZM1936,1190c.62,15.39-4.59,44.06,13.98,52,.95-4.81-3.19-29.77,4.99-27.99,9.75,15.83-3.27,41.26,25.02,53.99,1-1.25-11.29-27.65.98-29.99,7.77,2.72,1.67,37.85,11,22.01,0,0,2.01,10.01,2.01,10.01-8.68,4.14,21.64,30.09,7.95-6.97,6.29-26.47,14.28,43.56,38.07,36.92,1.17-.93-14.95-22.55-5.01-27.92,12.66,9.57,11.76,39.4,35.01,37.93-5.26-3.86-13.08-35.92-.59-21.37,4.28,21.69,55.11,47.99,25.39,11.49,4.92-22.59,29.4,36.3,49.18,19.92-12.92-.36-20-30.41-6.29-16.71s20.52,19.47,42.31,16.67c-37.87-29.2-9.48-22.26,13.43-4.38,25.05-.1,24.52-1.78,3.3-12.32-16.99-24.18,32.37,16.42,55.26-1.31-9.01-2.41-24.43-6.2-27.98-15.96,19.82-2.06,38.36,17.86,57.98,0-30.19,2.62-37.33-21.96-.97-8.04,11.05.91,19.92-.76,26.98-9.96-4.38,1.75-31.56-4.96-22.07-11.08,6.49-4.19,42.04,9.5,50.07-10.92-9.76-.26-20.29,1.75-28.68-3.7-185.78,133.73-462.42-14.14-407.58-259.58-2.67-66.01,132.37-158.11,59.27-142.73-36.08,16.91-22.47,13.99,4.98,18.97-16.26,10.86-41.62.19-51.98,24.04,4.09.57,32.5-8.37,29.98,1.96-1.36,5.57-14.54,4.38-18.5,5.52-26.88,8.88-44.3,35.39-2.52,17.48,4.12,11.44-12.83,10.9-20.06,13.94-11.6,4.88-17.56,10.79-18.91,24.08,1.44,1.49,20.72-10.87,25.98-7.98-.78,19.13-43.14,13.16-31.97,39.99.84.87,22.13-14.22,21.94-5-53.73,36.12-27.57,64.49-21.94,23.01,1.94,21.56,6.16-1.19,13.99,9.03-6.28,14.23-32.04,23.81-25.01,44.95,6.39-5.82,12.16-16.61,20.69-16.38,1.37-1.73-1.47-6.26,2.3-5.61,3.81,14.33-10.03,17.77-15.69,27.28-8.07,14.23-10.99,45.98,7.28,16.71,8.46-6.92,14.07-2.4,7.54,6.1-7.06,9.19-8.18,8.4-5.11,21.89-9.78-22-10.41,11.09-7.97,22.01,2.57-1.14,18.53-32.33,21.98-18.96-.66,2.51-25.41,44.51-8.02,30.98-6.37,3.75-2.85,19.67,2,19.99-1.55-10.53,6.4-23.19,18.01-22.01-1.11,5.07,3.81,16.32-5.97,9.99-9.08,16.11-2.26,74.15,10.24,23.28,19.88-14.53-12.03,36.08,13.72,50.73.17-8.91-2.74-26.74,10.02-26ZM1056.54,853.49c-20.42-34.23,40.9,94.7,44.47,42.55-5.03-5.4-33.98-40.66-44.47-42.55ZM1038.01,850.01c-33.67-11.35-47.39,6.19-2.86,11.88,13.58-3.01-15.62-7.51-17.15-7.87,7.29-3.23,24.06,8.51,20-4.01ZM1044.02,846c-5.03,18.34,30.4,83.95,47.95,69.01-13.38-12.67-42.43-47.71-47.95-69.01ZM2322.01,972.01c-67.79-210.23-344.94-75.73-234-108.99,31.93-11.7,99.93-12.64,114.01.95,480.14,304.1-436.14,584.02-200.93,58.1,4.83-5.91,25.1-27.3,6.78-17.21-10.07,15.92-33.38,30.84-31.88,51.14,0,0-3.85-1.94-3.85-1.94-139.46,352.63,468.45,369.43,349.88,17.95ZM733,850c-134.04,1.22-104.15,22.17-1.05,54.01.34-4.42,5.51-8.73,5.29-13.05-23.37-38.86,10.61-18.13-4.25-40.96ZM1793.99,999.99c-3.45-48.34-6.03-97.89-11.97-145.98,4.04,46.9-3.63,104.35,11.97,145.98ZM2161.81,860.2c-24.26-5.67,18.79,74.72,8.14,96.77-4.52,10.86-1.49,19.72.08,29.02-18.62-1.14,15.81,10.29,19.96,20.01-3.68-42.31-15.3-107.79-28.17-145.8ZM676,1320c51.49,7.27,38.02-26.25,60.02-24.98-28.36,46.83,18.17,22.39,29.99-6.04-10.65-4.1.65-6.21,6.96-7.01-11.3,11.12,17.02-.71-12.97,34.01,34.64,4.22,27.35-27.86,45.04-39.96,10.03,3.92-3.98,22.01-5.03,29.96,12.99-.18,23.32-11.59,28.34-22.64,9.84-44.52,24.64-16.89,5.65,8.63,31.53-4.48,25.75-32.83,33.02-53.97,12.88-4.06,4.94,28.85,3.01,33.98,24.02-10.35,25.19-34.78,23.99-57.99,15.59.05,9.39,23.64,8.01,33.99,25.5-7.77,24.61-77.4,9.1-45.91-298.95,243.49-527.13-79.7-439.09-340.09-24.3,16.18-3.78,43.6-4.1,61.94-8.03,5.47-15.3-24.53-15.94-29.93-14.1,13.65-9.06,53.58,7.98,56.71.98-2.47-.93-7.72,4.02-8.72-3.14,34.27-25.8,9.72-28-9.99-19.48,31.82,7.63,36.69,11.79,60.7-8.29,16.46-21.55-33.82-24.73-18.73-13,27.66,23.24,37.86,22.96,60.01-2.89,3.29-18.95-13.45-20.82-16.16-12.16-27.02-9.8,19.11,1.72,28.28,24.08,11.44,30.37,36.16,1.06,12.94-17.64-25.36-9.63,17.65,5.1,24.9,35.75,19.21,17.68,25.97-5.05,10.06,0,0,6.02,14.97,6.02,14.97-1.2-3.39-8.81-8.46-5.68-.33,6.59,18.81,36.06,15.89,39.63,28.4-4.62,9.59-23.81-4.39-31.96-7.03-3.35,21.7,40,34.36,47.98,37,4.46,15.7-30.53-2.19-31.99-.99,6.47,25.87,35.97,25.86,53.99,30.99,3.92,12.39-26.5,5.68-31.99,3.01,10.7,23.22,35.79,26.44,57.99,17.99,2.23,17.96-17.32,13.18-29.99,14.01,11.38,31.12,81.43,3.56,55.12,24.1-17.19,5.39-37.61,2.16-6.14,16.06,12.91,3.74,32.66-9.91,43-6.17,4.77,6.07-24.42,16.05-27.97,16.02,18.97,26.95,55.66-12.51,62.07,3.01-.11,7.13-20.74,12.41-26.07,15.98,26.54,16.5,41.59-11.24,65.98-12.99-8.28,8.78-16.82,21.17-29.98,22,17.1,8.3,0-2.01,15.98,0-3.74,23.02,37.48-17.83,44.83-15.91,10.12,7.15-17,21.8-22.83,25.9ZM1039.57,868.43c-1.07-1.07-28.38-7.34-29.57-6.41,2.16,6.53,21.41,32.22,18.99,11.99,9.9,17.85,17.65,8.4,10.59-5.59ZM2156,925.98c-6.24-76.17-35.19-75.23-95.79-43.02,36.95,86.08,24.61,37.65,95.79,43.02ZM789.47,866.53c-1-1.08-6.57-3.47-7.46-2.52,7.17,16.11-16.62,64.93,6.96,64.01.41-11.45,4.74-48.67.5-61.49ZM1274,1028c-18.04-7.46-42.4-15.82-61.99-19.01,18.27,24.45,89.09,104.06,103.97,104.98,162.03-4.75,342.96,41.15,497.98,1.05-123.18-136.75-359.8-50.01-517.3-140.71-63.51-36.79,46.78,37.64,79.27,34.74,71.97,14.66,208.15,60.53,243.12,112.9-87.33-88.16-252.7-91.49-347.07-154.94-51.91-59.4-82.53-82.6-163.02-101.02-7.22-.98.9,7.25,2.13,9.89,9.85,27.74,46.6,22.93,50.04,71.97,0,0,48.87,59.27,48.87,59.27,91.64,10.1,188.76,52.26,281.02,74.84-65.33-10.62-146.55-37.55-217.02-53.97,85.61,49.16,18.41,73.73,131.99,71.98l-69.97-14.01s24.97-4.03,24.97-4.03c37.52,18.1,93.94,10.95,125.01,30.04-48.19-.29-249.27-8.17-211.99-83.98ZM2183.42,866.37c-14.86,5.71,7.27,56.15,7.62,65.59,1.1,2.13,24.28,15.03,30.01,19.99,12.73,11.03,20.29,24.43,29.91,37.93,95.01-47.04-7.95-115.83-67.54-123.51ZM807.98,876.03c-21.7-14.99-8.54,7.41-11.97,17.96,3.73-6.26,4.28-12.98,11.97-17.96ZM917,1094c19.36,1.87,41.34-1.38,61,0,.27-.94-61.85-19.02-39.39-19.63,37.22,16.25,54.13,19.95,24.22-22.2-72.39-101.15-192.32-117.27-298.82-168.15,91.33,46.87,238.84,91.3,271.98,178-10.99,53.58-120.88-26.58-152.02-36.96-54.43-40.14-81.45-128.28-147.49-150.52-9.83-1.44-55.16,1.56-60.68,8.29-4.49,2.1,7.59,68.19,12.18,39.2,13.06,70.62,257.78,140.92,329.03,171.99ZM1030,889.98l-19.99-11.97c-.09,16.41,6.69,11.7,19.99,11.97ZM834.02,926c31.76-5.38-23.41-61.98-29.88-32.88-8.65,32.83,26.65,8.48,29.88,32.88ZM760.01,892.02c-.56-.6-13.65-2.76-16-4.01-4.44,14.97,17.88,17.96,16,4.01ZM1030.01,895.99c-32.8.06-20.68-4.8-24,22,16.94-1.45,27.82-.11,24-22ZM1153.98,938c-3.25-29.42-58.96-67.22-14.63-14.66-4.84,7.91,10.34,6.98,14.63,14.66ZM653.99,1208.02c-140.75-42.46-162.37-202.89-86.97-310.01-181.92,202.2,148.07,467.17,304.24,238.23,4.55-9.44,1.02-13.19-3.78-5.7-37,68.43-155.6,109.43-213.5,77.48ZM1059.99,905.99c-2.15-12.93-19.12-6.84-19.99,3.99l19.99-3.99ZM904.59,1037.43c-33.59-82.71-134.15-92.56-206.58-129.42,34.74,23.49,56.85,70.16,85.62,97.31,13.93,8.43,181.19,99.25,120.96,32.12ZM1243.99,923.99c2.98-2.53-13.05-16.98-17.98-13.97,3.33,4.59,10.78,17.48,17.98,13.97ZM2023.98,910c-18.87,4.42-10.19,25.52,10.02,23.98-3.3-7.94-9.43-15.11-10.02-23.98ZM1069.96,912.01c-13.85,10.01-36.94,22.68-41.95,39.99,7.57-17.81,53.29-29.66,41.95-39.99ZM569.97,933.98c16.56-65.73-76.46,97.81-26.08,86.9,45.43-25.9,46.88-14.78,22.05-62.28-2.05-7.63,4.74-19.52.07-28.59l3.96,3.97ZM1120,928.03c-7.93-1.93-12.39-9-17.98-14.03-2.86,9.87,10.71,25.16,17.98,14.03ZM1269.98,942c-1.33-14.84-7.93-26.31-23.98-27.98,6.87,10.12,13.78,20.85,23.98,27.98ZM1050,916.02l-41.02,9.98c11.45,41.34,15.36,6.68,41.02-9.98ZM1390.62,975.67c-9.51-50.44-84.94-32.91-122.59-55.68,10.95,24.14,46.64,51.41,74.35,50.45,22.56,1.7,55.08,22.01,19.96-11.78-4.07-7.32-9.26-16.48,3.65-10.64-11.33,3.8,28.47,37.3,24.63,27.64ZM1094,945.98l-16.98-23.93c-129.65,43.17-34.2,240.27,75.95,157.9,11.64-8.97,15.9-21.79,35.04-17.97,1.14-18.06-22.63-16.87-17.04-36.03,2.05-7.02,4.42,7.5,5.02-.91-9.87-15.3,1.43-35.08-12.16-46.06-.76-5.43,4.11-9.07,3.27-10.97-8.63-9.5-24.14-42-41.91-29.81-39.29,15.46,70.21,19.35,32.15,110.21-74.39,120.3-213.77-79.46-63.34-102.44ZM937.98,1011.99c-2.06-9.66,3.62-16.64,11.03-21.98,19.08-13.74,88.72-30.75,49.08-61.15l-134.08,31.16c25.29,10.6,56.74,30.25,73.97,51.97ZM858,932.02c-3.35.68-35.65,5.24-37.99,9.96,18.73,4.53,32.37,21.72,52.04,8.96l-10.04-17.95c-2.26,9.03-6.38,3.15-4.01-.96ZM2156,932c-10.89-4.73-87.18,12.09-53.97,18.97-5.73,6.78,13.05,9.45,17.21,12.45,35.26-9.56,39.06,11.6,36.76-31.42ZM2046,959.98c.97-10.8-51.77-34.17-53.98-18.96,7.42,6.5,30.78,12.92,41.99,11-4.94,5.24,6.53,7.27,11.99,7.96ZM895,1074c112.86,3.62-110.67-14.45-171.99-135.97,15.74,65.35,112.03,115.4,171.99,135.97ZM2230,971.98c-2.32-6.19-47.37-45.54-33.64-18.44.54.51,4.28-1.84,5.64,1.46-11.54-.6-3.45,17.48-2.49,24.49,3.59,8.46,15.47,13.11,10.52,28.49,3.47-19.13,4.08,3.72,13.97-.01-9.06-6.01,2.85-13.3,11.03-6.66,25.26-8.51-13.28-27.7-5.03-29.33ZM585.96,946.04c-14.24,5.75-5.05,38.44,7.03,45.92,14.1-35.53,15.19-21.06-7.03-45.92ZM1309.99,966.02c-11.6-3.27-50.07-36.08-23.01-5.79,25.75,30.16,562.04,141.23,501.06,43.78,12.97,78.1-447.26-15.97-478.04-37.99ZM1432,985.98c-12.06-40.31-8.02-24.5-45.99-35.97,8.74,32.69,12.73,34.65,45.99,35.97ZM1078,961.98c24.37-11.45,40.18,10.37,57.96,9.02-5.95-13.75-60.17-24.08-41.97-13.03-4.77.81-19.28-6.68-15.98,4ZM1999.99,958.01c-20.6,14.71-23.46,59.75.99,76.01-19.13-22.07-13.37-53.89-.99-76.01ZM1988,960.02c-34.64,21.67-38.26,195.98,21.96,112.98-18.95-11.7-19.41-10.39-12.25-29.71-22.69-23.86-28.26-54.36-9.71-83.27ZM2046,974.04c-7.98-.58-33.93-17.5-39.75-13.8-7.51,13.63-19.03,42.02-7.24,57.75,6.02,5.21-5.52-26.66,20.97-15.99-4.85-22.58,20.7-13.12,26.02-27.97ZM2309.99,960.01c-2.63-2.29-21.43,12.89-17.98,19.98,2.68-3.65,25.44-13.13,17.98-19.98ZM609.99,966.01c-7.52.79-14.98,28.29-7.81,32.79,17.31-9.11,327.92,189.11,309.81,101.23-101.27-32.47-201.09-83.84-297-130.02-7.81,6.52-2.93,28.22-14.98,25.96,0,0,9.99-29.97,9.99-29.97ZM1003.98,1006l6-40c-18.23,8.46-26.5,28.49-6,40ZM1151.99,993.99c4.1-3.08-20.73-31.44-13.19-13.81,1.74,2.98,8.74,17.93,13.19,13.81ZM2136,985.98c-11.54-8.55-39.67-23.47-14.02,3.09,0,0,14.02-3.09,14.02-3.09ZM2272.77,998.75c51.99-58.4-51.39,45.21-74.76,25.26,3.76,13.62,2.69,26.93-1.99,39.99,25-20.89,54.54-38.1,76.75-65.25ZM2059.98,992c-6.75-24.01-17.5-5.57-17.52,8.76,5.53,5.97,23.66,29.05,25.11,5.88-2.29-5.63-2.33-11.76-9.05-5.09-15.23,4.69-11.95-16.69,1.45-9.55ZM1664.01,1015.99l9.92-29.01-15.86-4.97c.58,8.36-11.25,23.82-11.78,29.35-2.55,11.05,117.61,8.86,120.73,12.66,7.69-1.43,7.27-11.73,7-18.02l-10-1.97,11.98-2-96.74-15.85c-6.27,1.81-5.69,30.32-15.25,29.82ZM2307.45,1119.45c19.78-34.88,23.23-82.67,13.57-121.48-4.27-40.2-41.3,13.89-53.96,24.13-11.28,4.22-6.21,14.39-7.09,24.87-2.29,21.92-8.16,39.43-19.99,57.98,13.72,6.85,55.46,26.82,67.47,14.5ZM1199.98,1031.99c6.19-35.11-38.75-74.51-21.03-13.94,10.89,3.38,15.75,2.06,21.03,13.94ZM2140,1019.98c-10.08-10.55-18.2-23.16-29.98-31.98,7.06,7.25,17.75,32.98,29.98,31.98ZM2184,1007.98c-17.46-30.93-93.86-16.72-30.37,1.38,49.61,21.64,5.47,64.97-15.63,84.61,54.56,4.75,71.41-61.47,46-85.99ZM959.99,992.01c-31.55,7.34-16.44,32.65,1.99,45.99,4.43-16.43-2.15-29.7-1.99-45.99ZM968.63,1004.45c-2.38,21.76,33.8-7.59,4.48-10.43-7.13,2.38,3.59,10.31-4.48,10.43ZM1041.98,1028c.29-12.57,2.48-51.65-5.96-20.98-.78,7.42-2.71,20.04,5.96,20.98ZM1146.44,1042.62c13.52,1.07,3.7-31.56,5.54-40.61,3.87,9.44-19.84,65.01-5.54,40.61ZM616,1015.98c-23.81-27.84-50.99,10.75-75.98,18.04,9.24,10.51-19.48-4.77-11.99,21.97,11.78-17.17,99.58-39.66,67.99-41.97,0,0,19.99,1.95,19.99,1.95ZM1103.89,1015.45c.15-10.59-16.48-10.59-16.32,0-.15,10.59,16.48,10.59,16.32,0ZM2045.72,1008.29c-1.91-1.81-23.78-1.8-21.71,7.7,8.92.14,28.44,5.87,21.71-7.7ZM1228,1041.98c1.42-1.4-22.82-28.31-25.98-29.98.63,7.92,3.54,17.72-.06,24.85,4.14.77,4.57,6.23,4.04,9.17.96,1.14,18.27-4.43,21.99-4.04ZM623.98,1034c4.32-31.36-6.5-9.72-25.97-9.98,7.77.2,21.07,3.28,25.97,9.98ZM747.35,1085.32c-105.51,43.77-81.96-55.02-117.33-65.32,6.57,182.58,210.95,34.58,117.33,65.32ZM2150.02,1064c18.9-4.75,21.92-39.27,1.99-41.01,15.04,11.84,6.24,29.28-1.99,41.01ZM2038,1024.02c-5.95,2.3-24.85-2.24-21.04,5.94l9.04-1.94-10,4c.02,3.89,12.65,7.1,7.03,9.64-17.39-.21,5.54,27.7,6.48,9.92-.54-12.97-5.11-18.04,8.49-27.57ZM1011.99,1049.99l-7.97-23.97c-.2,7.77-8.45,7.71-12.14,11.04-7.99,11.39,9.38,13.91,20.11,12.93ZM2034.02,1049.99c2.55,1.88,21.93-18.49,25.94-20.99-10.33-9.26-37.12,10.61-25.94,20.99ZM677.47,1040.53c-72.57-36.51,21.3,99.56,68.41,36.79,18.83-3.36-14.3-12.54-17.37-15-20.16,9.3-46.27,1.07-51.04-21.79ZM1134,1056.02c-31.54,25.33-76.68,12.42-91.97-26.01-3.98,45.27,84.03,61.94,91.97,26.01ZM2087.59,1051.6c-6.13-53.47-85.51,48.98-105.76,65.35-2.26,12.87,4.52,12.79,7.27,3.15,19.78-21.66,74.53-64.72,98.5-68.5ZM615.73,1123.75c-1.92-9.35,16.92-90.73-8.49-91.63-65.53,13.07-92.6,44.96-44.01,103.66,18.99,26.72,58.1,66.42,52.9,3.34-.44-1.58-9.14.57-8.23-10.13.52-6.15,6.71-3.98,7.83-5.24ZM992,1057.98c-4.87-7.89-14.78-12.57-17.12-21.86-14.92-10.14-7.26,22.42,17.12,21.86ZM2228,1092c-11.98-24.57,28.12-2.84,0,0,.09,3.09-2.26,7.65-2.02,7.98,11.96,10.77,21.23-29.21,24.17-34.89-2.98,1.39-6.76-12.28,1.84-7.08,0,0,0-22.01,0-22.01-10.62,10.21-33.62,16.63-31.45,33.35-14.12,25.53-20.28,20.04,7.47,22.65ZM1323.99,1085.99c-8.59-14.46-32.71-42.81-49.99-45.97,13.9,13.23,29.49,46.87,49.99,45.97ZM720,1058.02c-13.68-.78-24.55-8.64-35.99-14.01-5.85,6.01,29.62,28.23,35.99,14.01ZM1223.99,1048.02c-5.95.1-23.16,1.07-19.98,9.97.74.84,17.94-5.88,21.98-4.01-5.44-1.79-7.35-1.41-2-5.96ZM999.38,1066.64c-15.05-7.62-31.38-15.27-15.18,8.17,12.08,4.79,38.21,15.93,15.18-8.17ZM1255.99,1073.99c-5.61-24.11-32.7-10.76-49.99-7.96,17.79,20.49,27.46,12.45,49.99,7.96ZM636.01,1077.98l-7.99-15.97-2,21.99c3.58-1.87,4.92-8.05,9.99-6.02ZM2074.02,1080.02c-7.15-14.82-.13.16-8.01,4.99,6.02.2,11.15,6.51,4.85,10.87-13.97,2.13-3.27-11.01-13.86-15.78-23.52,13.37,25.14,52.11,38.98,57.9-.01-1.64-2.72-36.05-4-15.97-.27.4-8.98-1.36-9.42-1.54-12.18-6.62,4.31-16.35,9.42-6.49,2.54-14.68-14.86-20.85-12-35.99l-5.96,2.02ZM1218,1082.02c-7.74-1.49-22.85-12.27-10.01,1.95-22.97,5.89,4.57,6.97,10.01-1.95ZM1033.99,1082.03c-3.08.13-15.1-8.47-14.01-1.03,5.44,8.92,16.89,59.88,26.02,23.02-7.01,5.49-18.04-15.53-17.96-17.03.12-2.35,6.46-1.66,5.95-4.97ZM1271.99,1091.98c-61.14-37.7-201.62,95.81-297.15,22.04,3,95.84,244.16-10.65,297.15-22.04ZM2188.43,1091.59c1.7-26.11-13.25,4.29-29.47,4.4-10.27,3.24,10.58,9.24,15.04,6.03,24.57,24.91,84.71,26.85,119.04,45.7,25.19-14.38-90.82-29.99-104.61-56.13ZM1176,1097.98c-8.67-33.69-7.38-7.52-15.99,4.01,0,0,15.99-4.01,15.99-4.01ZM2110.51,1097.47c-26.05-66.04,8.43,115.63,17.47,108.52,0,0-1.98,18-1.98,18,0,0,16.01,0,16.01,0-16.6-35.36-33.9-93.47-10.01-127.96-2.03-1.61-15.26,7.56-21.49,1.45ZM636,1196c-.56-25.17-1.1-64.66,11.52-87.04-.03-1.11-12.04-14.4-11.55-18.94l-3.95,15.97v-23.97c-10.69,33.09,2.23,79.45-12.03,106.99-.14.86,15.34,7.75,16.01,7ZM658.73,1103.24c-28.88-37.6-25.87-5.75-.74,3.77-7.96,3.52-12.44,12.26-11.97,20.98,6.03-25.12,33.33-13.66,12.71-24.75ZM1007.98,1111.99c4.4-17.94,10.51-28-13.97-27.97,31.29,12.78,3.41,11.32,13.97,27.97ZM1025.98,1127.99c6.12-7.53-4.44-25-7.96-31.98-1.1,18.24-15.19,26.49,7.96,31.98ZM1293.98,1108.03c-12.15-5.48-13.19-15.17-27.97-8,4.51,1.47,23.28,11.57,27.97,8ZM2097.51,1146.48c-35.64-10.74-48.77-62.06-68.63-46.61-108.53,49.66,146.33,201.81,68.63,46.61ZM797.99,1097.99c-8.51-2.98-12.41,8.19-3.97,11.01-8.83,4.94,8.55,7.96,3.97-11.01ZM1101.99,1108.02c-89.86-30.96-55.36,50.88-10,6.97,0,0-5.98-4.99-5.98-4.99l15.98-1.99ZM829.99,1108.03c-11.5-1.99-24.73-16.69-25.98,3.96,0,0,25.98-3.96,25.98-3.96ZM960.01,1102c-47.45-5.17-28.32-5.34-50.01,29.98,15.29-4.04,56.67-3.34,50.01-29.98ZM779.99,1102.01c-1.41-1.7-22.66,12.46-21.99,17.97,11.73,2.15,24.37-5.69,21.99-17.97ZM2128,1148c-.7-9.66-.2-35.67,3.98-44-8.52-.28-7.85,43.71-3.98,44ZM748.02,1126c5.91-9.02,14.2-27.01-4.01-13.97,6.49,5.65,2.01,4.05,4.01,13.97ZM1252.01,1143.98c15.33,1.85,21.29-22.53,10.98-31.97,4.39,13.92,2.15,23.11-10.98,31.97ZM1304,1120.02c-1.21-1.12-27.52-6.25-31.99-8.01,2.22,11.51-2.69,21.56,13.98,15.97-19.16-16.22,20.61,6.59,18.01-7.96ZM742,1119.99c.96-12.34-16.59-.08-25.25-.24-15.67.87-28.62-2.5-7.73,10.26,2.13-7.78,29.57-6.32,32.98-10.01ZM2205.99,1130.02c-27.67-7.93-3.54,10.51-32-11.17-86.41-5.79-24.01,61.67,32,11.17ZM686,1123.98c-6.81-8.73-18.62-13.67-17.99,2.01l17.99-2.01ZM770.02,1135.97c27.32,14.01,42.56,47.49,72.04,17.08,6.1-6.29,30.91-32.19,11.04-32.77-10.66,1.94-48.49-.23-54.31,11.42-10.74,9.94-21.32-2.65-28.77,4.27ZM1251.84,1124.98c.11-7.43-11.56-7.43-11.45,0-.11,7.43,11.56,7.43,11.45,0ZM1340.01,1121.99c-.88-.83-20.63-1.42-24.01-1.97,12.45,14.34,28.22,34.69,24.01,1.97ZM1346,1144c36.43.66,133.16,3,165.99-13.99-12.11,7.52-190.16-30.59-165.99,13.99ZM720,1128.02c4.17-.31,98.13,85.62,86.69,48.29-13.67-12.81-37.96-23.86-53.68-38.32-8.93-18.02-16.46-10.33-33.01-9.97ZM1195.99,1124c-9.19,7.08-21.98,3.05-31.98,9.97,15.79-8.1,40,16.43,31.98-9.97ZM1326,1141.98c-10.81-24.35-36.81-9.05-54.44-3.93-30.68,22.03,51.83.14,54.44,3.93ZM965.77,1157.77c4.65-6.79-8.84-31.05-20.67-25.91l-19.11,34.12,14-2c-4.11-15.31,4.29-13.53,10.86-2.63,1.21.2,14.48-2.95,14.91-3.58ZM1241.98,1142.03c-4.45.92-11.68-10.01-12.99-10-.75.01-7.32,9.01-12.99,5.99,4.02,6.93,22.14,8.94,25.97,4.01ZM2385.99,1132.01c-3.45-9.06-34.93,55.91-23.98,47,0,0-4.01,8.97-4.01,8.97,16.21-.52,39.39-7.44,39.01-25.97-29.18,19.15-36.06-.18-.37-10.37,7.28-3.72,18.08-19.46,3.36-9.66,22.68-24.6-33.02,18.38-14.01-9.97ZM650.01,1144.01c-23.28,75.55,53.78,74.05,105.99,60.98,71.96-11.48-42.16-57.13-51.91-69.8-1.96-.52-29.03,2.75-32.29,3.65-5.55,1.54-7.71,12.76-21.78,5.17ZM2136.01,1156.01c-7.65,142.18,172.49,5.75,136.03-5.03-74.02-35.09-70.26,8.82-136.03,5.03ZM936,1136.02c-5.5,1.2-33.23,3.03-35.61,4.39-8.16,14.76-21.84,22.4,3.61,23.61,5.45,5.33-8.08.29-3.99,5.97,24.78-1.33,25.24-12.82,35.99-33.97ZM1127,1156c-11.41,2.47-30.61-1.82-43,0-3.86,4.63,52.9.83,53,2,37.86-25.94,13.46-23.83-10-2ZM995.99,1148.03c-8.8-4.22-12.26-4.82-15.99,5.95,1.67-.71,20.72-1.07,15.99-5.95ZM1001.34,1161.49c-12.27-11.51-65.73,15.49-90.91,13.92-14.12,3.96-23.45-4.51-20.41,14.6,4.06-3.63,119.66-10.13,113.97-23.99-12.54,6.1-7.04-.98-2.64-4.53ZM2373.99,1196.02c-26.04,7.55-24.87-19.92-22.01,5.98-.95-24.06-33.15,27.3-37.98,27.01,6.66,1.9,2.88,3.35,2.01,8.98,17.94.64,36.1-1.14,45.99-17.97-4.77,2.06-32.2,7.62-29.99-2.99-2.35-4.7,53.93-6.38,34-14.02,0,0,7.98-6.99,7.98-6.99ZM948,1190.02h-14.01c-6.48,30.4,5.39,27.02,14.01,0Z"/>
    <path class="st0" d="M2169.99,1124.02c-11.86,2.73-22.32-2.04-6.37,10.94-7.42,16.21-9.4.67-11.67-.95-21.3,14.9-20.94-19.23-2-4.01-.32-9.54,13.67-5.18,20.03-5.98Z"/>
    <path class="st0" d="M2212.06,972.06c1.88-2.68,13.01-.43,11.9,4.86-2.01,9.59-17.55,3.17-11.9-4.86Z"/>
    <path class="st0" d="M2214.63,963.86c.11,7.57-11.79,7.57-11.68,0-.11-7.57,11.79-7.57,11.68,0Z"/>
    <path class="st0" d="M2228.79,989.96c.11,7.53-11.72,7.53-11.61,0-.11-7.53,11.72-7.53,11.61,0Z"/>
    <path class="st0" d="M2123.98,944.55c.11,7.76-12.08,7.76-11.96,0-.11-7.76,12.08-7.76,11.96,0Z"/>
    <path class="st0" d="M2154.73,949.78c.11,7.35-11.45,7.35-11.34,0-.11-7.35,11.45-7.35,11.34,0Z"/>
    <path class="st0" d="M2138.73,945.78c.11,7.35-11.45,7.35-11.34,0-.11-7.35,11.45-7.35,11.34,0Z"/>
    <path class="st0" d="M2078.01,1099.99c.81,10.13.09,10.84-10.03,10.02-.81-10.13-.09-10.83,10.03-10.02Z"/>
    <path class="st0" d="M2226,1071.99c.11-9.83,2.42-11.3,12-10.01-12.85-14.66,11.29-15.46,7.84-5.15-10.96,3.85-4.56,19.76-19.84,15.17Z"/>
  </g>
  <g>
    <path class="st0" d="M696.41,939.24c.28,19.41-30.2,19.41-29.92,0-.28-19.41,30.2-19.41,29.92,0Z"/>
    <path class="st0" d="M631.99,967.99c-13.51-20.66-10.88-70.24,1.98-91.99-4.62,30.3-5.89,61.54-1.98,91.99Z"/>
    <path class="st0" d="M883.3,1019.69c.27,18.61-28.95,18.61-28.68,0-.27-18.6,28.95-18.6,28.68,0Z"/>
    <path class="st0" d="M981.99,936.01c-1.26,9.93-18.03,9.81-25.97,12.02,3.15,5.7,11.46-2.99,16.17,1.26,24.71,33.25-76.85,50.86-72.19,14.73-.89-.78-19.06,5.73-5.14-4.16l87.13-23.85ZM902,968.02c11.65,24.39,87.33,5.87,64.07-13.24-18.77-2.17-44.97,10.59-64.07,13.24Z"/>
    <path class="st0" d="M1001.52,957.52c-15.22,10.21-17.65-7.87-23.51-3.51,1.39-25.05,36.93-20.25,23.51,3.51Z"/>
  </g>
</svg>