<?xml version="1.0" encoding="UTF-8"?>
<svg id="_Слой_1" data-name="Слой_1" xmlns="http://www.w3.org/2000/svg" version="1.1" viewBox="0 0 2816 1536">
  <!-- Generator: Adobe Illustrator 30.0.0, SVG Export Plug-In . SVG Version: 2.1.1 Build 123)  -->
  <defs>
    <style>
      .st0 {
        fill: #fff;
      }
    </style>
  </defs>
  <path class="st0" d="M1722,256c12.28,1.27,6.01,16.72,4.91,20.03,2.84,6.23,14.47,11.18,18.93,15.13,6.24,4.56,18.13,25.2,25.05,17.88,4.95.11.62,1.5-.88,2.97.51,15.24,27.87,17.04,40.97,16.01,17.86,2.12,47.66,10.02,61.04-1.01,22.74-32.73-29.96-107.26,13.89-123.97,107.55,95.69,236.87,201.77,293.96,334.85,6.3,38.38,113.52,184.48-1.78,193.19-204.43,88.92,15.98,11.05,133.94,129.9,111.08,119.67,126.2,398.25-94.03,466.99-10.14-.21,217.18-4.47,171.11,10.11-492.17-2.47-1454.79,3.21-1904.09-.09-36.67-17.73,222.16-6.69,217.01-11-159.11-45.98-203.08-185.74-192.54-331.53-6.23-14.03,16.91-68.45,13.59-73.48-20.14,2.52-61.47,110.24-94.18,108.02-15.18-35.84,37.54-86.7,46.71-125.4,3.36-13.29-20.27,14.21-12.05-16.06,22.33-22.8,51.09-136.02,81.63-132.36,8.55-3.45,2.09-3.72,1.31-7.65-1.27-27.86-.63-26.11,19.47-39.57-5.52-7.85-53.62-2.07-57.97-5.83-12.29-41.07,66.01-40.86,92.01-47.15-31.31-28.45-119.49-115.13-102.46-151.42.02,0,68.44-8.54,68.44-8.54-215.83-74.65,10.16-64.97,89.41-36.39,24.47-33.04,87.71-9.65,125.63-7.66,234.95-20.3,234.64,83.96,431.89,94.12,143.62-25.72,236.27,28.85,294.63,159.37,14.68,31.71-14.67,36.39-14.58,54.57,76.93,48.25,268.63-64.44,292.63-142.51-10.17-55.32-130.28-136.34-102.17-198.81-7.8-52.64,28.66-2.28-1.51-70.64-15,3.69-41.17-8.83-47.8-19.01-5.17,1.17-10.01.11-15.1-3.02-16.2,12.13-38.24,16.87-44.19-6.23-23.16,11.95-56.57-6.68-33.85-31.87,15.39-13.42,38.98-9.96,50.94-19.06,10.08-13.87,21-36.51,41-36.98,10.23,6.21,20.3,6.02,31.09,12.07-11.59-27.14,45.92-28.13,58.01-20.99,0,5.04-.9,31.62,0,33ZM1886.97,212.02c-.31,65.76,174.7,158.06,210.99,235.99-35.62-38.21-163.45-167.09-204.98-196,26.82,94.83-9.83,86.92,88.98,135.02,74.09,24.64,129.49,81.75,184.02,132.96-32.56-80.23-244.59-272.15-279.01-307.98ZM1882.02,324c35.85-29.13-6.77-70.96-3.01-108.02-11.93,36.6,15.43,71.45,3.01,108.02ZM1698.02,266c22.21-5.09,18.39-14.28,17.96-34-22.21,5.09-18.39,14.28-17.96,34ZM1694.01,239.99c-5.79.58-28.03-1.69-6.87,3.87,2.79,34.65,7.63,16.17,6.87-3.87ZM1643.99,244.01c-62.44,17.46,13.77-4.78-4.01,58-9.27-5.06,1.64,3.25-7.97,9.96,3.65.44,11.25-.78,13.14-3.97-3.95-14.07,6.11-20.77,8.87-3.04,11.06-1.58-14.72-36.32-11.99-39.88,41.07-20.92-7.92-24.07,6.47-18.63,17.38,7.08-1.16,4.57-6.5,3.52,0,0,1.99-5.97,1.99-5.97ZM1683.99,248.01c-16.43-2.12-21.48,16.05-2.08,15.94,0,0,2.08-15.94,2.08-15.94ZM1666,260.02c-14.12,1.22-8.32,3.92-10.09,12.92-6.55,7.6,1.36,12.38,2.12,21.07.58.42,7.65-1.82,7.9-2.15.95-1.3-5.59-26.55.08-31.84ZM1624.02,298c19.2-10.31,7.08-36.85-12.01-35.98,15.26,4.86,21.14,21,12.01,35.98ZM1623.51,283.56c5.06-9.7-16.38-25.77-9.51-7.58-10.28-1.05-3.6-8.74-11.2,1.91-2.95.87-8.91-3.03-12.78-1.87-1.22,2.46,8.59,2.39,3.98,5.97-1.5,1.16-13.11-.11-15.97-1.99,1.9,8.92,13.58,4.46,9.99,17.99,13.49-6.96,12.84-7.33,6.01,6.01,9.28.9,17.92-29.58,19.96-13.49,2.56,8.77,5.28-8.39,9.53-6.95ZM1701.99,284.01s-25.99-1.99-25.99-1.99c26.01,20.34-22.64,8.52-17.99,31.97,10.22,1.24,4.13-2.38,4.79-7.06,4.1-11.56,37.3-7.87,39.18-22.92ZM1566.01,313.99c25.45-.6-1.5-42.55-7.05-23.99,8.2,6.12,7.44,14.75,7.05,23.99ZM1738,315.98c-19.62-24.64-34.25-30.96-13.97,4.02,4.43-2.57,8.59-4.64,13.97-4.02ZM1752.69,309.32c-2.23-2.12-5.6-10.85-10.68-5.3-2.03,8.58,34.03,23.65,10.68,5.3ZM1605.98,308c-17.7.32-14.87,18.75.99,16.08,10.04-1.69-2.88-8.2-.99-16.08ZM1708.47,321.67c-4.67-18,1.8-11.8-16.47-11.64.22,14.2,34.53,19.1,16.47,11.64ZM1656.25,331.77c2.29,2.79,21.14,5.02,14.79-7.78-4.85-9.77-21.53-.46-14.79,7.78ZM1874,337.99c18.83,4.45,19.03-.63,21.98-17.98-3.79,8.81-24.66,12.98-21.98,17.98ZM1828,440c-2.07,226.43,368.97,88.31-128,313.98,83.41-22.53,165.9-50.31,243.35-89.63,85.32-26.12-219.75,96.75-255.7,98.29-62.95,23.32-131.25,51.87-197.65,21.38,45.44,25.02,91.24,80.7,145.03,62.03,88.97-13.34,190.1,81.92,269.97,17.97,12.47-13.07,1.99-23.13-9.61-30.39-91.05-66.34-135.14-36.78-229.38-7.61,27.17-20.32,99.68-36.64,132.75-43.93,8.33.59,63.53,29.14,75,35.17,21.56,11.35,58.11,24.99,30.24,52.74,26.08-8.91,23.18-13.7,10.76-35.74-210.91-87.11-32.64-112.57,74.3-174.16,32.49-45.64,12.71-31.35-31.06-40.1,0,0,2.03-5.97,2.03-5.97,0,0,1.96,3.98,1.96,3.98,26.14.03,68.31,1.42,36.03,35.03,94.06-64.64-125.37-178.16-158.05-233.96-18.98-27.33-42.34-57.98-61.96-81.03,5.83-1.52,22.81,19.14,29.94,18.16.39.38-1.49,3.84-.17,6.93,22.4,77.32,314.44,228.6,188.08,299.74-35.29,28.75-194.68,65.62-174.86,115.16,30.85,24.03,82.53,32.98,105.16,64.83-1.49,23.45,37.88,20.14,58.88,32.5,141.65-197.02,308.88-123.36,160.18-227.53-76.63-102.75-187.56-192.95-254.12-299.89-38.04-11.57-83.16-12.32-123.11-11.9,14.8,40.61,39.29,176.57,75.97,193.04-9.4-27.51-30.13-61.42-15.96-89.04ZM1819.99,521.99c-8.15-57.25-48.1-121.18-56.97-181.98-90.65,153.17-24.84,16.98,2.99,99.99,7.01,2.74,2.04,9.67,2.77,16.03.91,7.87,20.58,47.97,11.88,50.06-13.64,3.64-26.21-10.12-22.68,11.92,10.54-2.66,82.33,11.38,62,3.98ZM1701.99,355.99c-4.04-21.39-16.03-.6-10.98.02l10.98-.02ZM1748,348.02c-19.49-7.49-4.98,31.92-45.99,11.98,1.09,6.71-.67,5.51-6,6.99,5.42,23.44,31.84,11.42,18,3.04,19.65,5.17,25.75-6.83,33.99-22ZM2021.72,420.42c-35.31-23.84-81.28-53.09-119.7-69.43,93.99,63.37,204.83,134.61,281.96,217.02-33.23-59.89-97.89-125.76-161.95-138.03-1.67-2.31.22-8.81-.3-9.56ZM1728,378.02c-11.82,5.93-33.78,10.79-37.98,23.98,1.57,1.62,35.87-19.55,37.98-23.98ZM1722,390.02l-32.04,17.04c-8.7,19.15,32.23-10.06,32.04-17.04ZM1966.44,415.36c-6.04-14.39-33.54-14.24-12.44-7.33,4.1,4.34-6.47,3.33-3,5.98,2.08,1.59,2.87.54,4.99-.01l-5.97,4.99c23.72,24.18,47.87,7.71,16.43-3.63ZM1710,414.02c-29.57,4.77-6.97,57.68,7.99,61.97-8.49-14.22-27.13-41.8-7.99-61.97ZM1757.99,445.99c1.59-1.63-9.36-30.77-13.17-31.67-13.16,4.01-44.61,11.19-36.64,30.13,4.69,7.71,16.03,38.44,27.76,37.72-4.39,11.45,13.03,21.39,16.09,31.82,5.55-16.32-4.91-43.02,1.77-62.68-7.12-10.08-34.8-9.7-41.8-21.28,21.71-6.46,26.69,14.6,45.99,15.97ZM2078,447.98c2.74-2.43-44.41-32.68-50-31.96,8.58,8.11,39.46,25.83,50,31.96ZM1694,422.02c-25.86,8.48-.26,56.08,16,59.96,0,0-6.02-15.97-6.02-15.97-3.88-.95.08,4.41-3.96,3.97,3.3-3.05-5.13-21.26-6.09-21.95-13.13,2.88-7.06-.32-2.29-7.46,1-3.92-2.55-13.18,2.36-18.56ZM2020.47,451.28c-6.44-7.06-21.79-20.25-30.46-20.3,0,0,17.98,14.02,17.98,14.02l-5.98,2.96,11.97,4.05c-27.86,6.58,19.74,26.53,31.05,33.95-2.19-8.02,16.32-.14,18.99-.99,6.02,7.23-14.78-3.75-14.01,3l31.99,8c-19.08-15.83-36.93-39.78-61.52-44.7ZM548,448.01c-244.01-23.96,308.87,100.13,338.95,110.06,14.88-.13-56.16-17.27-68.01-22.03-5.12-1.11-1.59,2.47-.92,3.94,0,0-12-2.01-12-2.01-29.5-29.27-156.35-58.68-214.02-60,10.76-8.3-31.4-3.88-31.98-6,12.67-7.02-33.46-10.7-44-9.99,0,0,5.95-7.97,5.95-7.97-1.67,12.46,39.66-4.57,30.03,7.96,17.5,7.86,48.29-5.44,57.23,12.11,73.43,13.1,132.29,27.2,211.29,58.59,4.54.93,76.99,23.06,113.49,23.3-114.17-69.13-276.25-69.06-386-107.96ZM1061.3,568.89c-46.25-20.23-78.26-56.37-98.63-100.56-91.93-8.39-185.36-5.13-276.66-19.35,89.86,46.35,212.82-2.51,282.03,88.06,39.82,45.4,114.65,52.46,165.99,87.92,104.19,57.74,214.81,135.2,339.05,127.1,57.78-16.77-66.92-137.06-81.85-168.29-20.1-79.33-261.21,25.73-415.21-111.79,69.99,149.8,259.62,57.32,383.98,90.03-4.17,10.25-31.44-4.37-42.92-2.09-99.15-5.42-220.65,32.78-307.08-31.9,8.25,11.44,20.58,19.38,32.66,26.33,85.93,50.86,189.68,84.35,273.34,139.63-85.95-37.98-168.56-86.9-254.7-125.08ZM2154,557.98c-39.91-50.45-88.3-50.59-143.84-81.13-12.36-8.89-24.15-23.4-38.16-28.83,43.64,58.73,125,65.67,182,109.96ZM968,551.98c-55.69-95.1-208.18-47.85-297.03-97.88-.91.07-13.63,15.39-6.06,13.96,106.54,10.5,202.03,55.55,303.09,83.92ZM1775.99,493.99l-9.97-23.98c-.47,7.15-1.02,19.33-10.01,13.98-1.56,15.27.68,17.59,15.98,15.99-21.19-12.13-16.11-13.79,4-5.99ZM1758.8,535.21c-5.73-12.31-28.38-41.98-36.78-53.2,2.99,22.62,70.28,101.59,36.78,53.2ZM617.99,509.99c-6.41-21.36-37.6-19.48-55.98-23.97,9.47,12.35,41.62,20.87,55.98,23.97ZM1723.61,496.44c-18.93-5.67,13.01,31.21,16.35,35.53,8.87-10.76-13.82-22.29-16.35-35.53ZM721.99,524.02l-105.99-26c10.62,21.54,24.3,25.2,46.98,21.99,18.47-.61,43.16,10.88,59,4.01ZM626,521.98c-5.18-5.04-65.7-25.63-52-12.01-20.08-3.01-37.39-3.93-57.99-1.95,13.94,7.04,20.69,4.04,33.99-.01-1.05,9.6-8.75,3.07-9.99,7.96,29.54,8.57,55.51,8.75,85.99,6ZM2189.98,606c-30.43-55.39-102-79.58-157.98-101.98,36.56,54.91,105.75,68.15,157.98,101.98ZM534.01,563.99c-4.51-8.28,11.91-15.47,11.96-16.98-62.7-62.15-43.34-12.39-12.88,23,2.54.57,4.49-4.02,7.9-4.08,5.36,11.3,5.82-1.53,6.76-7.01,1.14-1.5,9.57-6.3,11.5-6.77,18.48,14.74-4.91-12.66-4.28-20.11,0,0-20.96-6.01-20.96-6.01,20.47,19.78,19.53,21.83,0,37.97ZM773.99,540.03c-57.91-13.87-125.59-16.08-183.97-10,57.48,3,124.03,10.28,183.97,10ZM1837.98,536.03c-7.71-3.48-106.97-19.69-69.97-2.04,4.52-16.49,56.7,9.99,69.97,2.04ZM1935.38,629.37c34.78-41.68-129.27-102.08-161.91-95.32-7.85,29.69,72.7,91.65,20.52,121.93,16.96-14.69,13.97-68.49-3.97-63.02-9.57-10.4-20.2-46.33-36.01-42.95.06-6.63,1.91-9.29-6-8,96.95,128.13,6.49,82.01-4.01,173.97,62.86-26.69,126.71-59.9,191.39-86.61ZM1475.99,861.98c-290.54-141.79-572.86-352.58-913.99-325.95,9.61,14.82,19.95,30.19,32.09,42.88,68.01,10.99,280.32,144.22,420.55,199.44,29.63,16.67,300.8,116.93,227.38,105.63-182.42-84.91-416.32-184.02-608-287.01,30.06,18.11,58.41,40.17,88.28,59.72,146.97,92.07,399.35,184.5,521.19,234.81-28.1-3.94-60.55-23.77-87.48-26.52,9.73,9.46,21.21,17.7,31.04,26.96,41.94,58.99,111.98,77.4,172.94,105.07-101.6-100.51,172.82-116.29,232.01-141.05-20.43-21.28-68.73-40.61-95.83-59.14-14.8-9.49-39.47-31.08-52.75-37.25-177.99-9.49-325.62-170.93-495.41-204.59,139.55,55.62,281.97,132.04,405.09,210.71,22.96,19.84,70.97,32.52,83.91,56.29,0,0-145.12-88.87-145.12-88.87-132.89-73.79-273.44-174.92-429.88-171.09,214.62,70.65,418.83,188.54,613.98,299.96ZM568.02,563.99c4.59-10.81-48.3,21.68,7.05,11.83,5.21.5,6.37,4.08,10.94,4.16-2.89-.53-15.21-28.41-17.98-15.99ZM541.68,572.34c-17.89-3.23,23.57,43.73,36.31,43.63-10.74-13.74-30.47-27.49-36.31-43.63ZM580,584.02l-21.99-1.03c3.24,2.2,23.18,25.85,25.98,23-2.41-8.11-9.74-12.65-3.99-21.97ZM1498.02,734c19.94-40.76-61.06-119.05-85.92-147.09-27.74-10.85,92.28,114.38,85.92,147.09ZM606,588.02c-17.69-5.02,1.38,21.33,3.02,25.96,10.19,9.5,5.31-7.73,4.01-14.01-5.5-5.74-1.9,9.19-7.01,4.04-1.15-1.16-2.72-13.52-.02-15.98ZM2166,608.02c-56.79-32.11-39.69,1.88-8.98,29.97,2.51-11.13-2.22-22.75,8.98-29.97ZM681.99,632.02l-65.97-38.02c-2.88,27.32,20.98,39.34,45.98,34.02-24.27,4.62,16.15,11.32,19.99,4.01ZM1936,633.98c14.09-2.33,16.46-16.83,9.97-27.97-.51,7.85-3.55,22.63-9.97,27.97ZM2162.02,628c38.27-2.6,40.48-3.54,5.98-21.98,6.16,11.6-3.16,6.39-4.01,9.01-1.39,4.25,8.24,2.74,4,6.98-1.1,1.1-8.19-7.66-5.96,6ZM2162.12,643.89c22.4,1.81,40.98,45.77,60.91,48.14,2.65-9.98-7.62-93.44-30.51-62.51-11.83,4.31-36.11-2.71-30.39,14.37ZM605.99,630.01c-6.84.13-5.92,9.67-13.99,8.01,12.55,15,15.43,10.43,13.99-8.01ZM614.02,639.99l-.04-9.99c-25.63,42.58,59.33,26.08,80.01,23.98,0,0-46-10.97-46-10.97-6.65.05-34.77-19.45-33.97-3.02ZM757.3,682.9c-54.52-43.96-83.24-7.71-141.86-20.6-7.85-.41-59.57,72.46-34.43,49.72,0,0,1.95,5.96,1.95,5.96,27.37-17.27,59.62-13.16,88.18-25.83,18.24-8.06,107.85,8.81,86.16-9.25ZM591.99,670.01c-46.5,6.49-126.22,27.04-17.35,29.74,3.39-1.13,19.1-28.12,17.35-29.74ZM1743.7,694.3c-7.04-8.59-41.92,18.94-47.29,22.09,2.8,14.15-7.95,21.45-18.41,29.59,20.8-9.48,73.78-21.47,65.7-51.67ZM764,696.02c-78.88-11.66-128.5,28.04-162.82,96.16-12.21,19.99-96.56,142.4-68.73,115.14,8.71-3.69,21.83,1.16,29.53-2.35,40.77-53.86,102.69-92.91,170.04-104.98,6.38-34.48,20.28-67.38,31.99-103.97ZM650,702.02c-20.92,4.71-90.6,14.31-79.99,45.99,21.58-3.27,58.34-25.87,79.99-45.99ZM646,716.02c-21.17,11.41-61.14,52.59-58.02,77.97-.36.44-8.55-4.97-7.97,4,29.76-10.6,39.36-60.37,65.99-81.97ZM993.99,847.99c.7-65.52-120.09-102.77-163.99-125.99.01,0-18,59.98-18,59.98,37.65,2.72,73.72,24.35,108,32.04,7.64,22.95,50.94,30.22,73.99,33.97ZM1682.64,731.36c5.83-18.19-81.1,43.67-82.65,40.62,5.97,2.21,100.15-38.83,82.65-40.62ZM548,769.98c22.66-8.17,21.35-13.14,17.97-35.97,0,0-17.97,35.97-17.97,35.97ZM608,738.02c-39.14-2.94-88.43,124.42-104.54,148.62-2.97,10.35,6.28,20.59-10.47,19.2-2.04,12.45-18.87,30.94-20.98,41.21,2.56,23.68,133.18-212.05,135.99-209.04ZM1485.93,758.07s-17.91,1.9-17.91,1.9c5.89,1.66,13.77,10.58,15.97.03-11.49,30.17,141.75,27.53,97.01,18-21.94,4.84-89.41,6.08-95.07-19.93ZM534.42,776.41c1.27,7.46-57.16,88.81-15.36,71.64-.68-2.85,43.18-75.02,37.95-78.03-5.42,4.91-11.21,1.17-7.03,9.98-2.95-5.81-10-7.6-15.56-3.58ZM810.03,793.99c-1.23-1.39-.54-7.53-6.03-5.97,16.02,25.54,52.46,31.44,73.87,51.12,24.85,24.13,80.39,41.38,116.13,50.85-40.77-50.59-122.69-102.9-183.96-96ZM2120,790c-5.58,1.36-41.95-3.59-43.99,3.98,8.68,1.17,35.06-2.74,43.99-3.98ZM2330,889.98c-51.88-52.85-153.14-118.5-222.01-90,54.19,11.44,109.42,31.85,156.62,60.41,32.54,18.83,31.82,30.38-1.96,3.95-55.93-31.22-134.23-65.45-196.18-63.02-1.19,2.74-22.45,16.24-16.49,19.7,0,0,98.99,35.02,98.99,35.02l-14.91-9.11c-13.09.66-8.24-4.35-11.3-7.08-6.2-5.55-31.81-13.91-40.74-17.87,13.9-7.81,61.46,25.85,74.71,32.29,37.37,30.03-114.22-37.04-111.75-31.7,0,0-42.94,44.43-42.94,44.43,144.15,81.14,45.96-43.34,327.96,22.98ZM1006,855v37c16.02-31.75-12.62-66.6-22.54-97.44-22.62-17.37,26.02,60.21,22.54,60.44ZM580.02,805.99c.2-19.13-67.18,93.27-61.03,99.97-3.87,1.6,83.04-118.45,61.03-99.97ZM1049.99,855.99c-11.22-26.29-23.87-48-53.97-55.99,11.68,25.24,15.76,62.55,53.97,55.99ZM836.01,835.99c5.48-14.95,2.49-13.28-11.49-19.65-9.35-1.42-19.1,14.15-26.48,10.74-12.03-5.55,13.9-16.2,13.92-18.08-8.55-9.09-19.82-4.03-29.96-.98,13.37,14.52-8.03,13.91-7.96,16.98.03,1.29,9.93,6.26,3.96,12.98,41.64,1.5,80.03,16.01,116,36,3.79-3.21-23.3-23.39-23.99-24.99,11.07-1.57-5.64-7.65-7.04-11.01-4.55,9.22-26.62-.75-4.97-2.01-4.22-9.29-13.26,3.54-21.99,0ZM705.99,814.01c-32.42-3.07-39.19,56.06-50.03,38.99,7.2-22.78,10.58-25.51-13.01-11.05-10.42,9.83-6.42,29.5-9.79,34.21-2.18,3.05-10.33-.52-9.19,5.82-6.62-4.26,2.95-18.27,0-25.98-36.61,14.32-16.81,65.4,14.15,29.09,39.39-40.55,104.33-29.18,82.04-55.75,1.08-3.99,8.53-4.32,7.86-9.33,3.67-.73.65,3.23,2.99,4,4.5,1.47,5.73-6.72-2.52-7.51-4.95.23-7.17,2.88-6.53-2.48-11.98,4.12-10.81,28.73-25.97,23.97-1.85-10.08,8.12-15.15,9.99-23.98ZM761.99,820.01c-3.33-.12-17.35-1.61-15.98,4.96,1.05,5.04,18.6,5.47,15.98-4.96ZM1046.01,823.98c53.06,23.22,106.39,44.71,143.96,91.05,3.97,3.63,10.72,6.72,14.02,10.1.35.36,4.3,12.78,6,3.84-28.44-41-111.42-95.93-163.98-104.99ZM1067.99,838.03c-26.91-13.31-22.18-4.63-8.98,15.97,4.65-10.8-1.35-7.94,8.98-15.97ZM755.99,840.01h-13.98c6.43,6.01,7.07,6.16-2,7.97,8.66-.09,15.84,3.09,15.98-7.97ZM841.99,854.02c-24.8-7.63-50.13-10.33-75.99-12,16.32,17.48,5.91,16.56-7.99,23.94,67.11,10.97,143.82,32.38,178.93,98.25,29.29,8.89-21.83-62.4-25.91-70.24-16.82-15.63-55.24-42.51-79.01-36,0,0,9.98-3.96,9.98-3.96ZM1136.71,877.28c-76.24-51.53-67.13-26.09-2.72,10.74-8.55,5.96,17.28,20.18,17.33,30.13,6.93,5.09,21.66,10.01,31.76,17.86,2.73,2.13,3.23,9.74,10.52,5.53,16.82-13.3-31.89-40.82-39.48-52.46-3.38-1.23-17.99,5.26-15.12-5.08,8.26,9.18,8.92-4.96-2.28-6.73ZM1113,914c66.01,10.35-21.58-51.44-45.98-66.02,7.83,23.24,28.8,53.89,45.98,66.02ZM499.99,850.01c-3.1-3.74-4.31,2.82-4.97,3.94-1.86,3.17-20.72,36.74-19.03,38.03,9.33,4.19,22.9-38.99,23.99-41.97ZM713.67,852.28c-18.9.08-140.1,58.86-57.13,61.37,14.97-9.75,37.85-27.68,57.45-31.67-9.34-6.99-4.67-13.38,5.47-14.63.37-.18,4.2-9.61,3.57.68,15.18-7.32-9.02-4.62-9.35-15.74ZM1861.99,900.02c-89.96-19.63-233.8-72.02-297.21-28.22,95.44-44.27,209.1,30.79,297.21,28.22ZM514,856.02c-16.02-2.94-6.35,13.73-15.91,17.48-6.27,5.98-2.89,21.41-7.95,16.56-7.9,21.85-21.88,41.62-28.12,63.93,8.15-10.58,44.97-84.58,51.98-97.97ZM748.01,862.01c-7.89-.88-16.63-5.58-14.02,8,5,2.54,19.19-2.58,14.02-8ZM987.97,931.99c.31-5.57,10.78-25.87,6.07-28.99-31.07-7.59-71.15-27.76-102.04-40.98,33.33,23.34,42.9,77.59,67.99,97.98-9.66-6-11.5-32.09,2.19-29.1,11.91,2.6,10.01,16.23,8.81,25.1,19.8-.23,8.95-48.38,16.99-24ZM1901.58,889.38c-119.7,51.72-194.48-72.34-379.57-5.34,45.92,23.01,128.8,62.79,168.64,79.93,8.73,15.17-24.58-10.22-27.53-8.07-8.4,11.18-42.63,13.64-55.6,13.59-25.87-4.48-203.09-74.86-225.5-49.46,65.33-8.66,139.03,29.36,205.58,47.39,187.79,57.1-121.93-32.29-174.49-47.47-68.14,12.67-82.73,27.99-32.79,84.83,3.29,4,9.83,2.95,2.7,9.18-5.56-5.06-12.97-6.6-20.22-7.77-5.32-.86,1.88,6.97-3.76,3.8-2.74-11.85-50.16-28.34-60.99-33.13-22.27.84-41.07-28.47-66.03-27.86,24.42,17.13,52.88,29.07,79.77,42.22,134.1,66.62,303.9,91.76,450.29,69.88,14.24-52.86,70.54-98.81,112.98-133.05,28.17-9.31,88.54-88.5,26.52-38.67ZM1968,876.02s-35.99-10.01-35.99-10.01c2.33,26.02-16.49,22.83,11.99,33.97-16.95-3.11-2.67,10.63-24.1,5.04-40.78,40.82-78.75,85.81-120.93,124.96-21.9,26.48-13.05,55.75-55.99,60.01-132.04-2.57-274.24-4.13-394.33-65.62-32.72-17.88-89.6-47.18-117.44-68.65-4.5-3.47-2.05-9.2-11.21-2.72,94.56,57.61,182.86,120.96,297.25,124.75,85.54-.38,199.97,52.32,270.8-6.67,55.06-58.1,91.06-142.01,169.06-174.95,1.59-1.16,11.66-19.26,10.88-20.1ZM1059.68,870.24c-.98-.58-17.21,2.21-22.67,1.73-5.92-.53-11.2-3.12-17-3.96-3.45,25.6,59.46,25.2,39.67,2.23ZM2268.11,909.95c-16.29-33.53-81.3-42.54-114.09-31.98,29.14,2.34,56.04,11.59,81.33,25.68,121.1,62.48,131.19,238.57,41.13,324.38-203.41,181.75-480-119.48-272.5-303.05-104.73,9.32-114.57,235.99-35.02,294.85,1.93,18.27,19.55,10.14,16.08,18.12-12.04-1.66,16.47,17.69,21.84,22.2,57.72,46.1,192.6,58.69,231.12,9.82.73-7.37,21.21,4.14,16-7.97.67-.47,4.33,2.01,8.63-.19,117.12-72.65,123.3-288.83,5.48-351.87ZM593.89,899.9c.7-.71.52-17.05-.88-19.89-3.57,2.37-2.25,7.03-4.05,10.09-16.89,5.06-12.83,15.9,4.93,9.8ZM2089.98,1014c-11.69-25.02-24.97-49.46-36.33-74.65-8.55-29.02-25.89-74.65-61.35-53.06-5.77,9.11,13.79,27.43,18.08,34.32,21.94,40.71,26.51,87.41,79.59,93.39ZM909.82,951.74c-14.53-2.05-5.47-20.8-24.88-29.68-16.2-24.29-140.11-55.52-123.84-30.17,61.27-5.22,124.37,27.62,156.82,79.15,21.14,4.83-9.57-29.54-8.1-19.3ZM1036,892.03l-17.98-6.02c-3.64,20.45,12.9,30.91,17.98,6.02ZM2275.29,890.82c-6.59-1.46-21.28-8.75-25.28-2.85,12.29,1.44,25.96,27.32,33.19,14.15,3.63-1.05,16.83,1.93,12.78,7.87-3.4.94-1.05-3.94-2.84-3.83-8.01,1.22-5.57,4.84-3.2,10.92,176.41,161.06-46.49,353.04,58.04,299.92,12.14-17.51,11.94-15.28-7.97-12.98,8.15,3.64,4.19,5.4-2.89,6.07-7.73-9.74,2.72-13.03,10.8-17.17,1.66-6.36,12.69-11.38,10.07-16.91-1.98-2.25-6.83,5.41-9.98,3.98,3.22-23.4,37.96-16.86,33.98-45.98-2.25-2.51-20.24,15.93-21.99,6.95,7.56-16.9,34.03-17.63,27.01-42.95-4.36,8.5-29.74,19.8-18.1,3.9,10.49-14.33,24.73-15.2,19.07-39.9l-4.29,9.6c-4.32-2.03-12.01,8.13-15.68,4.38.08-13.8,26.72-31.6,14.99-49.98-7.91,6.74-7.9,19.02-21,15.97-1.32-.97,11.47-20.38,11.76-23.35.49-5.16-7.52-3.04-5.74-7.6,2.65-6.77,13.54,4.81,9.51-7.55,0,0-7.51-17.47-7.51-17.47.54,5.82-3.78,19.59-7.05,24.09-18.04,8.08-5.29-11.28-2.45-20.59,4.09-14.09,5.21-20.67-3.51-33.51-6.44,26.9-19.57,28.65-11.23-1.22,1.17-12.29.68-22.97-9.76-30.79.57,5.61-5.97,33.25-14,23.91-1.88-2.19,10.26-50.32-12.01-51.9,2.79,4.22-3.5,29.03-10,21.99-2.29-13.23,4.38-26.13-24.71-27.18ZM2183.99,894.02c-29.16-5.93-61.24-10.78-87.98,5.96,158.13-43.51,294.28,164.65,180,297.05,114.49-73.69,16.35-292.27-92.02-303.01ZM1046.02,902c45.09-2.9,24.82-21.8-5.19-4.07-3.68,15.86,11.58,34.85,5.19,4.07ZM1643.99,954.03c-6.29-1.08-139.3-71.36-144.49-63.55,0,0-59.48,18.54-59.48,18.54,29.05,4.73,176.82,66.85,203.98,45.02ZM760,902c34.95-3.27,71.19,7.71,100.98,26.02-12.16-18.2-83.37-45.45-100.98-26.02ZM1009.7,898.31c-9.55-11.41-10.82,29.48-13.68,31.68,3.91-7.06,17.56-22.97,13.68-31.68ZM708,905.98c1.61-1.8-3.95-8.77-6.98-7.99-1.06,7.72-53.68,23.14-24.98,25.18,9.7-2.58,5.43-8.83,5.96-9.16,9.29,4.06,16.7-7.88,26-8.03ZM1086.73,919.32c-6.13-24.4-15.55-19.33-33.92-11.42-1.69,2.18,5.31,47.74,5.18,54.92-9.38,19.59-28.55,32.64-23.97,57.18,37.39-97.19,105.45-23.22,52.71-100.68ZM2219.54,922.37c-47-28.02-118.79-27.58-165.56-1.35-.14,2.54,1.3,4.75,4.1,4.12,39.13-21.22,87.67-25.05,130.36-10.57,9.37.84,31.78,22.52,31.11,7.8ZM1964,902.02c-66.64,12.08-136.14,136.84-183.01,185.96-69.77,37.5-159.93.86-235.96,0-127.04-1.59-228.11-66.81-332.42-131.64-11.34,1.98-20.42,8.66-36.59,13.67,1.37,4.54,11.21,2.77,9.97,9.98,0,0-11.99-2.01-11.99-2.01-2.31-12.91-41.07.04-57.35-7.66,128.13,260.65,320.33,209.12,572.35,219.69,36.45,2.71,92.71,3.99,125.99-8.04,27.79-98.07,106.92-175.51,141.05-265.98-77.14,20.78-138.98,249.76-277,201.98-128.89-2.87-270.07-34.53-389-69.97,71.82,29.58,154.56,51.38,231.62,65.35,55.22,20.82,29.68-16.58,88.46,41.53,3.23,35.37-45.15-18.15-54.81-26.16-21.32-14.53-111.86-25.75-143.3-33.72-51.17-15.13-105.34-41.74-141.99-42.99,0,0,62.95,60.18,62.95,60.18,6.94-.37,7.87-.99,5.03,5.79,59.05,2.86,127.4,34.91,190.01,34.03-18.86,6.71,43.95,9.17,51.84,16.87,4.61.99,7.19-4.74,6.18,5.1-69.9-2.32-141.61-4-211.09-7.91-27.38-4.22-40.89-18.76-60.93-24.06.62-.74,4.79,1.62,3.99-2-23.43-4.04-121.43-119.19-65.89-113.13,161.39,48.35,373.22,125.97,537.89,68.11,58.34-60.53,97.56-149.19,174.01-192.99ZM2073.99,906.02c-9.98-2.1-26.17-5.24-23.98,9.97,5.37.11,19.27-7.54,23.98-9.97ZM587.99,908.02c-161.96,71.43,243.53,189.38,294,217.95,0,0-85-83.96-85-83.96-2.59,31.33-46.13-7.41-62.96-7.22-1.81-.3-17.52,1.41-14.04-2.78,18.68,1.42-58.01-27.1-63.98-30.04,0,0,8.08-1.07,8.08-1.07-1.51-4.64,141.22,60.25,122,38.01-18.63-38.27-102.29-51.37-119.14-72.9,0,0,85.05,35.97,85.05,35.97l-31.01-31.97-4.05,2c2.7-9.37-19.11-24.61-24.9-31.05-28.38-14.56-82.31-47.64-109.49-21.16-19.19,18.6-5.03,43.59,10.65,60.1,15.55,18.49-26.02-17.09-23.23-29.88-3.22-1.06-1.3,4.59-2.95,4.01-8.2-2.89-2.68-3.21-3.2-8.75-5.12-11.66,3.23-37.66,2.18-6.25,6.03-11.05,11.84-23.61,21.98-31ZM779,910c-26.34,3.61-29.53-10.77-26.96,14.62-8.14,2.69-.36,2.9-.02,9.36,0,0,2.96-3.98,2.96-3.98,9.07,13.18,2.67,6.9,16.99,13.98-1.94-8.86,20.99-39.01,7.02-33.99ZM804.02,912.01c-9.49.85-15.31-6.94-16,5.99,7.38-2.78,18.3,5.29,16-5.99ZM513.99,912.01c-15.76,9.66-24.57,35.67-33.97,51.99,11.81-15.32,26.87-34.59,33.97-51.99ZM1014.01,912.01c-.77.83,2.97,21.84,4.99,21.95,3.71-1.83,2.28-25.18-4.99-21.95ZM1122,949.98c-9.47-12.49-15.77-27.59-27.98-37.98l20.01,41.98c3.44-1.63,1.8-5.56,7.98-4ZM2153.99,965.99c4.44-62.44-30.73-62.03-75.73-43.75,20.7,62.27,26.22,36.22,75.73,43.75ZM556,914.02c-5.41,2.46-29.13-6.55-15.42,7.47,1.71,1.41,6.08-1.15,5.41,2.48-19.25-2.45-7.94-13.79-19.94,17.09.14,8.26,6.69-4.02,3.95-5.05,1.39-.7,5.05,2.34,5.82,1.83,9.48-18.7,8.23,3.14.7,9.67-6.51,15.11.6,42.34-4.3,58.25,25.21,22.31,23.8-4.57,29.76-24.66-18.01-28.59-25.74-40.14-5.97-67.09ZM818,914v47c0,.81-5.15,3.5.97,2.98,4.49-4.93,5.08-52.02-.97-49.98ZM1030,937.98c-.18-10.31,8.59-11.63-5.99-21.98,4.31,5.57-2.49,24.39,5.99,21.98ZM2168.89,1023.17c-13.7-21.38,11.38-110.3-14.92-104.15,6.97,37.36,17.36,85.34-6,115.97,8,3.4,17.17,7.2,22,13-3.72-7.88,7.09-21.76-1.08-24.82ZM2186,918.02c-26.79-12.33-5.41,60.57-11.99,79.97,8.36-24.59-.71-57.9,11.99-79.97ZM1145,920c-40.49-5.35-36.09,8.51-11.1,31.11,16.06,5.87,69-7.88,28.09-14.08-5.01-1.51-11.08-10.53-15.99-1.06.7.88,11.66,1.26,11.99,6-20.77-.84-13.84,13.5-25.85,1.07-.07-.8,5.97-9.6,1.86-15.04l31.98,1.97c-2.15-.3-19.06-13.97-20.99-9.98ZM843.99,925.97c-18.49-20.63-12.75,27.78-13.96,38.03,9.52-8.53.85-33.68,13.96-38.03ZM797.97,922.01c-2.95,3.5-3.21,8.78-6.96,2,0,0-7,7-7,7l13.98,1.01-9.98,2c-.34,3.75,7.09,1.36,7.98,5.01,1.15,4.72-6.08,3.2-5.98,6.95,10.21,2.29,8.69-4.12,10-11.98l11.97,4c2.41-11.3-15.37-1.7-14.01-15.99ZM2218.03,1008c45.73-44.07,24.67-71.14-28.72-84.13-14.41,54.48.07,47.05,28.72,84.13ZM1051.99,963.99c3.99-27.08-12.89-38.78-4.04-4.85.83,3.38-1.98,5.83,4.04,4.85ZM2093.98,966c-4.87-11.55-13.84-22.52-21.96-32-3.97,13.52,13.51,23.5,21.96,32ZM1969.87,999.95c2.19-6.98,6.54-12.95,4.95-19.99,6.32-.36,49.84-43.87,32.15-41.99-156.01,140.47.27,402.61,207.04,318.03-.96-14.38-8.6-3.84-18-3.96,0,0,3.99,2,3.99,2-22.49,6.89-47.9,9.2-74.98,9.97-17.13-.52-35.86-11.23-51.01-5.98,3.69-8.91-16.66-10.01-24.05-14.96-45.24-17.58-74.96-78.23-93.91-102.04,10.13-11.69-7.36-37.18-6.01-56.01.6-33.42,12.84-68.26,19.83-85.04ZM835.99,998.03s-131.98-57.03-131.98-57.03,149.02,148.99,149.02,148.99c5.77,1.11.12-16.45,11.79-11.94,38.86,16.28,73.44,38.33,114.73,47.8,11.42,3.36,25.35,5.18,32.43-5.83,1.55,30.63-54.34,2.6-70.5-.48-1.88-.68-18.54-9.95-17.47-6.54,2.2,11.03,24.66,8.81,10.06,16.13l-47.05-7.14c2.53,13.25,72.92,13.77,87.89,16.11,148.88,3.28-153.57-141.37-138.93-140.06ZM871.98,948c-6.9,3.81-12.33-2.91-17.96-6,.09,5.64,2.08,9.18,7.97,8.02-13.97,11.22,11.99,17.89,9.99-2.02ZM2272.69,971.33c-9.25-9.66-14.7-29.66-30.69-29.31l25.45,28.46c1.18,20.29-35.3,50.59-45.43,67.52,3.89-8.7,65.03-47.54,47.99-59.99,16.79,8,13.99-2.53,2.67-6.69ZM526.02,948c9.96,3.3,6.15-7.66-1.6-1.58-14.31,32.93,15.06,42.81,1.6,1.58ZM811.99,946.01c-19.19,3.83-26.22,16.02-2.01,20l2.01-20ZM1199.99,946.01c-46.18,10.59-59.08,25.98-4.39,4.5,2.97-1.23,5.43,1.21,4.39-4.5ZM2015.98,946c-6.25,8.39-29.57,21.66-22.98,31.96,7-10.63,20.72-19.03,22.98-31.96ZM2004.88,1265.11c-100.74-71.06-123.71-216.8-51.86-317.1-14.29,13.81-27.74,37.7-37.48,54.52-.64,12-3.82,14.46-12.39,21.37-1.25,3.1,2.83,10.32-3.71,12.72-3.77,1.38-6.86-3.12-7.43,7.36.92.97,13.61-8.31,13.94-1,.26,5.63-15.46,13.33-18.12,17.96.08,9.2-2.47,7.19-7.98,10.27-2,34.46,4.52,13.51,19.15,2.83,9.07,18.54-28.98,24.05-14.98,55.94,3.83-5.04,12.02-20.54,19.96-19.98,3.58,20.64-31.3,32.44-8.01,53.98,2.7-7.48,5.96-20.99,16.01-19.99,3.34,13.85-26.61,41.85-2,46.01-2.27,5.11-6.57-.95-1,9.97,5.45-3.88,3.31-20.38,8.03-21.98,19.71,1.86-12.54,40.94,14,51.97.47-38.31,21.45-17.9,15.04,6.93.15,4.88,8.71,11.46-.04,12.06,0,0,9.96,9.03,9.96,9.03,0,0,.03-21.99.03-21.99,14.83-.53,8.66,16.36,10.46,26.52,1.75,9.83,9.64,14.61,17.51,19.47.67-5.7-7.66-22.17,1.03-22.07,8.91-.82,6.72,16.91,10.96,18.06,5.85-14.32-4.93,13.84,6.01,16.01,3.52-8.79,4,6.47,11.05,7.97,5.25.41,2.05-.82,1.42-3.42-10.69-16.59.24-19.91-9.57-33.44ZM815.99,983.99c-.98-10.8-57.14-29.3-61.97-29.99,9.42,15.13,44.29,19.14,61.97,29.99ZM1015.98,956l-51.98,14.02c10.24,16.17-1.81,7.84.01,15.98,1.46,1.33,35.19-12.86,36.88-13.88,1.28-.77-1.33-6.43,4.55-7.88,5.9-1.45,11.7,6.25,10.53-8.24ZM2118.01,1022.03l9.95-3.03c-23.25-18.42-36.57-44.05-57.94-63,7.12,24.51,35.42,37.3,43.08,61.85.86,4.81-6.75,7.57,3.91,14.14,4.45-11.54,7.69-.49,1.02,3.01-.03,5,16.41-2.37,19.96-1.99-3.54-1.02-7.63-10.42-8.21-10.82-.5-.35-11.36,5.09-11.77-.17ZM2220.01,1018.13c11.85.12,32.16-32.54,37.78-41.36,5.17-10.57-7.24-23.44-6.73-6.71-10.09,20.76-47.21,79.43-72.51,80.62-1.95,1.27,2.1,6.43-6.53-.68-1.99,7.71,11.62,10.49,11.61,12.98-6.08,4.78-.14,12.32-1.61,19.01,0,0,5.94-13.04,5.94-13.04,20.84-19.39,14.47-6.35,8.04-21.9,6.68-3.43,28.67-19.62,24.01-28.93ZM1850,964.02c-23.86,16.09-52.29,42.31-63.98,69.98,19.35-25.17,44.86-44.69,63.98-69.98ZM468,966.02c-9.79-2.33-16.09,19.23-21.28,25.7-9.37,29.99,23.05-22.83,21.28-25.7ZM909.58,978.33c-27.82-15.86-65.06-8.97-95.57-6.31,0,0,15.03,9.95,15.03,9.95,31.95-16.38,91.39.04,117.97,28.01,1.41-3.08-6.22-16.14-7.54-17.45-4.02-8.22-30.06-1.33-15.48-8.51-5.82-4.12-17.55,3.73-14.41-5.7ZM1112,981.98c-30.51-46.33-77.17,31.26-75.54,62.54,14.61,42.26,40.75,109.15,98.52,95.5,21.35.87,82.61,9.93,88.92-12.9-12.41-13.36-13.52-.68-26.86.93-27.01.34-90.41,7.06-110.74-13.35-19.62-29.39-51.9-80.83-23.8-113.3,1.19-18.32,32.41-20.17,49.49-19.41ZM2005.98,999.99c.37-11.78,13.31-17.05,10-29.98l-5,11.97c-6.56,1.98-6.59-5.72-7.02-5.98-6.87-4.21-.58,8.91-.47,9.51.79,4.42-1.21,12.69,2.49,14.47ZM2153.71,972.29c-2.97-4.93-38.34-1.25-45.71-.27,8.66,15.18,16.19,26.27,34,21.96-5.83-5.72,9.21-21.82,11.98-13.99-.25-2.32.81-5.91-.27-7.7ZM525.98,988c-11.09-30.1-17.31,12.07,4.02,13.98-3.9-8.43-15.51-7.13-9.97-17.98l5.96,4ZM1017.99,974.01c.79,3.68-89.93,18.35-58,25,2.58,5.58-4.44,4.76-3.98,5.98,17.6,8.97,11.4,26.44,25,39,.79-14.42,32.65-53.19,36.98-69.98ZM2027.96,974.02c-6-3.61-6.5,13.48,2.01,10.94-26.09,26.56,29.44,33.09-2.01-10.94ZM949.97,976c-22.43,5.54-3.26,18.1,12.02,11.98-2.99-4.54-13.01-2.34-12.02-11.98ZM903.99,988.03c-33.9-12.76-105.13-7.31-28.96,13.93,4-12.16,27.12-4.31,37.06-3.04,69.76,26.12-20.76,25.78,85.9,89.08-14.39-31.16-37.21-67.79-66.16-86.82-7.8-9.77-41.02-5.31-27.84-13.15ZM2205.7,1005.74c3.35-5.68-13.46-18.02-18.39-20.09-8.09-5.46-6.19,17.38-2.3,4.26,8.21-1.48,9,8.89,3.84,9.9s-9.02-8.14-4.82,8.18l1.99-6.01c18.69-.94.25,32.08,17.05,26.08,16.46-11.81-16.83-14.72,2.64-22.32ZM1089.99,988.01c-6.2-1.71-13.89,15.86-11.98,17.98,3.49,3.87,13.23-16.68,11.98-17.98ZM944,1142.02c-123.99-27.03-262.63-76.95-368.05-146.96-9.68-9.99-10.47,15.7-7.97,22.96,0,0-3.97-2.03-3.97-2.03-5.46,12.16,19.63-1.31,8,9.99,9.5,1.9,163.23,69.72,169.97,60.04,4.57,3.61-5.16,3.52-3.97,5.96,28.56,1.03,189.19,99.36,205.99,50.04ZM1973.98,1028c14.38-98.07-42.68,88.26-4.97,105.99-8.3-26.64-14.2-77.35,0-101.97,14.12-14.49,70.29.53,88.98,3.96-6.78-9.29-86.37-30.9-84.02-7.98ZM1023.99,998.01c-4.54-2.21-22.58,29.93-11.85,29.04-5.35,9.76-7.76,11.7-6.12,22.95,5.27-9.43,21.16-3.14,21.96-4.01,1.64-1.78-8.21-40.62-4-47.98ZM2050,1018.03c-8.2-4.02-52.78-12.88-63.96-20.03,0,0-4.01,9.02-4.01,9.02,1.06-2.13,74.17,21.9,67.98,11.01ZM2127.99,1001.99c6.72-1.5,11.42,2.44,17.05,4,22.75,1.84-19.44-15.49-17.05-4ZM2277.99,997.99c-58.39,33.68-35.38,33.1-35.98,82,47.5-7.36,69.03-21.33,41.75-72.92-3.04-4.76-7.44,3.24-5.77-9.08ZM2266.01,1191.99c50.06-43.81,57.32-135.23,22.98-191.98,7.56,22.19,17.91,54.4,14.99,77.99-6.48-2.16-2.44-9.88-4.97-13.99-32.6,22.68-79.89,33.01-119.01,23.98-8.08,23.64,2.41,20.39,24,19.98-11.43-13.21,9.73-10.82,18.44-12.53,20.53-4.02,49.7-13.39,68.78-15.25,15.42-3.54,18.08,12.35,2.06,7.92-25.34,3.09-57.77,17.66-85.28,15.9,0,0,16.97,1.96,16.97,1.96,14.53-.98,56.74-10.46,67.13-7.08,10.85,9.78,10.91-3.41,1.89-8.88,34.25,5.71-22.3,84.95-27.99,101.97ZM927.49,1012.51c-5.31-6.59-36.42-12.06-45.49-10.49,11.72,7.89,64.15,46.46,45.49,10.49ZM549.61,1024.39l-27.59-18.39c-2.43,11.7,4.67,6.75,5.98,8.01-3.62,6.42,3.46,20.49,8.25,25.87,2.37,1.69,12.17-9.36,5.73,10.12-9.66-17.14-2.09,16.71-23.95-20,0,0,1.96,17.99,1.96,17.99-15.64-11.72,9.28,31.71,15.31,29.47,12.51-4.2.26,9.06-4.29,10.46-2.2.04-12.11-13.99-14.98-15.9-7.32,22.03,16.43,31.97,26.01,47.97,0,0-.01-9.98-.01-9.98,8.94,4.72,1.64,15.77-4,19.99.83-8.57-12.41-11.93-18-17.99,3.19,28.22.82,4.6,9.94,17,.25,2.73-12.61-.89-2.95,8.99-1.39-6.16,14.29-2.55,14.89-1.9.65.7-1.94,16.03,7.11,15.86,7.77-.14-4.17-16.69-3-17.94,6.61-7.06,10.89,24.9,3.96,29.99-.71.52-11-9.15-15.96-5.99-5.3,21.3,36.3,34.7,41.96,27.03-28.43-49.12-35.21-104.95-26.36-160.66ZM2130.76,1111.26c-15.3-25.46-32.5-115.25-78.75-103.24,2.41,9.24,12.06,35.15,24.52,35.91,18.84,12.6,29.65,48.36,41.45,56.06-6.43,9.99,22.63,33.47,2.03,32-4.39-3.54,6.13-4.15,3.97-5.96-1.55.24-3.06.03-3.89-1.51-13.61-27.24-23.41-59.61-50.11-77.51,0,0,48.11,104.96,48.11,104.96,1.32.98,28.14-8.88,29.6-13.3,3.43-10.41-3.65-32.25.3-44.68-16.66,12.79-5.2,19.08-2,34-3.97-4.21-12.32-12.45-15.22-16.74ZM1078,1012.02c-8.36-.03-11.16,7.65-14,13.96,10.07,2.55,10.37-6.75,14-13.96ZM996,1025c-2.22,14.03,1.27,28.55,2.02,42.99,7.35-12.59-5.27-32.45,1.96-47.98-2.02-.74-3.87,4.17-3.98,4.99ZM976,1160c-34.62-1.58-34.11-2.68-51.17,29.84-124.18,158.05-372.54,43.76-340.76-150.49,0,0-28.05-13.34-28.05-13.34-8.21,48.77-8.83,129.57,31.95,155.02,3.43,6.89-5.74-3.9-7.94,1.97,3.28,3.8.11,6.37,5.95,2.99-2.65,6.09,4.83,19.91,11.87,18.15-.55,7.49,18.01,28.71,27.33,29.65,84.55,108.41,303.18,67.09,350.81-73.79ZM1279.2,1040.85c-92.11-43.81,2.57,65.12,24.79,85.14,0,0-51.69-75.5-51.69-75.5-4.51-18.64,42.82,2.99,26.89-9.64ZM1106,1032c-.37,1.15-51.6-2.6-48,2,.37-1.15,51.6,2.6,48-2ZM1999.77,1034.23c-21.1-3.83-20.85,4.77-6.76,19.76,3.07-14.57,13.74-.55,6.76-19.76ZM1083.99,1038.01c-10.03-1.09-19.89,23.37-15.97,31.97,0,0,15.97-31.97,15.97-31.97ZM1091.99,1040.01c-3.1-3.73-4.31,2.82-4.97,3.94-4.93,8.4-9.77,18.83-13.01,28.05,5.08-1.35,19.16-30.56,17.97-31.99ZM1104,1040.02c-5.89-4.62-13.98,13.05-11.99,17.97,5.92,1.6,9.95-15.24,11.99-17.97ZM1125.74,1075.73c1.11-4.41,18.85-31.32,13.27-35.68-10.88,7.33-8.16,27.93-18.98,32-1.69,4.86,3.52,5.19,5.72,3.68ZM2154.02,1118c86.53-78.69-85.05-91.14-7.88-67.14,25.47,6.57,19.76,32.66,19.84,51.12-10.32-3.79-13.33,7.04-11.97,16.01ZM2235.87,1081.88c-.16-19.57,1.46-61.88-23.58-24.43-1.3,4.91,3.91,20.66-.27,28.55,12.64-11.8,2.41-31.1,16.99-41.99,2.78,4.01,3.67,25.2.99,26.98-11.46.46-1.1,4.83-5.99,12.99,2.18-.82,11.44-1.68,11.86-2.1ZM1774.02,1058.01c-49.76,55.55-298.76-2.32-376.01-15.97,42.3,18.03,382.87,79.92,376.01,15.97ZM602,1091c-4.19-125.49-18.56,47.08,15.06,72.95,16.78.07-17.82-52.34-15.06-72.95ZM1991.99,1085.98c-19.64,8.01.05-23.3-21.98-37.98-2.34,22.32-13.39,72.06,23.97,47.91.3-.4-1.67-9.55-2-9.93ZM2142,1069.98l-21.98-21.98c5.1,9.27,7.41,26,21.98,21.98ZM612,1050c-25.99,157.7,201.65,259.91,287.99,120-28.92,41.39-44.6,16.8-77.99.02,44.5,32.87,49.33,33.42-5.53,55.47-19.04,2.76-63.6,9.36-78.47-4.48,0,0,0-43,0-43-8.33-5.46-2.24,31.43-4,33-3.46,16.39-32.86-4.51-38,2.98,8.29-9.2-19.45-16.27-27.08-25.9-20.59-25.47-25.45-22.41-2.92-52.06-3.93,2.52-20.34,8.56-14.02,15.97-25.06,2.13-16.94-18.67-28.51-38.48-12.94-16.7,8.03-59.17-11.48-63.52ZM2121.98,1075.99c6.56-6.97-9.71-37.99-8.61-18.39,0,0,8.61,18.39,8.61,18.39ZM2022,1054.02l-24.01,1.99c-2.66,12.29,13.69-.12,19.98,8,.43-.33,2.07-8.15,4.03-9.98ZM2031.44,1054.35c-17.93,11.04-8.08,34.45,10.6,20.68,5.21-4.31,3.74-24.89-10.6-20.68ZM656.53,1070.53c-12.25,11.48,6.49,37.18,22.37,19.37,9.56-10.73-15.1-26.18-22.37-19.37ZM2073.91,1070.03c-1.21.36-20.17,3.82-9.93,5.98-12,24.77-90.33,32.98-85.97,65.99,30.41-21.09,63.22-62.12,103.96-52-1.01-2.99-7.2-19.33-8.07-19.97ZM1049.98,1090c1.04-1.28-6.4-17.16-9.96-18-.11,12.75-17.03,17.49-10,31.98,5.25-13.35,2.67-21.39,19.95-13.99ZM1027.99,1078.01c-25.13,2.63-15.78.13-6.98,19.99,0,0,6.98-19.99,6.98-19.99ZM1191,1194c-17.29,2.33-39.17-1.72-57,0,1.02,22.79,40.85,121.38,28.02,135.98,299.11-.48,600.11-1.92,899.97,0,0,0-31.34-11.63-31.34-11.63-93.95-40.86-162.97-136.26-158.67-240.34,0,0-30.34,54.63-30.34,54.63-11.45,20.01-16.39,64.88-34.42,59.54-177.75,10.74-361.64,3.82-537.71-12.68-27.03-16.5-52.44,9.58-78.51,14.49ZM1104,1086.02c-6.08-4.78-19.38,17.9-13.97,23.97l13.97-23.97ZM1094,1113.98c6.66-1.4,15.16-22.86,17.98-27.98-9.34,6.63-12.64,18.51-17.98,27.98ZM1123.99,1086.01c-5.84-5.45-17.48,18.25-15.97,19.99,5.17-.2,18.38-17.74,15.97-19.99ZM1144,1088.02c-2.37.26-5.78-.8-7.68.32-22.12,37.51-7.58,35.48,7.68-.32ZM1152,1088.02c-3.37-3.4-4.21,2.61-4.98,3.92-5.43,9.35-11.61,19.8-15.01,30.04,5.12.97,18.65-31.16,19.99-33.97ZM1164,1088.02c-6.76-5.31-22.58,25.21-17.98,31.97l17.98-31.97ZM1184,1088.02l-7.68.32c-27.78,50.28-8.9,38.74,7.68-.32ZM2020,1092.02c-18.11,2.6-33.35,19.58-51.99,15.99l5.97,9.02c-17.95,19.11,37.71-19.45,46.02-25.01ZM732.77,1105.38c-6.44-22.32-18.95,6.01-36.76,1.61,6.34,7.96,13.65,2.6,21.99,3.03-25.62,21.96,8.81-.51,17.98-2.04.83-3.07-2.37-1.42-3.22-2.6ZM1180,1121.98c5.2,4.09,15.53-16.39,16.97-20.07,3.31-24.74-17.69,17.81-16.97,20.07ZM879.98,1116c2.95-6.61-17.96-21.93-19.97-19.99,2.24,10.91,14.32,12.36,19.97,19.99ZM891.84,1103.87c-14.4-22.66-19.56,14.51,26.17,12.1-4.15-7.81-14.52-8.74-21.02-13.96,1.4,12.25-17.61,3.4-5.15,1.86ZM675.98,1128l2-30-11.98,4.02c5.24,3.43,1.59,14.99,7.98,9.96,1.41,2.11-4.53,14.47,2,16.01ZM2048.01,1116.01l-.03-16.01c-16.8,8.47-27.57,15.16.03,16.01ZM1057.67,1102.4c-9.43-3.55-5.03,7.82-7.69,13.59-3.09-6.19-4.56-2.11-7.96.99,28.48,35.33,89.26,54.3,129.98,32.99-43.29-6.64-98.71,5.1-114.32-47.57ZM2096,1124c-5.37-34.67-19.25-18.75-16.89,8.13-8.25,22.46-31.89,68.6-30.18,91.87,12.84,17.22,8.26-35.3,17.04-45.03,7.19-19.67,14.77-56.36,30.03-54.97ZM656.01,1104.01c6.33,9.81-6.44,12.82-3.07,19.96,7.37,15.59,22.01-21.7,3.07-19.96ZM2295.64,1108.39c-4.1-8.44-52.75,2.21-59.43,1.83,1.81,7.74-21.79,37.69-20.21,39.75,58.89,34.52,67.31,15.76,79.64-41.58ZM2053.98,1130.01c3.67.32,14.02-1,7.09-6.01-.62-2.74,5.37-7.27-2.08-11.99l-1.01,15.98-3.96-9.98c2.54,14.2-21.8,20.26-.04,27.98,3.31-3.41-.59-15.42,0-15.98ZM2227.99,1112.01c-11.01-2.74-32.14,5.73-33.99,15.98.55.46,11.78-4.53,7.83,6.86-1.15,3.33-6.24,1.76-5.82,5.13,3.91-.51,11.38,6.45,14.04,5.15,3.35-1.64,20.71-30.51,17.94-33.12ZM654,1136.02c-22.41-.41.58-24.54-21.98-22.01,1.34,8.09,9.64,42.23,21.98,22.01ZM791.99,1120.03c-15.25-4.46-33.37-10.71-47.98-1.02,14.47,7.69,33.96,10.32,47.98,1.02ZM2048,1122.02c-16.96,5.25-23.22-14.76-31.99-1.01,5.63,1.94,4.2,1.74,1.99,6.98,7.09,2.96,8.5-4,9.06-4.07,7.06-.97,12.13,14.69,20.94-1.89ZM2196,1114.02c-9.24,1.79-16.26,5.43-13.98,15.98,3.24-.56,15.24-14.91,13.98-15.98ZM2169.54,1120.48c-5.69-6.29-18.31,3.21-13.15,12.15l25.61,19.36c1.27-1.19-13.89-11.85-9.99-15.97,23.53,11.47,11.28,1.59.59-6.6-1.75-2.43-1.04-6.7-3.06-8.94ZM1031.99,1140c2.88-7.91-2.29-15.06-7.97-19.99,2.8,15.09-12.68,16.01,7.97,19.99ZM1365.99,1155.99c-3.59,3.24-52.58-28.57-59-33.98,44.94,63.37,152.21,34.17,221.92,46.08,110.26,9.44-188.63-44.31-179.96-46.07-14.9-3.96,18.61,32.03,17.04,33.96ZM815.99,1128.01c-15.67-4.13-1.29,13.77-23.98,5.98-11.33,24.03,25.97-1.63,23.98-5.98ZM2007.92,1128.06c-44.26,11.89-3.12,64.37,18.78,71.78,6.79-12.68,35.83-49.98,10.33-59.29-1.99-.14-10.17,5.95-15.02,3.46,4.31-19.39-12.41-1.82-14.08-15.95ZM769.89,1154.1c-12.27.32-45.13-13.45-53.31-21.88-29.6,7.68-20.12,17.3,2.44,31.77,5.86-7.54-5.69-8.85-5.01-12.96,1.07-6.38,20.61-.1,7.97,3.97,15.89,7.92-8.63,13.08,19.47,18.55,7.64-.52,20.86-4.38,18.54-9.54,8.27,4.87,13.96-5.49,9.9-9.91ZM778.01,1138.01c-6.97,1.57-42.06-12.11-39.91.77,1.43,8.55,35.97,10.21,42.89,9.23-1.76-5.94-7.26-1.55-2.99-10ZM1059.99,1149.99c.53-7.93-5.88-14.04-11.97-17.99,3.07,10.64-1.82,17.72,11.97,17.99ZM661.98,1174c1.34-12.26,16.59-22.22,12-33.98-4.28-.29-1.89,6.8-2.52,7.59-7.29,2.45-19.36,21.33-9.48,26.39ZM814.15,1157.83c8.11-37.67-15.62-2.31-34.14-5.82-.14,10.1,13.01,3.99,9.9,14.9-5.86,9.83-13.75-19.21-23.9,11.08,1.51,4.89,80.7-14.31,48.15-20.15ZM1025.84,1144.19c-6.42-6.07-37.2.74-37.84,9.78,23.24,3.78,32.13,22.86,37.84-9.78ZM2111.62,1156.37c-.82-1.32-24.23-10.55-27.59-14.37-3.95,14.17-16.34,26.98,5.97,29.98-5.52-5.68-3.08-12.74,4.66-9.67,11.95,12.92-3.14,17.54,21.33,17.68-13.59-17.55,2.36-5.4-4.37-23.61ZM728,1209c9.33-40.93-19.48-37.88-41.02-65.02-21.18,15.1-21.44,42.93,5.64,54.41,5.35,3.4,32.74,19.26,35.38,10.61ZM988,1144h-31c-15.22,15.33,5.29,9.38,16.12,7.92,8.16-.88,8.98,5.07,14.88-7.92ZM1267.99,1150.03c-35.59-16.38-68.21,39.78-153.21,20.19-49.64,10.88-85.7-50.6-90.76-4.23.35-5.55,8.44-3.73,11.98-3.97.85,2.24-2.26,7.64-2.01,7.97,72.91,30.6,168.48,27.85,234-19.95ZM2270,1176.02c-28.6-2.3-53.31-22.52-80-32,18.51,18.8,46.05,27,67.55,41.33,4.34,12.08,8.8-5.06,12.45-9.33ZM2028,1215.98c-17.14-14.4-43.3-50.3-53.97-69.97-.5,28.28,32.1,54.68,53.97,69.97ZM2039.99,1214.01c2.3-22.41,15.77-41.98,19.99-64-5.63,7.07-22.54,56.27-33.98,56.03-1.35,1.88,10.32,9.98,13.99,7.97ZM1204,1154.02c-30.01-8.34-20.8,8.67-47.99,11.96,14.68-.49,40.64,2.98,47.99-11.96ZM847.99,1154.01l-15.95,10.99c17.71,13.6,35.1,35.1,53.95,9.99-8.54-8.09-13.43,11.83-21.98,2.98-5.73-5.93,11.2-2.12,9.98-5.95-8.61,1.42-18.66-1.22-21.98-8.86-2.38-1.51-5.34,5.03-4.02-9.15ZM2186,1165.96c-.46-14.91-59.12-12.49-43.49-4.4,20.05-4.01,10.07,13.42-.49,4.44.12,23.78,18.09,9.57,31.97,5.97-2.26-6.14-16.2,1.44-17.98-7-1.95-9.28,10.27-1.68,10.99-1.68,1.65,0,5.27-4.85,8.98-3.29,4.13,2.84-6.98,16.05,10.02,5.95ZM2244.02,1206l11.01-12.01-65.03-35.97c13.9,18.82,50.62,22.89,54.02,47.98ZM995.99,1162.02c-24.86-8.76-24.86,32.58-38.72,45.26-4.25,12.38-57.44,45.95-37.22,51.87,2.3,6.35,3.45,3.16,9.08,4.58,2.9,2.49,5.99,19.35,6.89.28,18.14,7.05-3.18-38.14,17.98-32.01-2.03,28.43,3,21.99,16.5,3.5,4.42-10.76-3.09-28.58-.19-33.17,4.21-6.65,13.14,1.68,9.71,9.67l8.99-9.98s1.01,5.99,1.01,5.99c16.26-11.69-12.91-39.15,5.97-45.98ZM930,1162.02c-10.71-3.18-24.91,17.88-11.8,15.16,4.14-.86,9.54-11.23,11.8-15.16ZM1012,1168.02l-13.98-4.02c4.35,19.33,1.4,25.71,13.98,4.02ZM2152,1245.98c-10.17-18.68-25.68-61.43-31.98-81.97-1.23,27.29,23.2,56,15.98,81.97,0,0,16,0,16,0ZM735.99,1240.02c-44.6-8.51-77.19-33.39-103.15-69.86-17.51-14.2-.53,21.86,8.13,25.86,50.79,56.58,164.84,83.29,221.08,27.98,17.51,3.93,47.97-30.08,53.93-44-49.34,37.1-91.89,71.93-159.08,63.91-5.06.19-31.37,6.36-20.91-3.89ZM2140.55,1189.62c2.57-6.85-8.75-35.08-7.74-15.58,5.35,18.87,18.28,53.06,27.52,69.72,2.39,1.4,11.65-3.27,15.68-1.77-18.73-11.54-21.79-38.27-35.45-52.36ZM1321.98,1178.03l-19.96-10.03c-.27,9.31,15.37,16.26,19.96,10.03ZM2220.37,1193.75c-29.67-41.76-31.43-15.91-70.36-7.72,15.15,101.26,125.96,4.52,70.36,7.72ZM1071.99,1190.03c-89.51-51.53-64.78,84.95-203.47,129.49-125.97,24.47,264.2,4.17,251.49,10.5-1.89-15.61-3.62-65.08-34.76-51.77-19.76,4.6-87.86,8.71-87.25,25.76-25.8,15.68-2.19-47.06,16.84-40.02,24.17,10.98,67.61-6.79,84.23-26.08.94-2.13-6.48-41.87-7.99-44.01-2.43-7.21-35.78,6.09-19.1-3.89ZM2118.01,1188.02c-48.19-12.34-51.38-29.87-52.15,39.12,5.04,7.75,66.8,25.86,65.77,8.42-3.61-9.33-7.95-43.04-15.61-41.55,0,0,2-5.99,2-5.99ZM852,1202.03c-14.75-5.94-25.4-20.9-40-26.01,7.51,12.59,27.2,19.28,24.02,35.98,2.2-1.31,17.52-7.66,15.98-9.97ZM829.67,1211.69c5.52-10.32-19.64-28.04-24.95-33.3-11.78,3.8-32.87,7.08-46.74,5.6-5.04,47.39,27.53,42.04,61.82,31.82,1.21-1.41-.38-9.01.2-11.8,13.08-.48-4.35,15.78,9.66,7.68ZM746,1182c1.91,11.17-7.71,45.42,14,41.98-9.4-4.31-4.17-45.13-14-41.98ZM582.03,1203.98c-7.19-12.41-10.01-10.16-4.02,4.01-5.9-2.6-8.33,4.67-5.79,7.79,31.66,5.85,16.53,14.06-6.21,9.2,6.52,4.79,9.17,13.79,16.57,17.43,10.83,3.02,59.78,7.94,30.57,17.64-.77-.03-4.13-7.83-13.14-4.04,12.87,2.78,11.74,1.34,2.03,6.98,6.63,17.91,40.59,4.68,48.98,13,.49,8.54-21.22,4.07-20.98,9,6.31,3.34,21.75,18.37,24.97,6.97,5.45-1.89.15,3.94,2,4.04,3.06.17,34.54-10.29,30.01-.02-2.11,4.77-15.67,8.39-21.01,8.02l17.47,9.57c15.63,3.44,28.11-13,42.51-9.58-.88,11.56-45.62,20.45,10.1,19.08,20.42-16.86,41.78-22.02,11.91,4.89,31.3,2.95,34.35-3.9,54.98-22.06,13.3-.03-4.31,13.5-4.97,15.09,8.45,4.47-1.04,4.19-4.01,6.97,51.85,4.99,28.12-32.78,52-35.97-9.61,13.07,9.12-4.33-2,19.98,8.01-2.23,10.85,9.9,18,.03l-5.98-4.01c19.9,11.77,15.41-41.09,30.07-23-11.28,30.77-4.6,20.06,17.82,7.89,5.68-3.84,13.05-50.61.16-29.76-22.17,4.56-45.24,25.52-72.08,28.88,6.11,9.86-12.45,4-14.87,3.9-39.49,16.68-121.07-4.21-153.12-18.92,9.86-6.88-35.76-22.23-41.01-34.99,8.4,14.66-10.2,1.14-18.98,1.97,8.45-1.56,4.74-3.75,1.99-8.99,1.46-1.92,5.24.04,3.97-3.95-3.17-1.82-24.11-39.36-27.95-27.05ZM2262.75,1222.77c6.47-5.63,20.48-12.52,10.26-20.76-9.41,11.12-39.37,33.96-53,41.97,16.61,5,31.39-10.99,42.74-21.21ZM2254,1206.02c-62.54,51.98-146.49,57-216.99,17.96-4.08,11.74,12.71,10.36,18.95,13.06,7.23,3.13,9.33,13.72,24.03,6.98,0,0-1.99,5.97-1.99,5.97,9.31-4.38,7.07,1,9.51,1.86,16.2,10.03,112.88,7.73,90.5-3.83,28.48-3.27,57.35-20.22,75.98-42ZM1159.99,1317.99c-12.36-2.07-20.13-96.88-28.99-97.95-12.79,27.38,16.88,73.16,17.01,105.96,16.27,1.09,13.92-18.84,11.98-8.01ZM2338,1232.02c-14.44,3.96-23.1,1.39-38.03,3.26-6.53,6.05-44.3,32.5-13.97,32.74-18.32,8.46,14.05,1.34,15.97,2.94,0,0,14.03-12.95,14.03-12.95-4.38-2.16-33.18,5.95-21.68-7.71,13.01-.86,36.73.33,43.69-18.29ZM1128.02,1305.99c-3.52-8.71,3.88-19.03,3.91-24.68.02-4.14-8.53-41.25-10.92-41.27-25.63-1.23,13.77,100.54,11,109.97,19.43-3.94,12.12-3.22,10.42-13.45-5.03-15.46-3.55-66.43-14.41-30.58ZM1107.99,1271.99c-2.36-63.57-35.28,19.6-56.84-2.14-3.54.03-34.94,5.12-37.67,6.17-8.58,25.69,73.14-14.67,94.52-4.02ZM2183.99,1302.02c-60.59,14.73-115.6-7.71-171.97-25-1.61,4.34,5.41,2.46,8.17,5.85s-.2,8.99,7.81,7.14c-12.29,9.89,7.47,25.65,20,25.97,1.07-.88-14.56-25.82.7-19.67,4.21,3.39,23.29,46.65,24.3,17.7,4.48,4.48,2.03,15.56,11,11-2.73-2.54-15.09-19.59-6.94-21.02,10.25.33,12.81,19.59,19.97,20.15,2.59.2,6.49-2.56,6.96-2.13,4.33,3.95-5.09,3.33-3.97,5.98l17.99,2c1.73-1.28-15.01-16.3-6.96-17.98s12.76,9.96,17.59,13.4c3.17.82,7.02.39,8.77,4.55,4.69,1.15,11.51-.62,16.6.04-2.14-5.07-19.51-13.44-6.93-16.04,13.41,3.88,25.07,21.21,42.92,12.03-1.58-3.82-24.97-12.13-12.74-15.81,5.46-1.64,12.19,4.32,12.73,3.84.74-.65-1.64-4.77,2-3.99,0,12.99,25.13,14.58,32.02,4.01-6.56-.82-24.39-5.19-14.67-11.84,14.08-1.89,34.95,16.66,48.67-2.17-24.4-1.26-27.25-8.75-2.01-14.02-3.97,12.7,20.25,3.24,17.99.05-3.11,1.54-4.62-3.73-4-6.05-15.28,7.53-8.59-4.01-15.93-1.93-.24.19.42,4.04-1.15,4.05-14.96-8.18-31.17,11.95-46.88,11.91,16.25,4.51-40.45,21.72-22.02,8Z"/>
  <path class="st0" d="M1037.99,675.99c24.14,53.29,185.89,142.98,232.92,184.1,4.4,10.52,62.9,35.23,56.22,46.03-7.64,11.06-42.12-4.03-51.11-10.15,8.31-6.94,31.64,17.43,43.07,8.13-69.38-66.28-136.7-93.57-236-172.19-9.57-8.64-61.99-47.02-45.1-55.92Z"/>
  <path class="st0" d="M1430,857.98c-100.69-57.59-239.68-129.59-342-177.96,119.13,43.67,234.28,110.53,342,177.96Z"/>
  <path class="st0" d="M1205.28,776.73c37.94,32.59,125.06,97.51,117.75,115.26-59.56-76.21-187.02-157.1-277.02-215.97,55.78,25.02,109.34,67,159.27,100.71Z"/>
  <path class="st0" d="M2061.99,690.01c6.75,5.15-13.23,3.81-14.97,4.01-88.69,6.9,13.3,31.56,44.33,41.36-1.08-2.48,99.36-26.76,86.64-33.36,24.8,9.59-46.28,21.84-59.34,29.62-56.55,23.22-109.51,84.75-160.63,114.35,31.41-32.59,93.81-76.2,133.95-104.99-48.45-14.06-144.46-47.1-29.97-50.99Z"/>
  <path class="st0" d="M2185.99,698.03c-205.26-39.99-204.41,5.64-357.38,55.6,126.93-58.44,213.55-103.06,357.38-55.6Z"/>
  <path class="st0" d="M1817.99,726.01c-15.9,81.27-200.63,61.31-182.01,113.97-7.45-2.14-5.57,6.2-11.97,6.01,5.57-15.43,3.96-24.73,19.38-33.6,55.52-28.35,141.75-23.29,174.6-86.38Z"/>
  <path class="st0" d="M1885.53,357.47c70.13,26.4-85.75-14.51-85.52-13.49,3.35-8.59,69.21,8.32,85.52,13.49Z"/>
  <path class="st0" d="M2141.98,662.04c6.71,12.59-101.53-33.62-101.97-31.02,19.01-4.71,87.63,25.49,101.97,31.02Z"/>
  <path class="st0" d="M2168.01,700.01c.04,3.42,1.14,4.32-2.82,3.84-30.44-7.36-68.02-4.31-95.18-13.83,0,0,98,9.99,98,9.99Z"/>
  <path class="st0" d="M1233.99,1019.99c-8.43-5.3-7.5,3.08-10.95,1.99-5.92-1.87,1.13-5.89.12-7.98-1.9-3.94-22.32-18.38-27.4-22.8-18.7-17.71,39.8,22.74,38.24,28.79Z"/>
  <path class="st0" d="M617.43,946.43c20.6-4.73,24.72,18.66,12.06,24.04-20.43,8.69-29.85-19.95-12.06-24.04Z"/>
  <path class="st0" d="M1840,667.98c40.36-35.66,11.3-81.48-1.99-121.98,23.88,29.86,43.89,101.96,1.99,121.98Z"/>
  <path class="st0" d="M1925.99,347.99c-2.93,2.81-19.2-4.4-15.98-11.98,7.5-4.89,20.55,7.58,15.98,11.98Z"/>
  <path class="st0" d="M841.87,1020.04c20.89,29.23-33.59,41.01-22,6.82,3.43-5.71,20.42-8.47,22-6.82Z"/>
  <path class="st0" d="M755.99,1158.01c7.02,13.59-29.01,14.33-14.97,2.01,6.51-2.5,3.46,3.99,6.96,3.97-3.22-6.38,6.14-7.86,8.01-5.98Z"/>
  <path class="st0" d="M2127.59,982.45c-2.26-1.3-12.98.82-11.58-5.42,3.16-14.09,32.73,11.18,16.97,11.01-4.61-.05-3.94-4.76-5.39-5.59Z"/>
</svg>