<svg viewBox="0 0 1000 1600" xmlns="http://www.w3.org/2000/svg">
  <defs>
    <!-- Gradients for modern iOS 26 look -->
    <linearGradient id="landGradient" x1="0%" y1="0%" x2="0%" y2="100%">
      <stop offset="0%" style="stop-color:#1a1a1a;stop-opacity:1" />
      <stop offset="50%" style="stop-color:#0f0f0f;stop-opacity:1" />
      <stop offset="100%" style="stop-color:#0a0a0a;stop-opacity:1" />
    </linearGradient>
    
    <linearGradient id="coastGradient" x1="0%" y1="0%" x2="100%" y2="0%">
      <stop offset="0%" style="stop-color:#00FFA9;stop-opacity:0.15" />
      <stop offset="50%" style="stop-color:#00D4FF;stop-opacity:0.1" />
      <stop offset="100%" style="stop-color:#00FFA9;stop-opacity:0.05" />
    </linearGradient>
    
    <linearGradient id="borderGradient" x1="0%" y1="0%" x2="100%" y2="100%">
      <stop offset="0%" style="stop-color:#00FFA9;stop-opacity:0.8" />
      <stop offset="50%" style="stop-color:#00D4FF;stop-opacity:0.6" />
      <stop offset="100%" style="stop-color:#00FFA9;stop-opacity:0.8" />
    </linearGradient>
    
    <!-- Glow effect for borders -->
    <filter id="glow">
      <feGaussianBlur stdDeviation="4" result="coloredBlur"/>
      <feMerge>
        <feMergeNode in="coloredBlur"/>
        <feMergeNode in="SourceGraphic"/>
      </feMerge>
    </filter>
    
    <!-- Shadow for depth -->
    <filter id="shadow" x="-50%" y="-50%" width="200%" height="200%">
      <feDropShadow dx="0" dy="3" stdDeviation="6" flood-color="#000" flood-opacity="0.4"/>
    </filter>
    
    <!-- Subtle grid pattern -->
    <pattern id="gridPattern" x="0" y="0" width="40" height="40" patternUnits="userSpaceOnUse">
      <path d="M 40 0 L 0 0 0 40" fill="none" stroke="#00FFA9" stroke-width="0.3" opacity="0.08"/>
    </pattern>
  </defs>
  
  <!-- Background -->
  <rect width="1000" height="1600" fill="#0a0a0a"/>
  
  <!-- Grid overlay for tech look -->
  <rect width="1000" height="1600" fill="url(#gridPattern)" opacity="0.4"/>
  
  <!-- Vietnam Main Landmass - More accurate shape based on real geography -->
  <!-- Simplified but recognizable Vietnam outline -->
  <path
    d="M 380 180 
       C 400 200, 420 230, 440 270 
       C 460 310, 480 360, 500 420 
       C 520 480, 540 550, 560 630 
       C 580 710, 600 790, 620 870 
       C 640 950, 660 1030, 680 1110 
       C 700 1190, 720 1270, 740 1350 
       C 760 1430, 780 1500, 800 1550 
       C 820 1590, 840 1610, 860 1620 
       C 880 1625, 900 1628, 920 1630 
       C 940 1632, 960 1633, 980 1634 
       C 990 1635, 995 1636, 1000 1637 
       L 1000 1600 
       L 980 1580 
       C 960 1560, 940 1540, 920 1520 
       C 900 1500, 880 1480, 860 1460 
       C 840 1440, 820 1420, 800 1400 
       C 780 1380, 760 1360, 740 1340 
       C 720 1320, 700 1300, 680 1280 
       C 660 1260, 640 1240, 620 1220 
       C 600 1200, 580 1180, 560 1160 
       C 540 1140, 520 1120, 500 1100 
       C 480 1080, 460 1060, 440 1040 
       C 420 1020, 400 1000, 380 980 
       C 360 960, 340 940, 320 920 
       C 300 900, 280 880, 260 860 
       C 240 840, 220 820, 200 800 
       C 180 780, 160 760, 140 740 
       C 120 720, 100 700, 80 680 
       C 60 660, 40 640, 20 620 
       C 10 610, 5 600, 2 590 
       C 0 580, 0 570, 0 560 
       C 0 550, 0 540, 0 530 
       C 0 520, 0 510, 0 500 
       C 0 490, 0 480, 0 470 
       C 0 460, 0 450, 0 440 
       C 0 430, 0 420, 0 410 
       C 0 400, 0 390, 0 380 
       C 0 370, 0 360, 0 350 
       C 0 340, 0 330, 0 320 
       C 0 310, 0 300, 0 290 
       C 0 280, 0 270, 0 260 
       C 0 250, 0 240, 0 230 
       C 0 220, 0 210, 0 200 
       C 0 190, 0 180, 0 170 
       C 0 160, 0 150, 0 140 
       C 0 130, 0 120, 0 110 
       C 0 100, 0 90, 0 80 
       C 0 70, 0 60, 0 50 
       C 0 40, 0 30, 0 20 
       C 0 10, 0 5, 0 0 
       L 50 0 
       C 70 10, 90 20, 110 30 
       C 130 40, 150 50, 170 60 
       C 190 70, 210 80, 230 90 
       C 250 100, 270 110, 290 120 
       C 310 130, 330 140, 350 150 
       C 360 155, 370 160, 380 165 
       Z"
    fill="url(#landGradient)"
    stroke="url(#borderGradient)"
    stroke-width="2.5"
    filter="url(#shadow)"
    opacity="0.95"
  />
  
  <!-- More detailed Vietnam coastline -->
  <path
    d="M 400 200 
       L 420 250 
       L 450 320 
       L 480 400 
       L 510 480 
       L 540 560 
       L 570 640 
       L 600 720 
       L 630 800 
       L 660 880 
       L 690 960 
       L 720 1040 
       L 750 1120 
       L 780 1200 
       L 810 1280 
       L 840 1360 
       L 870 1440 
       L 900 1500 
       L 930 1540 
       L 960 1570 
       L 990 1590 
       L 1000 1600 
       L 970 1600 
       L 940 1590 
       L 910 1570 
       L 880 1540 
       L 850 1500 
       L 820 1450 
       L 790 1390 
       L 760 1320 
       L 730 1240 
       L 700 1150 
       L 670 1050 
       L 640 940 
       L 610 820 
       L 580 690 
       L 550 550 
       L 520 400 
       L 490 250 
       L 460 120 
       L 430 50 
       L 400 20 
       L 370 5 
       L 340 0 
       L 310 0 
       L 280 0 
       L 250 0 
       L 220 0 
       L 190 0 
       L 160 0 
       L 130 0 
       L 100 0 
       L 70 0 
       L 40 0 
       L 20 0 
       L 0 0 
       L 0 30 
       L 0 60 
       L 0 90 
       L 0 120 
       L 0 150 
       L 0 180 
       L 20 190 
       L 50 200 
       L 80 210 
       L 110 220 
       L 140 230 
       L 170 240 
       L 200 250 
       L 230 260 
       L 260 270 
       L 290 280 
       L 320 290 
       L 350 300 
       L 380 310 
       Z"
    fill="#1a1a1a"
    stroke="#00FFA9"
    stroke-width="2"
    filter="url(#glow)"
    opacity="0.9"
  />
  
  <!-- Coastline highlight with gradient -->
  <path
    d="M 400 200 
       L 420 250 
       L 450 320 
       L 480 400 
       L 510 480 
       L 540 560 
       L 570 640 
       L 600 720 
       L 630 800 
       L 660 880 
       L 690 960 
       L 720 1040 
       L 750 1120 
       L 780 1200 
       L 810 1280 
       L 840 1360 
       L 870 1440 
       L 900 1500 
       L 930 1540 
       L 960 1570 
       L 990 1590 
       L 1000 1600"
    fill="none"
    stroke="url(#coastGradient)"
    stroke-width="5"
    opacity="0.7"
    filter="url(#glow)"
  />
  
  <!-- Regional divisions (subtle lines) -->
  <line x1="500" y1="0" x2="500" y2="1600" stroke="#00FFA9" stroke-width="0.5" opacity="0.15" stroke-dasharray="8,4"/>
  <line x1="0" y1="800" x2="1000" y2="800" stroke="#00FFA9" stroke-width="0.5" opacity="0.15" stroke-dasharray="8,4"/>
  
  <!-- Regional labels with iOS 26 style -->
  <g opacity="0.4">
    <rect x="350" y="150" width="120" height="35" rx="8" fill="#1a1a1a" stroke="#00FFA9" stroke-width="1" opacity="0.3"/>
    <text x="410" y="175" text-anchor="middle" fill="#00FFA9" font-size="18" font-weight="600" font-family="system-ui, -apple-system, sans-serif" letter-spacing="1px">NORTH</text>
    
    <rect x="450" y="600" width="120" height="35" rx="8" fill="#1a1a1a" stroke="#00FFA9" stroke-width="1" opacity="0.3"/>
    <text x="510" y="625" text-anchor="middle" fill="#00FFA9" font-size="18" font-weight="600" font-family="system-ui, -apple-system, sans-serif" letter-spacing="1px">CENTRAL</text>
    
    <rect x="380" y="1350" width="120" height="35" rx="8" fill="#1a1a1a" stroke="#00FFA9" stroke-width="1" opacity="0.3"/>
    <text x="440" y="1375" text-anchor="middle" fill="#00FFA9" font-size="18" font-weight="600" font-family="system-ui, -apple-system, sans-serif" letter-spacing="1px">SOUTH</text>
  </g>
  
  <!-- Scale indicator with iOS 26 style -->
  <g opacity="0.5" transform="translate(50, 1520)">
    <rect x="0" y="-15" width="100" height="30" rx="6" fill="#1a1a1a" stroke="#00FFA9" stroke-width="1" opacity="0.4"/>
    <line x1="10" y1="0" x2="90" y2="0" stroke="#00FFA9" stroke-width="2"/>
    <line x1="10" y1="-5" x2="10" y2="5" stroke="#00FFA9" stroke-width="2"/>
    <line x1="90" y1="-5" x2="90" y2="5" stroke="#00FFA9" stroke-width="2"/>
    <text x="50" y="-20" text-anchor="middle" fill="#00FFA9" font-size="11" font-weight="500" font-family="system-ui, -apple-system, sans-serif">~1000 km</text>
  </g>
  
  <!-- Compass rose with iOS 26 style -->
  <g transform="translate(900, 100)" opacity="0.5">
    <circle cx="0" cy="0" r="35" fill="#1a1a1a" stroke="#00FFA9" stroke-width="1.5" opacity="0.4" rx="8"/>
    <circle cx="0" cy="0" r="25" fill="none" stroke="#00FFA9" stroke-width="1" opacity="0.6"/>
    <line x1="0" y1="-25" x2="0" y2="25" stroke="#00FFA9" stroke-width="1.5"/>
    <line x1="-25" y1="0" x2="25" y2="0" stroke="#00FFA9" stroke-width="1.5"/>
    <polygon points="0,-25 5,-15 -5,-15" fill="#00FFA9" opacity="0.8"/>
    <text x="0" y="-45" text-anchor="middle" fill="#00FFA9" font-size="16" font-weight="700" font-family="system-ui, -apple-system, sans-serif">N</text>
    <text x="30" y="5" fill="#00FFA9" font-size="12" font-weight="600" font-family="system-ui, -apple-system, sans-serif">E</text>
    <text x="-35" y="5" fill="#00FFA9" font-size="12" font-weight="600" font-family="system-ui, -apple-system, sans-serif">W</text>
    <text x="0" y="50" text-anchor="middle" fill="#00FFA9" font-size="12" font-weight="600" font-family="system-ui, -apple-system, sans-serif">S</text>
  </g>
  
  <!-- Title/Header area -->
  <g transform="translate(500, 50)" opacity="0.6">
    <rect x="-80" y="-15" width="160" height="30" rx="8" fill="#1a1a1a" stroke="#00FFA9" stroke-width="1" opacity="0.5"/>
    <text x="0" y="5" text-anchor="middle" fill="#00FFA9" font-size="14" font-weight="600" font-family="system-ui, -apple-system, sans-serif" letter-spacing="2px">VIETNAM</text>
  </g>
</svg>
