<?xml version="1.0" encoding="UTF-8"?>
<svg id="_Слой_1" data-name="Слой_1" xmlns="http://www.w3.org/2000/svg" version="1.1" viewBox="0 0 354.46 354.46">
  <!-- Generator: Adobe Illustrator 29.8.3, SVG Export Plug-In . SVG Version: 2.1.1 Build 3)  -->
  <path d="M354.46,72.55c-.14,2.97.2,6.02,0,8.98-1.57,23.75-11,47.08-25.9,65.65-52.46,50.03-101.64,107.18-155.12,155.81-33.54,30.51-81.73,43.51-123.61,21.32C3.26,299.65-16.66,235.14,18.99,192.77L174.49,37.33c59.78-50.35,145.56,16.89,96.39,81.19-50.71,50.16-100.45,101.38-151.7,150.94-22.38,17.22-56.2,13.89-69.69-12.51-9.94-19.46-3.6-43.76,17.07-52.55,6.51-2.77,21.65-6.03,21.95,4.61.24,8.68-6.27,7.45-11.84,8.95-26.57,7.16-16.52,43.58,7.29,45.97,35.75,3.59,50.25-37.99,28.94-64.18-26.61-32.71-77.46-15.94-91.82,19.98-15.78,39.49,11.82,85.59,51.32,96.53,53.47,14.8,109.26-24.98,118.1-78.43,1.25-7.56.03-17.75,4.69-23.64,49.42-48.65,97.48-98.96,147.74-146.6,4.97-2.5,9.35.3,11.53,4.96ZM67.71,166.52h16.93c2.33,0,9.98,2.38,12.63,3.27,24.29,8.15,41.27,32,41.96,57.53l121.28-121.24c18.61-21.71,6.44-55.13-18.21-66.12-21.14-9.42-45.88-1.91-61.97,13.58l-112.62,112.98ZM204.53,248.74l109.52-109.16c10.28-12.41,18.55-26.86,21.75-42.85l-127.17,126.75c-1.46,8.29-1.86,16.98-4.1,25.26Z"/>
</svg>