<?xml version="1.0" encoding="UTF-8"?>
<svg id="_Слой_1" data-name="Слой_1" xmlns="http://www.w3.org/2000/svg" version="1.1" viewBox="0 0 1408 736">
  <!-- Generator: Adobe Illustrator 30.0.0, SVG Export Plug-In . SVG Version: 2.1.1 Build 123)  -->
  <defs>
    <style>
      .st0 {
        fill: none;
        stroke: #fff;
        stroke-linecap: round;
        stroke-linejoin: round;
        stroke-width: 2px;
      }
    </style>
  </defs>
  <path class="st0" d="M1196.5,651.5h-604.15c-2.54-.94-4.92-1.82-8.08-2.99-1.83-8.42-3.86-17.46-5.76-26.52-1.58-7.48-2.92-15.02-4.55-22.49-.96-4.38-2.4-8.65-3.39-13.02-.28-1.23.27-2.65.43-3.98"/>
  <path class="st0" d="M1076,440c37.19,6.01,62.2,27.48,73.64,62.62,10.34,31.76,4.86,61.92-17.64,87.88-15.25,17.6-34.35,28.02-57.5,31.01-24.71,3.19-47.05-2.85-66.97-17.56-17.51-12.93-28.59-30.46-33.4-51.48-6.37-27.79-.52-53.28,16.91-75.94,2.87-3.73,6.29-7.03,9.46-10.53"/>
  <path class="st0" d="M767.5,362.5c5.19-5.07,5.88-8.69,2.47-15.49-6.16-12.32-14.39-23.2-23.45-33.53-11.83-13.49-24.55-25.87-40.51-34.5-8.45-4.57-17.53-6.74-27.01-6.93-18.66-.36-37.34-.24-56-.6-20.82-.4-41.36-2.77-61.53-8.37-11.5-3.19-22.13-8.51-31.77-14.9-13.52-8.95-27.69-13.78-43.69-14.8-16.69-1.06-33.36-2.74-50-4.45-13.69-1.41-27.34-3.23-41-4.97-7.62-.97-15.24-2.53-22.5,1.53-1.37.77-2.67,1.66-4.01,2.49"/>
  <path class="st0" d="M1074,448.5c13.01,0,24.12,5.75,34.42,12.63,19.62,13.1,31.95,31.68,35.92,54.9,4.29,25.08-1.3,48.08-17.83,67.98-12.52,15.07-28.57,24.6-47.54,28.32-20.06,3.93-39.48.96-57.46-9.33-19.98-11.43-33.2-28.25-38.93-50.51-6.13-23.85-2.01-46.12,11.97-66.45,1.86-2.71,4.29-5.03,6.46-7.53"/>
  <path class="st0" d="M1008.5,404.5c-3.33-.67-6.94-.74-9.95-2.11-8.99-4.1-15.98-1.57-22.59,5.07-23.55,23.61-47.25,47.08-70.97,70.53-11.57,11.43-23.36,22.64-34.95,34.05-2.86,2.81-5.44,5.91-8.01,8.98-7.17,8.58-16.81,9.94-27.01,8.91-9.87-1-19.69-2.49-29.5-3.95-10.35-1.54-20.66-3.4-31.01-4.95-11.82-1.77-23.69-3.19-35.49-5.07-11.04-1.77-22.12-3.47-32.98-6.07-13.95-3.34-27.83-7.14-41.47-11.56-6.66-2.16-12.94-5.79-19-9.42-7.1-4.26-10.21-12.11-15.06-18.41-1.02-1.32-1.96-2.7-3.01-3.99-3.32-4.12-4.16-8.19-1.14-13.1,1.27-2.07.94-5.12,1.36-7.89-5.7-.59-10.2-1.07-14.71-1.51-3.17-.31-5.52,1.21-7.5,3.49"/>
  <path class="st0" d="M945,504.5c-7.99,6.74-13.5,15.24-14.83,25.52-1.47,11.39-1.61,22.95-2.37,35.14-9.08,7.24-20.51,10.11-32.8,10.33-19.5.35-39.01,1.24-58.5.83-17.02-.35-34-2.24-51-3.31-15.16-.95-30.33-1.79-45.5-2.5-19.83-.93-39.66-1.8-59.5-2.46-6.49-.22-13,.22-19.5.46-3.98.15-6.1-.68-7.25-5.46-2.15-8.99-5.8-17.52-10.63-25.64-8.23-13.85-15.64-28.19-23-41.59-4.32-.54-7.48-.93-10.76-1.35-.56-.96-1.16-1.99-2.09-3.57.65-.65,1.49-1.49,2.32-2.32.44.08.89.17,1.33.25.19,1.72.38,3.43.57,5.15"/>
  <path class="st0" d="M324,484.5c-6.74,11.06-10.12,23.21-10.95,36-1.46,22.61,4.08,43.33,17.96,61.48,16.16,21.13,37.6,33.22,63.99,35.93,24.75,2.54,46.66-4.67,66.05-20.34,12.66-10.23,21.29-23.03,26.92-38.08.16-.44.02-.99.02-1.49"/>
  <path class="st0" d="M1069,250c.86-.44,1.72-.88,3.21-1.64-5.16-8.26-9.94-16.47-15.25-24.33-15.31-22.67-33.29-43.23-50.94-64.05-15.76-18.59-31.67-37.07-46.9-56.08-8.99-11.22-17.04-23.2-22.21-36.87-1.3-3.45-3.68-6.5-5.58-9.76-10.44,7.19-14.15,17.86-11.97,29.76,2.29,12.52,8.83,22.44,16.53,32.06,2.8,3.49,5.04,7.72,6.42,11.98,1.17,3.63.36,7.79-2.35,10.91-4.88,5.61-9.59,11.45-15.07,16.42-6.06,5.49-12.9,10.11-19.4,15.11"/>
  <path class="st0" d="M331,489c-6.48,12.72-9.92,26.19-9.47,40.5.6,18.94,6.83,35.97,19.04,50.44,11.14,13.2,25.16,22.54,41.94,27,40.84,10.86,81.56-10.68,96.46-46.95.32-.77.35-1.66.52-2.49"/>
  <path class="st0" d="M629,446c8.83,8.67,17.6,17.4,26.53,25.97,5.02,4.82,10.81,8.92,15.35,14.14,6.01,6.9,13.69,10.1,22.14,11.82,14.28,2.92,28.6,5.73,43,7.98,15.27,2.39,30.66,4.03,45.98,6.11,11.68,1.58,23.31,3.51,35.01,4.92,8.29,1,16.67,1.28,24.99,2.1,6.97.69,12.7-1.96,18-6.04"/>
  <path class="st0" d="M968.5,401c-5,2.83-10.06,5.57-14.99,8.52-16.69,9.96-33.41,19.88-49.99,30.01-16.42,10.03-32.68,20.31-49.02,30.47-7.35,4.57-11.72,4.7-21.51,2.05-27.63-7.48-55.29-14.83-83-22-13.93-3.61-28.04-6.52-41.97-10.12-9.06-2.34-18.12-4.57-27.51-3.85-8.03.62-16.04,1.7-24,2.98-8.71,1.4-17.35,3.24-26,4.98-1.22.24-2.34.96-3.51,1.46"/>
  <path class="st0" d="M1050,340.5c-1.17-1.83-2.05-3.95-3.54-5.46-16.15-16.19-33.99-30.32-52.97-43.03-8.1-5.43-16.25-10.8-24.51-15.98-6.99-4.37-14.76-5.64-22.98-5.63-11.33.02-22.67-.61-34-.85-1.03-.02-2.07.77-3.2,1.22,10.1,19.61,20.07,38.96,29.99,58.23,1.04-.19,1.88-.35,2.71-.51"/>
  <path class="st0" d="M470.5,281c14.67,3.17,29.36,6.22,43.99,9.53,20.16,4.55,39.97,10.13,59.05,18.36,26.63,11.48,52.05,25.28,77.34,39.32,5.47,3.03,10.8,1.76,16.14,2.66,11.59,1.95,23.33,3.02,34.97,4.67,11.85,1.68,23.67,3.66,35.51,5.45,4.99.75,9.98,1.65,15,1.91,3.64.19,7.32-.61,11-.87,1.16-.08,2.34.15,3.8.27,3.58,6.59,9.12,9.34,16.6,11.1,9.49,2.23,18.84,4.56,28.59,5.11,9.9.56,18.23-3.51,25.43-9.58,14.83-12.49,28.5-26.2,40.5-41.48,2.32-2.95,4.15-6.46,5.47-9.98,1.8-4.8,1.87-9.64-.81-14.51-3.2-5.8-5.39-12.16-8.7-17.89-2.79-4.82-6.71-8.96-9.84-13.6-2.75-4.07-5.1-8.41-7.84-12.99,2.19-1.31,3.8-2.28,5.3-3.18-1.14-9.01-2.25-17.74-3.51-27.7-3.98,1.19-6.65,1.99-9.43,2.83,1.46,7.43,2.41,13.83,4.06,20.04.68,2.55,2.86,4.7,4.36,7.04"/>
  <path class="st0" d="M938,328.5c-1.83,1.67-4.6,2.99-5.35,5.05-5.48,15.04-15.91,25.26-29.6,33.03-17.98,10.2-35.59,21-54.49,29.54-10.8,4.88-21.82,8.14-33.53,6.69-8.45-1.05-16.83-3.37-25-5.9-23.41-7.26-46.69-14.93-70.03-22.41-19.68-6.3-39.37-12.56-58.25-18.58-8.31,2.3-16.03,4.44-23.75,6.58"/>
  <path class="st0" d="M752.5,527.5c7.5,4,15.05,7.91,22.49,12.02,10.38,5.74,20.59,11.82,31.07,17.36,2.75,1.45,6.24,1.71,9.44,2.08,18.16,2.09,36.33,4.05,54.5,6.04,12.33,1.35,24.67,2.61,36.99,4.06,2.05.24,4.01,1.27,6.01,1.94"/>
  <path class="st0" d="M381.5,436.5c-2.67-1.17-5.4-2.2-7.99-3.52-10.62-5.44-21.19-10.97-32.49-16.83-.95.64-2.63,1.79-4.84,3.28,1.65,6.37,3.49,12.42,4.76,18.58,3,14.51,11.97,25.02,22.57,34.47,7.58,6.76,15.07,13.67,23.04,19.95,17.84,14.07,34.59,29.67,55.43,39.61,8.93,4.26,18.35,6.59,28.03,7.9,9.3,1.25,18.64,2.29,28,2.95,4.38.31,9.17-1.64,12.95,1.65,13.04,11.36,30.13,14.1,45.04,21.45"/>
  <path class="st0" d="M573.5,651.5c-46.5,0-93,.04-139.5-.02-16.33-.02-32.67-.12-49-.63-3.53-.11-6.94-2.43-10.51-3.31-25.09-6.18-45.97-19.21-62.98-38.55-10.28-11.69-17.95-25.08-23.34-39.55-3.56-9.56-5.61-19.59-7.06-29.88-1.41-10.03-.65-19.77.11-29.54.55-7.09,2.58-14.2,4.92-20.97,2.73-7.88,6.49-15.4,9.9-23.03.57-1.28,1.63-2.35,2.46-3.52"/>
  <path class="st0" d="M1114.5,555c2.83,1.5,5.64,3.06,8.51,4.49,6.1,3.05,9.49,1.64,11.99-4.99,4.08-10.85,5.21-22.15,3.42-33.48-4.96-31.4-21.78-53.6-51.93-64.96-2.32-.87-4.93-.96-7.1-1.35-4.31,2.69-6.25,6.09-5.95,10.8.05.8-.92,1.66-1.42,2.5"/>
  <path class="st0" d="M380,650.5c-2,.33-4,.96-6,.96-43.83.06-87.67.04-131.5.04"/>
  <path class="st0" d="M987,443.5c-10.16-.77-20.32-1.55-32.05-2.44-1.01,1.39-2.24,3.67-3.99,5.41-23.44,23.22-46.96,46.38-70.47,69.53-4.12,4.05-8.44,7.9-12.44,12.06-1.8,1.87-3.05,4.28-4.55,6.45"/>
  <path class="st0" d="M1010.5,554c-5.5,2.79-11.32,5.11-14.88,10.09-1.17,8.02,4.24,12.71,8.5,17.3,18.42,19.84,41.31,28.52,68.37,25.6,5.77-.62,7.94-3.69,6.44-9.46-.98-3.76-2.6-7.35-3.93-11.02"/>
  <path class="st0" d="M350.5,552c-2.5,1.33-5.1,2.52-7.48,4.03-4.6,2.92-5.9,7.12-2.96,11.43,10.95,16.05,25.25,27.6,44.43,32.59,10.42,2.71,20.79,3.73,31.53,2.07,7.13-1.1,8.33-5.88,6.94-10.6-1.14-3.89-2.63-7.68-3.96-11.51"/>
  <path class="st0" d="M1026.5,427.5c.41-1.43.83-2.86,1.44-4.96-1.81.7-2.65,1.02-3.73,1.44,9.65,16.27,18.92,32.58,28.94,48.43,4.16,6.59,10.16,11.86,17.75,14.98.5-.85,1.07-1.37,1.07-1.89.05-10-.31-20.02.17-29.99.28-5.87,1.48-11.78,3.07-17.45.61-2.18,3.18-4.24,5.35-5.46,6.97-3.93,14.22-5.8,22.49-3.76,6.13,1.51,12.66,1.28,18.95,2.23,5.71.86,11.31,2.46,17.02,3.37,4.77.76,9.62.99,14.43,1.45.19-.44.39-.88.58-1.32-2.34-2.69-4.54-5.52-7.05-8.06-15.6-15.79-33.97-27.78-53.57-37.85-4.23-2.17-9.54-2.42-14.42-3.12-11.48-1.65-23.03-2.82-34.47-4.7-3.32-.55-6.36-2.85-9.52-4.35"/>
  <path class="st0" d="M359.5,255.5c2.31,1.65,4.61,3.3,6.92,4.94-.21.4-.41.81-.62,1.21-1.27-.38-2.55-.72-3.8-1.16-13.47-4.77-26.23-2.99-38.52,3.97-3.36,1.91-6.89,3.62-10.5,4.97-3.99,1.49-8.18,2.45-13.13,3.88,5.71,6.84,8.14,16.54,17.65,20.7,7.86,3.44,15.67,6.99,23.51,10.49"/>
  <path class="st0" d="M758.5,549.5c-6.5-1-13.22-1.27-19.45-3.17-9.67-2.94-18.71-1.27-28.09,1.01-4.95,1.2-10.31,1.23-15.46,1.05-5.85-.2-11.66-1.42-17.51-1.84-7.32-.53-14.66-.7-22-1.05-2.67-.13-5.33-.33-8-.49"/>
  <path class="st0" d="M369,230c8.67,2,17.25,4.52,26.02,5.9,27.26,4.31,51.31,15.1,71.43,34.16,1.96,1.86,3.13,4.55,4.71,6.91-.53,1.25-1.02,2.42-1.55,3.67-.58.13-1.12.42-1.59.33-7.17-1.3-14.33-2.7-21.51-3.96-6.15-1.08-12.35-1.92-18.48-3.1-1.12-.22-2.2-1.43-2.99-2.44-5.75-7.37-12.35-13.61-21.53-16.47-.81-.25-1.66-.34-2.5-.51"/>
  <path class="st0" d="M368,508.5c-6.73,12.59-6.1,25.24.59,37.45,5.33,9.72,13.84,15.64,24.91,17.54,17.68,3.03,30.68-4.26,40.5-18.49"/>
  <path class="st0" d="M311.5,351c-.83.83-1.55,2.21-2.52,2.41-6.17,1.32-6.21,1.23-5.96,7.59.04,1.17.31,2.33.52,3.82-3.19,6.24-7.21,12.34-7.28,20.18-.03,3.01-2.65,6.07-4.28,8.99-14.97,26.85-29.97,53.68-44.99,80.5-2.08,3.71-4.45,7.27-6.4,11.05-.55,1.06-.08,2.65-.08,4.39,5.05-2.8,8.64-5.38,11.85-10.2,11.27-16.93,23.98-32.9,36.15-49.23,2.77-3.72,5.56-7.42,9-12,12.52.49,25.51.99,38.5,1.5"/>
  <path class="st0" d="M639,368c-.52-1.83-1.05-3.66-1.77-6.16-10.44-3.84-21.26-8.08-32.25-11.78-14.59-4.91-29.39-9.18-43.94-14.18-4.86-1.67-9.19-1.21-13.52.68-5.39,2.36-10.59,5.14-16.54,8.07,3.03,4.12,5.11,7.94,8.09,10.79,8.95,8.56,17.79,17.35,27.62,24.82,4.66,3.54,11.52,4.12,17.29,6.3,9.86,3.73,19.39,3.96,29.05-.95,7.97-4.05,16.32-7.36,24.44-11.12,1.69-.78,3.1-2.16,5.42-3.82-1.86-.9-3.13-1.52-4.4-2.14"/>
  <path class="st0" d="M859.5,540.5c-14.67.57-29.09-1.24-43.52-3.88-15.73-2.88-31.64-4.82-47.48-7.1-4.32-.62-8.66-1.02-13-1.52"/>
  <path class="st0" d="M337,491c-7.67,14.84-10.25,30.51-7.47,47,.75,4.46,1.85,8.85,2.64,12.54,7.33,2.34,12.05-.71,16.72-3.25-2.94-9.23-5.46-18.23-2.92-27.8.11-.43-.3-.99-.46-1.49"/>
  <path class="st0" d="M695.5,378.5c33.33,16.67,66.67,33.33,100,50"/>
  <path class="st0" d="M859,200.5c3.17-1.17,6.5-2.01,9.47-3.57,6.46-3.38,13.16-6.01,19.96-8.62,13.33-5.11,26.76-9.65,40.54-13.43,21.02-5.76,39.6-1.05,57.06,11.07,18.78,13.04,37.18,26.54,54.53,41.47,6.66,5.73,13.64,11.21,21.04,15.92,6.15,3.92,8.41,10.38,12.27,15.75,3.49,4.86,5.66,10.65,8.7,15.86,1.41,2.42,1.04,3.49-1.57,4.04"/>
  <path class="st0" d="M935.5,233.5c28,21.33,56.02,42.64,83.98,64.03,3.18,2.43,6.02,5.3,9.02,7.97"/>
  <path class="st0" d="M804.5,557c-8.5-.83-17.03-1.44-25.49-2.55-13.86-1.81-27.81-3.3-41.46-6.16-10.67-2.23-20,.73-29.54,4.2-11.5,4.18-23.01,8.31-34.49,12.54-1.1.4-2.01,1.3-3.01,1.96"/>
  <path class="st0" d="M969.5,400.5c3.05.52,1.59,1.76.51,3-4.35,4.99-8.68,9.99-13,15-18.38,21.29-39.07,40.27-59.55,59.45-9.39,8.79-19.29,17.05-28.95,25.55"/>
  <path class="st0" d="M528,480.5c.33,5,.62,10,1.01,15,.56,7.09,1.76,13.87,5.85,20.09,2.29,3.48,2.9,8.02,4.68,11.89,6.45,14,15.06,26.13,31.49,28.83,8.49,1.4,17.3.84,25.97,1.2,1.17.05,2.33.32,3.5.48"/>
  <path class="st0" d="M954,416c-9.83,9-19.57,18.11-29.53,26.97-11.56,10.29-23.37,20.3-34.95,30.56-5.65,5-11.03,10.3-16.53,15.47"/>
  <path class="st0" d="M1083,280c-.17.67-.33,1.33-.41,1.65,1.37.82,3.41,1.31,3.79,2.39,3.05,8.59,6.49,17.15,8.25,26.03.64,3.21-2.27,7.85-4.77,10.81-6.07,7.19-12.76,13.89-19.45,20.53-1.42,1.41-3.85,2.03-5.93,2.53-4.29,1.03-8.62,1.99-13,2.46-2.84.3-4.06,1.57-5.04,4.08-5.41,13.89-12.58,26.89-20.46,39.52-2.89,4.63-5.86,9.21-8.39,13.19,2.83,6.21,5.36,11.76,7.9,17.32"/>
  <path class="st0" d="M887.5,192.5c-3,2.17-6.58,3.86-8.83,6.64-2.11,2.6-3.25,5.97-1.25,9.91,10.02,19.74,19.75,39.63,29.61,59.44.3.6.97,1.01,1.47,1.51"/>
  <path class="st0" d="M1112,559.5c3.17,1.5,6.4,2.87,9.49,4.53,6.37,3.42,7.22,6.44,2.98,11.94-7.83,10.16-17.37,18.17-28.85,24.24-5.91,3.12-10.09,1.07-12.1-5.21-1.06-3.31-2.01-6.66-3.01-10"/>
  <path class="st0" d="M952.5,238.5c25.33,14.67,50.67,29.33,76,44"/>
  <path class="st0" d="M973.5,186.5c15.17,12,30.56,23.73,45.42,36.09,10.24,8.51,19.74,17.91,29.58,26.91"/>
  <path class="st0" d="M405.5,432c8.67,1.83,17.5,3.11,25.97,5.61,19.07,5.65,33.72,17.66,45.53,33.39.86,1.15,1.67,2.33,2.5,3.5"/>
  <path class="st0" d="M1081.5,278.5c-7.64-7.49-15.89-14.24-25.54-18.92-6.7-3.25-13.96-4.87-22.55-5.74,12.46,24.76,23.4,49.09,38.4,71.33,8.66-2.09,14.11-7.99,17.38-15.31,1.34-3.01-.39-7.6-1.27-11.35-1.2-5.07-2.92-10.02-4.42-15.02"/>
  <path class="st0" d="M934.5,437.5c-17,15.33-34.06,30.6-50.96,46.04-5.56,5.08-10.67,10.66-16.07,15.93-.93.91-2.3,1.37-3.47,2.03"/>
  <path class="st0" d="M1000,487.5c-8.3,10.79-13.16,22.91-14.54,36.5-.94,9.21-.24,18.2,2.56,27,1.47,4.62,3.62,6,7.95,4.42,4.68-1.7,9.11-4.07,12.58-5.65-.73-7.7-1.39-14.73-2.05-21.76"/>
  <path class="st0" d="M349,548.5c5.54,9.65,12.39,17.93,21.94,24.09,14.93,9.62,30.78,12.28,47.51,6.77,10.69-3.52,20.1-9.6,27.06-18.85,1.42-1.89,2.99-3.68,4.49-5.51"/>
  <path class="st0" d="M1072,474.5c23.74,5.67,41.43,22.32,45.58,46.49,5.09,29.63-12.14,55.48-38.59,63.47-20.57,6.21-38.56.79-54.49-12.96-6.83-5.89-11.46-13.32-15-21.5"/>
  <path class="st0" d="M940.5,332.5c6.83,15.67,13.8,31.28,20.43,47.03,2.3,5.47,3.7,11.32,5.61,16.96.42,1.25,1.3,2.35,1.96,3.51"/>
  <path class="st0" d="M359.5,269c-11.17,4.67-23.15,7.38-34.69,13.96,4.03,5.24,7.86,9.72,11.13,14.58,4.85,7.21,12.04,10.86,19.52,14.54,19.45,9.59,38.71,19.57,58.02,29.45,1.13.58,2.02,1.63,3.02,2.47"/>
  <path class="st0" d="M1141.5,435.5c4.33,4.83,8.82,9.54,12.97,14.53,9.44,11.36,17.26,23.67,21.52,37.98,1.23,4.15,2.34,8.33,3.51,12.5"/>
  <path class="st0" d="M930.5,85.5c.75,9.89,5.82,17.71,12,25,7.34,8.66,14.84,17.19,21.91,26.07,2.71,3.4,4.49,7.56,6.53,11.46.41.79.06,1.97.06,2.97"/>
  <path class="st0" d="M932,61.5c-1.67,5.83-4.46,11.61-4.76,17.51-.62,11.92,3.91,22.46,11.77,31.48,2.95,3.38,6.14,6.56,8.93,10.06,1.36,1.71,2.06,3.95,3.06,5.95"/>
  <path class="st0" d="M310.5,261.5c-4-.17-8-.38-12-.49-3.95-.11-7.37.85-9.12,5.27.32.93.48,2.24,1.15,3.19,11.81,16.86,25.35,32.13,41.5,44.98,1.43,1.14,3.28,1.75,4.97,2.53,12.16,5.68,24.33,11.33,36.5,17.01,3.51,1.64,7.04,3.25,10.48,5.04,1,.52,1.69,1.62,2.53,2.45"/>
  <path class="st0" d="M439.5,399c.13,1.5.26,3,.39,4.51,15.78,13.52,29.95,28.32,38.53,47.52,3.12,6.97,5.41,14.3,8.07,21.47"/>
  <path class="st0" d="M592,652.5c1.23,6.54-3.23,9.33-8.04,11.4-3.45,1.49-7.29,4.04-11.43.02,4.66-4.11,2.18-8.15,1.5-13-.98-6.93-2.81-13.6-4.08-20.42-1.19-6.39-2.81-12.71-4.5-20.17-3.32.94-6.92,1.06-9.35,2.8-6.55,4.73-14.29,5-21.62,6.81-2.59.64-5.31.83-7.99,1.02-2.31.16-4.64.03-6.98-.21-9.2,2.93-13.46,9.42-10.33,16.15,2.65-2.2,5.22-4.32,7.16-5.93,11.86-2.42,22.95-5.05,34.17-6.82,5.53-.87,11.31-.15,16.98-.15"/>
  <path class="st0" d="M651,556c-9.17,5.33-18.23,10.85-27.53,15.95-12.04,6.61-24.89,8.33-38.5,6.19-5.37-.85-10.99-.14-17.35-.14.57,2.27.97,3.89,1.38,5.5"/>
  <path class="st0" d="M566.5,420c-10.33-6-20.42-12.47-31.05-17.9-19.65-10.03-39.48-19.73-59.5-29-12.66-5.87-24.94-12.45-37.45-18.61-6.69-3.29-13.01-8.05-20.07-9.69-12.95-3-26.16-7.12-39.51.05-6.87,3.69-14.62,5.74-21.91,8.67-7,2.82-11.17,8.77-15.5,14.48-11.86,15.65-23.67,31.33-35.52,46.99-.78,1.04-1.66,2-2.49,3"/>
  <path class="st0" d="M955.5,151.5c-11.71,8.61-25.41,13.18-38.5,19.01-7.02,3.13-14,6.34-21.01,9.47-.76.34-1.66.36-2.49.52"/>
  <path class="st0" d="M492.5,471c-6.99,2.38-13.97,4.76-21.72,7.39-9.12-16.89-23.79-27.08-41.79-32.88-7.14-2.3-14.42-3.88-21.72-4.04-.5,2.54-.89,4.53-1.28,6.52"/>
  <path class="st0" d="M1027.5,474.5c7.67,16.67,15.29,33.35,23.03,49.99,1.98,4.25,4.33,8.33,6.44,12.53.27.53.04,1.32.04,1.98"/>
  <path class="st0" d="M579,592c2.33,9.67,4.7,19.32,6.98,29,1.09,4.64,1.89,9.36,3.08,13.98.41,1.61,1.37,3.21,2.47,4.48,3.55,4.08,3.56,5.07-.54,9.54"/>
  <path class="st0" d="M966.5,280c5.5,6.5,10.92,13.07,16.52,19.49,10.94,12.55,21.98,25.01,32.98,37.51"/>
  <path class="st0" d="M362.5,457.5c.97,2.79,1.59,5.68,5.49,6.06,4.51.44,6.57-2.35,9.04-6.13-1.59-2.2-3.26-4.53-5.44-7.56-2.73,1.59-5.97,2.36-6.85,4.24-1.45,3.1.93,5.69,4.38,7.73,1.57-1.47,3.28-3.08,4.92-4.61-3.53-4.78-4.19-4.83-7.04-1.23"/>
  <path class="st0" d="M1129.5,424.5c-16.46-11.96-33.59-22.76-52.5-30.5-1.17-.48-2.33-1-3.5-1.5"/>
  <path class="st0" d="M294.5,430.5c-4.5,5.33-9.23,10.49-13.45,16.04-8.16,10.71-15.97,21.69-24.13,32.4-1.46,1.91-3.92,3.06-5.92,4.56"/>
  <path class="st0" d="M959.5,276.5c4.67,2.17,9.73,3.75,13.93,6.61,14.52,9.89,28.77,20.19,43.05,30.43,2.38,1.71,4.41,3.91,7.12,6.34-1.99,6.42-4.13,12.99-6.06,19.63-1.27,4.4-.53,8.65,1.98,12.48,4.94,7.54,9.98,15.01,14.98,22.51"/>
  <path class="st0" d="M297,383c6-3.5,12.06-6.91,17.99-10.52,6.9-4.21,14.08-7.7,21.64-9.67,3.91,2.65,1.1,4.96-.2,6.63-12.51,16.12-25.21,32.1-37.91,48.19.15,1.2.97,3.07.38,3.78-4.5,5.45-3.36,12.6-5.91,18.58-1.65,3.88-1.42,7.37.95,11.04,4.04,6.27,5.44,14.07,11.07,19.45,1.45,1.39,2.99,2.67,4.49,4.01"/>
  <path class="st0" d="M871,491c-7.13,5.39-7.98,13.92-10.4,21.53-2.72,8.59-7.28,13.65-15.61,13.81-6.65.13-13.33-1.22-20-1.83-4.49-.41-9-.68-13.5-1.01"/>
  <path class="st0" d="M377.5,263c-6.45-8.81-15.51-13.84-27.93-18.03-6.89,1.38-16.09,2.78-25.04,5.16-7.67,2.04-15.06,5.14-22.5,7.95-.89.33-1.36,1.75-2.03,2.67"/>
  <path class="st0" d="M334,422c-8.5,15.5-16.98,31.01-25.55,46.47-.59,1.06-1.95,1.7-2.95,2.53"/>
  <path class="st0" d="M367.5,228.5c-10.67-1.67-21.32-3.44-32.01-4.94-3.57-.5-6.75.34-7.13,5.37,2.49,1.63,5.09,3.32,8.48,5.54.6-2.14,1.13-4.05,1.66-5.97"/>
  <path class="st0" d="M370.5,466.5c16.33,14.33,32.67,28.67,49,43"/>
  <path class="st0" d="M336.5,234.5c4.11,5.65,6.89,6.55,12.87,3.83,8.84,2.5,18,5.03,27.12,7.69,6.53,1.9,13.26,3.41,19.44,6.14,6.5,2.87,9.29,9.06,10.57,15.84"/>
  <path class="st0" d="M966.5,198.5c12.17,9.67,24.35,19.31,36.49,29.01,3.23,2.58,6.34,5.32,9.51,7.99"/>
  <path class="st0" d="M1017.5,405.5c-1.17,1-2.56,1.83-3.46,3.03-5.24,6.94-10.32,14.01-15.55,20.96-14.3,19.02-28.69,37.98-42.96,57.03-2.88,3.84-5.83,7.76-7.88,12.05-1.58,3.31-2.09,7.22-2.59,10.94-.88,6.64-1.39,13.33-2.06,19.99"/>
  <path class="st0" d="M462,277c-12.33-7.67-24.62-15.41-37.04-22.94-2.59-1.57-5.63-2.39-8.46-3.56"/>
  <path class="st0" d="M957.5,275.5c-13.67-.67-27.33-1.36-41-1.97-1.49-.07-3,.3-4.5.47"/>
  <path class="st0" d="M463,469c.13,5.21.9,10.16,4.99,14.01,12.54,11.81,22.96,25.44,33.68,38.85,2.34,2.93,6.83,4.14,10.33,6.13,1.49.85,3,1.67,4.5,2.5"/>
  <path class="st0" d="M996,437.5c1.88,7.78,3.76,15.57,5.6,23.18-6.11,2.62-11.75,4.68-17.07,7.38-9.33,4.75-17.04,11.73-24.57,18.89-1.37,1.31-3.29,2.04-4.96,3.04"/>
  <path class="st0" d="M336,428c-8.33,15-16.67,30-25,45"/>
  <path class="st0" d="M523.5,477.5c.33-.83.66-1.67,1.51-3.81-16.95,3.89-32.21,10.17-47.51,16.31"/>
  <path class="st0" d="M425,578c1.34,5.37,2.68,10.74,3.94,15.78,2.02.96,3.51,1.67,4.67,2.22,6.22,0,20.49-10.7,22.44-16.64-3.08-3.36-8.93-.4-11.55-4.86"/>
  <path class="st0" d="M1176.5,568.5c-2.17,5.67-3.78,11.62-6.6,16.95-10.23,19.33-24.87,34.81-42.93,47.02-10.84,7.33-22.66,12.59-35.46,15.59-1.1.26-2.01,1.28-3.01,1.95"/>
  <path class="st0" d="M527.5,462c-.69-.06-1.38-.12-2.07-.18,6.72.26,9.07,5.29,5.55,11.17-3.92,6.55-8.06,12.96-11.95,19.53-2.07,3.49-3.46,7.26-3.04,11.48.65,6.5-.79,12.98,1.8,19.58,3.14,8,7.11,14.8,14.13,20.03,5.08,3.78,9.23,8.78,14.14,12.82,3.52,2.89,7.6,5.08,11.44,7.58"/>
  <path class="st0" d="M865,172c-3,.67-5.98,1.46-9.01,1.96-2.99.49-6.03.68-8.92.99-.88,6.65,2.74,14.89,8.93,21.05,2.17-.17,4.33-.33,6.5-.5"/>
  <path class="st0" d="M1038.5,547h-3.47c-2.22,8.26,1.86,12.92,7.98,16.49,7.59,4.43,15.57,7.05,24.49,5.01"/>
  <path class="st0" d="M315.5,439c1.38-2.3,2.76-4.6,4.13-6.89-4.31-3.68-15.48-5.44-19.85-2.65,5.42,3.07,10.53,5.96,16.19,9.16-2,2.88-3.5,5.04-5.68,8.18-4.29-3.1-8.11-5.86-12.16-8.78-1.22,3.95,1.65,6.03,3.82,8.53,1.16,1.33,4.35,2.3,1.54,4.96"/>
  <path class="st0" d="M809.5,522.5c-7-1-13.98-2.13-21-2.96-6.98-.83-14-1.37-21-2.04"/>
  <path class="st0" d="M954.5,534.5c-2.67,1.17-5.49,2.07-7.96,3.57-2.64,1.61-3.61,3.83-3.21,7.45,1.6,14.53,6.13,27.97,12.57,41.03,7.62,15.45,18.2,28.39,31.65,38.88,12.86,10.02,26.64,18.58,42.93,22.11,1.22.26,2.34.97,3.51,1.47"/>
  <path class="st0" d="M886,309.5c11,9.33,21.99,18.68,33.01,27.99,2.62,2.22,5.33,4.34,7.99,6.51"/>
  <path class="st0" d="M670.5,511.5c13.67,9,27.33,18,41,27"/>
  <path class="st0" d="M1033.5,383.5c12.33,13.33,24.67,26.67,37,40"/>
  <path class="st0" d="M513.5,445c-4.5-1.33-9.24-2.16-13.45-4.11-8.99-4.16-17.72-8.89-26.55-13.39"/>
  <path class="st0" d="M607,464c-3.5-1.5-6.94-3.16-10.54-4.39-.95-.32-2.36.7-4.29,1.36-8.12-8.54-16.92-17.27-25.03-26.59-3.14-3.6-4.72-8.56-7.9-14.57-4.66-.48-11.2-1.13-17.74-1.81-8.49-.89-16.91-1.92-25.03-4.92-7.38-2.73-13.62-6.98-18.95-12.6-8.76-9.24-17.36-18.64-26.03-27.98"/>
  <path class="st0" d="M817.5,153c5.55.75,8.92-.57,10.93-5.03,2.01-4.45,1.75-8.93-1.43-12.98-2.51-3.21-6.53-4.32-11.01-3.01-.97.28-2,.35-3,.52"/>
  <path class="st0" d="M1000.5,462.5c1.75,8.17,2.34,16.31.08,24.52-.37,1.35.55,3.01.37,4.47-.73,6.12-1.37,12.36-7.95,15.5-.81.38-1.65.69-3.21,1.33,8.12,7.31,17.14,9.52,25.33,14.41-1.06,2.13-2.09,4.2-3.12,6.26"/>
  <path class="st0" d="M1014.25,407c-6.93-3.67-13.7-7.5-21.18-10.19-8.42-3.02-15.39-1.58-22.07,3.69"/>
  <path class="st0" d="M485,418.5c8.83,7.67,17.56,15.46,26.56,22.93,2.96,2.45,6.44,4.47,9.98,5.97,4.06,1.71,7.28,3.95,8.96,8.1"/>
  <path class="st0" d="M562,422c2-.66,4-1.33,6.12-2.03,10.58,6.31,21.26,12.63,31.86,19.07,1.69,1.03,3.03,2.62,4.53,3.96"/>
  <path class="st0" d="M339.5,251.5c-5,1.83-10.05,3.54-14.98,5.54-3.59,1.45-7.08,3.17-10.5,4.99-3.96,2.11-8.11,2.83-12.52,2.47"/>
  <path class="st0" d="M799,144c-4.92-4.15-11.58-3.32-16,2-3.34,4.01-2.56,9.99,2.03,12.95,4.06,2.61,8,.42,11.98-.89,5.26-1.72,10.65-3.06,15.98-4.56"/>
  <path class="st0" d="M566,421.5c12.17,7.5,24.33,15.01,36.53,22.46.29.18.97-.29,1.47-.46"/>
  <path class="st0" d="M1032.5,439.5c.17,1.17.06,2.46.54,3.48,4.93,10.37,9.93,20.7,14.99,31.01.65,1.32.97,4.12,3.48,1.52.66.99,1.32,1.99,1.99,2.99"/>
  <path class="st0" d="M399.5,446.5c12.05,6.22,24.11,12.44,35.29,18.21,5.79-1,8.66-6.51,14.22-4.74,5.3,1.68,8.31,5.23,9.49,10.53"/>
  <path class="st0" d="M447.5,400c5,2,10.13,3.73,14.97,6.06,7.45,3.59,14.7,7.6,22.03,11.44"/>
  <path class="st0" d="M566,381c-7.83,3.17-15.71,6.23-23.48,9.54-4.59,1.95-9.02,4.29-13.52,6.46"/>
  <path class="st0" d="M499.5,403.5c-1.33-.17-2.69-.24-4-.52-5.02-1.07-10.03-2.21-14.94-3.3-2.54-7.7-9.82-9.52-15.83-4.38-8.37-1.46-16.58-2.75-24.71-4.39-1.96-.39-3.62-2.07-5.53-2.88-5.32-2.24-9.81-.88-13.49,3.47"/>
  <path class="st0" d="M408,447c8.85-.14,17.54.64,25.49,5.01,5.08,2.79,5.34,5.59,1.01,9.49"/>
  <path class="st0" d="M799,378c-1.94,3.84.94,5.71,3.53,6.37,9.58,2.45,19.3,3.65,28.97.13"/>
  <path class="st0" d="M877.5,193.5c-1.67,2.67-2.91,5.76-5.08,7.92-6.11,6.05-5.8,13.63-5.31,21.08.55,8.36,1.53,16.74,3,24.99,1.55,8.75,3.96,17.34,5.86,26.03.57,2.61.96,5.33.9,7.99-.02,1.02-1.53,2-2.37,3"/>
  <path class="st0" d="M938.5,123.5c-3.06.07-6.47-.68-8.47,2.52-2.58,4.13-5.61,8.15-5.02,13.52-7.66,8.98-15.36,17.95-22.98,26.99-.78.93-1.01,2.31-1.54,3.46-.47,1.02-.91,2.82-1.51,2.88-7.24.77-9,8.68-14.95,11.22-5.19,2.22-10.26,4.91-14.98,8-4.71,3.08-8.91,6.93-13.14,10.29,2.72,9.92,3.47,19.22,9.61,26.6.29.34.97.36,1.47.52"/>
  <path class="st0" d="M989.5,167.5c12,11.67,24,23.33,36,35"/>
  <path class="st0" d="M577.5,466.5c-5.47,1.21-8.41,3.09-12.99,8.59,8.21,1.85,16.11,3.6,23.99,5.42,4.02.93,8,1.99,12,2.99"/>
  <path class="st0" d="M362.5,337.5c-6.49.33-12.36,1.71-17.08,6.93-5.68,6.29-11.92,12.07-17.92,18.07"/>
  <path class="st0" d="M561.5,403.5c11.33,7.67,22.67,15.33,34,23"/>
  <path class="st0" d="M621,562.5c-10.01,6.32-24.14,7.96-30.16,5.43.39-1.14.78-2.28,1.16-3.43"/>
  <path class="st0" d="M908.5,427.5c-11.33,6.67-22.67,13.33-34,20"/>
  <path class="st0" d="M630,370c-8,3.5-15.88,7.32-24.06,10.33-2.94,1.08-6.6.17-9.94.17"/>
  <path class="st0" d="M880,326c2,2,4.01,4.01,6.84,6.83-6.12,5.89-11.69,11.32-17.35,16.65-2.72,2.55-5.36.37-7.98-.48"/>
  <path class="st0" d="M930.5,132.5c2.21,1.79,4.42,3.58,7.19,5.81-3.91,5.19-7,9.96-10.77,14.11-3.79,4.18-8.41,7.59-12.36,11.63-2.58,2.64-5.43,4.19-9.06,4.44"/>
  <path class="st0" d="M790.5,406.5c-11-3.67-22-7.33-33-11"/>
  <path class="st0" d="M711.5,292.5c9.67,11,19.33,22,29,33"/>
  <path class="st0" d="M565.5,426.5c6.63,11.13,17.38,17.98,27.01,25.99,1.28,1.07,2.66,2.01,3.99,3.01"/>
  <path class="st0" d="M842,128.5c-6.07-3.39-11.75-8.05-19.87-5.93-1.14,6.08-10.85,5.31-10.63,12.93"/>
  <path class="st0" d="M556,578c3,9.83,6.03,19.66,8.94,29.52.26.87-.28,1.98-.44,2.98"/>
  <path class="st0" d="M925.5,231.5c8.33,10.67,16.67,21.33,25,32"/>
  <path class="st0" d="M509.5,566.5c2.64,3.03,5.27,6.06,8.25,9.48-5.41,10.83-11.31,21.44-20.01,30.75-6.74,7.21-13.37,14.36-21.26,20.25-13.22,9.87-27.9,16.71-43.97,20.55-1.22.29-2.34.97-3.51,1.47"/>
  <path class="st0" d="M940.5,123.5c8.15,1.12,14.42,5.28,18.98,12.01,4.36,6.43,8.55,12.97,12.2,18.52-1.01,8.3-1.85,15.13-2.68,21.96"/>
  <path class="st0" d="M462,539.5c-2.73,5.47-5.47,10.94-8.25,16.5.86.58,1.56,1.45,2.25,1.44,11.67-.08,23.4-1.12,34.98-.18,10,.8,20.2.59,29.71,6.43,8.41,5.16,18.45,7.7,27.83,11.26,1.51.57,3.31.39,4.98.56"/>
  <path class="st0" d="M866,250c.17,3-.15,6.13.6,8.97,1.48,5.59,3.68,10.99,5.33,16.55.56,1.88.4,3.98.56,5.98"/>
  <path class="st0" d="M874.5,158.5c1.67,2,3.36,3.98,4.99,6,2.54,3.15,5.05,6.32,7.2,9.02-1.92,7.88-6.64,9.91-13.95,8.71-6.4-6.72-8.96-16.38-13.74-24.74"/>
  <path class="st0" d="M530,448.5c-6.59-6.64-10.76-14.29-9.46-23.16-11.48-2.72-22.26-5.28-33.04-7.84"/>
  <path class="st0" d="M437,465c1.19,3.57,3.72,5.91,7,7.49,5.98,2.87,11.97,5.74,18.02,8.45.97.44,2.31.06,3.47.06"/>
  <path class="st0" d="M838.5,516.5c-3.33-6.33-6.59-12.71-10.03-18.99-2.25-4.12-5.18-7.63-9.97-9.01"/>
  <path class="st0" d="M1028.5,254.5c5,10,10,20,15,30"/>
  <path class="st0" d="M742.5,370.5c-9.17-2.83-18.33-5.67-27.5-8.49-.81-.25-1.66-.34-2.5-.51"/>
  <path class="st0" d="M334.5,317c-7.16,11.39-14.32,22.77-21.78,34.64-3.26-3.1-8.21-2.03-8.34-8.14h-20.59c.77-5.7,2.3-9.49,7.21-10.99,10.49-3.21,20.98-6.39,31.51-9.48,2.94-.86,5.99-1.36,8.99-2.03"/>
  <path class="st0" d="M1090.5,502.5c6.28,8.47,9.74,17.87,10.05,28.5.21,7.08-1,9.44-7.43,11.63-3.81-4.14-.25-8.45-.14-12.63.11-4.16.02-8.33.02-12.5"/>
  <path class="st0" d="M871,144c9.67,7.67,19.33,15.33,29,23"/>
  <path class="st0" d="M473,558c-1.63,6.13-5,11.11-9.83,15.15-6.52-.54-8.79-6.53-13.33-9.48,2-2,3.83-3.83,5.66-5.66"/>
  <path class="st0" d="M590,566c-5.33-.33-10.66-.82-16-.95-3.99-.09-8.01.52-12,.4-7.16-.22-10.18,4.61-7,11.55,4.17.33,8.33.67,12.5,1"/>
  <path class="st0" d="M389.5,523.5v12.41c4.94.56,9.47,1.13,14,1.57,1.82.18,3.96-.39,4,2.52"/>
  <path class="st0" d="M360,267.5c-9.24-3.44-18.58-5.96-28.5-3"/>
  <path class="st0" d="M360.5,268.5c4-1.17,8.22-1.86,11.95-3.6,6.6-3.09,12.81-.54,19.03.7,10.9,2.17,21.68,4.91,32.53,7.38.28.06.66-.3.99-.47"/>
  <path class="st0" d="M866,140c.06,2.13-.6,4.73,3,4.5,5.05-5.91,4.87-10.23-.65-12.05-.39-4.94-.78-9.97-1.18-15.11-8.34-.52-16.01-1.26-24.33,3.25.35,5.8.73,12.12,1.14,19.02,5.49,1.6,11.12,3.24,16.75,4.88.19-.35.37-.71.56-1.06.41,1.69.81,3.38,1.14,4.76-.69,2.27-1.31,4.29-1.93,6.31"/>
  <path class="st0" d="M624.5,514.5c-2.16-5.84-4.85-9.92-12.49-10.26-13.37-.58-26.68-2.77-40.02-4.17-.61-.06-1.33.93-1.99,1.43"/>
  <path class="st0" d="M1055.5,282.5c4.33,7.21,9.67,13.44,17.53,16.94,2.33,1.04,4.97,1.39,7.47,2.06"/>
  <path class="st0" d="M843.5,475c7.49,6.41,12.67,14.57,17.52,22.99.71,1.24,1.65,2.34,2.48,3.51"/>
  <path class="st0" d="M1019,345c5,8.17,9.97,16.35,15.05,24.47.46.73,1.62,1.03,2.45,1.53"/>
  <path class="st0" d="M926.5,282.5l15,27"/>
  <path class="st0" d="M739.5,512.5c-7.5-1.17-15-2.34-22.5-3.49-1.49-.23-3-.34-4.5-.51"/>
  <path class="st0" d="M310.5,475c9,5.17,17.98,10.37,27,15.49,18.82,10.69,37.67,21.33,56.49,32.01,7.86,4.46,15.67,8.99,23.5,13.49"/>
  <path class="st0" d="M1018,340c2.5,3,5.29,5.81,7.43,9.04,3.42,5.17,6.4,10.62,9.57,15.96"/>
  <path class="st0" d="M362.5,339.5c-9.95,5.13-17.09,13.47-24.5,21.5"/>
  <path class="st0" d="M380,515c-4.2,6.6-3.53,13.82-2.37,20.98.24,1.48,2.2,2.69,3.37,4.02"/>
  <path class="st0" d="M675.5,492c-7.33-1.33-14.66-2.71-22-3.98-2.81-.48-5.66-.69-8.5-1.02"/>
  <path class="st0" d="M1025,395.5c.5,7.83,1.02,15.67,1.45,23.5.03.48-.62,1-.95,1.5"/>
  <path class="st0" d="M1050,477c3.5,7.67,7.01,15.33,10.5,23,1.6,3.53,3.15,7.08,4.64,10.42,10.71,2.37,11.91,3.78,17.74,20.21-1.6,10.59-8.26,15.79-17.87,17.86-8.2,1.77-17.02-4.82-17.93-13.49-.17-1.61.59-3.33.93-4.99"/>
  <path class="st0" d="M1003,427.5c6.53,5.55,7.7,14.16,11.93,21.04,2.21,3.6,3.65,7.67,5.59,11.45,2.44,4.74,4.45,9.52,2.94,15.17-1.42,1.06-2.94,2.2-4.46,3.34"/>
  <path class="st0" d="M1008,476.5c-.83,3.83-1.96,7.63-2.38,11.51-.22,2.01.8,4.15,1.51,7.36,2.52-2.52,3.95-3.95,5.37-5.38"/>
  <path class="st0" d="M1082,555.5c5.53-6.64,7.05-7.37,14.28-6.39-4.99,8.54-11.41,14.65-21.4,17.67-1.36-1.73-2.83-3.59-4.66-5.91,3.96-1.85,7.33-3.43,10.58-4.96,2.37.74,4.53,1.41,6.7,2.09"/>
  <path class="st0" d="M396.5,549c-5.89-.76-8.9-6.72-14.5-8-1.35,7.2,1.63,11.15,11.03,13.39,4.02.96,8.36,1.34,12.46.94,3.78-.37,7.58-1.73,8.14-6.82.18-1.59,1.81-3.06,2.89-4.5,1.27-1.71,2.65-3.34,3.99-5.01"/>
  <path class="st0" d="M1066.5,511.5c2,5.5,3.99,11,6.01,16.5.96,2.62,1.98,5.22,3.36,8.83-3.42,1.81-6.53,3.45-10,5.29-1.59-1.32-2.98-2.47-4.36-3.62"/>
  <path class="st0" d="M542.5,445.5c-3.63,1.12-5.28,4.53-3.95,8.99,1.11,3.73,2.63,7.35,4.13,11.47-1.56,9.17-10.17,14.64-13.68,23.04"/>
  <path class="st0" d="M1030.5,306.5l24,21"/>
  <path class="st0" d="M1026,321.5c3.5,3.17,7.02,6.31,10.49,9.51,3.29,3.03,6.54,6.12,9.89,9.26-3.21,8.46-6.3,16.6-9.38,24.73"/>
  <path class="st0" d="M526.5,364.5h-24"/>
  <path class="st0" d="M740.5,389.5c-8-2.67-16-5.33-24-8"/>
  <path class="st0" d="M1041,525c-5.94,5.87-1.08,17.02,3.05,22.46,3.84,5.07,9.18,7.94,15.45,9.04"/>
  <path class="st0" d="M1017.5,499.5c2.83,2,6.13,3.58,8.39,6.1,3.48,3.88,2.88,7.49-.9,10.9-1.3,1.17-2.66,2.29-4.67,4.01.17,0-.83,0-1.83,0"/>
  <path class="st0" d="M619.5,370.5c-5.67,2.33-11.34,4.66-17,7-4.52,1.87-9.04,3.73-14,1.5"/>
  <path class="st0" d="M642.5,537.5c-7.84,8.23-17.04,14.62-27,20"/>
  <path class="st0" d="M597.5,466c.33-3,.43-6.05,1.06-8.99.73-3.43,1.93-6.77,3.23-11.18,4.29,3.82,7.93,7.05,11.71,10.41v12.11c-.72.3-2.36.97-4,1.64"/>
  <path class="st0" d="M1026.5,498.5c6.35,6.65,6.71,11.84,1.5,21.5.21,4.1.93,7.84,6.66,8.59,1.29-1.51,2.81-3.3,4.34-5.09"/>
  <path class="st0" d="M439.5,336.5c-7.67-3.67-15.33-7.33-23-11"/>
  <path class="st0" d="M385,533.5c.37,2.02.74,4.05,1.17,6.38,10.65.72,20.99,1.42,31.33,2.12"/>
  <path class="st0" d="M1086.5,544.5c-4,3.17-7.78,6.69-12.08,9.36-2.54,1.58-5.92,1.8-8.92,2.64"/>
  <path class="st0" d="M525.5,451c-1.5.5-2.98,1.1-4.5,1.48-4.67,1.17-9.63,1.78-10.56,8.01-.26,1.73-1.27,3.34-1.94,5.01"/>
  <path class="st0" d="M858.5,123.5v15.04c3.54-2.18,6.27-3.86,9-5.54"/>
  <path class="st0" d="M411.5,248.5c-7.33-2-14.67-4-22-6"/>
  <path class="st0" d="M504.5,525c6.03,7.76,11.25,16.27,20.58,21.69-.19,1.85-.38,3.83-.58,5.81"/>
  <path class="st0" d="M1062.5,398.5c7.33,6.67,14.67,13.33,22,20"/>
  <path class="st0" d="M1084,510c3.88,4.63,5.47,10.05,5.5,16,.01,2.68-.43,5.37,4.03,4.69,1.48-.22,3.3,1.81,4.97,2.81"/>
  <path class="st0" d="M522.5,479.5c-3.83,6.67-7.68,13.33-11.48,20.01-.33.58-.35,1.32-.52,1.99"/>
  <path class="st0" d="M1068.5,537.5c3.5-4.2,2.74-6.35-3.67-10.1-3.92,1.31-4.59,4.44-4.33,8.1"/>
  <path class="st0" d="M868.5,145c5.91,8.23,14.43,13.6,22.02,19.97,3.38,2.83,6.65,5.58,6.47,10.82-.89.96-1.94,2.08-2.99,3.2"/>
  <path class="st0" d="M890.5,554.5c7,4.33,14,8.67,21,13"/>
  <path class="st0" d="M493.5,470.5c4.48-6.43,4.32-7.59-1.5-11-4.96,3.92-4.86,5.83.5,9.5"/>
  <path class="st0" d="M562.5,429.5c-9.66,3.68-19.32,7.36-29.46,11.22-1.54,10.02,2.25,19.77,2.96,29.78"/>
  <path class="st0" d="M495.5,528.5h-21"/>
  <path class="st0" d="M823.5,160.5c3.18,12.03,9.04,13.53,16,12"/>
  <path class="st0" d="M396.5,466.5c6.67,4,13.33,8,20,12"/>
  <path class="st0" d="M746.5,532.5c-6.67-3.33-13.33-6.67-20-10"/>
  <path class="st0" d="M735.5,471.5c-5.17-.83-10.33-1.68-15.5-2.49-1.49-.23-3-.34-4.5-.51"/>
  <path class="st0" d="M495,409.5c.33-.33.82-1.02.98-.95,7.75,3.3,15.48,6.66,24.03,10.37-3.52,8.25.88,17.1-3.51,25.08"/>
  <path class="st0" d="M581.5,459c-.95-1.33-1.9-2.67-2.84-3.97-5.42,3.85-5.47,4.64-.8,8.79,1.37-1.43,2.75-2.88,4.14-4.32"/>
  <path class="st0" d="M595.5,354.5c-6.67-2.67-13.33-5.33-20-8"/>
  <path class="st0" d="M583,510.5c4.67,1,9.29,2.32,14.01,2.93,9.47,1.23,18.99,2.07,28.49,3.07"/>
  <path class="st0" d="M373,525.5c1.58-1.34,2.39-2.69.52-4.52-2.12-2.06-4.01-.91-5.47.57-2.39,2.43-2.95,5.61-2.55,8.95"/>
  <path class="st0" d="M590,471.5c5.33,3.67,10.64,7.38,16.03,10.96.96.64,2.3.71,3.47,1.04"/>
  <path class="st0" d="M483.5,357.5c-6.33-3-12.67-6-19-9"/>
  <path class="st0" d="M543.5,351.5c4.5,4.5,8.92,9.08,13.54,13.45,1.55,1.47,3.62,2.38,5.46,3.55"/>
  <path class="st0" d="M397.5,402.5c2.57-2.37,5.44-3.09,9.01-2.61,3.77.5,7.65.18,11.48.1,6.11-.14,11.84,1.45,17.52,3.46,1.19.42,2.65.06,3.98.06"/>
  <path class="st0" d="M646.5,546.5c-5.33,3.5-10.67,7-16,10.51-.69.46-1.34.99-2,1.49"/>
  <path class="st0" d="M1057.5,309.5c3.67,5.67,7.33,11.33,11.29,17.44-5.9,4.5-11.67,9.29-17.86,13.44-2.75,1.84-3.39,3.77-2.92,6.62"/>
  <path class="st0" d="M831.5,390.5c-6,.33-12,.67-18,1"/>
  <path class="st0" d="M340.5,326.5c-6,5.33-12,10.67-18,16"/>
  <path class="st0" d="M803.5,484.5l-18-3"/>
  <path class="st0" d="M441.5,466.5c5.68,3.27,11.37,6.54,18,10.35v-4.35"/>
  <path class="st0" d="M535,531c-2.44.51-4.03,1.99-3.39,4.47.39,1.49,1.78,3.68,2.91,3.8,1.68.18,3.54-1.18,5.32-1.89.14-.54.27-1.09.41-1.63-1.58-1.58-3.17-3.17-4.75-4.75"/>
  <path class="st0" d="M1066.5,261.5c-5.67-3-11.33-6-17-9"/>
  <path class="st0" d="M947.5,184.5c5.67,4.33,11.33,8.67,17,13"/>
  <path class="st0" d="M531.5,522.5c-1.81,5.55-4.1,11-4,17"/>
  <path class="st0" d="M436.5,291.5c-5.67-1.67-11.33-3.33-17-5"/>
  <path class="st0" d="M385.5,310.5c-5.67-2.67-11.33-5.33-17-8"/>
  <path class="st0" d="M406.5,320.5c-5.67-2.67-11.33-5.33-17-8"/>
  <path class="st0" d="M430.5,486.5c5.67,3.33,11.33,6.67,17,10"/>
  <path class="st0" d="M816.5,438.5c-5.67-2.67-11.33-5.33-17-8"/>
  <path class="st0" d="M542.5,504.5c.83,2.5,1.68,4.99,2.5,7.5,1.51,4.66,3.06,9.32,4.49,14,1.17,3.83,3.51,6.27,7.51,7,.17-.5.34-1,.51-1.5"/>
  <path class="st0" d="M423.5,358c-7.17-1.67-14.34-3.29-21.49-5.05-1.06-.26-1.96-1.17-2.94-1.78.18-.51.36-1.02.54-1.54,2.3.29,4.6.83,6.89.79,2.3-.04,4.6-.66,7.04-1.05-.17,2.99.54,4.08,2.96,2.62"/>
  <path class="st0" d="M998,434c1.17,5.5,2.33,11,3.5,16.5"/>
  <path class="st0" d="M1065.5,535.5q1.96-2.28.22-5.52c-1.33,1.66-2.52,3.14-4.3,5.35,2.09,1.3,3.58,2.23,5.08,3.17"/>
  <path class="st0" d="M394,523c-3.81,6.74-1.28,11.21,6.5,11.5"/>
  <path class="st0" d="M706.5,520.5c5.33,5,10.67,10,16,15"/>
  <path class="st0" d="M909.5,248.5c2.67,5.33,5.33,10.67,8,16"/>
  <path class="st0" d="M467,540.5c-2.5,5.33-5,10.67-7.5,16"/>
  <path class="st0" d="M537.5,279.5l16,8"/>
  <path class="st0" d="M389.5,407.5c1.06-2.06,2.12-4.11,3.47-6.72-1.2-.24-2.65-.93-3.96-.71-15.73,2.55-31,6.49-44.5,15.46-.27.18-.35.65-.51.98"/>
  <path class="st0" d="M627.5,558.5c-1.62.92-3.24,1.84-4.97,2.82-5.37-3.18-10.9-4.94-17.03-3.32-1.17.31-3.12.37-3.37,1.05-1.16,3.16-4.16,1.91-6.13,2.95"/>
  <path class="st0" d="M282.5,422.5c-3.67,5.33-7.33,10.67-11,16"/>
  <path class="st0" d="M937,348c-1.28.43-2.57.86-3.8,1.27,1.11,4.96,3.25,5.21,6.84,2.45-.89-1.13-1.72-2.17-2.54-3.22"/>
  <path class="st0" d="M527,541v4.31c8.8,3.29,10.43,5.43,10,12.69"/>
  <path class="st0" d="M862.5,174c.48,3.09-.47,5.65-3.01,7.49-2.62,1.9-5.32,3.68-7.99,5.51"/>
  <path class="st0" d="M793.5,158.5c2.29-7.74,1.52-9.98-5-14.5"/>
  <path class="st0" d="M347,509c-1.33,0-2.7.19-3.99-.06-1.06-.21-1.97-1.08-3.03-1.4-.76-.23-1.65-.05-2.49-.05-.67,1.5-1.33,3-2.49,5.62,3.32,1.46,6.66,2.92,9.99,4.38"/>
  <path class="st0" d="M997,167.5v-6.54c-5.35,2.89-5.28,3.9-.5,7.04"/>
  <path class="st0" d="M382,437.5c4.83,2.17,9.67,4.33,14.5,6.5"/>
  <path class="st0" d="M511.5,316.5c-5-1.67-10-3.33-15-5"/>
  <path class="st0" d="M559.5,439.5c-5,1.67-10,3.33-15,5"/>
  <path class="st0" d="M568,439c-1.26,1.24-2.52,2.47-4.11,4.03,1.27,1.82,2.29,3.3,3.32,4.77.67-.28,1.35-.56,2.02-.84.92-1.49,1.85-2.97,2.77-4.46"/>
  <path class="st0" d="M1023,476.5c4.84,2.99,4.44,8.79,6.97,13.02.53.88.47,2.15,1.07,2.95,3.12,4.18,5.58,8.37,5.17,14.04-.15,2.07,2.87,4.22,3.16,6.5,1.14,9.13,7.9,14.52,13.1,21.01,2.68,3.35,5.13,6.91,7.47,10.51.71,1.09.72,2.63,1.06,3.96"/>
  <path class="st0" d="M837.5,152.5c-3.57-2.23-3.59-5.99-3.98-9.5-1.15-10.36-4.06-13.53-14.02-15"/>
  <path class="st0" d="M456.5,344.5c-5-2.33-10-4.67-15-7"/>
  <path class="st0" d="M434,396.5c-.59-1.37-1.18-2.73-1.7-3.94-4.07-.83-7.1,6.52-11.3.94"/>
  <path class="st0" d="M1036,508c-3.38,8.81-1.45,13.79,6,15.5"/>
  <path class="st0" d="M615.5,280.5h-15"/>
  <path class="st0" d="M304,329c.33,4.83.67,9.67,1,14.5"/>
  <path class="st0" d="M1180,501.5c1,6.67,2.32,13.31,2.9,20.01.48,5.62.1,11.32.1,16.99,0,6.84-1.71,8.97-8.5,10.49-.99.22-2,.34-3,.51"/>
  <path class="st0" d="M596.5,497.5c-5.67-.33-11.33-.67-17-1"/>
  <path class="st0" d="M843,161c2.42,2.74,5.82,2.56,9,2.99,2.71.36,5.44.61,8.16.91,0,.62,0,1.23,0,1.85-3.55.58-7.1,1.17-10.65,1.75"/>
  <path class="st0" d="M998.5,450c-4.67,4.17-9.33,8.33-14,12.5"/>
  <path class="st0" d="M528.5,427.5q-3.98-.89-3.5,4h5.5c.28-.35.57-.7.85-1.06-.78-.98-1.57-1.96-2.35-2.94"/>
  <path class="st0" d="M844,122c6.38.57,12.76,1.51,19.02-.96,1.21-.48,2.65-.38,3.98-.54"/>
  <path class="st0" d="M811.5,390.5c-4.67-.67-9.33-1.33-14-2"/>
  <path class="st0" d="M572,539c14.88,3.82,29.68,1.11,44.51.36.15-.52.3-1.04.45-1.56-1.15-.77-2.23-2.01-3.48-2.22-5.13-.86-10.32-1.42-15.49-2.08"/>
  <path class="st0" d="M386.5,519c-.67,4.33-1.33,8.67-2,13-.02.16.06.4-.02.48-.08.08-.32.02-.48.02"/>
  <path class="st0" d="M552.5,389.5c-5.33,2-10.67,4-16,6"/>
  <path class="st0" d="M751.5,474.5c-4.67-.67-9.33-1.33-14-2"/>
  <path class="st0" d="M442,566.5c6.89,1.24,10.98,6.42,15.5,11"/>
  <path class="st0" d="M401.5,418.5c-4.48-.45-8.96-.9-13.44-1.34l-.5,1.64c1.48.74,2.97,2.12,4.44,2.09,6.84-.12,13.81,2.32,21.46-.99-2.27-2.25-4.12-4.07-5.96-5.9"/>
  <path class="st0" d="M1037.5,255c5,3.5,10,7,15,10.5"/>
  <path class="st0" d="M552.5,493.5c-1.9-5.37-3.79-10.74-6.02-17.03-2.33,2.35-4.16,4.19-5.98,6.03"/>
  <path class="st0" d="M1084,502.5c-.17-1.17-.33-2.33-.57-3.98-3.14-1.59-6.54-3.3-9.93-5.02"/>
  <path class="st0" d="M403.5,378c.83-.05,1.66-.11,2.65-.17-.47.85-.83,1.5-1.19,2.15-4.81-2.37-7.4-2.13-10.46,1.02"/>
  <path class="st0" d="M767,377c-1.84,4.99,1.66,8.75,3,13"/>
  <path class="st0" d="M844,139.5c-.6,1.39-1.2,2.78-1.84,4.26,3.68,1.08,6.51,1.91,9.34,2.74"/>
  <path class="st0" d="M587.5,280.5h-13"/>
  <path class="st0" d="M789.5,381.5c-4.33-1-8.67-2-13-3"/>
  <path class="st0" d="M737.5,348.5h-13"/>
  <path class="st0" d="M875.5,546.5c4.33,2.33,8.67,4.67,13,7"/>
  <path class="st0" d="M669.5,277.5h-13"/>
  <path class="st0" d="M952.5,396c1.1-.86,2.2-1.73,4.24-3.33-2.52-1.37-4.23-2.3-6.14-3.33-1.56,3.03-3.11,5.43,1.4,6.17"/>
  <path class="st0" d="M823.5,139.5c-3.1-5.53-3.94-5.9-10.99-3.95-1.76.49-3.35,1.62-5.01,2.45"/>
  <path class="st0" d="M986.5,607.5c-1.33,4.33-2.67,8.67-4,13"/>
  <path class="st0" d="M1084.5,306.5c-4.33-1-8.67-2-13-3"/>
  <path class="st0" d="M932.5,266.5h-13"/>
  <path class="st0" d="M376.5,238.5c-4.33-1-8.67-2-13-3"/>
  <path class="st0" d="M572.5,518.5h-2.83c2.14,4.51,4.98,7.48,9.35,8.39,1.18.25,2.64-.89,3.98-1.39"/>
  <path class="st0" d="M1028.5,634.5c.5,4.17,1,8.33,1.5,12.5"/>
  <path class="st0" d="M399,366c-.7.45-1.41.9-3.09,1.97,4.18.6,7.39,1.07,10.59,1.53"/>
  <path class="st0" d="M1044.5,381.5c2.83,4.34,7.95,4.09,12,6"/>
  <path class="st0" d="M476.5,612.5c.5,4.17,1,8.33,1.5,12.5"/>
  <path class="st0" d="M577,579c.67,3,1.48,5.98,1.96,9.01.69,4.31-3,6.49-4.96,9.49"/>
  <path class="st0" d="M607.5,546.5h-12"/>
  <path class="st0" d="M969.5,362.5c1.33,4,2.67,8,4,12"/>
  <path class="st0" d="M532.5,513.5c-.38,2.83-.76,5.65-1.17,8.68-.6-.32-1.26-.67-1.93-1.03-2.64,3.86-5.02,4.4-10.9,2.35"/>
  <path class="st0" d="M1057.5,271.5c6.02-.54,10.44,2.89,15,6"/>
  <path class="st0" d="M1022,521.5c-.14,4-.29,8-.42,11.77-4.59,1-7.65,1.6-9.33-3.18-.55-1.57-3.99-2.52-6.27-2.98-3.09-.62-5.86-1.22-7.23-4.73.76-1.15,1.51-2.26,2.25-3.38"/>
  <path class="st0" d="M1026,324.5l-4.5,12"/>
  <path class="st0" d="M958.5,148.5l12,9"/>
  <path class="st0" d="M468.5,619.5c.17,4,.33,8,.5,12"/>
  <path class="st0" d="M1057.5,292.5c4,3.33,8,6.67,12,10"/>
  <path class="st0" d="M369,405.5c-1.17,4-2.33,8-3.5,12"/>
  <path class="st0" d="M957.5,502.5c-1.83,0-3.69-.19-5.49.05-2.03.28-4.01.95-6.01,1.45"/>
  <path class="st0" d="M1002.5,621.5l-3,12"/>
  <path class="st0" d="M404.5,392h-11.37c1.91,5.12,6.33,3.26,9.37,4.5"/>
  <path class="st0" d="M1037.5,638.5c1,2.83,1.98,5.67,3.01,8.5.44,1.19.99,2.34,1.49,3.5"/>
  <path class="st0" d="M427.5,638.5l-4.5,12"/>
  <path class="st0" d="M588,516.5c13.01,1.77,26.02,3.55,39.07,5.33-4.65,11.04-8.54,10.75-17.08,8.7-.79-.19-1.66-.03-2.49-.03"/>
  <path class="st0" d="M1009,439c-1.72.49-3.43.98-5.23,1.49,1.33,5.53,2.53,10.52,3.73,15.51"/>
  <path class="st0" d="M394,422c-.56,1.7-1.12,3.41-1.62,4.92-2.57.24-4.76.45-6.95.66,4.73,5.2,10.9,2.51,16.07,4.42"/>
  <path class="st0" d="M856.5,379.5l-12,6"/>
  <path class="st0" d="M1008.5,626.5v12"/>
  <path class="st0" d="M407,538c.67-.5,1.3-1.35,2.01-1.41.8-.07,1.78,1.03,2.47.84,10.46-2.87,17.52,4.8,25.34,8.9,5.6,2.93,11.73,5.41,16.67,9.67"/>
  <path class="st0" d="M436.5,635.5c-1.33,3.83-2.67,7.67-4,11.5"/>
  <path class="st0" d="M872.5,370.5c-4,2.33-8,4.67-12,7"/>
  <path class="st0" d="M816.5,152.5c-1.02.2-2.05.41-3.9.78,1.98,2.7,3.54,4.82,4.94,6.72,6.15.07,11.95-1.9,17.46,1"/>
  <path class="st0" d="M956.5,511.5c-3.83.67-7.67,1.33-11.5,2"/>
  <path class="st0" d="M456.5,627.5c-.33,3.83-.67,7.67-1,11.5"/>
  <path class="st0" d="M1039,548c4.26,5.7,9.56,9.77,16.44,12.18,3.05,1.07,5.4,4.15,8.06,6.32"/>
  <path class="st0" d="M580.5,486c-4.83-1.17-9.66-2.36-14.5-3.48-1.3-.3-2.66-.36-4.5-.59v11.18c2.56.28,5.28.59,8,.89"/>
  <path class="st0" d="M1017.5,491.5h3q-3.69-3.92-7.16-1.38c-.42-.35-.87-.75-1.34-1.11-.48-.36-1-.67-1.58-1.06-.31.52-.61,1.04-.91,1.56"/>
  <path class="st0" d="M992.5,617.5c.33,3.83.67,7.67,1,11.5"/>
  <path class="st0" d="M316.5,600.5c-3.83-.33-7.67-.67-11.5-1"/>
  <path class="st0" d="M978.5,603.5c-.5,3.83-1,7.67-1.5,11.5"/>
  <path class="st0" d="M293,475.5c1.06,4.32,2.87,8.2,6.5,11"/>
  <path class="st0" d="M494.5,475.5c.4,1.43.81,2.87,1.34,4.75h-5.34v-5.25c.93-.35,2.47-.92,4-1.5"/>
  <path class="st0" d="M281,529.5c3.23,2.48,5.82,6.07,10.5,6"/>
  <path class="st0" d="M898.5,194.5c-4.29,1.47-8.04,3.62-10,8"/>
  <path class="st0" d="M1074.5,541.5c-3.67,1.67-7.33,3.33-11,5"/>
  <path class="st0" d="M501.5,585.5c1.33,3.67,2.67,7.33,4,11"/>
  <path class="st0" d="M1153,450.5c-.56,3.86-.82,7.82-3.5,11"/>
  <path class="st0" d="M600.5,504c1.33,2.17,2.76,4.29,3.96,6.52.56,1.04.71,2.31,1.04,3.48"/>
  <path class="st0" d="M407,404.5c-2.63,2.98-.09,3.51,2.01,3.96,1.79.38,3.66.38,5.49.54"/>
  <path class="st0" d="M758.5,515.5c-3.67-.33-7.33-.67-11-1"/>
  <path class="st0" d="M900.5,284.5c1.67,3.67,3.33,7.33,5,11"/>
  <path class="st0" d="M298.5,399.5c-2.67,3.67-5.33,7.33-8,11"/>
  <path class="st0" d="M724.5,411.5c-3.67-1.33-7.33-2.67-11-4"/>
  <path class="st0" d="M1030.5,283.5c3.67,2.33,7.33,4.67,11,7"/>
  <path class="st0" d="M567.5,390.5c-3.67,2-7.33,4-11,6"/>
  <path class="st0" d="M972.5,590.5c-1.83,3.67-3.67,7.33-5.5,11"/>
  <path class="st0" d="M939.5,231.5c3.67,2,7.33,4,11,6"/>
  <path class="st0" d="M945.5,134.5c3.67,3.67,7.33,7.33,11,11"/>
  <path class="st0" d="M638.5,497.5c-3.67-1-7.33-2-11-3"/>
  <path class="st0" d="M787.5,385.5c-3.67-1-7.33-2-11-3"/>
  <path class="st0" d="M755.5,374.5c-3.67-1-7.33-2-11-3"/>
  <path class="st0" d="M1179,501.5c-2.43,3.38-3.31,8.23-8.5,9"/>
  <path class="st0" d="M668.5,510.5c-3.67-2-7.33-4-11-6"/>
  <path class="st0" d="M705.5,506.5c-3.67-.67-7.33-1.33-11-2"/>
  <path class="st0" d="M421,552q.4-3.22-2.34-6.51c-1.04,2.59-1.85,4.6-3.02,7.51h4.86"/>
  <path class="st0" d="M844,148.5c-2.97,4.41-5.93,8.82-8.94,13.3,1.78,3.85,3.41,7.37,5.21,11.27.8-1.19,1.27-1.88,1.74-2.57"/>
  <path class="st0" d="M858,138c-2.17,0-4.34.13-6.5-.04-2.18-.17-4.34-.63-6.5-.96"/>
  <path class="st0" d="M500.5,369.5c3,3.67,6,7.33,9,11"/>
  <path class="st0" d="M1084.5,320.5c-3.67,2.67-7.33,5.33-11,8"/>
  <path class="st0" d="M647.5,278.5h-11"/>
  <path class="st0" d="M538.5,487.5c.33,3.5.67,7,1,10.5"/>
  <path class="st0" d="M309.5,354c.52,4.63-3.33,6.85-5.5,10"/>
  <path class="st0" d="M1181.5,546.5c1.2,8.85.64,9.57-10,13"/>
  <path class="st0" d="M579.5,469.5c1.04-.83,2.07-1.66,3.74-2.99.69,6.77,4.28,10.43,9.26,12.99"/>
  <path class="st0" d="M1138.5,609.5c2.97,2.86,6.66,3.18,10.5,3"/>
  <path class="st0" d="M1019.5,634.5c1.17,3.5,2.33,7,3.5,10.5"/>
  <path class="st0" d="M1179.5,557.5c-.57,3.38-1.14,6.76-1.7,10.06-3.92,1.12-7.11,2.03-10.3,2.94"/>
  <path class="st0" d="M585,650.5l3,10.5"/>
  <path class="st0" d="M612,465.5c-2.86,2.14-5.26,5.26-9.5,4.5"/>
  <path class="st0" d="M633.5,523c-2,2.67-3.96,5.36-6.01,7.99-1.72,2.2-1.65,4.33.55,5.96,1.94,1.43,4.32,1.76,5.91-.49,1.46-2.06,1.1-4.32-.98-5.92-.79-.61-1.97-.71-2.97-1.04"/>
  <path class="st0" d="M960.5,566.5l-9,9"/>
  <path class="st0" d="M308.5,588c-3.5.17-7,.33-10.5.5"/>
  <path class="st0" d="M405,386c-3.52.19-7.04.39-10.64.59.54,3.78,3.15,2.73,5.14,2.91"/>
  <path class="st0" d="M447.5,632.5l-1.5,10.5"/>
  <path class="st0" d="M302.5,578.5c-3.5-.67-7-1.33-10.5-2"/>
  <path class="st0" d="M413,547c-4.23,1.31-8.27,3.47-13.04,2.15-.87-.24-2.29,1.51-3.46,2.35"/>
  <path class="st0" d="M412.5,640.5c-1.83,3.5-3.67,7-5.5,10.5"/>
  <path class="st0" d="M906.5,346.5c-3.33,3-6.67,6-10,9"/>
  <path class="st0" d="M283,506c2.83,2.83,5.67,5.67,8.5,8.5"/>
  <path class="st0" d="M1160,459.5c-1.5,3.33-3,6.67-4.5,10"/>
  <path class="st0" d="M549,521c5.12,1.37,10.23,2.74,16,4.28-2.42-4.99-4.44-9.14-6.9-14.2-.72,1.54-1.17,2.48-1.61,3.42"/>
  <path class="st0" d="M436,404c-2.83,2.5-5.67,5-8.5,7.5"/>
  <path class="st0" d="M1167,470.5c-.83,3.33-1.67,6.67-2.5,10"/>
  <path class="st0" d="M1059.5,640.5c1.67,3.33,3.33,6.67,5,10"/>
  <path class="st0" d="M872.5,393.5c-3.33,2-6.67,4-10,6"/>
  <path class="st0" d="M493.5,595.5c1.17,3.33,2.33,6.67,3.5,10"/>
  <path class="st0" d="M872.5,448.5c-3.33,2-6.67,4-10,6"/>
  <path class="st0" d="M487.5,603.5c.83,3.33,1.67,6.67,2.5,10"/>
  <path class="st0" d="M950.5,523.5c-2.77,2.39-5.53,4.78-8.5,7.35.52,3.2,1.01,6.17,1.5,9.15"/>
  <path class="st0" d="M514.5,548c-1.83,3.33-3.67,6.67-5.5,10"/>
  <path class="st0" d="M954.5,335.5c2,3.33,4,6.67,6,10"/>
  <path class="st0" d="M1000,429.5c1.33,3.33,2.67,6.67,4,10"/>
  <path class="st0" d="M631.5,279.5h-10"/>
  <path class="st0" d="M930.5,414.5c-3.33,2-6.67,4-10,6"/>
  <path class="st0" d="M1139,436.5c-.83,3.33-1.67,6.67-2.5,10"/>
  <path class="st0" d="M858.5,456.5c-3.33,1.67-6.67,3.33-10,5"/>
  <path class="st0" d="M524.5,556.5c-1.83,5.5-3.65,11-5.52,16.49-.19.55-.65,1.01-.98,1.51"/>
  <path class="st0" d="M287.5,565c3.33.83,6.67,1.67,10,2.5"/>
  <path class="st0" d="M1089.5,636.5c2.67,3.17,5.33,6.33,8,9.5"/>
  <path class="st0" d="M831.5,125c-3.33.33-6.67.67-10,1"/>
  <path class="st0" d="M576.5,297.5c-3.33-1.33-6.67-2.67-10-4"/>
  <path class="st0" d="M418.5,479.5c3.33,2,6.67,4,10,6"/>
  <path class="st0" d="M1066.5,523.5c-3.33,1-6.67,2-10,3"/>
  <path class="st0" d="M967.5,586.5c-1.83,3-3.67,6-5.5,9"/>
  <path class="st0" d="M342.5,622.5c-3.17,1.17-6.33,2.33-9.5,3.5"/>
  <path class="st0" d="M542.5,428.5c-1.86-.82-3.71-1.65-5.61-2.49q-2.03,5.14,2.79,7.88c.88-1.06,1.85-2.22,2.82-3.39"/>
  <path class="st0" d="M505.5,577.5c1.67,3.17,3.33,6.33,5,9.5"/>
  <path class="st0" d="M559.5,430.5c-.09-1.17-.18-2.34-.3-3.87-3.1,1.38-5.9,2.62-8.7,3.87"/>
  <path class="st0" d="M1053.5,261.5c2.1,3.33,7.17,4.49,7,9.5"/>
  <path class="st0" d="M641,548c-3.33,1.67-6.58,3.56-10.05,4.87-1.2.45-2.95-.54-4.45-.87"/>
  <path class="st0" d="M354.5,629.5c-3,1.83-6,3.67-9,5.5"/>
  <path class="st0" d="M1165,592.5c-3.17-.33-6.33-.67-9.5-1"/>
  <path class="st0" d="M1004.5,493c-.56,1.22-1.13,2.45-1.59,3.45,2.16,1.08,3.63,1.82,5.09,2.55"/>
  <path class="st0" d="M855.5,157.5c5.7-3.39,11.69-4,18.01-2.05.56.17,1.32-.29,1.99-.45"/>
  <path class="st0" d="M365.5,633.5c-3,2.17-6,4.33-9,6.5"/>
  <path class="st0" d="M954.5,420.5c-4.33,3.67-8.67,7.33-13,11"/>
  <path class="st0" d="M338.5,233c3,1.83,6,3.67,9,5.5"/>
  <path class="st0" d="M952.5,544.5l-7.5,7.5"/>
  <path class="st0" d="M1015,451c-2.71,1.94-5.42,3.88-8.08,5.77.37,5.73.72,11.23,1.08,16.73"/>
  <path class="st0" d="M1062,501c6.02,1.94,12.04,3.87,18.1,5.82-.35-2.83-.73-5.83-1.1-8.82"/>
  <path class="st0" d="M525.5,460.5c-3.04.33-6.08.67-9.04,1,.17,4.26-.96,5.91-4.46,4.5"/>
  <path class="st0" d="M282,540c3.17,1.5,6.33,3,9.5,4.5"/>
  <path class="st0" d="M599.5,496.5c-3.65-7.51-10.24-10.21-18.49-10.85-.12.43-.32,1.14-.51,1.85"/>
  <path class="st0" d="M323.5,606.5c-3.17,1-6.33,2-9.5,3"/>
  <path class="st0" d="M1172.5,578.5c-3,.33-6,.67-9,1"/>
  <path class="st0" d="M655.5,376.5c2.67,3,5.33,6,8,9"/>
  <path class="st0" d="M529.5,515c-1.86-3.76-4.8-4.44-8.82-2.88,2.23,1.19,4.55,1.98,6.23,3.48,1.17,1.05,1.55,3.12-1.41,2.9"/>
  <path class="st0" d="M1099.5,635.5c2.83,2.17,5.67,4.33,8.5,6.5"/>
  <path class="st0" d="M378.5,638.5c-2.67,2.33-5.33,4.67-8,7"/>
  <path class="st0" d="M344.5,434.5l9,6"/>
  <path class="st0" d="M402.5,641.5l-6,9"/>
  <path class="st0" d="M1027.5,205.5l9,9"/>
  <path class="st0" d="M961.5,347.5c1.67,3,3.33,6,5,9"/>
  <path class="st0" d="M1159.5,600.5c-3-.33-6-.67-9-1"/>
  <path class="st0" d="M1066.5,491.5h-3.5c-.09.28-.19.57-.28.85,1.91,1.53,3.82,3.07,6.51,5.23-2,.49-2.86.71-3.73.92"/>
  <path class="st0" d="M284.5,554l9,4.5"/>
  <path class="st0" d="M671.5,497.5l-9-3"/>
  <path class="st0" d="M286,494.5c1.83,3,3.67,6,5.5,9"/>
  <path class="st0" d="M675.5,392.5c-3-1.33-6-2.67-9-4"/>
  <path class="st0" d="M268.5,443.5l-6,9"/>
  <path class="st0" d="M1019.5,463.5c-5.68.35-6.41,5.92-9.5,9"/>
  <path class="st0" d="M433.5,518.5c3,1.33,6,2.67,9,4"/>
  <path class="st0" d="M903.5,237.5c1.67,3,3.33,6,5,9"/>
  <path class="st0" d="M420.5,392.5c-1.17-1.36-2.34-2.72-4.42-5.14,5-2.23,9.05-4.04,14.23-6.36-2.43-1.37-3.87-2.18-5.31-2.99"/>
  <path class="st0" d="M1120.5,624.5l9,4.5"/>
  <path class="st0" d="M321.5,270.5l-9,3"/>
  <path class="st0" d="M778.5,479.5c-3-.33-6-.67-9-1"/>
  <path class="st0" d="M1182,516c-2.83,1.83-5.67,3.67-8.5,5.5"/>
  <path class="st0" d="M609.5,365.5l-10.5,4.5"/>
  <path class="st0" d="M762.5,476.5c-3-.33-6-.67-9-1"/>
  <path class="st0" d="M563.5,385.5l-9,3"/>
  <path class="st0" d="M374.5,546.5c-.78-.92-1.56-1.85-2.43-2.88,1.28-1.76,1.33-4.47,4.43-3.12"/>
  <path class="st0" d="M360.5,298.5c-3-1.33-6-2.67-9-4"/>
  <path class="st0" d="M333.5,617.5c-3,.83-6,1.67-9,2.5"/>
  <path class="st0" d="M357.5,233.5c-3-.67-6-1.33-9-2"/>
  <path class="st0" d="M1140.5,620c-3-.83-6-1.67-9-2.5"/>
  <path class="st0" d="M541.5,497.5c.44-.86.88-1.72,1.2-2.35,7.79-.15,13.1,2.52,13.58,11.61-4.53-.91-9.17-1.76-13.76-2.85-.5-.12-.69-1.57-1.02-2.4"/>
  <path class="st0" d="M572,567c-.33,3.33-.67,6.67-1,10"/>
  <path class="st0" d="M1176,490.5c-2.5,2.33-5,4.67-7.5,7"/>
  <path class="st0" d="M355.5,434.5c2,3.67,4,7.33,6,11"/>
  <path class="st0" d="M585.5,569c-.17,2.83-.33,5.67-.5,8.5"/>
  <path class="st0" d="M1131,433c-.5,2.83-1,5.67-1.5,8.5"/>
  <path class="st0" d="M1081.5,641.5c2.67,2.33,5.33,4.67,8,7"/>
  <path class="st0" d="M352,501c-2.17,5.67-4.33,11.33-6.5,17"/>
  <path class="st0" d="M1025.5,486.5l-3,15"/>
  <path class="st0" d="M841,131l-7.5,6"/>
  <path class="st0" d="M1051.5,642.5c1.5,2.83,3,5.67,4.5,8.5"/>
  <path class="st0" d="M381.5,402c-1.67,2.83-3.33,5.67-5,8.5"/>
  <path class="st0" d="M806.5,138.5c-2.83.83-5.67,1.67-8.5,2.5"/>
  <path class="st0" d="M521.5,514q-3.54,5.24,2.19,8.61c.89-.67,1.85-1.39,2.81-2.11"/>
  <path class="st0" d="M844.5,163.5c0,.83-.08,1.68.02,2.5.1.83.39,1.64.85,3.5h-5.88"/>
  <path class="st0" d="M412,260.5c-.67,2.83-1.33,5.67-2,8.5"/>
  <path class="st0" d="M935,140c-3.26-1.46-5.62-.18-7.5,2.5"/>
  <path class="st0" d="M1172,480.5c-1.83,2.67-3.67,5.33-5.5,8"/>
  <path class="st0" d="M489.5,475.5l-12,3"/>
  <path class="st0" d="M553.5,516.5h4.13c-1.81,2.41-2.97,3.96-4.13,5.5"/>
  <path class="st0" d="M411.5,401.5c-.17.67-.33,1.33-.54,2.14,1.5,1.24,3.04,2.52,4.55,3.77-.67,5.16-6.01,1.91-8.01,4.59"/>
  <path class="st0" d="M373,336c-2.83.83-5.67,1.67-8.5,2.5"/>
  <path class="st0" d="M289,485.5c2.17,2.67,4.33,5.33,6.5,8"/>
  <path class="st0" d="M469.5,527.5h-8"/>
  <path class="st0" d="M399.5,410.5c-6.08,1.58-7.8,1.17-10.5-2.5h16.5"/>
  <path class="st0" d="M936.5,177.5c-2.67.33-5.33.67-8,1"/>
  <path class="st0" d="M569.5,500c-1.47-.3-2.95-.59-4.45-.9-1.15,8.65.84,10.76,8.95,9.9"/>
  <path class="st0" d="M878.5,232.5c1,2.67,2,5.33,3,8"/>
  <path class="st0" d="M1069.5,304.5c-.67,2.67-1.33,5.33-2,8"/>
  <path class="st0" d="M1034.5,392.5c2.33,2.33,4.67,4.67,7,7"/>
  <path class="st0" d="M759.5,440.5c-2.67-.67-5.33-1.33-8-2"/>
  <path class="st0" d="M525,462.5c-2.67.83-5.33,1.67-8,2.5"/>
  <path class="st0" d="M458.5,298.5c-2.67-.67-5.33-1.33-8-2"/>
  <path class="st0" d="M955.5,559.5c-2.17,2.5-4.33,5-6.5,7.5"/>
  <path class="st0" d="M892.5,381.5c-2.67,1.67-5.33,3.33-8,5"/>
  <path class="st0" d="M786.5,448.5c-2.67-.67-5.33-1.33-8-2"/>
  <path class="st0" d="M558.5,538.5c2.67,1.33,5.33,2.67,8,4"/>
  <path class="st0" d="M852.5,149.5c-3.33-1-6.67-2-10-3"/>
  <path class="st0" d="M834,150.5c-.5,2.67-1,5.33-1.5,8"/>
  <path class="st0" d="M591.5,545.5h-8"/>
  <path class="st0" d="M957.5,177.5c-2.67-.33-5.33-.67-8-1"/>
  <path class="st0" d="M918.5,421.5c-2.67,1.67-5.33,3.33-8,5"/>
  <path class="st0" d="M623.5,534.5c-1.67,2.67-3.33,5.33-5,8"/>
  <path class="st0" d="M945.5,406.5c-2.67,1.33-5.33,2.67-8,4"/>
  <path class="st0" d="M1113.5,629.5c2.67,1.5,5.33,3,8,4.5"/>
  <path class="st0" d="M584.5,516c.67,0,1.73-.27,1.94.04,1.78,2.59,3.4,5.29,5.04,7.97.03.05-.29.36-.48.47-.12.07-.33.01-.49.01"/>
  <path class="st0" d="M1068.5,641.5c1.83,2.5,3.67,5,5.5,7.5"/>
  <path class="st0" d="M1018.5,459c-3.33,2.33-6.67,4.67-10,7"/>
  <path class="st0" d="M610,455.5c-.67,2.5-1.33,5-2,7.5"/>
  <path class="st0" d="M505.5,528c.74,3.15,1.48,6.3,2.27,9.64-1.11,1.48-2.19,2.92-3.27,4.36"/>
  <path class="st0" d="M377.5,546.5c.38-1.22.76-2.45,1.14-3.67-.51-.2-1.03-.41-1.54-.61-.53.76-1.07,1.52-1.6,2.28"/>
  <path class="st0" d="M557,512c-1-.33-2-.67-3.9-1.3-.21,2.75-.41,5.28-.6,7.8"/>
  <path class="st0" d="M402.5,428c.19-1.52.38-3.04.67-5.4,3.04,2.23,5.43,3.99,8.31,6.1-1.85,1.31-2.91,2.06-3.98,2.8"/>
  <path class="st0" d="M301.5,333.5c-2.5-.17-5-.33-7.5-.5"/>
  <path class="st0" d="M1181,527c-2.5,1.17-5,2.33-7.5,3.5"/>
  <path class="st0" d="M567,620.5c-2.5-.33-5-.67-7.5-1"/>
  <path class="st0" d="M564.5,292.5c-2.33-1-4.67-2-7-3"/>
  <path class="st0" d="M748.5,533.5c2.33,1.33,4.67,2.67,7,4"/>
  <path class="st0" d="M660.5,493.5c-2.33-1-4.67-2-7-3"/>
  <path class="st0" d="M446,410c-2.17,1.83-4.33,3.67-6.5,5.5"/>
  <path class="st0" d="M981.5,158.5c2.33,2.33,4.67,4.67,7,7"/>
  <path class="st0" d="M942.5,311.5c1.33,2.33,2.67,4.67,4,7"/>
  <path class="st0" d="M688.5,463.5h-7"/>
  <path class="st0" d="M1021,318.5c-.5,2.33-1,4.67-1.5,7"/>
  <path class="st0" d="M580.5,534.5c.33-.67.69-1.92,1-1.91,5.01.21,10.01.54,15,.99.39.04.67,1.25,1.01,1.92"/>
  <path class="st0" d="M533,557.5c-1.17,2.33-2.33,4.67-3.5,7"/>
  <path class="st0" d="M607.5,372.5c-2.33,1-4.67,2-7,3"/>
  <path class="st0" d="M887.5,262.5h-7"/>
  <path class="st0" d="M1039,531.5c2.33.17,4.67.33,7,.5"/>
  <path class="st0" d="M388.5,640.5c-2.17,2.17-4.33,4.33-6.5,6.5"/>
  <path class="st0" d="M835,145.5c2.33,1.5,4.67,3,7,4.5"/>
  <path class="st0" d="M1031.5,543.5c-.81-.53-1.63-1.06-2.46-1.6-1.95,2-.92,3.15.96,4.1"/>
  <path class="st0" d="M639,542c1.33,2.17,2.67,4.33,4,6.5"/>
  <path class="st0" d="M491,408.5l-10.5-3"/>
  <path class="st0" d="M895.5,273.5c1,2.33,2,4.67,3,7"/>
  <path class="st0" d="M945.5,176.5h-7"/>
  <path class="st0" d="M520,623c-.83,2.33-1.67,4.67-2.5,7"/>
  <path class="st0" d="M959.5,578.5c-.83,2.33-1.67,4.67-2.5,7"/>
  <path class="st0" d="M446.5,398c-2.33-.33-4.67-.67-7-1"/>
  <path class="st0" d="M615,445c-1.33,2.33-2.67,4.67-4,7"/>
  <path class="st0" d="M510.5,508.5c.33,2.33.67,4.67,1,7"/>
  <path class="st0" d="M704.5,283.5c2,2.33,4,4.67,6,7"/>
  <path class="st0" d="M1015.5,481c-1.5,2.33-3,4.67-4.5,7"/>
  <path class="st0" d="M425,403c-1.83,1.83-3.67,3.67-5.5,5.5"/>
  <path class="st0" d="M1027.5,521c-1,2.17-2,4.33-3,6.5"/>
  <path class="st0" d="M550.5,527c3.33.67,6.67,1.33,10,2"/>
  <path class="st0" d="M833.5,383.5c3.1-3.72.77-6.16-2-8.5"/>
  <path class="st0" d="M571.5,537.5c-.83.33-1.84,1.15-2.47.92-3.72-1.34-7.36-2.92-11.03-4.42"/>
  <path class="st0" d="M573.5,568h16.5"/>
  <path class="st0" d="M351,356.5c-2.17.33-4.33.67-6.5,1"/>
  <path class="st0" d="M1049.5,269.5l3,6"/>
  <path class="st0" d="M841.5,161.5c.69-1.72,1.39-3.44,2.19-5.44,3.45,1.38,7.65-1.73,9.95,4.58.54-2.54.75-3.53,1.07-5.02-1.38.7-2.04,1.04-2.7,1.37"/>
  <path class="st0" d="M425.5,371c1.33,1.26,5.2-1.3,4.27,3.95-1.49.3-3.38.67-5.27,1.05"/>
  <path class="st0" d="M428.5,395c1.55,1.45,2.71,2.54,5.53,2.29,3.6-.32,7.38,1.45,11.79,2.49.45-.31,1.56-1.07,3.11-2.14,5.85,1.64,12,3.36,17.98,5.04.93-1.69,1.97-3.59,3.6-6.58,1.15,3.72,6.88.47,5.49,5.9"/>
  <path class="st0" d="M425.5,370c1.9-.65,3.79-1.3,5.69-1.95l.82-1.55c-1-.5-2.01-.99-3.01-1.49"/>
  <path class="st0" d="M406.5,396.5c3,.17,6,.33,9,.5"/>
  <path class="st0" d="M283,517c2.17,1.83,4.33,3.67,6.5,5.5"/>
  <path class="st0" d="M433,353c-.15,1.17-.31,2.34-.46,3.49-3.6,1.05-7.18,2.09-10.75,3.12.07.38.14.76.21,1.14h-8.55c0,.32,0,.64-.01.95,2.69.77,5.38,1.53,8.07,2.3"/>
  <path class="st0" d="M453.5,525.5c-2-.33-4-.67-6-1"/>
  <path class="st0" d="M1067,562l-1.5,6"/>
  <path class="st0" d="M755.5,423.5c-2-.67-4-1.33-6-2"/>
  <path class="st0" d="M512.5,256.5l6,6"/>
  <path class="st0" d="M784.5,434.5c-2-.67-4-1.33-6-2"/>
  <path class="st0" d="M1052,560c1.5,1.83,3,3.67,4.5,5.5"/>
  <path class="st0" d="M347.5,311.5c-1.33,1.67-2.67,3.33-4,5"/>
  <path class="st0" d="M602,524c1.17,1.83,2.33,3.67,3.5,5.5"/>
  <path class="st0" d="M742.5,418.5c-2-.67-4-1.33-6-2"/>
  <path class="st0" d="M421,375c.87.43,1.73.87,3.51,1.75-2.08.58-3.29.91-4.51,1.25"/>
  <path class="st0" d="M933,136c-2,.67-4,1.33-6,2"/>
  <path class="st0" d="M514.5,264.5c2,1.67,4,3.33,6,5"/>
  <path class="st0" d="M548.5,484c-1.11,1.77-2.21,3.54-3.78,6.04,2.31.58,4.04,1.02,5.78,1.46"/>
  <path class="st0" d="M627.5,554c-1.16,4.76,2.38,7.59,4.5,11"/>
  <path class="st0" d="M918.5,296.5l3,6"/>
  <path class="st0" d="M711.5,406.5c-2-.67-4-1.33-6-2"/>
  <path class="st0" d="M698.5,401.5c-2-.67-4-1.33-6-2"/>
  <path class="st0" d="M885.5,362.5c-2,1.33-4,2.67-6,4"/>
  <path class="st0" d="M346.5,518.5c2,.67,4,1.33,6,2"/>
  <path class="st0" d="M554.5,422.5l-1.5,6"/>
  <path class="st0" d="M965.5,181.5l-6-3"/>
  <path class="st0" d="M1012.5,445l-6,3"/>
  <path class="st0" d="M893.5,262.5c2,.67,4,1.33,6,2"/>
  <path class="st0" d="M584.5,300.5c-2-.67-4-1.33-6-2"/>
  <path class="st0" d="M578.5,544.5h-6"/>
  <path class="st0" d="M771.5,429.5c-2-.67-4-1.33-6-2"/>
  <path class="st0" d="M937.5,230.5l-6-3"/>
  <path class="st0" d="M903.5,186.5c-2,.67-4,1.33-6,2"/>
  <path class="st0" d="M357.5,263.5c-2-.33-4-.67-6-1"/>
  <path class="st0" d="M348.5,261c-2-.17-4-.33-6-.5"/>
  <path class="st0" d="M1009,476.5c1,1.83,2,3.67,3,5.5"/>
  <path class="st0" d="M652,357c-1.83.17-3.67.33-5.5.5"/>
  <path class="st0" d="M775.5,372.5c-1.67,1.33-3.33,2.67-5,4"/>
  <path class="st0" d="M617,365c-1.83-.17-3.67-.33-5.5-.5"/>
  <path class="st0" d="M506.5,467c-3.83.83-7.67,1.67-11.5,2.5"/>
  <path class="st0" d="M410.5,417c-1.81.42-3.63.84-6.76,1.56,1.21-2.65,1.99-4.35,2.76-6.06"/>
  <path class="st0" d="M890,180.5h3.71c-3.51,3.04-6.36,5.52-9.21,8"/>
  <path class="st0" d="M1096.5,520.5l-3,4.5"/>
  <path class="st0" d="M396.5,370.5c3.67.67,7.33,1.33,11,2"/>
  <path class="st0" d="M802.5,149.5c.17,1.83.33,3.67.5,5.5"/>
  <path class="st0" d="M1181,534c-1.5,1.83-3,3.67-4.5,5.5"/>
  <path class="st0" d="M1013,492.5l4.5,4.5"/>
  <path class="st0" d="M632.5,368l-5-2.5"/>
  <path class="st0" d="M603.5,484.5c1.17,1.83,2.33,3.67,3.5,5.5"/>
  <path class="st0" d="M407.5,436.5c-1.83.33-3.67.67-5.5,1"/>
  <path class="st0" d="M1034,529c-.17,3.83-.33,7.67-.5,11.5"/>
  <path class="st0" d="M402.5,365h-3.5c.06.43.12.85.18,1.28,2.84-.67,5.69-1.33,9.06-2.12-1.08,4.08-3.37,2.51-5.24,2.35"/>
  <path class="st0" d="M560.5,530.5c.83-.67,1.8-2.01,2.48-1.88,2.89.56,5.69,1.55,8.52,2.38"/>
  <path class="st0" d="M765.5,550.5c-1.83.33-3.67.67-5.5,1"/>
  <path class="st0" d="M398,374c2.83.17,5.67.33,8.5.5"/>
  <path class="st0" d="M828.5,460.5c-1.67-.33-3.33-.67-5-1"/>
  <path class="st0" d="M817.5,457.5c-1.67-.33-3.33-.67-5-1"/>
  <path class="st0" d="M326.5,266.5c-1.67.67-3.33,1.33-5,2"/>
  <path class="st0" d="M287.5,415.5c-1.33,1.67-2.67,3.33-4,5"/>
  <path class="st0" d="M830.5,414.5h-5"/>
  <path class="st0" d="M765.5,516.5h-5"/>
  <path class="st0" d="M810.5,455.5c-1.67-.33-3.33-.67-5-1"/>
  <path class="st0" d="M530.5,275.5c1.67,1,3.33,2,5,3"/>
  <path class="st0" d="M619.5,378.5c-1.67.67-3.33,1.33-5,2"/>
  <path class="st0" d="M922.5,180.5c-1.67.33-3.33.67-5,1"/>
  <path class="st0" d="M800.5,452.5c-1.67-.33-3.33-.67-5-1"/>
  <path class="st0" d="M474.5,511.5c1.67,1,3.33,2,5,3"/>
  <path class="st0" d="M593.5,461.5c2.67,3,5.33,6,8,9"/>
  <path class="st0" d="M769.5,379.5c1.67.67,3.33,1.33,5,2"/>
  <path class="st0" d="M415,380c-2.09,2.23-2.48,2.16-5.5-1"/>
  <path class="st0" d="M387.5,241.5c-1.67-.33-3.33-.67-5-1"/>
  <path class="st0" d="M793.5,450.5c-1.67-.33-3.33-.67-5-1"/>
  <path class="st0" d="M465.5,506.5c1.67,1,3.33,2,5,3"/>
  <path class="st0" d="M853.5,404.5c-1.67,1-3.33,2-5,3"/>
  <path class="st0" d="M541.5,468.5l-6,3"/>
  <path class="st0" d="M300.5,468.5c.67,1.67,1.33,3.33,2,5"/>
  <path class="st0" d="M908.5,301.5c.67,1.67,1.33,3.33,2,5"/>
  <path class="st0" d="M627,368.5c-.75.38-1.5.76-2.24,1.14-.1-.38-.19-.76-.29-1.14h14.03"/>
  <path class="st0" d="M912.5,310.5c.67,1.67,1.33,3.33,2,5"/>
  <path class="st0" d="M899.5,230.5c1,1.67,2,3.33,3,5"/>
  <path class="st0" d="M580.5,533c-3.37-1.85-6.02-2-8.5-.5"/>
  <path class="st0" d="M688.5,502.5c-1.67-.33-3.33-.67-5-1"/>
  <path class="st0" d="M860.5,400.5c-1.67,1-3.33,2-5,3"/>
  <path class="st0" d="M757.5,538.5c1.67,1,3.33,2,5,3"/>
  <path class="st0" d="M948.5,330.5c-1.67-.33-3.33-.67-5-1"/>
  <path class="st0" d="M420.5,366h-5"/>
  <path class="st0" d="M655.5,386.5h-5"/>
  <path class="st0" d="M681.5,500.5c-1.67-.33-3.33-.67-5-1"/>
  <path class="st0" d="M729.5,431.5c-1.67-.33-3.33-.67-5-1"/>
  <path class="st0" d="M776.5,445.5c-1.67-.33-3.33-.67-5-1"/>
  <path class="st0" d="M895.5,223.5c1,1.67,2,3.33,3,5"/>
  <path class="st0" d="M1045.5,538.5c-1.67.17-3.33.33-5,.5"/>
  <path class="st0" d="M584.5,535.5l-3,4.5"/>
  <path class="st0" d="M891.5,216.5c1,1.67,2,3.33,3,5"/>
  <path class="st0" d="M736.5,433.5c-1.67-.33-3.33-.67-5-1"/>
  <path class="st0" d="M636.5,433.5c-1.67.33-3.33.67-5,1"/>
  <path class="st0" d="M1095,491.5c.18.72.35,1.43.53,2.15.36-.15.72-.3,1.08-.45-.37-.73-.74-1.46-1.11-2.2"/>
  <path class="st0" d="M1028.5,528.5l-1.5,4.5"/>
  <path class="st0" d="M382.5,436c3.01-.47,6.01-.93,9.5-1.47v-2.53"/>
  <path class="st0" d="M766.5,442.5c-1.67-.33-3.33-.67-5-1"/>
  <path class="st0" d="M749.5,437.5c-1.67-.33-3.33-.67-5-1"/>
  <path class="st0" d="M420.5,347c.5,1.5.78,3.13,1.55,4.47,1.13,1.95,2.61,3.7,3.95,5.53"/>
  <path class="st0" d="M859.5,148.5c-1.67,1-3.33,2-5,3"/>
  <path class="st0" d="M444.5,568.5l2,4"/>
  <path class="st0" d="M411.5,392.5c2.33.12,4.67.24,7,.36v2.64"/>
  <path class="st0" d="M533,455c-2.5,1.33-5,2.67-7.5,4"/>
  <path class="st0" d="M582.5,520.5c-1.3,1.04-2.6,2.08-3.91,3.13q-2.73-3.77.41-5.13"/>
  <path class="st0" d="M1090.5,511.5c-2.79.15-2.65-.87-1.01-2.52,1.34,2.52,2.68,5.02,4.01,7.52"/>
  <path class="st0" d="M557,507c.33,1.5.67,3,1,4.5"/>
  <path class="st0" d="M605.5,506.5c1,1.33,2,2.67,3,4"/>
  <path class="st0" d="M557.5,618.5l-4.5-1.5"/>
  <path class="st0" d="M571.5,503.5c-.67,1.5-1.33,3-2,4.5"/>
  <path class="st0" d="M393.5,401c3.51.77,5.71,2.46,4.5,6.5"/>
  <path class="st0" d="M344,498.5c2.85,3.35,1.44,6.23-1,9"/>
  <path class="st0" d="M373.5,531c-1.59.59-3.19,1.19-4.78,1.78-.41-.59-.82-1.19-1.23-1.78.67-.16,1.34-.33,2-.49"/>
  <path class="st0" d="M475.5,479.5c-2.33.83-4.67,1.67-7,2.5"/>
  <path class="st0" d="M549,496.5c-.19,1.31-.38,2.62-.71,4.94,2.2-1.14,3.45-1.79,4.71-2.44"/>
  <path class="st0" d="M583.5,527c4.58,2.94,9.66,1.06,14.51,1.41.12,0,.33-1.25.49-1.91"/>
  <path class="st0" d="M418,386c-1.67.17-3.33.33-5,.5"/>
  <path class="st0" d="M844,126.5h4.5"/>
  <path class="st0" d="M413,386c-1.23-.37-2.45-.73-3.68-1.1.61,3.03,1.72,4.27,3.68,2.1"/>
  <path class="st0" d="M406,530.5c-.83,1.33-1.67,2.67-2.5,4"/>
  <path class="st0" d="M920.5,363.5c-1.33,1-2.67,2-4,3"/>
  <path class="st0" d="M625.5,367.5c-1.32-.52-2.64-1.05-3.53-1.4-1.4.57-2.44.98-3.47,1.4"/>
  <path class="st0" d="M555.5,398.5c1.33,1.33,2.67,2.67,4,4"/>
  <path class="st0" d="M459.5,526.5h-4"/>
  <path class="st0" d="M929.5,79.5v4"/>
  <path class="st0" d="M840.5,387.5c-1.33.33-2.67.67-4,1"/>
  <path class="st0" d="M1038.5,217.5c1.33,1.33,2.67,2.67,4,4"/>
  <path class="st0" d="M929.5,318.5c.67,1.33,1.33,2.67,2,4"/>
  <path class="st0" d="M717.5,347.5h-4"/>
  <path class="st0" d="M395.5,383.5c1.33.5,2.67,1,4,1.5"/>
  <path class="st0" d="M625.5,493.5c-1.33-.33-2.67-.67-4-1"/>
  <path class="st0" d="M894.5,356.5c-1.33,1-2.67,2-4,3"/>
  <path class="st0" d="M1014.5,236.5c1.33,1.33,2.67,2.67,4,4"/>
  <path class="st0" d="M588.5,492.5c-.17,1.17-.33,2.33-.5,3.5"/>
  <path class="st0" d="M586.5,524c.67,1.33,1.33,2.67,2,4"/>
  <path class="st0" d="M713.5,467.5h-4"/>
  <path class="st0" d="M402,433.5l-1.5,6"/>
  <path class="st0" d="M650.5,370.5c1.33,1.33,2.67,2.67,4,4"/>
  <path class="st0" d="M1056.5,393.5c1.33,1.33,2.67,2.67,4,4"/>
  <path class="st0" d="M1048.5,295.5c1,1.33,2,2.67,3,4"/>
  <path class="st0" d="M400.5,381.5c-1.33-.17-2.67-.33-4-.5"/>
  <path class="st0" d="M756.5,350.5c.33,1.33.67,2.67,1,4"/>
  <path class="st0" d="M391,435.5c-.33,1.33-.67,2.67-1,4"/>
  <path class="st0" d="M546.5,466.5c-1.33.67-2.67,1.33-4,2"/>
  <path class="st0" d="M707.5,466.5h-4"/>
  <path class="st0" d="M340.5,284.5c-1.33.67-2.67,1.33-4,2"/>
  <path class="st0" d="M552.5,511c-2.33-.33-4.67-.67-7-1"/>
  <path class="st0" d="M911.5,282.5c.67,1.33,1.33,2.67,2,4"/>
  <path class="st0" d="M841.5,172.5c1.33.83,2.67,1.67,4,2.5"/>
  <path class="st0" d="M967.5,182.5c1.33,1,2.67,2,4,3"/>
  <path class="st0" d="M520.5,512c-.75,1.23-3.57,1.94-1,4"/>
  <path class="st0" d="M572,486c.26,3.84.26,3.87-4,3.98-1.66.04-3.33,3.44-5,.02"/>
  <path class="st0" d="M420,350c-.67,2-1.33,4-2,6"/>
  <path class="st0" d="M595,374c-1.34-.16-2.67-.31-4.06-.48-.94.47-1.94.97-2.94,1.48"/>
  <path class="st0" d="M569.5,279.5h-4"/>
  <path class="st0" d="M1080.5,279.5c-1.33-.33-2.67-.67-4-1"/>
  <path class="st0" d="M679.5,278.5h-4"/>
  <path class="st0" d="M745.5,513.5h-4"/>
  <path class="st0" d="M701.5,465.5h-4"/>
  <path class="st0" d="M566.5,512.5c1,1.83,2,3.67,3,5.5"/>
  <path class="st0" d="M584.5,519.5c-.09-1.17-.18-2.34-.27-3.54-5.38-.84-10.56-1.65-15.73-2.46"/>
  <path class="st0" d="M695.5,464.5h-4"/>
  <path class="st0" d="M392.5,270.5h-4"/>
  <path class="st0" d="M358.5,412.5c-.33,1.33-.67,2.67-1,4"/>
  <path class="st0" d="M306.5,269.5h-4"/>
  <path class="st0" d="M515.5,463c-1.17,1.17-2.24,2.44-3.52,3.47-1.43,1.15-2.79,3.32-5.53.56,1.74-.59,3.15-1.06,4.55-1.53"/>
  <path class="st0" d="M526.5,267.5c1.33.67,2.67,1.33,4,2"/>
  <path class="st0" d="M945.5,183.5c-1.33-.33-2.67-.67-4-1"/>
  <path class="st0" d="M567.5,376.5c-1.33-.17-2.67-.33-4-.5"/>
  <path class="st0" d="M430.5,358c.53,1.32,1.05,2.65,1.57,3.95-2.97,3.46-10.63-1.86-11.07,6.05"/>
  <path class="st0" d="M604,519.5c.83,1.33,1.67,2.67,2.5,4"/>
  <path class="st0" d="M1068.5,262.5c1.33,1,2.67,2,4,3"/>
  <path class="st0" d="M345.5,250.5h-4"/>
  <path class="st0" d="M582.5,375.5c1.5.5,3,1.01,5.19,1.74-1.4.55-2.3.91-3.19,1.26"/>
  <path class="st0" d="M598.5,519c.83,1.33,1.67,2.67,2.5,4"/>
  <path class="st0" d="M577.5,488.5c-1.33,2.17-2.67,4.33-4,6.5"/>
  <path class="st0" d="M593,519c1.17,1.33,2.33,2.67,3.5,4"/>
  <path class="st0" d="M401,357.5l3,1.5"/>
  <path class="st0" d="M589.5,456.5c1.17.5,2.33,1,3.5,1.5"/>
  <path class="st0" d="M367,262c1,1.17,2,2.33,3,3.5"/>
  <path class="st0" d="M568.5,534c-1.17.83-2.33,1.67-3.5,2.5"/>
  <path class="st0" d="M299.5,265.5l-1.5,3"/>
  <path class="st0" d="M954.5,412.5c.33,1,.67,2,1,3"/>
  <path class="st0" d="M578.5,374.5c.17.5.63,1.25.45,1.46-1.07,1.25-2.29,2.37-3.45,3.54"/>
  <path class="st0" d="M417.5,379.5c-2-.17-4-.33-6-.5"/>
  <path class="st0" d="M529.5,559.5c-.67,1-1.33,2-2,3"/>
  <path class="st0" d="M501,469.5c2-.17,4-.33,6-.5"/>
  <path class="st0" d="M799.5,146.5c.5-.17,1.13-.59,1.46-.43.33.17.58.97.49,1.42-.15.71-.62,1.34-.95,2.01"/>
  <path class="st0" d="M852.5,127.5c.33,1,.67,2,1,3"/>
  <path class="st0" d="M566,486c.5,1.17,1,2.33,1.5,3.5"/>
  <path class="st0" d="M1028,536c.15-.97.31-1.95.5-3.19-1,.34-1.5.51-2,.69-.17.17-.5.44-.48.49,1.24,2.07,2.55,4.07,5.48,3.51"/>
  <path class="st0" d="M816.5,148.5c-.5,1.17-1,2.33-1.5,3.5"/>
  <path class="st0" d="M582.5,489.5c-.83.83-1.67,1.67-2.5,2.5"/>
  <path class="st0" d="M409.5,349.5c-1.17-.5-2.33-1-3.5-1.5"/>
  <path class="st0" d="M452.5,577c-1-.33-2-.67-3-1"/>
  <path class="st0" d="M373,527.5l1.5,6"/>
  <path class="st0" d="M569.5,492c.21,1.03.41,2.05.71,3.5h7.29"/>
  <path class="st0" d="M573.5,506.5c2.85,5.42,7.24,5.82,11,1"/>
  <path class="st0" d="M531.5,498.5c-.33,1.17-.67,2.33-1,3.5"/>
  <path class="st0" d="M586.5,507.5c.33,1.17.67,2.33,1,3.5"/>
  <path class="st0" d="M342,499c-.33.5-.67,1-1.47,2.21,1.66.48,3.06.88,4.47,1.29"/>
  <path class="st0" d="M606.5,501.5c-1.17.17-2.33.33-3.5.5"/>
  <path class="st0" d="M554.5,502c-.83,1.17-1.67,2.33-2.5,3.5"/>
  <path class="st0" d="M594,504c-.83.83-1.67,1.67-2.5,2.5"/>
  <path class="st0" d="M347.5,304.5c.67,1.17,1.33,2.33,2,3.5"/>
  <path class="st0" d="M703.5,403.5c-1-.33-2-.67-3-1"/>
  <path class="st0" d="M342.5,298.5l3,3"/>
  <path class="st0" d="M589.5,302.5c-1-.33-2-.67-3-1"/>
  <path class="st0" d="M1079.5,290.5c.33,1,.67,2,1,3"/>
  <path class="st0" d="M594.5,304.5c-1-.33-2-.67-3-1"/>
  <path class="st0" d="M1054.5,304.5c.67,1,1.33,2,2,3"/>
  <path class="st0" d="M601.5,307.5c-1-.33-2-.67-3-1"/>
  <path class="st0" d="M606.5,309.5c-1-.33-2-.67-3-1"/>
  <path class="st0" d="M611.5,311.5c-1-.33-2-.67-3-1"/>
  <path class="st0" d="M618.5,314.5c-1-.33-2-.67-3-1"/>
  <path class="st0" d="M776.5,431.5c-1-.33-2-.67-3-1"/>
  <path class="st0" d="M625.5,317.5c-1-.33-2-.67-3-1"/>
  <path class="st0" d="M592,525l1.5,3"/>
  <path class="st0" d="M915.5,317.5c.33,1,.67,2,1,3"/>
  <path class="st0" d="M690.5,398.5c-1-.33-2-.67-3-1"/>
  <path class="st0" d="M655.5,503.5c-1-.33-2-.67-3-1"/>
  <path class="st0" d="M632.5,320.5c-1-.33-2-.67-3-1"/>
  <path class="st0" d="M525.5,321.5c-1-.33-2-.67-3-1"/>
  <path class="st0" d="M948.5,322.5c.67,1,1.33,2,2,3"/>
  <path class="st0" d="M641.5,324.5c-1-.33-2-.67-3-1"/>
  <path class="st0" d="M550.5,427.5c-1.17,2.5-2.33,5-3.5,7.5"/>
  <path class="st0" d="M345.5,323.5c-1,.67-2,1.33-3,2"/>
  <path class="st0" d="M650.5,328.5c-1-.33-2-.67-3-1"/>
  <path class="st0" d="M685.5,396.5c-1-.33-2-.67-3-1"/>
  <path class="st0" d="M888,163.5c-1.17,1.83-2.33,3.67-3.5,5.5"/>
  <path class="st0" d="M657.5,331.5c-1-.33-2-.67-3-1"/>
  <path class="st0" d="M1071.5,330.5c-1,.33-2,.67-3,1"/>
  <path class="st0" d="M606.5,433.5c1,.67,2,1.33,3,2"/>
  <path class="st0" d="M664.5,334.5c-1-.33-2-.67-3-1"/>
  <path class="st0" d="M351.5,427.5c.67,1,1.33,2,2,3"/>
  <path class="st0" d="M669.5,336.5c-1-.33-2-.67-3-1"/>
  <path class="st0" d="M1011,501c-1-.68-1.99-1.37-2.99-2.05l-.64,2.08c1.21.16,2.42.31,3.63.47"/>
  <path class="st0" d="M876.5,227.5c.33,1,.67,2,1,3"/>
  <path class="st0" d="M598,508c-.99.69-1.97,1.38-2.98,2.08.15.58.31,1.25.48,1.92"/>
  <path class="st0" d="M680.5,394.5c-1-.33-2-.67-3-1"/>
  <path class="st0" d="M789.5,436.5c-1-.33-2-.67-3-1"/>
  <path class="st0" d="M542,500c-.29-.85-.57-1.7-.86-2.55-.33-.02-.66-.04-1-.06-.13,1.18-.25,2.35-.37,3.39,2.2-.33,3.71-.55,5.22-.78"/>
  <path class="st0" d="M611.5,436.5c1,.67,2,1.33,3,2"/>
  <path class="st0" d="M421.5,510.5l3,3"/>
  <path class="st0" d="M345.5,282.5c-1,.33-2,.67-3,1"/>
  <path class="st0" d="M614.5,510.5c.67,1,1.33,2,2,3"/>
  <path class="st0" d="M321.5,344.5l-3,3"/>
  <path class="st0" d="M763.5,426.5c-1-.33-2-.67-3-1"/>
  <path class="st0" d="M882.5,242.5c.33,1,.67,2,1,3"/>
  <path class="st0" d="M410.5,392h-3v1h3"/>
  <path class="st0" d="M877.5,390.5c-1,.67-2,1.33-3,2"/>
  <path class="st0" d="M417.5,351.5c1.5.17,3,.33,4.5.5"/>
  <path class="st0" d="M903.5,192.5c-1,.33-2,.67-3,1"/>
  <path class="st0" d="M892.5,190.5c-1,.33-2,.67-3,1"/>
  <path class="st0" d="M350.5,280.5c-1,.33-2,.67-3,1"/>
  <path class="st0" d="M600.5,356.5c-1-.33-2-.67-3-1"/>
  <path class="st0" d="M882.5,387.5c-1,.67-2,1.33-3,2"/>
  <path class="st0" d="M608.5,359.5c-1-.33-2-.67-3-1"/>
  <path class="st0" d="M407.5,359.5h-7v-6"/>
  <path class="st0" d="M811.5,444.5c-1-.33-2-.67-3-1"/>
  <path class="st0" d="M886.5,252.5c.33,1,.67,2,1,3"/>
  <path class="st0" d="M923.5,277.5c.67,1,1.33,2,2,3"/>
  <path class="st0" d="M625.5,364.5c-2-.33-4-.67-6-1"/>
  <path class="st0" d="M646.5,365.5l3,3"/>
  <path class="st0" d="M840.5,411.5c-1,.33-2,.67-3,1"/>
  <path class="st0" d="M412,368c1-.17,2-.33,3-.5-.35-.74-.69-1.48-1.29-2.76-.83,1.35-1.27,2.06-1.71,2.76"/>
  <path class="st0" d="M877.5,367.5c-1,.67-2,1.33-3,2"/>
  <path class="st0" d="M884.5,247.5c.33,1,.67,2,1,3"/>
  <path class="st0" d="M567.5,370.5c-1-.33-2-.67-3-1"/>
  <path class="st0" d="M935.5,411.5c-1,.67-2,1.33-3,2"/>
  <path class="st0" d="M634.5,371.5c-1,.33-2,.67-3,1"/>
  <path class="st0" d="M868.5,136.5l1.5,4.5"/>
  <path class="st0" d="M410.5,375.5c1.03-1.13,2.07-2.27,3.28-3.6.62.31,1.42.7,2.22,1.1"/>
  <path class="st0" d="M908.5,371.5c-1,.67-2,1.33-3,2"/>
  <path class="st0" d="M420.5,384c-.87-1.48-1.74-2.96-2.27-3.85.8-2.36,1.43-4.21,2.18-6.42-2.47-1.89-4.06-1.96-4.91,1.27"/>
  <path class="st0" d="M729.5,413.5c-1-.33-2-.67-3-1"/>
  <path class="st0" d="M599.5,373.5c-1,.67-2,1.33-3,2"/>
  <path class="st0" d="M391.5,463.5c1,.67,2,1.33,3,2"/>
  <path class="st0" d="M1054.5,266.5c1,.67,2,1.33,3,2"/>
  <path class="st0" d="M398,371.5c-.67,1.33-1.33,2.67-2.11,4.23,1.05.43,2.08.85,3.11,1.27"/>
  <path class="st0" d="M764.5,542.5c1,.67,2,1.33,3,2"/>
  <path class="st0" d="M747.5,420.5c-1-.33-2-.67-3-1"/>
  <path class="st0" d="M734.5,415.5c-1-.33-2-.67-3-1"/>
  <path class="st0" d="M416,264c-.17.83-.33,1.67-.5,2.5"/>
  <path class="st0" d="M888.5,257.5c.33,1,.67,2,1,3"/>
  <path class="st0" d="M900.5,376.5c-1,.67-2,1.33-3,2"/>
  <path class="st0" d="M594.5,376.5c-.83.5-1.67,1-2.5,1.5"/>
  <path class="st0" d="M588,521l-4,4"/>
  <path class="st0" d="M599.5,510.5c.33.83.67,1.67,1,2.5"/>
  <path class="st0" d="M412.5,375c2,.33,4,.67,6,1"/>
  <path class="st0" d="M534.5,396.5c-.83-.17-1.67-.33-2.5-.5"/>
  <path class="st0" d="M999.5,502c1.35.44,2.7.87,4.03,1.3-.2,1.2-.37,2.2-.53,3.2"/>
  <path class="st0" d="M597.5,537.5c-.33.83-.67,1.67-1,2.5"/>
  <path class="st0" d="M603,529c-.83.17-1.67.33-2.5.5"/>
  <path class="st0" d="M396.5,444.5c.36.81.71,1.63,1.19,2.72,1.43-1.79,1.95-2.44,2.98-3.72h-3.68"/>
  <path class="st0" d="M599.5,371.5c-.83-.17-1.67-.33-2.5-.5"/>
  <path class="st0" d="M421,371c-.34-.66-.67-1.33-1.01-1.99.16-.28.32-.55.49-.83,1.34.77,2.68,1.55,4.03,2.32"/>
  <path class="st0" d="M501,471l-4.5,1.5"/>
  <path class="st0" d="M354.5,252.5c-.67-.33-1.33-.67-2-1"/>
  <path class="st0" d="M384.5,459.5c-.67-.33-1.33-.67-2-1"/>
  <path class="st0" d="M834.5,447.5l-2-1"/>
  <path class="st0" d="M510.5,261.5c.67.67,1.33,1.33,2,2"/>
  <path class="st0" d="M510.5,382.5c.67.67,1.33,1.33,2,2"/>
  <path class="st0" d="M520.5,263.5c.67.67,1.33,1.33,2,2"/>
  <path class="st0" d="M594.5,565.5c.33-.67.67-1.33,1-2-.83.17-1.67.33-2.5.5"/>
  <path class="st0" d="M902.5,264.5c.33.67.67,1.33,1,2"/>
  <path class="st0" d="M1086.5,419.5c.67.67,1.33,1.33,2,2"/>
  <path class="st0" d="M891.5,265.5c.33.67.67,1.33,1,2"/>
  <path class="st0" d="M397.5,360.5c.83,1.33,1.67,2.67,2.5,4"/>
  <path class="st0" d="M904.5,268.5c.33.67.67,1.33,1,2"/>
  <path class="st0" d="M579.5,516c.5,1.33,1,2.67,1.5,4"/>
  <path class="st0" d="M925.5,359.5c-.67.67-1.33,1.33-2,2"/>
  <path class="st0" d="M967.5,358.5c.33.67.67,1.33,1,2"/>
  <path class="st0" d="M601.5,449c1.33.5,2.67,1,4,1.5"/>
  <path class="st0" d="M454.5,467.5c-.67-.33-1.33-.67-2-1"/>
  <path class="st0" d="M467.5,424.5c-.67-.33-1.33-.67-2-1"/>
  <path class="st0" d="M589.5,536.5c-.33.67-.67,1.33-1,2"/>
  <path class="st0" d="M629.5,373.5c-.67.33-1.33.67-2,1"/>
  <path class="st0" d="M559.5,574.5c.33,1.67.67,3.33,1,5"/>
  <path class="st0" d="M1087,551.5c.5.67,1,1.33,1.5,2"/>
  <path class="st0" d="M888.5,210.5c.33.67.67,1.33,1,2"/>
  <path class="st0" d="M1071.5,425.5c.67.67,1.33,1.33,2,2"/>
  <path class="st0" d="M1131.5,425.5c.67.67,1.33,1.33,2,2"/>
  <path class="st0" d="M1044.5,224.5c.67.67,1.33,1.33,2,2"/>
  <path class="st0" d="M1029,496c-.33.67-.67,1.33-1,2"/>
  <path class="st0" d="M1020.5,241.5c.67.67,1.33,1.33,2,2"/>
  <path class="st0" d="M910.5,341.5c-.67.67-1.33,1.33-2,2"/>
  <path class="st0" d="M744.5,331.5c.67.67,1.33,1.33,2,2"/>
  <path class="st0" d="M713.5,539.5l2,2"/>
  <path class="st0" d="M476,403c.76,1.28,1.52,2.56,2.35,3.96.23-.19.69-.57,1.15-.96"/>
  <path class="st0" d="M741.5,327.5c.67.67,1.33,1.33,2,2"/>
  <path class="st0" d="M339.5,294.5l2,2"/>
  <path class="st0" d="M313.5,377.5l-2,2"/>
  <path class="st0" d="M1074.5,429.5c.33.67.67,1.33,1,2"/>
  <path class="st0" d="M621.5,523.5c-.33.33-.67.67-1,1"/>
  <path class="st0" d="M581.5,503.5c.33.33.67.67,1,1"/>
  <path class="st0" d="M615.5,523.5l1,1"/>
  <path class="st0" d="M571,597c-.17.33-.35.66-.49,1-.06.14,0,.33,0,.5"/>
  <path class="st0" d="M580.5,506.5c-.5.17-1,.33-1.5.5"/>
  <path class="st0" d="M612.5,507.5c.33.33.67.67,1,1"/>
  <path class="st0" d="M628.5,533.5l1,1"/>
  <path class="st0" d="M632.5,533.5c-.33.33-.67.67-1,1"/>
  <path class="st0" d="M996.5,510.5c-.5.17-1,.33-1.5.5"/>
  <path class="st0" d="M774.5,377.5c-.5-.17-1-.33-1.5-.5"/>
  <path class="st0" d="M551.5,424.5c.17.5.33,1,.5,1.5"/>
  <path class="st0" d="M559.5,571.5c-.33.33-.67.67-1,1"/>
  <path class="st0" d="M501,410h-1.5"/>
  <path class="st0" d="M1051,534c-.17.33-.35.66-.49,1-.06.14,0,.33,0,.5"/>
  <path class="st0" d="M404,387h-1.5"/>
  <path class="st0" d="M1079.5,559.5c-.33.33-.67.67-1,1"/>
  <path class="st0" d="M448.5,503.5c-1.28.89-2.57,1.77-3.58,2.47,3.28,5.77,3.65,5.83,8.35,1.29-1.44-1.27-2.86-2.51-4.27-3.76"/>
  <path class="st0" d="M447,501.5c-3.4,1.91-5.06,4.77-3.39,8.45.89,1.97,2.3,3.91,5.4,3.65,3.79-.31,5.52-2.36,6.56-5.38-1.89-6.35-2.28-6.66-8.07-6.72"/>
  <path class="st0" d="M525.5,465.5q-2.71,3.26,1.73,6.54c.79-1.59,1.87-3.02,2.07-4.57.07-.5-2.14-1.31-3.31-1.97"/>
  <path class="st0" d="M1054.5,454.5c-5,2.64-6.19,6.66-2.39,9.35,1.52,1.08,5.22,1.42,6.16.43,1.4-1.48,1.92-4.59,1.48-6.73-.27-1.29-3.08-2.05-4.74-3.05"/>
  <path class="st0" d="M788,147.5c-1.62.97-3.25,1.94-5.64,3.37,2.01,2.48,3.51,4.32,4.97,6.11,5.42-3.85,5.49-5.13,1.17-8.98"/>
  <path class="st0" d="M1036.5,416c-1.66,1.67-3.33,3.34-5.5,5.52,2.32,2.32,4.16,4.16,5.77,5.77,4.06-.92,6.65-2.55,6.14-6.27-.42-3.06-2.18-5.41-5.9-5.01"/>
  <path class="st0" d="M1030,198.5c-2.38,3.75-2.04,4.77,2.89,6.27-1.27-2.3,1.46-5.11-2.39-6.27"/>
  <path class="st0" d="M994,350c-5.52,1.63-8.88,5.33-9.44,11.01-.7,7.05,4.77,13.26,11.44,13.49,6.45.23,12.6-5.29,13.02-11.5.44-6.58-5.84-13.83-12.52-13.01-.66.08-1.33.01-2,.01"/>
</svg>