<?xml version="1.0" encoding="UTF-8"?>
<svg id="_Слой_1" data-name="Слой_1" xmlns="http://www.w3.org/2000/svg" version="1.1" viewBox="0 0 2816 1536">
  <!-- Generator: Adobe Illustrator 30.0.0, SVG Export Plug-In . SVG Version: 2.1.1 Build 123)  -->
  <defs>
    <style>
      .st0 {
        fill: #fff;
      }
    </style>
  </defs>
  <g>
    <g>
      <path class="st0" d="M2059.97,1127.98c-3.7-2.09-12.04-11.68-4.83-13.87,11.17-3.4,9.23,7.64,4.83,13.87Z"/>
      <path class="st0" d="M2140.01,1165.99v10.02c-16.64,2.7-14.97-13.11,0-10.02Z"/>
      <path class="st0" d="M2209.93,1156.07c3.36,4.82-3.77,13.43-9.73,9.73-7.65-4.75,5.69-15.51,9.73-9.73Z"/>
      <path class="st0" d="M2258.74,1033.89c.11,7.43-11.56,7.43-11.45,0-.11-7.43,11.56-7.43,11.45,0Z"/>
      <path class="st0" d="M2228.63,970.27c.11,7.5-11.67,7.5-11.56,0-.11-7.5,11.67-7.5,11.56,0Z"/>
      <path class="st0" d="M2265.96,1046.04l.02,11.96c-12.64-2.44-14.68-12.87-.02-11.96Z"/>
      <path class="st0" d="M2201.99,962c-5.55,4.22-15.26-10.07-4.72-11.84,5.88-.99,7.71,9.57,4.72,11.84Z"/>
      <path class="st0" d="M2146.76,930.14c.27,18.41-28.66,18.41-28.38,0-.27-18.41,28.66-18.41,28.38,0Z"/>
      <path class="st0" d="M2106.76,849.26c.26,17.85-27.78,17.85-27.52,0-.26-17.85,27.78-17.85,27.52,0Z"/>
    </g>
    <path class="st0" d="M1718.15,337.29c.17,11.86-18.46,11.86-18.29,0-.17-11.86,18.46-11.86,18.29,0Z"/>
  </g>
  <g>
    <path class="st0" d="M578,582c.78-3.66-1.1-3.92-3.34-5.66-12.32-8.14-28.46-14.14-31.97-28.52-11.12-7.19-34.19,2.72-36.66-17-3.02-24.22,22.6-18.18,38.83-20.96,36.7-6.27,74.57-10.74,112.08-15.95,2-.28,6.83,1.4,5.04-2.88-2.45-5.86-18.45-14.59-23.31-19.7-3.91-4.1-36.21-43.46-36.6-46.42,6.12-19.76-26.05-28.79-35.77-40.22-27.91-36.85,14.74-25.26,38.68-24.68,60.3,14.99,44.34-9.25,96.1-6.11,408.08-1.77,211.72,138.23,593.84,144.17,51.52,2.28,89.77-9.03,133.11,26.89,39.91,27.61,160.7,192.12,35.98,163.03-6.31,38.06,29.38,16.5,48.96,17.93,69.51,27.86,86.74,8.65,150.38-29.6,25.53-22.09,138.23-57.06,116.34-95.01-45.96-63.08-28.53-28.9-70.65-59.36-7.72-10.35-1.78-18.94-3.94-23.89-3.67-8.37-32.41-37.43-40.72-49.45-43.64-51.19,2.72-52.45,43.12-74.06,4.79-8.41,13.61-1.7,18.51-12.55-15.53,1.34-34.55,17.75-48.01,21.14-23.97-2.24-50.07-54.23-54.16-74.16.22-9.11,12.84-47.17,19.12-53.05,2.21-2.07,13.03-6.3,13.02-8.95,0-1.14-8.23-5.95-5.95-9.01.64-.85,3.18,2.93,3.97.99,1.92-20.17,17.9-19.29,29.94-24.05,5.42-16.28,32.58-36.4,47.52-44.47,12.64-6.02,32.07,4.58,46.55,3.53-4.13-11.54-16.8-12.42-13.6-26.54,4.52-11.29,18.9-23.42,29.61-29.42-3.89,5.65,1.01,3.42,4.09,6.83,4.53,5.71,8.51,15.28,15.89,11.16-4.15,22.68,73.37,65.93,90.95,84.05,10.66,9.23,72.16,70.3,73.14,79.02,1.66,14.81-21.1,0-27.34-.43-38.98.98-99.89-22.65-122.72,19.36,46.35-15.96,52.31-20.19,96.01,6.97,100.11,32.99,198.96,104.84,260.41,191.59,10.16,14.63,41.99,66.57,39.54,82.29-1.32,8.43-18.63,22.48-20.85,29.08-.98,2.9,1.93,6.99.68,10.83-14.9,7.22,4.6,15.88-4.28,26.79-54.52,14.09-109.29,9.9-157.64,61.35-3.67,1.94-5.22,16.47-5.91,5.11-7.14,3.22-7.26,6.91-.3,13.33,3.76,4,8.53,26.44,14.33,19.67,1.23-8.89-8.28-30.63,5.44-32.6l71.45,5.71c21.96,4.04,42.68-3.87,62.3-5.99,57.5,6.05,156,67.72,194.47,111.29,4.55,20.91-39.96-5.61-45.66,2.57,170.63,136.53,97.94,423.58-110.03,475.03,0,0,143.02,1,143.02,1,39.81,22.38-1941.34.68-1933.99,8.02-.35-.01-3.15-2.71-3.01-3.99,61.72-7.42,128.69-2.27,191.99-6.04-201.6-56.53-273.89-317.38-132.03-471.02,4.18-12.94-13.21-38.17-18.98-48.94-35.51,20.2-68.83,69.47-105.16,96.81-28.3,20.84-48.67,20.59-21.77-15.77,22.64-30.12,53.62-57.8,74.96-87.14,2.09-5.26-4.49-34.66-.05-41.94,6.46-10.59,38.54-7.76,43.11-10.89,6.13-14.53,33.7-42.61,37.56-56.61-1.03-14.47-6.49-25.5,14.35-27.48,8.22-4.63,4.02-37.32,6.43-45.57,18.97-30.97,16.41-30.69,53.58-29.42ZM1960,287.98c-44.07-58.2-114.18-100.97-165-149.88-24.13,9-5.98,23.71,3.61,35.28,4.95,3.46,26.38,3.67,27.38,4.64,1.07,1.04-1.29,11.25.28,13.72,56.11,8.05,90.87,66.87,133.74,96.25ZM1738,176.02l-21.99,15.96c11.8,1.62,16.06-8.13,21.99-15.96ZM1772,180.02c-60.38-7.38-7.38,13.64,16,19.96-1.9-6.26-20.11-10.25-22-12.01-6.57-6.11,3.75-1.82,3.9-2.06.49-.79.52-4.12,2.1-5.89ZM1803.98,202c3.71-16.26-15.13-12.84-25.98-15.98l25.98,15.98ZM1768.44,201.52c-1.7-6.97-25.71-14.61-30.43-8.51,6.75.18,11.89,8.81,13.9,9.99,14.93-4.24.37,10.57,9.09,16.96,7.65-6.34-1.11-17.5,14.99-15.98.36-3.94-4.67-.77-7.55-2.46ZM1815.99,190.01c-3.88-3.95-7.98,8.8-6,11.98h10.02c-.17-6.5,2.06-10.24-4.97-5.96-2.63-.7,2.07-4.89.96-6.02ZM1729.67,206.39c-3.42-4.57-23.9-2.07-27.66,4.62,37.77-8.83,51.19,26.2,15.99,42.97,36.24,9.58,27.92-55.88,12.02-41.99-.17-1.69.58-4.36-.35-5.6ZM1881.99,245.99c-14.11-22.49-48.49-40.12-75.98-37.97l22.55,12c2.98,2.77,19.43,17.24,20.74,17.68,12.93-1.68,23.54,7.14,32.69,8.29ZM1896,237.98c-2.75-3.9-28-29.19-35.99-27.97,4.47,7.11,28.98,23.08,35.99,27.97ZM1716,245.98c12.15-2.07,18.87-15.8,10.88-25.86-7.56-9.87-25.64-6.17-6.89,1.87-10.81-2.39-18.82-4.39-29.99-1.97l11,19.94,12.99-13.95c1.63,5.96-9.37,12.48-9.85,15.25,4.07,12.43,8.03,2.89,12.63-3.49.98-1.66,5.66-18.03,9.23-13.76,1.73,2.08-6.18,19.49-9.99,21.97ZM1754.01,256.01l1.97-34c-1.31,13.62-3.96,21.79-11.97,33l10,1ZM1829.98,243.99c4.24-8.03-4.73-10.04-9.96-13.99-2.89,9.35,6.29,14.99-2.61,20.48-11.77,28.77,13.95,3.24,8.61-10.47l3.96,3.97ZM1680,239.98c-13.63-22.46-25.49,11.72-5.53,9.61,12.46-1.32,1.6-6,1.5-6.6-.65-3.79.63-3.1,4.03-3.01ZM1833.97,262c.97-10.09,18.68-18.92,7-25.98l-10.14,21.88,3.14,4.1ZM1917.83,274.18c-98.14-59-42.53-24.72-100.93,3.72-14.74,3.63-29.91.93-36.89,13.11-.43.85,12.04,4.7,5.8,15.68-9.35,16.46-40.26-.48-41.78,1.28-.4.46.39,5.45-1.94,7.2-1.25.94-5.11-1.72-5.92-1.15-1.39.97-8.62,30.49-8.13,32.87,1.22,5.93,15.69-2.74,19.45-4.32,27.55-12.5,64.62-17.98,84.5-41.59-20.94-.86,19.71-11.12,23.52-12.48,7.79-1.59,18.27-.98,26.48-2.53l-25.11-6.04c-4.88-1.79-19.87,7.29-18.89-1.93,30.77-7.01,59.39,10.68,90,11.97-2.85-4.62-15.36-8.51-10.16-15.8ZM1811.99,244.01c-15.48.1-38.07-3.94-41.97,15.99,8.68-6.45,25.77-20.8,32.84-6.46,4.29.8,10.2-4.57,9.13-9.52ZM1687.98,262c-10.82,5.95-21.38,1.45-29.96-6,4.26,12.96-.48,5-3,7.8-3.53,3.91-9,24.6-5,28.2,3.77,3.4,10.31-8.66,14.94-7.95,5.48-9.63,21.12-11.81,23.02-22.05ZM1719.25,260.82c-6.03-2.52-12.54-4.95-19.24-4.82.11,6.94-2.24,10.91,4.78,14.2,14.6,6.85,11.39-5.06,23.2-4.21.42-4.4-8.17.43-8.74-5.16ZM1632.02,310c14.73-10.73,10.55-34.93,19.96-50-15.08,7.97-15.12,34.54-19.96,50ZM1773.99,261.99c-6.77-2.13-9.47,23.76,4,20,3.46-3.37-3.74-6.74-3.85-7.27-.51-2.46,1.27-9.24-.15-12.72ZM1693.97,277.98c-3.52,2.9-2.41-11.01-5.93-9.98-9.1,16.1-30.8,26.1-44.17,39.36-.97,10.48,33.5,63.66,39.11,64.09,8.33-6.12,29.09-9.15,35.02-16.46.16-.2-8.18-2.91-.96-4.97,3.76-1.07,3.68,8.43,6.02,2-.93-8.69-.14-16.74,2.7-25.26,8.53-22.64,15.17-25.47.22-45.72-2.62.42-35.45-12.86-32-3.04ZM1666,368.02c-1.63,1.92,12.14,12.73,11.96,4.99-12.07-15.68-31.08-42.65-38.95-62.99-6.1,5.32-8.9,2.57-5.48,11.44,1.85,4.81,26.39,42.72,28.88,44.12,2.13,1.2,5.16.28,7.58.44.79,3.64-3.37,1.26-3.99,2ZM1939.98,342.03c-24.49-5.18-49.88-42.27-73.97-23.02,15.07,6.1,30.57,11.86,45.41,18.57,10.18,4.61,5.79,6.95,21.61,6.41,2.41-.08,7.44,1.51,6.95-1.96ZM1862,342h46c-16.04-5.55-47.99-27.86-65.24-16.21-1.85.55-6.48-.97-4.74,3.18-.49,4.69,37.1,32.4,23.98,13.03ZM1828.37,329.64c1.55-12.02-59.21,22.57-65.4,25.82-1.65.72-10.62-.1-10.94,4.5,0,0,4.9,3.9,4.9,3.9,29.66-10.64,61.76-13.86,93.07-15.88-3.82-2.45-15.08-19.15-16.19-19.82-.82-.49-3.92,2.68-5.44,1.48ZM2163.98,504c-54.67-67.18-129.59-142.72-219.97-151.98,76.52,40.86,159.27,89.77,219.97,151.98ZM2159.98,516c-43.11-53.27-191.14-159.07-257.98-159.98,78.8,56.35,182.32,99.22,257.98,159.98ZM2014,433.98c-37.13-29.08-79.5-50.84-119.86-75.12-22.15-4.13-89.36,6.56-112.14,9.16,116.37,60.91,280.46,110.88,364.83,220.15,59.94,72.12-20.41,22.34-58.4,16.4-112.68-36.9-212,40.51-313.15,81.71-9.25,4.52-36.72,15.86-38.85,25.14-1.78,15.18,6.45,40.55,15.55,52.57-9.26-34.68-25.05-50.34,19.31-65.7,35.79-17.23,78.82-33.61,116.22-47.78,45.29-14.09,126.23-66.44,150.51-1.52,8.74,22.68-20.59-35.3-43.03-29.14-78.87,16.63-172.54,63.17-248.66,94.45-8.73,80.57,89.34,113.93,142.73,145.67,4.2,1.25,3.38-8.93,4.84-13.07,13.02-29.08,34.12-36.99,33.88-70.16.3-.67,7.42-10.93,8.17-11.88,24.74-8.32,50.23-45.84,75.57-50.34,36.44-6.85,27.92-8.93,55.85-28.15,29.41-31.22,95.15-12.39,126.62-27.38,3.25-7.76-3.18-2.93-6.73-3.12-125.85-33.92-151.9,25.13-243.26,92.11,85.2-77.47,123.84-132.16,248-96,0,0-35.04-62.15-35.04-62.15-9.09-.15-2.46-1.47-4.07-5.9-2.69-7.42-34.1-43.8-41.59-51.24-53.77-44.79-116.49-107.09-177.29-143.71,13.33-5.25,66.53,50.45,79.99,44.99ZM952,426c-70.14-49.96-169.13-35.89-250.44-56.56-17.07-5-33.92-12.07-49.54,2.54,12.34.92,23.74,7.83,36,4.04l-2.03,3.97c66.44,5.25,163.51,17.07,219.13,52.08,7.1,1.03,14.4-6.07,17.89-6.07h29ZM955.98,422c1.34-1.74-5.47-18.57-5.82-23.18-.5-6.43,5.97-9.17-3.17-12.81-80.86-13.33-170.39-18.35-252.98-23.99,83.41,24.37,186.23,9.98,261.97,59.99ZM1749.99,366.02c-15.33-1.99-30.07,9.43-41.99,17.96,13.55-5.82,29.78-10.16,41.99-17.96ZM628,413.98c-15.4-32.96-107.11-70.9-31.21-15.77,11.45,11.27,8.63,19.75,31.21,15.77ZM647.99,376.02c-9.83-4.42-16.5-7.91-27.98-6l7.98,2-3.98,3.96c3.54.61,7.64-2.43,10.73-2.08,1.44.16.21,3.58,4.12,4.26,1.56.27,9.68,1.13,9.12-2.14ZM2139.98,590c-37.73-65.59-371.75-270.2-427.96-191,24.45,13.75,52.28,19.78,78.48,29.5,71.77,27.99,150.75,54.87,215.42,96.58,48.75,6.53,100.16,27.94,134.07,64.91ZM1394,711.98c-84.69-83.69-25.41-8.73-123.94-63.04-15.85-4.62-36.26-1.63-52.03-9.97-87.93-51.1-193.07-84.16-272.98-147.02-36.87-29-53.89-54.6-102.6-67.4-75.6-17.67-155.11-33.94-232.44-42.54-2.86,2.5,24.75,35.21,34,29.98,0,0-2.03-3.97-2.03-3.97h6.02s-2.01,5.97-2.01,5.97c41.09,12.56,84.57,30.02,121.84,51.19,49.54,32.31,86.96,98.7,136.15,133.85,165.73,51.3,335.92,86.54,503.05,132.95,2.9-6.11-7.88-8.27-9.66-13.3-170.28-57.19-363.13-74.49-522.42-156.61-18.98-18.42-36.44-42.2-53.79-60.16-52.75-61.79-133.24-80.97-205.13-111.92,6.32-8.21,37.35,14.56,45.44,13.61,90.26.55,213.48,46.87,277.59,94.37-81.74-40.28-177.25-87.67-269.03-89.98,242.73,92.2,472.22,237.33,723.99,304ZM957.96,390.04c-9.7-2.9.37,24.39,2.97,29.92,5.83,18.62,10.04.68,17.57,12.62,5.73,2.99,33.59,16.05,37.49,11.39l-58.03-53.93ZM1693.39,462.6c8,16.4,23.2,28.21,35.61,41.36,4.97-3.97,2.35-10.72,3.5-16.46s7.68-24.89,7.03-28.25c-7.18-14.44-47.9-41.17-48.52-63.24-35.86,18.59-37.7,12.31-11.93,52.09,2,1.88,4.67-.23,4.79-.02-.34,6.64,2.84,11.3,9.51,14.52ZM1716,415.98c-4.08-1.7-13.83-20.42-14.99-19.97-8.29,3.21,1.57,7.53,2.3,8.64,3.87,5.93,2.14,13.8,12.69,11.33ZM852,559.98c-51.76-69.96-126.2-119.11-209.99-141.96-.77,3.93,1.83,4.77,4.59,6.38,44.71,28.16,102.55,39.07,137.45,82.55,21.06,27.21,33.14,45.99,67.95,53.03ZM891.99,430.03c-2.08-2.14-25.24-10.88-29.98-10.01,1.89-.64,34.81,22.17,29.98,10.01ZM654,459.98c-7.23-23.55-11.12-36.4-39.99-33.97-1.98,9.32,23.55.98,25.99,11.97l-21.99-2.99c12.56,9.58,16.91,29.29,35.99,24.99ZM1375,506c-10.21-1.27-22.52.93-33,0l23.99,3.98c-131.19-6.26-317.11,59.46-401.57-73.89-11.96-5.75-37.83-.98-50.41,2.9,104.11,109.68,261.15,147.3,390.63,219.37,21.14,12.95,41.08-1.11,62.27-.39,23.63.8,51.95,13.52,75.94,16.17,27.83-46.87-21.78-88.7-36.75-130.99-9.81-.36-3.39-3.82-3.88-10.12-.22-2.85-1.98-17.96-2.49-18.76-.7-1.1-22.1-7.95-24.72-8.28ZM1854.02,596s65.99-34.97,65.99-34.97c13.74-33.5-153.02-108.47-184.01-127l7.99,6.99c-26.68,6.67,106.12,93.76,101.02,116.98l-70.02-67.98c-3.54,18.08-28.54,17.97-38.98,30.98,18.96,24.19,56.43,47.32,53.98,81.02,22.26-2.73,43.67,7.76,64.01-4.08l-3.98-33.92c7.12,6.52,6.66,22.36,4,31.99ZM1961.74,533.77c-32.36-51.93-153.57-72.76-211.74-99.75,34.43,32.05,173.26,77.89,176.02,123.98l29.97-14.02c-2.62-.52-17.2,5.69-13.98-1.94.81-.87,19.12-7.28,19.74-8.26ZM922,457.98c-6.95-8.04-17.6-19.77-28-21.96l28,21.96ZM1329.99,506.02c-124.41,1.31-245.12-22.74-357.99-68.01,57.22,112.07,256.26,69.2,357.99,68.01ZM686.57,457.41c-5.99-9.66-22.12-13.47-32.57-17.39,15.19,11.71,15.8,35.51,35.99,37.97,2.95-3.13-8.99-16.85-11.98-19,8.64-.91,15.06,13.09,17.27,21.2l64.72,25.79c-16.14-22.24-47.22-40.26-73.43-48.57ZM2124,495.98c-9.72-7.15-102.41-77.29-93.52-41.48,2.86,16.52,6.56,4.66,12.8,3.98,28.75,7.33,53.34,26.64,80.72,37.5ZM1744.02,466c-5.16,8.64-.58,21.98,10.04,15.06,5.84-3.81-7.28-13.07-10.04-15.06ZM1228,667.98c-133.61-69.33-289-138.99-428-193.96,32.92,29.84,58.77,72.59,95.23,97.75,106.56,42.75,222.66,63.74,332.76,96.22ZM1233.99,635.99c-87.09-62.21-211.6-86.17-293.99-161.97,81.06,74.56,196.31,115.76,293.99,161.97ZM691.38,484.64c-36.09-22.13-33.78,13.08-5.36,9.38l-1.94,3.85,23.91,12.14-16.6-25.36ZM2142,523.98c-25.44-19.45-56.23-35.6-86-47.96,24.07,21.9,57.05,33.33,86,47.96ZM806,539.98c-18.28-20.08-34.93-48.47-60-59.96,7.07,9.73,17.16,16.99,25.03,25.95,10.57,12.05,18.19,30.66,34.97,34.01ZM1994,524.02c-30.96-12.76-60.59-29.37-92.07-40.95-2.45-.9-8.3-4.81-9.91-.07,19.01,12.83,79.26,22.92,74,54.98,3.29-.65,30.04-11.27,27.99-13.96ZM1740.55,491.59c-2.53-29.33-4.08,15.92-4.54,18.4,7.86-2.34,34.94-12.57,27.75-22.72s-20.17,18.62-23.74,14.73c-4.9-5.41,11.35-7.7.53-10.41ZM714,516c-17.33-5.43-38.06-5.25-55.99-.03l143.98,40.01c-15.67-29.31-64.73-20.64-88-39.98,24.72,4.48,48.19,12.22,72,19.98-12.49-24.34-54.83-36.98-79.41-45.58-12.94-2.28,11.46,19.24,7.41,25.6ZM693.99,506.03c-16.58-13.45-73.18,2.68-91.98,3.95,29.44-4.2,65.48,2.59,91.98-3.95ZM2137.98,550c-.9-6.79,2.32-17.77-2-22.98l-51.98-27c18.24,16.38,37.34,32.01,53.98,49.98ZM615.98,522c1.54-13-15.88-6.66-23.97-7.98,4.29,7,18.07.56,23.97,7.98ZM649,514c-7.08-1.87-20.96,1.36-29,0,28.65,22.94,186.44,72.95,222.99,86.05,4.15.74,3.43-1.95,2.91-4.93-6.88-14.14-27.31-49.55-45.89-50.13,5.88,5.88,15.41,13.79,13,23-46.52-23.95-117.96-24.31-164.01-53.99ZM546,518.02c-2.79-.51-38.8,1.56-31.98,7.98,9.83-6.37,28.95,4.69,31.98-7.98ZM568.1,555.88c56.88.78,49.56-38.88-2.11-37.89-.14,12.73-.51,25.41,2.11,37.89ZM552.53,545.53c-3.11-7.17,5.55-17.56,3.45-25.53-27.28,21.49,18.66,50.68-3.45,25.53ZM822,554.02c5.48,9.11,50.16,55.22,15.18,49.83-72.27-27.94-149.78-45.06-217.17-83.84-2.91,2.95,23.43,39.78,29.49,43.49,28.46,16.61,76.88,33.68,108.61,31.38,37.63,28.13,85,45.64,129.82,62.18,22.94,7.5,52.58,29.15,74.05,29.95-17.46-17.67-59.4-83.43-78.97-95.03-17.72-25.31-32.77-29.16-61.01-37.97ZM1482.02,683.97c90.08,1.29-42.55-147.15-73.99-163.97,5.72,52.66,76.5,100.57,41.98,155.97,13.08,4.55,24.24,6.82,37.99,4.05l-5.98,3.95ZM542,528h-28l2.02,8c8.64-13.35,28.01,1.76,25.98-8ZM2085.99,556.03c-26.1-7.69-58.99-27.3-86.82-23.85-56.92,18.02-109.28,56.03-163.16,81.85,8.83,12.22-.69,1.54-5.31,3.44l-62.82,35.56s.12,6.96.12,6.96c-4.94,2.58-3.69-4.37-4.96-4-3.86,1.11-30.27,17.7-34.88,21.17-5.67,4.69-5.68,9.8-13.12,10.77-18.91,8.16,63.35,213.88,76.95,215.09-28.88-49.9-46.26-125.27-69.97-167,3.52-13.44-4.89-26.14,3.98-39.01,54.03-43.56,128.88-71.34,191.28-102.72,41.86-18.9,92.37-48.89,137.69-27.04l31.02-11.21ZM2185.97,622c.98-8.16,19.51-23,17.13-29.88-13.54-20.18-38.25-49.04-61.08-60.11-4.6,24.65,4.97,29.71,16.04,46.94,2.68,4.18,25.77,44.49,27.91,43.05ZM2195.98,574c.44-5.19-40.83-53.64-35.99-35,7.19,10.97,26.67,24.61,35.99,35ZM674,585.98c-24.46-15.3-36.93-21.44-50.02-49.97-7.49,9.82-14.77,19.95-27.96,22.02l77.99,27.96ZM659.99,590.03l-81.45-27.6c-22.99,1.95,16.86,10.37,7.48,23.57,21.95-9.16,56.86,15.24,73.98,4.04ZM2047.98,590.01c25.8-91.83-285.28,86.29-313.94,104.98,12.64,7.93,52.01-24.23,68.61-29.34,24.4-10.04,48.03-24.82,73.35-31.68-.99-7.02-9.08.94-9.98-3.95,10.65-6.24,12.19,2.21,12.94,1.99,52.68-16.24,110.2-60.39,169.02-42ZM2067.88,578.13c-9.61-6.68-8.37,10.29-7.87,13.88,5.54,5.36,10.4-10.61,7.87-13.88ZM2084.01,576.01c-18.45-.75-8.61,6.36-14.02,17.97l58,14-44.1-25.01c-3.26-1.4.43-6.71.12-6.96ZM639.98,596.03c-81.22-36.39-96.83,80.11-146.87,118.04,0,0-19.1,29.93-19.1,29.93,38.17-41.07,75.91-87.45,107.6-133.42,2.7-6.9-7.02-2.75-1.63-7.63l60-6.92ZM512,763.98c93.47-.68,44.85,36.03,118.47,3.49,6.08-1.97,21.78-4.09,25.46-6.54,12.55-16.45,5.71-84.82,34.2-95.8,2.7-1.86,27.67-16.24,29.29-16.71,6.91-2,18.53,1.96,23.78-2.22,1.6-9.69,16.58-25.85,3.95-30.37-17.04-2.09-56.63-26.5-71.17-22.98-64.07,32.09-128.9,109.41-163.99,171.12ZM576,596.02c-9.98.75-18.23-3.48-28,0,5.03,7.8,3.57,17.68-2.99,5.98-10.4,6.69-6.43,17.32-7.03,27.98-5.89-2.16,2.94-17.92-5.97-15.98,2.07,17.29-3.74,33.18-5.99,49.98l24.8-33.91c-2.58-15.22.72-7.38,7.37-11.03.88-9.6,13.07-14.24,17.81-23.04ZM780,615.98c-10.36-10.01-23.17-21.43-37.99-15.96l37.99,15.96ZM635.99,602.02l-46.67,3.89-9.32,16.07,17.99,1.18,38-21.14ZM1832,608h-47c-1.63,0-19.57,19.75-24.99,21.02-.87,5.11,8.93,2.95,13.03,13.02,0,0,22.95-14.03,22.95-14.03-4.61-2.12-30.97,1.13-25.98-6.01,40.46,2.66,23.84,9.87,61.99-14.01ZM785.89,624.24c-1.26-1.62-24.04-7.65-27.87-10.24l2,12c5.33-4.98,16.85-4.78,21.43.57,1.59,1.85.41,6.92,4.53,7.43-1.39-2.09.2-9.37-.1-9.75ZM1003.6,642.79c-29.4-8.93-58.82-21.55-89.6-26.76,1.11,5.92,10.01,2.81,11.77,4.21-.16,20.21,38.79,32.48,54.23,42.42,118.27,70.21,263.19,119.35,367.81,210.44,30.3,45.53-112.05,72.96-88.57,94.69,79.13,39.3,111.47,4.02,187.79-1.76,98.33,5.18,190.96,48.57,286.97,67.97-135.09-42.29-280.28-116.94-419.97-49.98,20.15-19.92,112.08-35.28,140.96-35.98,89.22,13.22,176.02,49.46,262.06,75.94,5.78,1.89-.58-9.87,1.17-14.72-193.81-126.77-472.28-235.16-692.2-358.25,236.53,111.58,479.41,229.01,709.11,356.88,4.79,4.65,5.48,8.26.93,13.25-23.19,9.32,22.98,12.54,25.97,16.91.74,1.03-2.46,5.53-2.04,5.96,0,0,10.02,1.99,10.02,1.99-65.54-116.32-301.81-150.4-376.18-266.99,3.55-29.32,115,6.25,141.2,2.98-118.02-48.3-368.98-92.37-531.42-139.19,14.18,7.01,2.85,29.12-11.12,21.7-14.18-7.01-2.85-29.12,11.12-21.7ZM614,624.02c-36.19,19.2-102.21,102.61-115.98,141.98,5.93-4.68,12.89-12.14,12-20.01l3.97,2.03.03-10.03c.16-.23,3.23,2.07,3.7,1.76,25.33-41.67,65.75-77.09,96.28-115.73ZM589.99,630.01c-.68-.62-14.36,1.67-16.47,2.51-70.46,89.23-154.32,174.08-225.5,263.48,54.31-51.93,101.22-113.63,155.44-165.29.92-4.11-6.28-4.85,7.12-5.12,24.93-31.99,58.72-61.62,79.41-95.58ZM1694.84,682.88c21.19-12.34,42.74-23.77,62.19-38.86,0,0-10.01-9.61-10.01-9.61-50.27,28.54-98.8,61.31-150.61,87.01-3.67,1.63-20.37,6.07-20.37,7.59,30.36,19.8,88.37-32.46,118.8-46.12ZM982.87,793.14c-25.12-35.72-59.21-63.18-92.93-90.08-20.48-25.32-41.58-56.57-75.87-62.28-2.18-.42-3.56-1.4-5.15,1.13.12,15.4,2.81,101.05-16.92,104.12,11.61,14.49,4.55,8.46,0,21.94,19.84,10.62,29.16,2.37,47.59-1.38,27.88-18.18,170.51,49.88,143.28,26.54ZM764.01,653.98c6.62-.39,13.37.14,19.01,3.97l2.96-11.94c-9.58,9.03-16.49,2.79-21.97,7.98ZM1064,783.98c-31.28-27.92-68.15-47.16-92.07-82.91l-99.91-43.07c29.46,46.4,61.39,54.45,107.74,75.24,28.59,17.38,52.91,38.55,84.24,50.74ZM742.01,664.03c-12.15-4.42-21.86-1.97-32.78,3.84-4.8,1.8,10.3,13.82,11.82,13.68,1.6-.15,3.55-4.32,6.34-5.16,10.65-3.22,12.79,5.77,14.62-12.35ZM779.86,668.16c-.84-1.2-27.11-6.5-28.55-6.29-1.98.29-6.02,11.51-7.31,14.11,1,1.34,30.71,6.73,32.81,6.18,1.64-.43,4.11-12.5,3.06-13.99ZM1161.98,779.96c-56.6-51.67-136.86-77.82-203.97-115.95,77.04,101.81,215.13,148.27,250.01,277.99,2.04,1.53,27.9-32.18,29.98-35.98-16.36-1.19-11.73-17.44-16.66-25.39-8.69-25.16-106.55-80.22-59.36-100.68ZM1703.98,700c-120.3,66.99-145.31,72.73-274,13.02-18.94-14.82-33.76-43.72-61.07-43.08-3.31.08-4.84.11-6.87,3.07,21.61,20.57,46.6,37.51,63.18,62.78,33.33,16.21,114.55,19.51,134.04,49.95,8.63-1.95,137.63-61.27,146.72-75.74l-3.97,2.03,1.96-12.01ZM2113.99,672.02c-19.52,1.19-49.77,14.79-57.98,31.97,3.11,2.84,31.02-20.22,36.65-22.33l21.33-9.64ZM1103.66,812.36c-42.56-22.96-85.94-48.96-125.57-75.45-36.63-14.11-73.31-26.84-98.07-58.9,12.42,24.8,39.18,38.18,59.03,55.95,32.3,28.95,55.18,72.14,93.51,90.11,4.52,14.07,5.61-18.55,7.5-22.98.32-5.65-2.74-20.26-2.06-21.07,3.7-4.4,7.78,11.43,7.92,13.23.73,9.07-4.13,19.5-3.94,28.75,23.91-2.99,63.96,32.11,61.67-9.64ZM1455.99,690.03c-.21,2.47-71.77-22.3-50.04-4.98,19.02,18.99,49.21,48.96,78.04,35.97-5.34-5.75-17.2-3.44-22.67-6.83-4.89-3.04.39-11.16-9.31-6.18-2.37-21.61,4.63-8.77,3.98-17.97ZM734,682.02c-11.16-7.19-11.15,42.15-13.99,45.97,6.08,1,3.18-1.56,4.03-4.86,2.58-12.46,4.83-30.82,9.96-41.11ZM715.98,712.02c-.21-4.29,4.56-12.21.12-15.12-3.92-2.57-31-4-38.08-6.9l-2.02,13.99,39.99,8.03ZM1102,801.98c-38.52-37.06-84.63-65.53-121.98-103.98,10.84,26.59,99.4,86.71,121.98,103.98ZM1683.99,704.02c-6.62-.12-26.33,12.71-31.98,15.96,6.62.12,26.33-12.71,31.98-15.96ZM713.86,716.16c-56.36-12.5-32.76-10.29-49.62,55.6,56.01,13.85,32.44,11.04,49.62-55.6ZM1605.99,742.02c-50.13,3.52-18.21-22.93-56.55-12.3-5.37-6.84-25.32-13.57-32.8-15.28-3.76-.07-25.07,16.13-34.63,11.57-.59,5.27.09,3.16,2.95,4.02,38.71,11.43,84.49,34.44,121.04,11.99ZM1775.98,1041.99c.42-46.93-14.33-98.05-.36-142.48-21.56-60.2-49.42-118.15-67.65-179.5,1.04,3.31-154.11,68.01-141.97,73.98-1.17-5.98-79.1,34.25-81.95,34.99,6.13,38.31,178.77-75.92,217.11-80.79,3.48-2.15,19.1.95,14.82,5.8-3.56,4.04-3.16-4.42-6.79-4.06-8.6.85-31.3,11.68-40.55,15.72-55,27.47-118.18,51.7-168.63,82.31,0,0,69,43.36,69,43.36,55.21-20.08,110.09-42.08,166.99-57.29l-163.99,58.97,181.83,108.17,6.58,7.42,15.57,33.4ZM2026,722.02c-25.95-6.89-72.81,40.62-87.55,55.43-3.03,6.36-2.8,15.56-4.42,22.55l91.98-77.98ZM1858,891.98c-24.71-9.03-56.44-30.66-76-46.98-21.94-34.38-37.19-83.19-53.98-120.99,24.76,106.19,95.1,220.01,124,325.98,13.89-231.1,83.71-154.94-88.01-251.98-.69,5.5.76,8.41,5.97,5.99-1.28,48.43,59.56,60.02,88.01,87.98ZM721.98,730c-4.79-7.79-8,26.55-7.98,25.99,9.56,4.43,8.69-22.5,7.98-25.99ZM2072,767.96l-15.98-27.95c-2.37,7.46,2.53,19.13,2,24.96-.46,5.02-6.67,5.85-6.01,11.02,5.54-.1,9.25-2.18,8-7.98l3.01,4.01,8.98-4.06ZM2372,841.98c-46.71-46.35-107.3-81.46-169.9-101.07-14.01-2.61-31.52,6.03-47.02,7.17-28.75,2.12-60.05-1.75-89.08-.06,126.56,161.11,45.62,23.08,248,79.96-60.57-47.49-144.46-51.82-217.99-57.99-5.12-5.57,17.56-8.93,19.63-9.36,27.53-5.67,56.44-7.48,84.35-10.62.94,5.69-1.17,3.34-4.62,4.26-27.55,4.61-67.45,7.46-95.36,13.71,74.44-1.73,147.26,12.47,211.33,51.68,18.25,14.72,37.54,21.89,60.66,22.32ZM489.68,765.67c1.11-.66,9.26-20.19,10.3-23.67l-23.96,23.03c-.48,5.52,1.23,1.6,3.49,1.47,2.5-.15,9.01-.13,10.17-.82ZM765.99,748.01c-13.08,1.61-25.18-2.82-37.98-3.99,10.18,4.19,24.85,6.13,35.47,7.54,3.86.72,2.42-.17,2.51-3.55ZM2030.02,761.99l-2-11.98c-3.11,13.26-.33,40.1,4.33,51.76.86.86,4.11.11,5.66.24l-2.01,5.97c2.75-.06,19.61-14.61,16.04-2.98,1.25,3.18-52.99,19.81-35.06,28.48,59.55-29.19,38.71-23.24,16.99-77.47l-3.95,5.98ZM438,756v30l28-31.98-28,1.98ZM432,786v-30c-6.3,4.2-6.42,25.52,0,30ZM2008.02,767.99l-.04-11.99c-15.33,7.37-2.11,19.58,2.19,31.02,1.86,4.94-.24,14.13,5.81,16.97-1.9-9.65,4.49-2.88,9.98-6.95l-13.98-41.02-3.95,11.98ZM734,772c.97,1,23.93,0,28,0,.4,0,.28-7.7,0-7.99-.95-1-26.08-1.66-27.12-.11s-1.39,7.59-.89,8.1ZM714.31,783.72c-5.61-8.88,10.81-14.67,7.67-17.72-14.82,2.44-9.88,13.29-13.79,18.73-5.84,2.68-5.81,1.87-9.55,7.3-9.01,2.5-5.52-3.39-7.03-5.5-.85-1.19-26.13-7.14-28.33-6.7-2.05.41-7.19,18.26-12.29,20.12-10.62-6.9,1.63-19.53,5.31-28.66,8.08-9.46-40.86,2.62-40.16,25.5,21.27,20.79,36.45,14.15,63.05,7.4,6.82-1.06,25.16.53,30.34-2.67,1.99-8.68,10.9-5.98,14.45-10.56,1.17-5.11-8.9-6.02-9.68-7.25ZM531,772c-15.06-1.16-32.6,0-48,0-7.2,0-.26,26.03,1.42,30.59,87.33,159.73,273.14,264.57,436.54,333.47,10.87-15.69-10.67-31.54-12.66-43.57,11.51-24.08-58.16-.83-69.33-.52-10.35-11,53.39-13.85,58.11-15.63,11.46,4.51,14.24,2.53,24.92-2.31-95.16,10.61-166.21-63.38-238.06-114.96-54.48-42.8-182.42-109.2-189.92-177.05,29.4,2.85,40.06,3.44,54.96,30.08,19.38,15.62,44.36,29.43,65.66,44.28,7.73,5.39,15.3,11.38,22.38,17.62,1.58.69.15-2.96,2.46-3.89,24.07-9.65,83.68,18.45,108.95,26.47-24-24.65-110.7-71.57-157.07-100.93-19.81-11.04-37.26-21.87-60.35-23.65ZM1991.98,772c-1.63-1.46-24.91,14.99-25.69,16.32-2.62,4.48,6.93,14.62,7.9,19.56,1.84,1.27,23.48-12.93,24.92-15.93,2.58-5.35-8.11-13.37-7.13-19.95ZM807.99,780.03c-47.46-16.62-18.78,1.99-41.97,6,6.19,4.99,15.5,14.27,3.51,20.51-4.05,1.86-10.6-.17-11.52,3.45,53.45,7.25,105.78,42.3,136.47,85.53,1.96,1.14,40.77,8.42,44.63,8.55,23.65-.52-9.47-28.99-20.58-27.59-5.53-.92-25.48,1.37-26.52-3.5-2.2-10.34,29.9-7.06,35.99-2.99-10.11-12.51-20.77-29.62-39.09-30.03-5.45-.12-36.81,10.16-24.87-2.9,5.86-6.41,20.01-5.04,27.96-5.06-16.1-19.51-42.64-29.22-63.29-10.3-26.94-6.43,17.23-18.89,23.28-21.65-31.07-16.48-41.53-15.5-68.96,3.96-10.1-2.81,5.42-15.86,9.88-18.08l15.08-5.88ZM1551.99,788.02l-147.98-14c2.97,2.95,66.57,33.57,48.99,33.94-15.39-13.44-37.28-21.38-54.98-31.96,4.9,26.15,58.63,57.95,81.01,71.98,10.35,1.6-32.03-32.86-22.85-39.8.81-1.16,10.17-1.48,11.81-5.19l-9.98-4.97c29.77-2.14,67.35,4.11,93.98-10ZM469.99,776.01c-9.6,2.15-16.34,14.51-24.08,20.95-9.57,11.88-26.54,23.6-31.89,37.04,3.09-3.77,59.82-52.84,55.97-57.99ZM768,778h-43c-.96,0-3.51-3.58-5,2,.45-1.15,51.53,2.59,48-2ZM1181.53,776.76c-19.5-.67,78.51,59.1,86.5,68.22,38.37,22.51-4.49,66.13-21.19,90.86-2.39,3.11-17.84,16.52-14.81,20.16,22.31-20.74,130.23-51.52,99.93-88.94-15.68-20.13-124.25-78.57-150.43-90.3ZM907.45,796.58c-3.88-3.14-35.5-9.63-43.34-11.68-5.88-1.54-13.72,1.33-14.14-6.9-1.4,1.8-12.78,6.82-9.95,9.97,55.71,13.12,110.62,29.69,163.47,51.7,30.73-6.89-65.61-38.23-71.43-40.77-15.96-4.05-9.92,20.62-24.61-2.31ZM2067.99,778.01c-21.72,2.43-6.87,14.66-5.97,27.98l5.97-27.98ZM2167.98,948c-29.79-51.62-59.61-119.54-93.96-169.99-2.58,7.26,5.89,12.21-2,15.32-13.45,64.47-1.83,71.45,33.59,122.06,8.09,24.7,30.83,60.69,48.39,77.66,15.95-15.36,17.66-52.87,13.97-75.03l-3.96,13.98-19.83-92.73-16.35-6.1s-42.85-49.15-42.85-49.15c22.24,54.97,64.66,104.72,82.99,163.99ZM901,780c-11.09-1.14-23.72.83-35,0l45.13,11.86c2.71.66,9.62-7.24,8.87-7.84-6.23,1.09-13.88-3.5-19-4.02ZM1190.68,797.33c-.34-3.94-23.97-22.83-16.72-10.3,31.68,32.83,87.1,47.53,106.02,90.96-1.52-41.76-62.79-55.27-89.3-80.66ZM728,796h28c.51,0-.39-7.76,2-9.98-10.65,1.91-32.8-6.58-30,9.98ZM928,793.98c28.49,7.3,56.32,24.59,83.55,33.48,3.67,1.2,5.45,4.07,8.41-.46-22.15-8.3-71.27-47.11-91.96-33.02ZM1240.6,861.39c-14.16-32.09-54.68-46.73-80.58-69.39,13.88,35.96,63.13,72.5,94.98,93.97,18.08-18.73-5.24-16.35-14.4-24.58ZM528.01,798.02l-22.01-4,15,19.94,7.01-15.94ZM1009.91,844.08l-147.9-46.06c37.62,30.16,90.49,36.57,136,50-6.03,14.87-82.63-24.41-102.01-24l37.72,39.26c-1.19.63,67.89,17.78,41.79,16.23-31.01-6.1-47.62-18.78-20.52,16.44,12.1-16.15,44.97,4.13,37.03-20.75,6.26-26.32,22.56-.79,17.9-31.12ZM2005.99,800.01c-1.58-1.57-37.36,20.93-38.07,23.05-2.53,7.56,3.67,2.41,5.13,4.91.66,1.14-1.22,3.86.73,7.04.5.82,7.69,7.89,8.22,8.13,1.14.51,20.38-11.99,21.11-13.16,2.1-3.37-1.54-8.41-1.13-12.8s8.55-12.66,4.01-17.16ZM535.96,802.02c-3.15-2.67-3.44.79-4.42,2.54-11.97,21.24,7.46,32.32,22.44,43.45.5-11.5-12.53-36.7-18.02-45.98ZM1511.99,808.02c-12.51-2.83-25.84-3.38-38.02,1,3.58,23.29,26.71,6.23,38.02-1ZM685,840h39c-3.62-5.95-22.32-4.45-19.79-14.62s31.85-2.17,26.82-9.39c-10.98-15.73-66.28-4.77-83.02.04l36.98,23.97ZM1897.98,863.99c-4.59-24,46.05-51.65,32.99-55.98-12.65,6.72-43.26,39.88-32.99,55.98ZM1467.76,810.26c-23.38-7.91,16.26,37.29,22.24,35.73-7.71-10.56-19.99-22.81-22.24-35.73ZM888,893.98c-29.02-38.26-73.08-66.9-120-77.96,6.85,13.27-4.06,18.03-15.99,18,.32,3.31,4.9,2.06,8.17,4.79,3.08,2.57,4.19,7.65,7.91,10.1,9.27,6.09,29.98,11.55,41.64,18.36,7.12,4.16,27.93,22.34,32.24,23.62,18.19-5.94,30.25.75,46.03,3.09ZM2098.35,983.52c4.56-6.75,33.71,63.27,35.54,63.67,61.73,11.74-77.72-172.19-75.71-194.37,1.25-51.68-5.19-30.8-38.17-14.85,25.63,17.16,63.64,130.46,78.34,145.55ZM2237,820c-10.5-1.04-22.34.76-33,0,60.01,17.4,115.81,48.64,150.41,101.43.59.43,16.1-.1,3.57,5.53,42.22,59.88,42.68,134.52,30,203.06l-3.97-2.04c-60.45,226.33-415.84,217.94-464.04-9.99l-3.97,2.03c-10.41-76.4-3.18-151.67,48.04-212.96,7.11-9.11,28.23-22.89,18.96-33.01-5.49,3.96-12.24,6.04-19,5.97-.87,3.26,3.48,1,4.03,3.25.47,1.92-.31,4.57-.02,6.72l-26-1.97,3.98,3.96c-12.42-5.14-22.41,11.67-25.97,22.02,4.34-2.78,27.65-4.52,25.97,2.97-1.55,6.91-9.84,2.82-12.76,3.26-24,3.64-24.17,8.32-33.23,29.75,1.71,1.37,25.52-11.48,25.95-2.99.43,8.62-26.59,10.4-32.04,18.44-1.1,1.62-8.76,25.49-7.89,26.57,5.15-2.33,24.84-14.51,25.94-5.04-1.6,7.74-23.31,10.16-28.07,18.43-8.46,42.89-1.94,13.98,20.1,14.62-10.62,27.8-29.3,9.61-23.97,53.99,5.05-3.33,13.72-18.8,19.98-10.97-11.29,24.44-23.39,13.21-15.98,50.96,2.6,3.1,19.49-26.64,21.99-12.95-10.32,19.74-23.69,24.06-7.98,54.94,3.43-1.71,8.98-18.87,10.25-19.67,7.18-4.92,19.85,14.48,5.76,7.66-4.36,7.6-12.62,25.31-6.06,33.19,1.63,1.25,6.42-2.07,8.04,1.89-3.45,5.47-4.98,9.26,1.96,12.95.01-29.81,21.84-29.99,8.19,1.21l3.86-.18c-7.12,15.72,2.08,21.38,9.96,33.99l4.39-21.64c.97-3.03,3.72-4.28,6.6-3.37,7.18,2.27-.78,19.61-1.04,25.07-.75,16.17,11.42,17.48,19.07,28.9,2.73-4.93-2.81-25.37,7.97-21.97,4.89,1.54,2.29,20.92,4.34,27.66,3.02,9.88,15.07,14.61,22.66,20.32-1.18-9.2-6.85-17.59,1.01-25.96,19.09,13.89-4.25,33.8,33,43.94.98-5.33-9.99-26.97,3.53-20.6,8.51,15.04,10.76,36.24,38.47,33.62-6.92-4.7-13.09-28.21-.32-20.66,7.42,16.51,11.21,29.89,37.48,29.52,5.04.85,2.17-.85.92-2.94-4.8-6.17-13.09-21.09,1.91-14.93l-1.98-5.98c2.74-.53,7.04.16,7.99,2.99.64,1.91-4.8-.57-3.85,3.74,4.5,20.26,25.69,17.91,41.84,17.23-2.06-4.04-8.7-5.28-10.94-10.03-3.49-7.44-.53-10.46,6.9-6.9s12.32,16.22,25.07,17.09c38.36-4.84,8.23-2.59,8.98-20.13,20.29,6.24,32.24,17.23,53.98,5.97-5.46-7.15-18.58-5.86-15.99-17.97,30.69,7.39,23.18,16.76,55.99-.03-3.09-5.62-10.01-3.25-15.92-7.05-13.44-13.52,22.09-3.22,27.05-3.19,6.06-.26,20.55-12.52,24.88-17.71-38.24.98-22.71-16.1,4.97-7.88,9.9-.4,18.82-13.12,25.03-20.12-9.67-.62-22.18,4.14-20.01-10.01,24.13,2.95,35.59-2.98,48-23.02l-22.98,1.02c-5.1-18.03,39.74-3.36,40.01-36l-15,3.97,5.98-3.96c-17.36-5.8-12.64-8.16,2.01-11.02,14.94-6.41,22.27-14.01,23.99-30.99-1.51-1.59-16.16,10.96-21.08,4.07-2.93-15.1,34.94-8.92,29.07-48.08-.82-1.15-22.06,19.29-22.06,6.98,24.07-26.09,25.76-10.12,24.08-52.98-5.27,1.02-5.21,8.61-8.04,10.96-2.16,1.79-6.1,1.53-8.66,2.97-1.97,1.11-.17,4.84-3.27,4.06-9.95-15.47,37.08-30.21,10-57.97-.88,5.67-12.25,22.88-17.13,12.01,11.83-22.81,22.57-24.09,5.12-58.01-.18,9.05-2.56,25.8-14.01,25.98.23-20.57,17.21-35.43,0-55.01l-3.99,3.01-1.02-12.01c-.4,8.51-3.64,15.84-5.84,23.84-.93,3.38,4.11,4.99-5.17,4.17l2.04-3.97-6.04-.02c7.96-21.69,11.05-41.29-9.97-55.99.01,5,2.18,27.96-6.99,25.99-5.3-1.14-.65-12.7-.85-16.98-.84-18.09-4.94-30.91-22.16-39.01,4.15,4.73,1.98,31.81-6,25.99-2.49-1.82-1.79-31.77-5.91-34.96-4.41-3.41-16.71-3.03-22.09-7.03l1.99,16.99c-11.35,5.82-9.18-16.33-13.27-19.19-29.56-9.51-14.77,1.31-27.74,2.23-4.98-12.11-6.8-9.48-20-12.04ZM581.45,838.7l-27.44-16.69,7.98,33.98-17.98-5,117.99,86.99c-10.26-19.88-24.52-39.39-27.02-61.96-6.29-5.32-41.79-32.78-52.66-32.45-.78-.75,0-4.02-.87-4.87ZM1926,890.02c-4.54-3.3-30.68,7.66-29.76-2.72,6.87-15.71,36.02-40.64,46.9-53.34-3.24-27.64-31.38,10.56-36.12,22.06-1.54,3.58-4.29,17.44-5.05,17.98-19.2-13.62-23.66,61.09-29.01,73.96-13.43,59.41-12.07,127.43-11.4,186.59-2.91,14.28-17.45,18.4-29.05,22.95-70.64,32.81-148.77,23.13-223.41,18.42-24.44-5.1-152.39,18.85-145.09-13.92-31.19,3.96-67.38,4.03-98.89,4.07-16.68-.26-40.62-14.29-54.17-14.12-44.68,15.92-39.44,28.55-91.83,11.99-27.12,1.06-69.93,11.52-96.09,20.08-34.32,5.75-84.9-6.17-118.12,4.04-5.39.91-10.45-2.3-15.8-2.12-69.63.79-51.9,88.74-209.09,136.05h1293.98c-182.05-47.63-265.64-283.18-147.99-431.96ZM2347.98,926c-24.08-54.14-128.97-122.46-189.92-91.93,404.43,102.3,124.82,633.75-172.9,343.78-57.01-76.07-52.35-186.61,10.51-257.11,1.68-5.2,1.39-35.49-7.71-31.78-81.36,74.17-95.83,206.49-33.23,297.3,168.8,260.18,572.8-10.22,395.27-263.28l-2.03,3.02ZM1096,838.02l-55.99-12.01c6.98,28.52-43.81,37.56,13.98,31.97l-5.98-3.96c5.91,2.82,57.34-5.47,47.99-16ZM1132,839.97c-3.75-4.42-12.76-18.48-18.12-10.59-5.94,8.76,7.23,8.53,6.11,13.59-.31,1.38-3.86,4.09-5.76,2.73-.9-.64,1.5-4.78-3.2-3.71-2.71.62-3.45,8.8,7.49,5.52,4.71-1.41,8.04-7.24,13.49-7.54ZM1034.01,832.01c-18.05-3.91-16.74,7.38-17.99,21.98,11.26-2.15,18.79-10.33,17.99-21.98ZM2005.35,834.28c-1.49.13-19.29,11.57-19.31,12.72,3.41,2.37,14.44,16.23,16.93,16.44,4.71.4,16.35-11.76,21-14.43.04-1.28-16.15-14.95-18.62-14.73ZM2151.99,836l-3.55,2.52,7.54,31.47-3.99-33.99ZM1945.45,879.44c3.88-2.52,14.56-19.08,20.41-22.72.57-3.26-14.97-16.38-16.88-16.36-2.96.02-36.78,36.73-40.97,42.65,8.49-1,31.42.35,37.44-3.57ZM1115.85,873.86c-1.74-19.04,10.84-13.61,21.21-23.8,2.75-12.71-10.56-.46-16.5,1.5-12.58,5.32-12.09.67-19.52,16.49l-21.04,11.93c4.85-.71,34.61-4.79,35.84-6.12ZM511.98,888c3.98-22.13.15-21.75-9.96-39.99-.31,12.97-.21,30.69,9.96,39.99ZM1097.98,851.99c-4.49,1.5-31.98,5.66-31.94,9.01,1.63,11.88,32.09,1.43,33.96-1.08.24-.33-2.94-5.59-2.02-7.93ZM834,899.98c-22.01-21.16-54.86-41.57-85.99-41.96-.37,3.39,4.51,2.19,6.58,3.88,13.84,11.28,25.75,12.35,41.45,21.06,12.57,6.98,23.81,22.1,37.96,17.02ZM2021.4,1204.62c286.33,230.2,497.99-323.7,140.59-346.61-.35.34,1.89,9.42,2.27,9.73,162.66,13.97,239.62,201.05,125.76,320.26,0,0,7.97-3.01,7.97-3.01-151.72,145.19-401.32-4.07-318.96-204.97,5.21-14.51,23.3-33.34,15-48.01-62.52,80.52-56.84,209.24,27.37,272.6ZM426,1026v31c0,13.78,22.3,18.77,23.97,28.04,2.3,12.79-17.39-2.63-21.95-7.04,3.25,23.71,4.03,31.59,24.62,44.36,4.73,2.93,11.86,1.64,13.32,8.68.91,4.37-2.03,2.92-5,3.04-10.13.4-15.52-4.11-22.94-10.07-.72.91,6.25,20.84,7,22.13,9.88,2.69,6.52.93,5.1,9.61.97,1.41,15.41,7.3,18.52,8.66,4.67,2.05,9.99,0,11.32,6.63-1.3,9.02-18.05-1.89-23.94-.06,9.14,13.05,13.8,28.92,31.45,32.55,6.2,1.27,17.61-1.79,20.51,5.5-.94,8.14-15.99,3.21-21.98,6.99,21.75,38.05,52.92,10.3,51.97,33.97l-2-6-19,6.03c15.33,10.34,18.98,22.74,40.09,20.04,6.2-.79,13.38-6.76,18.99-3.11,9.28,6.03-16.05,11.42-16.02,14.06,14.25,10.69,20.26,14.14,38.08,10.12,7.03-1.59,16.43-11.05,15.63,2.66l-17.74,8.2c9.49,1.23,23.62,9.93,32.71,9.4,10.98-.64,19.64-12.91,30.24-15.38,8.24,6.69-8.66,14.6-12.92,19.01-.1,3.55,27.45,5.75,32.55,4.57,9.53-2.2,14.59-17.02,25.4-17.56,1.62,9.16-5.43,13.61-9.99,19.99h31c9.5,0,16.91-27.44,27.02-22.98.96,8.32-5.59,14.86-10.02,20.96,33.34-.69,32.72-8.79,49.24-29.74,10.38-4.3.71,17.1-1.24,19.74,1.06.84,22.84-7.78,25.47-9.51,14.09-8.4,5.79-31.12,20.32-34.75-4.14-13.62,11.97,5.19,4.19,18.27l-3.95-5.97-2,13.99c17.57-8.18,25.35-10.29,31.11-29.87,1.01-3.44.36-18.12,5.87-18.09,6.07.03,5.65,19.94,1,23.94,1.36,1.36,13.35-8.55,14.94-10.04,23.31-12.97,4.14-46.99,17.06-48.99,7.4,3.39,5.11,20.65,6.99,27.04,29.77-35.11,35.7-49.87-16.84-30.84-187.54,219.45-532.62-4.63-411.86-263.87,41.05-67.8,19.83-22.25,13.69-81.28-19.42,14.08-14.47,31.8-9.99,51.99-11.88,3.12-10.99-12.36-14.98-19.98-23.08,28.95-8.57,36.4-3.02,63.98-7.27,7.01-18-17.96-16.01-23.99-19.58,25.69-10.15,39.4.03,62.96-5.64,9.41-15.09-11.44-17.99-14.95.6,10.13-10.4,28.58-.53,34.99-2.22,9.58,18.8,19.18,18.45,28.02-.4,7.89-15.78-4.31-17.22-5.74-3.24-3.21-4.77-9.43-8.72-11.28ZM1980,869.98c.55-.52-6.66-8.29-7.95-9.04-5.14-2.98-3.48,1.18-4.79,2.22-4.8,3.82-10.2,7.21-13.26,12.81l26-6ZM1045.99,868.02c-10.71.56-33.85,2.82-43.98,5.96,13.51-1.11,33.31,1.97,43.98-5.96ZM1063.98,868c-2.51-2.09-9.46,1.34-5.98,5.99-15.65-2.35-31.25,7.05-47.99,4.03,2.54,24.24,40.44,5.37,55.98,4,1.22,9.29-46.19,14.38-53.97,10,5.73,33.01,42.29,8.31,61.98,3.97-3.82-3.44-8.88-27.03-10.02-27.98ZM818,905.98c-6.15-9.23-63.62-46.73-63.73-26.69-1.36,3.5.55,2.31,2.25,3.14,21.95,3.55,39.17,24.34,61.48,23.55ZM747.99,900.03c-49.25-12.89-148.87-68.61-87.02,28.01,47.86,53.71,131.12,113.42,198.26,137.74,128.64,18.69,88.88-5.29,31.76-79.76,9.5,50.8.93,47.07,48.38,71.62,1.91,1.31,5.33,2.04,4.62,5.34-57.71,16.21-125.06-10.01-169.24-48.63-40.7-28.19-98.34-61.23-118.18-106.84-1.06-2.44-3.48-24.59-2.58-25.51,30.66-2.07,59.16,11.98,87.47,19.56,1.94.52,7.04,2,6.53-1.53ZM1228.01,874.01c-3.57,3.44,15.63,13.92,17.81,15.18,3.19,1.85,2.54,4.49,6.14-.19-1.51-3.75-22.82-16.08-23.95-14.99ZM1997,1090c7.66-3.56,33.93,7.03,31-6-51.69,4.94-53.05-15.01-45.41-60.41,3.81-21.42,16.43-37.03,11.39-59.58-85.06,128.32,46.01,314.95,206.45,269.42,214.29-50.67,151.88-380.24-32.55-350.33,52.58,7.13,50.84,12.5,20.12,54.88,16.1-.32,21.34-38.91,39.05-38.1,45.98,18.88,83.86,64.54,92.97,114.11l3.96-5.98c-3.81,46.48,23.23,82.22-45.99,78,.25,1.62-.38,5.56.03,5.98,1.55,1.61,37.48-9.33,40.05,9.11-2.69,22.76-52.85,115.98-71.08,52.85-1.52-2.58.36-5.04-4.97-3.94-1.37,12.47,11.48,20.8,10,34,3.86-2.56,4.59-1.21,4.03,1.2-23.27,41.99-104.15,44.18-144.05,35.8-7.88-3.94-54.88-15.18-52.57-24.29-5.58-5.82-13.25-5-10.12-16.31,1.97-7.11,14.02-25.16,14.43-27.78-6.13-22.05-13.1,21.3-18.64,22.95-24.01,3.88-31.84-32.15-41.08-27.58,5.15-13.35-34.91-51.37-7.01-58ZM1131.75,880.23c-.39-.45-11.29-2.71-11.74-2.22-.31,3.36,0,16.35,2.17,17.79,8.9,5.93,12.85-11.73,9.57-15.57ZM1168,889.98c-.6-5.03-24.89-12.96-25.98-11.98-4.48,5.8,21.62,10.06,25.98,11.98ZM588,939.98c-19.76-22.15-43.67-40.45-65.98-59.98l-6.03,15.97c3.16-2.66,68.55,42.36,72.01,44.01ZM1332,905.98c12.16-2.55,17.48-14.52,15.98-25.97-2.47,8-9.76,20.31-15.98,25.97ZM1259.15,911.15c5.43-7.74,13.1-15.45,14.83-25.15-14.88,15.14-11.37,19.91-33.68,20.31-6.34,13.23-19.19,29.8-30.27,40.69,2.09,2.74,11.05,9.35,14,8.05,4.5-1.97,30.41-37.2,35.11-43.9ZM895.99,1031.99c-4.34-15.01-4.67-34.67-12.86-48.12-57.71-46.49-141.23-82.64-215.14-95.84l13.99,4-5.98,3.96,219.98,136.01ZM1144.17,901.82c5.74,7.37,13.53-9.92,6.81-11.8-7.14-2-8.88,9.15-6.81,11.8ZM2178.02,933.99c3.31,2.39,11.64-10.64,13.61-13.36,20.34-28.07,4.88-24.76-21.62-30.62-2.56,3.02,7.43,37.37,8.01,43.98ZM869.11,1022.91c-69.99-41.67-136.59-94.4-209.1-130.91,16.87,68.64,131.85,129.39,184.93,160.05,27.17,9.43,62.41,7.43,91.06,9.92-20.7-15.06-45.37-25.84-66.89-39.07ZM1138,939.98c-18.3-16.89-41.95-26.3-61.43-41.7-27.43,9.82-56.61,29.33-75.57-6.24-10.61,10.06,2.07,12.16,3.05,19.07,2.91,20.51-30.27,15.13-18.06-7.08-7.03,2.16-17.36-2.48-22.92-1.98-3.94.35-32.24,20.96-24.68,27.6,22.31,8.24,52.74,9.13,71.6,23.37-14.62,3.36-92.18-39.37-58.75-3.25,14.11,12.55,54.98,19.26,66.79,34.22.57-44.97,49.38,114.71,57.9,117.08,18.31,18.44,98.93,15.25,90.09,36.93,5.44-5.24,10.86-14.62,16.55-19.51,1.65-1.42,6.1,1.19,5.43-2.47-32.49,5.05-71.95-11.12-101.01-21.99-2.4.24-1.6,6.4-4.96,5.95,5.51-7.76-17.33-40.69-14.01-43.98,38.51,10.58,78.81,20.78,116.87,32.17,65.15,3.83-121.08-28.65-120.91-44.16l-3.95,3.97c-.09-7.07-3.63-27.13-8.33-31.59-.39-.37-4.45,2.96-7.66-5.44-2.16-5.64,6.11,1.74,3.94-3.92-41.04-71.78,9.48-32.95,53.96-25.97,24.9,3.11-65.23-26.18-75.93-19.09,43.09-25.33,109.79-35.38,138.35,16.66,4.66,11.2,21.54,35.05,17.92,45.02,24.35,14.08-136.98-35.86-133.74-33.22,0,0-4.53,3.53-4.53,3.53,49.78,9.86,98.06,26.73,147.12,39.9,0,0,10.87,25.13,10.87,25.13-2.64,4.34-143.05-39.88-145.99-38.99,20.42,22.91,153.21,27.53,150.1,56.84-1.55,8.43.46,17.17-10.12,17.16-.66.94,6.67,15.02-9.97,16.01,15.19,13.48,28.81-30.54,24.01-42.01l3.96,11.98c-1.53-5.4,4.07-17.37-3.46-18.35-.47-1.03-.05-16.88-6.18-20.99l-49.42-86.59c-42.89-25.56-90.54-19.22-134.92-2.07,30.4-24.21,79.02-26.24,117.99-12.02ZM2009.99,907.99c.86-4.18-3.86-21.25-9.98-15.98-.61.53,3.66,12.59,2.01,16l7.98-.02ZM869.99,911.99c3.34-18.19-36.35-21.48-11.85-11.14,3.46,2.66,7.28,15.57,11.85,11.14ZM938,910.02l-67.99-12.01c-.7.66,4.4,11.59,5.41,12.02,13.22.91,55.04,20.75,62.58,0ZM507.98,1116.02c-21.5-66.8-12.36-143.06,33.98-197.02,0,0-28.98-18.98-28.98-18.98-43.76,58.43-60.46,137.41-42.38,208.39,42.72,178.11,288.36,247.81,415.4,98.58-9.71-5.26-9.86,7.59-16.02,11.99-16.95,12.08-25.08,1.77-28.95-14.95-108.7,95.23-283.71,49.02-331.05-86l-3.95,5.97-2.01-10.01,3.97,2.04ZM2051.97,904.01c-1.38-1.27-7.81,4.98-9.92,4.98,5.48,14.53,17.44,1.9,9.92-4.98ZM2027.99,915.96c1.82-2.65-7.4-11.81-9.97-9.95l-4,19.99c1.78-3.21,13.48-9.33,13.97-10.04ZM1107,912c11.4,2.91,34.19-2.15,47,0-4.11-.48-60.65-9.79-47,0ZM1780.04,908.01c-7.23,14.09.82,16.19,9.93,4.99l-9.93-4.99ZM2007.99,910h-5.98c-3.88,97.26,5.98,96.16,5.98,0ZM2271.3,936.7c-31.26-26.99-53.49-42.04-69.21,5.2,55.23,20.12,88.13,80.37,77.93,138.08,81.03,4.12,21.79-113.92-8.71-143.29ZM828,912.02l-19.99,2.97c12.63,17.16,30.61,28.48,49.99,36.99-3.65-7.44-1.49-15.98-2.02-23.97-9.81,17.45-38.37,4.21-27.98-15.99ZM1176,912.02c3.48,3.78,4.82,25.84,9,25.94,6.02.15-1.09-27.03-9-25.94ZM931.99,933.99c-.04-13.67-38.03-14.03-49.33-17.7-10.6-1.52-19.51-4.32-16.64,9.71,13.58-7.14,27.8,1.21,41.13,3.85,7.8,1.54,16.23-.39,24.84,4.14ZM1814,1098.02c5.1.6,40.4,63.23,40.03,31.01,8.72-74.32-34.6-140.2-55.02-209.05-4.97-12.83-11.05-1.62-10.7,6.48,6.12,37.07,79.75,157.84,25.69,171.56ZM1168,916c-1.97-1.69-45.04,1.28-52,0,15.68,11.58,35.05,26.67,56,21.99-.23-3.06-3.16-21.26-4-21.99ZM2012.02,954c6.25-4.39,10.23-12.09,15.19-17.79,5.72-6.58,18.36-9.13,5.79-20.17-12.62,11.62-21.99,19.11-20.98,37.96ZM2061.98,922c-14.8.03-2.81,30.84-1.61,38.63,2.21,5.01,14.88,5.22,19.61,9.37l-18-48ZM557.95,928.09c-.24-.32-6.57-3.74-6.97-3.74-3.47-.06-20.8,30.86-23.32,36.31-27.65,52.45-30.75,182,32.33,204.36-40.88-49.69-52.32-117.58-31.93-178.23.31-2.82-7.45-4.62-4.04-8.77,3.7-4.5,3.47,5.15,5.96,3.98-2.17-10.05,29.78-51.45,27.97-53.9ZM1783.97,924c-8.97,8.22,19.02,56.31,20.61,72.02,6.24,23.8,30.71,76.15,3.39,89.14.02,2.2,1.28,9.14,4.87,8.77,48.62-12.32-24.8-134.99-28.87-169.94ZM909.77,938.2c-1.74-2.04-30.91-10.23-33.77-8.18l16.98,27.91c4.46-2.44,22.37-13.17,16.79-19.73ZM569.71,936.32c-10.93-9.93-14.82,9.06-15.73,17.67-3.36,1.05-.65-7.58-4.91-1.92-128.76,213.68,213.1,396.33,320.88,172.92-1.33.37-8.65-6.19-9.92-4.98s-9.35,18.79-8.05,22.01c-7.16-6.68-15.72,21.12-25.25,25.64-29.24,18.13-25.81-19.86-40.61-33.16-.56-3.25-5.35-23.48-6.27-24.34-.48-.44-10.35-.48-12.83-2.18-1.51,4.7,9.99,9.38,10.59,10.33-2.87,4.64,4.93,19.23,6.19,22.51,1.64,2.29,5.75.76,6.2,1.2-8.01,14.03,18.99,32.54,6.94,47.95-58.59,36.4-135.49,31.95-188.52-9.84-4.59-3.28-12.91-1.67-11.6-14.14,1.25-6.93,35.63-55.72,33.17-57.97-1.19-1.09-6.93.51-8.07,2.91-36.37,91.12-72.24,14.72-79.9-40.92,18.92-6.89,46.33.24,69.3,3.86,16.69-6.31,25.03,12.12,24.7,26.13,6.49-5.34,6.2-12.83,15.97-14.99-7.84-8.6-9.8-21.88-12.01-33-17.75,38.25-71.63-5.99-95.96,13.99-3.63-3.95,3.59-5.76,3.97-7.98-23.08,3.5-2.85-60.34.49-72.54,2.79-8.11,23.3-45.78,21.23-49.16ZM881.98,966l-14.97-31.99c-10.04,16.05,2.26,24.75,14.97,31.99ZM1809.99,1061.99c-1.57-26.43-28.44-96.36-35.97-123.98l7.94,110.59c.58,2.53,26.58,15.03,28.03,13.39ZM1184.01,955.99c5.12,1.36,18.01-17.82-2-13.98,0,0,2,13.98,2,13.98ZM2014.02,984.02c6.66-4.9,13.07,3.5,17.78-3.21,9.85-16.46-7.33-16.86,2.19-38.8-13.31,10.73-27.7,23.19-19.97,42.02ZM2261.64,1111.72c2.55-4.66,5.57-5.28,2.38-13.71,4.03-.43.08,4.92,3.96,3.97l4.05-16.96c-12.5,5.63-14.05-14.19-1.97-8.06,1.8,1.1,1.67,7.58,3.96,4.03.49-4.04.77-33.43-.03-34.99-.17-.34-7.12,3.2-5.97-2.97.7-3.77,6.11,0,6.02-2.06-3.16-20.49-11.77-37.45-22.06-54.96-4.38.32.16,8.01-5.17,9.83-12.14,4.14-10.66-12.86,1.18-12.83-16.38-18.7-41.55-37.97-67.1-40.94-5.19-.6-2.4,13.04-4.92,16.9l6.02-.99c.25,3.46,2.83,7.31,2.16,10.79-.44,2.28-5.02-.11-4.14,3.21l17.97,6.02c-2.48-13.85,12.9-12.58,10.1-1.17-.37,1.52-5.72.42-4.07,4.15.63,1.43,12.4,9.25,15.16,11.92,18.05,16.38,28.74,42.18,28.7,65.88.46,1.76,9.29,2.19,10.12,6.26-1.98,10.95-11.02-4.94-13.96,20.03-.69,5.73,2.13,1.03,5.18,1.02,10.86-.04,7,12.39-1.82,9.97-2.57-.71-2.1-5.82-5.36-6.04,1.06,6.78-13.37,22.73-13.82,25.28,4.25,8.27,8.56,18.64-7.58,11.1-11.17-.21-.65,19.37-7.64,21.6-7.24,2.31-6.38-6.16-7.97-9.97-5.49,11.17-49.22,14-51.03,16.02-.36.4,5.17,6.3-2.94,8.02-9.34,1.98-3.14-8.14-5.06-10.04-.64-.64-15.03-1.15-17.98-1.99,11.89,16.31-20.01,15.66-2-2l-17.98-6.03c1.85,11.61-14.57,9.95-12,1.02,1.34-4.65,9.87-.84,9.97-4.99-6.76-1.63-19.22-8.98-20.02-16.03-9.83,9.85-20.41-1.67-5.97-4.99-5.45-4.92-9.32-12.3-12.63-18.47,4.86,5.51-3.91,13.02-8.61,7.36-4.86-5.51,3.91-13.02,8.61-7.36-3.2-5.3-2.28-28.42-8.54-14.46-9.49,1.95-15.54-16-14.83-24.09-19.55,1.23-6.97,25.79-5.97,38,3.82.27,1.26-6.82,4.99-7.97,8.27-2.54,12.37,14.65-3.01,10,11.3,29.71,36.32,61.68,67.99,69.99-18.93-10.7,10.55-23.7,2.03-2.96,15.85.92,4.7,4.52-2.03,2.96,27.53,11.06,42.86,12.45,72,6-10.83,2.74-8.44-5.87-10.39-7.6-12,.5-13.34-10.91-2.63-10.38,2.87.93,2.32,6.7,3.41,7.59,2.87,2.34,12.14-2.16,9.61,10.4,19.63-4.34,38.37-10.07,52-25.98-21.55-1.28.03-24.07,2.02-2.02,14.01-6.86,21.9-22.29,27.62-36.28-4.5,5.95-13.74-1.25-9.07-7.06,4.5-5.95,13.74,1.25,9.07,7.06ZM619.85,970.21c-51.61-33.6-41.14-36.31-67.28,25.36-22.69,71.91,13.68,58.68,65.45,62.44-.47-14.85-.62-31.18,3.98-44.92-13.64-22.34-10.78-19.89-2.15-42.88ZM888.01,968.04c3.32,24.73,39.92-8.77,50.71-12.31,6.51-4.62.28-5.81-.75-11.71-3.49-.81-1.25,3.06-2.13,3.77-17.64-6.53-32.08,15.53-47.84,20.25ZM956,965.97c-4.53-24.42-43.59,13.77-55.96,19.02,0,0,11.95,15,11.95,15-4.25-11.32,33.14-29.39,44.02-34.02ZM1133.99,955.99h-5.98c1.02,7.59-2.9,17.96,3.02,23.99,6.68,1.21,1.45-19.13,2.96-23.99ZM1206.01,971.91c7.81,4.18,32.31,15.84,22-4.93-1.05-.87-22.16-9.96-25.05-10.95-4.63-1.6-2.2,1.54-1.49,3.49,3.36,9.3,6.09,3.75,6.52,4.47.91,1.53-2.85,6.77-1.98,7.92ZM1191.99,960.01c-12.95,2.58-2.6,21.3-1.97,30.01l3.97-2.03c-4.78,8.7,2.01,8.1,2.07,9.14-4.44,5.48,3.56,20.67,6.93,24.85,5.44-1.24,6.37-7.23,7.01-11.97l-5.97,7.98c-3.69-19.02-11.19-37.98-12.03-57.98ZM1151.99,984.01c1.54-1.49-1.1-18.81-5.97-20v20s5.97,0,5.97,0ZM1177.99,963.98l-9.96,2.99,11.95,19.03c.54-3.36-.69-20.88-1.99-22.01ZM1009.67,982.32l-37.67-16.3c23.68,26.11,33.51,68.01,23.98,101.96,27.26-.43-47.51,17.88-43.97,25.05-1.65,7.82,22.82,4.54,25.97,10,2.26,6.77-17.63-2.14-21.98-1.01,12.93,60.29,44.8,49.68,95.02,42,36.5,1.41,72.58-7.34,108.97-8.03-50.21-28.09-93.31-2.02-106.01-75.98-3.51-.53-1.99,4.55-1.54,6.52,15.97,28.48-27.98,18.62-41.6,11.56,0,0-1.17-95.77-1.17-95.77ZM960.02,1046c11.91-16.18,17.34-12.33,15.72-34.75-.54-7.51-5.57-41.39-14.68-41.34-1.38,0-20.03,11.45-20.64,12.49-4.88,8.28,18.54,51.92,19.6,63.59ZM1049.51,972.5c-2.33-2.69-9.98-2.54-13.51-2.48,3.56,13.69,5.37,16.26,20,17.96-3.31-3.19-4.72-13.44-6.48-15.48ZM1803.99,1083.99c-160.66,51.82-416.89-57.3-569.97-113.99-14.57,21.11,159.71,69.99,184.94,84.04,102.82,29.65,229.12,59.92,337.14,59.07,17.01-3.44,32.71-12.28,49.91-15.12l-2.02-14ZM2071.98,972.03l-10.02.98,11.02,32.99c14.32-16.98,23.61-28.44-6.98-30.02l5.97-3.95ZM1773.99,1059.96c-55.14-35.35-154.94-46.56-221.55-67.4-69.02-25.67-139.24-20.39-208.42,1.46,96.95,29.19,342.5,105.48,429.98,65.94ZM2196,1136c14.09-7.12,33.16-21.79,35.01-37.99-1.7,5.48-17.49,12.61-19.01,4.93-.97-4.92,11.14-22.7,18.84-20.81,5.61,1.37.65,11.27,5.13,11.85,5.7-15.33,7.36-30.35,5.76-46.73-4.89-34.22-35.65-70.06-71.73-71.23l15.05,5.92c4.92,3.97,8.14,15.83.08,16.01s-20.1-13.83-23.15.02c10.44,1.18,19.77,5.43,28.99,10.04-4.57-35.13,40.13-5.24,7.03,4.97,27.88,20.45,14.27,89.3,30.12,38.14-9.19-2.23-7.81-21.01-8.42-24.95-11.67,1.04-10.85-16.51-7.69-24.18,11.43.76,13.02,12.57,11.99,22.01,12.88-5.34,10.11,13.7,8.01,22,12.4-6.31,11.11,39.25-10.01,34,0,0-1.98-8-1.98-8,.41,10.84-5.46,8.55-7.47,10.4-1.81,1.67-4.07,16.36-10.54,18.59,27.04,10.01-3.49,36.92-9,9-25.74,19.32-59.39,18.04-82.99-4.01-3.77,30.39-40.05-2.84-6.03-6.99-15.17-16.05-16.01-38.3-12-59-7.11-3.39-6.83,23.2-7.71,27.08.24,5.94,7.19,13.29,7.49,17.81-.7,12.63-7.16,30.46-15.79,9.11-2.42-.57-2.44.94-1.98,2.95,18.55,44.96,80.47,65.68,122,39.03-1.02.9-23.65,5.89-25.98-.01,2.47,9.76-14.18,8.99-20.91,7.89-10.36-2.42-9.82-11.14-16.62-4.34-43.96-2-23.61-47.1,1.54-5.55,4.06.7.24-5.61,3.07-6.12,10.39-1.89,20.67,2.06,29.88,6.16-.02-15.46,39.13-18.48,29.03,1.97ZM963.99,1071.99c-10.07-29.23-26.95-56.93-30.98-87.98-7.51,2.91-9.58,14.3-17.02,12.01-.53.45,3.28,12.76,3.57,13.39,4.26,9.19,16.66,18.48,20.62,28.46,9.66-5.13,4.95,2.93,6.8,8.13,3.61,7.67,7.19,26.33,17,26ZM2070,1009.98l-8.99-25.97c-7.76,8.11-.87,22.85,8.99,25.97ZM1248.01,1105.99c4.94,4.56,16.54-24.33,17.4-27.58,4.13-15.6,2.06-22.65-3.7-37.12-3.45-8.43-36.4-78.74-42.84-47.17,24.66,50.01,34.56,50.7,29.14,111.88ZM642,1007.98c1.8,1.42,17.97-6.18,17.96-8.98l-12.97-10.99c.81,8.29.5,13.14-4.99,19.97ZM1509,1138h-213c97.49,38.36,206.8,6.98,308.98,24.03,51.58,5.13,105.19,19.35,157.04,9,5.57-4.24,115.58-24.47,73.05-34.96-5.64-6.96-12.47-30.1-25.05-28.08-.76-1.47,2.72-5.39,1.98-5.97-3.21-2.53-67.63,22.94-78.91,20.05-171.1-20.08-337.61-64.3-495.08-129.08,25.29,40.2,51.31,66.87,17.99,112.99,0,0,187.99-13.97,187.99-13.97-7.73,13.48-176.59,15.5-195.99,20.01,17.64,45.21,212.02,8.84,267.99,22.02.75,2.11-6.18,3.88-6.99,3.97ZM1990.02,1022c14.56-6.98,10.87-10.18,7.96-23.99l-7.96,23.99ZM1065.99,1017.99c1.62-1.54-7.74-19.14-11.97-15.98-4.37,11.61.11,15.84,11.97,15.98ZM1804,1073.98c1.57-2.05-20.78-11.88-23.18-12.01-87.88,44.38-335.63-31.89-434.8-59.96,88.04,51.57,237.1,68.97,341.31,85.66,42.7,8.44,77.27,3,116.66-13.7ZM2018,1010.01l7,9.95c9.98-8.76,4.29-13.85-7-9.95ZM674,1030.02c-10.09-.82-14.14-11.08-14.02-20.02-6.14,4.12-12.94,1.97-7.98,9.98h-6.01s2.03-3.97,2.03-3.97h-8.01c18.72,17.43,18.02,37.2,27.01,57.97-2.2-15.02-5.82-31.66,6.99-43.97ZM2107.99,1025.99c.63-.59-2.95-15.62-5.97-15.98l-6.02,13.97,11.99,2ZM2040.56,1018.59c-16.9,14.5,4.81,39.13,22.48,23.45,15.04-13.34-7.22-36.54-22.48-23.45ZM624.01,1057.99c11.8-1.02,17.3-18.16,17.08-27.87-.11-4.78-9.12-9.96-12.1-14.11-4.55,13.59-5.91,27.64-4.98,41.98ZM2092.01,1022.01c-5.12.8-8.09-1.34-11.99-4.01l-6,27.99c5.6-2.82,7.45-14.55,11.01-18.02,3.06-2.99,8.35.15,6.98-5.96ZM504,1022c-4.58-3.73-.86,45.81-2,46,4.58,3.73.86-45.81,2-46ZM1224,1024.02c-22.39-3.43-6.35,33.6,1.98,39.98-3.87-13.71-13.98-27.63-1.98-39.98ZM2030,1045.98c-3.39-3.76-2.97-10.63-5.08-13.89-9.32-14.37-20.97,14.03,5.08,13.89ZM1073.5,1034.49c-1.22-1-10.66-3.11-11.5-2.47,2.07,4.4,4.29,14.04,9.03,15.96s5.49-11,2.47-13.49ZM1227.99,1031.99c-12.75-1.65,6.12,39.28,12,36,2.68-2.96-14.67-29.21-12-36ZM2183.98,1050c2.73-3.1-13.38-20.73-15.97-17.99-2.19,5.59,14.66,19.47,15.97,17.99ZM737.99,1102.02c-19.61-4.19-33.19,3.18-53.06-3.95-31.21-11.19-25.83-29.41-35.43-54.56-6.89-21.38-6.18,6.09-5.02,15.01,1.24,7.98,11.64,24.77,11.55,28.45-.04,1.95-7.86.55-8.03,5.01,24.03-7.6,37.53,36.96,89.99,10.04ZM683.99,1034.01c-19.37,2.64-17.08,30.64-6.84,41.84,16.96,23.34,70.29-.62,47.84-21.84-11.05,43.7-65.22,14.04-41-20ZM2012.01,1050.02c-6.26,2.03-19.79-12.89-23.99-14.01-8.52,34.1,3.85,46.32,37.99,41.99v-5.99c-22.1,4.13-12.85-20.8-14-21.99ZM2201.81,1093.85c9.87-15.17,14.25-40.35,6.16-57.84-7.43,2.81-.66,9.75-.14,15.16,2.78,79.59-97.83,79.74-111.81,12.84.29,50.78,80.57,75.52,102.04,27.99.19-.21,3.37,2.17,3.76,1.86ZM984,1040.02c-6.24-1.71-1.28,5.62-13.99,6,11.56,18.19,8.65,8.72,13.99-6ZM697.29,1048.27c-6.82,2.1-2.32,11.1,3.71,11.01,9.99-.16,9.58-15.1-3.71-11.01ZM1085.52,1066.47c-.84-.59-9.98-3.05-11.51-1.48,6.74,32.12,47.9,37.85,75.98,42.99-28.88-11.6-52.08-9.12-64.47-41.51ZM2182.03,1068.02c-.03,8.9-29.62,22.03-35.08,21.94-10.01-.16-9.74-21.4-21.91-22.01-7.37-.37,1.27,10.61,3.97,12.05,1.68.89-.38-7.48,4.04-2-4.87,11.37,12.78,14.54,21.98,14.14,9.78,1.24,35.53-14.86,27-24.12ZM750,1070.02c-9.81-.15-12.76,8.59-17.92,13.06-3.87,3.36-9.56,5-12.06,8.9l33.98,6.01c-6.06-8.06-8.39-18.42-4-27.96ZM945.98,1092c-3.78-14.04,19.9-13.16,7.02-21.93-4.32,5.38-10.13,7.73-16.99,7.95l9.97,13.99ZM1214.01,1099.99c15.16-2.87,22.19-19.63,8.98-29.98l-8.98,29.98ZM581.31,1142.69c10.24,26.84,31.69-39.08,41.22-45.34,10.42-25.62-62.33-21.88-70.53-23.37-.91,26.15,10.15,51.53,29.32,68.71ZM2080.02,1076c-2.09,3.39-1.7,19.77,2.98,19.96s1.98-18.87-2.98-19.96ZM945.3,1098.7c-6.23-6.42-18.83-20.14-27.3-14.68-.45.6,2.31,4.95,3.49,6.04,4.55,2.88,44.5,33,23.81,8.63ZM839.99,1110.02c-16.93,1.65-31.53-17.75-43.02-22-4.08-1.51-5.7,15.42-10.96,16.99,14.95.56,42.15,11.88,53.98,5.01ZM2031.47,1098.53c-73.88-23.56-13.56,60.33,5.55,70.99,3.33-.26,15.98-20.89,16.99-24.56.29-1.05-3.81-.63-4.12-2.25-2.89-14.98-13.21-31.1-18.43-44.18ZM2309.78,1098.21c-52.85-10.48-30.27,20.77-61.31,46.77,7.52,7.85,9.5,30.83,22.64,23.12,9.99-5.86,45.97-61.29,38.67-69.89ZM760,1108.02c-18.11-10.47-32.46,7.75-50.99,7.96-24.91,2-41.21-23.63-65-15.97,26.42,28.84,83.23,42.74,115.99,8ZM940.02,1113.99c.57-6.26-3.99-9.91-10.01-9.98,4.19,6.36,1.39,21.84,3.98,24.93,25.1,17.39,49.59,37.47,79.18,46.89,34.14-3.25,72.43,5.52,105.8,2.15,30.71-10.98,62.92-14.08,95.01-20-20.74-21.64-52.45-2-75.26-.59-15.66-6.51-28.74,2.16-45.68,4.71-20.78.95-53.22-4.01-74.01-6.18-20.01,3.94-57.95.23-59.06-25.94l-3.97,2.03c6.05-7.6-11.74-28.3-15.99-18.03ZM1237.68,1108.33c-3.43-2.09-27.01,4.55-29.71,6.64-1.54,1.19-4.58,12.22-3.95,13.03l35.99-12.01c.57-.66-1.56-7.19-2.33-7.66ZM655.7,1149.71c-4.5-76.31-32.09-21.64-47.3,13.82,13.96,51.19,166.44,63.27,182.5,10.2-.28-3.11-10.42-24.96-11.8-25.22-.54-.1-10.51,1.45-10.91,1.83-2.01,1.96,3.5,6.41-11.5,7.48-24.96,1.15-48.49,6.21-73.48,6.05-2.85.76,1.53,9.33-12.13,10.26-14.17.97-11.82-5.51-14.48-6.18-5.31-1.34-16.36,2.99-19.72-3.98-4.88-10.12,16.79-11.04,18.81-14.26ZM849.99,1120.02l-49.03-4.23c-3.98.49-5.41,7.72-10.94,7.19,2.53,1.44,3.22,8.07,4.23,8.79,9.42-.87,44.6-6.29,55.75-11.75ZM771.99,1133.99c1.19-1.12-4.44-16.37-8.68-15.8-19.62,15.49-41.92,18.56-66.39,17.91-5.85-.16-11.78-4.89-14.5,1.32-4.8,10.94-2.33,17,10.09,12.44,14.16-5.21,23.3-4.08,38.38-7.02,15.11-8.3,24.83-10.35,41.11-8.85ZM1195.99,1120.01c-5.24,3.01-18.3,9.41-19.97,15.99,8.4-2.75,20.37-4.59,19.97-15.99ZM884,1128.02c-2.61.7-8.44-2.78-9.73-1.86-49.89,112.14-211.9,144.58-299.27,55.83-6.58-7.06-9.77-19.47-20.97-8.99,76.35,96.97,242.86,92.63,309.99-11.98,1.35-5.67-7.49,2.2-3.06-5.04s7.67.98,9.01.02l14.02-27.97ZM2172.02,1131.97c12.36,8.15,28.51-8.29,11.89-5.1-2.32.44-11.11,2.57-11.89,5.1ZM927.99,1142.01c-56.3-5.98-17.78-25.52-61.98,37.98,1.72,1.49,41.19-5.95,44.78-8.2,5.96-5.37,15.02-23.22,17.2-29.78ZM1204.5,1139.37c-.92-1.43-.54-3.68-.52-5.38l-15.97,5.99c12.35-3.41,39.91,23.56,43.95,15.02-.33-3.23-24.78-11.46-27.46-15.64ZM844,1136.02l-43.98,8.96c13.96,40.06,29.09,10.95,43.98-8.96ZM1292,1144.02c-9.56,1.63-16.86-5.37-26-6,6.58,10.26-3.24,18.39-9.99,23.96,12.11-2.86,26.65-9.91,35.99-17.96ZM937.99,1139.99c-10.26,1.73-12.12,22.36-19.99,29.99l26-4c-5.25-7.49-3.44-8.39,3-13.94,6.47,9.21,3.8,12.91,16.98,7.94.69-3.65-3.79-1.05-5.42-2.46-4.96-4.3-7.5-9.62-15.24-13.84-6.41-3.5-1.54,2.65-4.33,2.36-2.32-.25-.2-5.09-1.01-6.04ZM2084.39,1169.45c-1.36-1.06-12.59-16.31-16.36-13.44-59.98,81.45,226.34,85.29,167.94,1.99-46.37,37.11-100.2,33.49-151.58,11.45ZM1474,1170h146c-31.67-1.55-125.75-22.33-146,0ZM973.99,1166.01l-116.84,23.76-1.15,14.24c-2.41-1.88,149.03-21.28,111.99-28.03l6-9.97Z"/>
    <path class="st0" d="M1358.68,945.36c.32,21.76-33.87,21.76-33.55,0-.32-21.76,33.87-21.76,33.55,0ZM1348.86,945.04c.14-9.29-14.45-9.29-14.31,0-.14,9.29,14.45,9.29,14.31,0Z"/>
    <path class="st0" d="M1425.99,638.03c-112.76-11.94-234.9-64.1-344-103.1,84.05,21.89,233.69,81.45,344,103.1Z"/>
    <path class="st0" d="M1709.58,862.43c22.99-3.85,36.55,37.91,43.55,53.45,1.99,9.98,2.32,50.09-2.22,58.02-14.68,14.37-101.14-48.88-121.51-58.28-54.47-29.51,65.6-46.07,80.19-53.18ZM1744,968c2.18-32.07-.24-73.67-29.1-94.06,0,0-88.86,27.06-88.86,27.06,20.98,16.65,91.04,58.14,117.96,67ZM1740.01,973.98c16.68,2.95,8.75-51.41,7.97-61.97-3.58-.45-1.95,4.49-1.74,6.74-.75,16.93,5.75,42.92-6.23,55.23Z"/>
    <path class="st0" d="M920,1118.02c5.99,13.17-68.46-18.1-74.05-21.04-23.7-15.12,76.43,23.15,74.05,21.04Z"/>
    <path class="st0" d="M999.52,1094.49c9.29,9.34-4.14,29.11-14.62,17.61-10.3-11.29,5.66-26.62,14.62-17.61Z"/>
    <path class="st0" d="M846.96,1024.34c.22,15.26-23.74,15.26-23.52,0-.22-15.26,23.74-15.26,23.52,0Z"/>
    <path class="st0" d="M1335.99,879.99c-5.26-.57-42.01-6.58-45.99-13.97,9.15,2.86,46.58,3.29,45.99,13.97Z"/>
    <path class="st0" d="M585.97,870.02l-2.96,3.98-3.01-4.98c7.19-4.57,11.38-19.66,23.15-11.15,16.08,11.61-10.92,32.59-17.18,12.16Z"/>
    <rect class="st0" x="568" y="532" width="28" height="4"/>
  </g>
</svg>